<COLLADA xmlns="http://www.collada.org/2005/11/COLLADASchema" version="1.4.1">
  <asset>
    <contributor/>
    <created>2026-10-08T20:06:40.681286</created>
    <modified>2026-10-08T20:06:40.681286</modified>
    <unit name="meter" meter="1.0"/>
    <up_axis>Z_UP</up_axis>
  </asset>
  <library_effects>
    <effect id="effect_Body011" name="effect_Body011">
      <profile_COMMON>
        <technique sid="common">
          <phong>
            <emission>
              <color>0.0 0.0 0.0 1.0</color>
            </emission>
            <ambient>
              <color>0.0 0.0 0.0 1.0</color>
            </ambient>
            <diffuse>
              <color>0.4470588266849518 0.4745098054409027 0.501960813999176 1.0</color>
            </diffuse>
            <specular>
              <color>1 1 1 1.0</color>
            </specular>
            <shininess>
              <float>0.0</float>
            </shininess>
            <reflective>
              <color>0.0 0.0 0.0 1.0</color>
            </reflective>
            <reflectivity>
              <float>0.0</float>
            </reflectivity>
            <transparent>
              <color>0.0 0.0 0.0 1.0</color>
            </transparent>
            <transparency>
              <float>1.0</float>
            </transparency>
          </phong>
        </technique>
        <extra>
          <technique profile="GOOGLEEARTH">
            <double_sided>0</double_sided>
          </technique>
        </extra>
      </profile_COMMON>
    </effect>
  </library_effects>
  <library_geometries>
    <geometry id="geometry0" name="J3_Bearing_Cup">
      <mesh>
        <source id="cubeverts-array0">
          <float_array count="2268" id="cubeverts-array0-array">0.03 0 0 0.02996271 0.001495377 0 0.03 0 0.02 0.02996271 0.001495377 0.02 0.02985092 0.002987036 0.02 0.02985092 0.002987036 0 0.02966492 0.004471268 0.02 0.02966492 0.004471268 0 0.02940517 0.005944384 0 0.02940517 0.005944384 0.02 0.02907232 0.007402722 0.02 0.02907232 0.007402722 0 0.02866718 0.008842655 0 0.02866718 0.008842655 0.02 0.02819078 0.0102606 0 0.02819078 0.0102606 0.02 0.02764429 0.01165304 0.02 0.02764429 0.01165304 0 0.02702907 0.01301651 0 0.02702907 0.01301651 0.02 0.02634665 0.01434762 0 0.02634665 0.01434762 0.02 0.02559873 0.01564306 0 0.02559873 0.01564306 0.02 0.02478716 0.0168996 0.02 0.02478716 0.0168996 0 0.02391397 0.01811413 0 0.02391397 0.01811413 0.02 0.02298133 0.01928363 0 0.02298133 0.01928363 0.02 0.02199156 0.02040518 0 0.02199156 0.02040518 0.02 0.02094711 0.02147601 0.02 0.02094711 0.02147601 0 0.01985057 0.02249344 0 0.01985057 0.02249344 0.02 0.01870469 0.02345494 0 0.01870469 0.02345494 0.02 0.01751231 0.02435814 0.02 0.01751231 0.02435814 0 0.01627639 0.02520078 0 0.01627639 0.02520078 0.02 0.015 0.02598076 0 0.015 0.02598076 0.02 0.01368632 0.02669615 0 0.01368632 0.02669615 0.02 0.01233861 0.02734517 0 0.01233861 0.02734517 0.02 0.01096023 0.02792621 0 0.01096023 0.02792621 0.02 0.0095546 0.02843782 0 0.0095546 0.02843782 0.02 0.008125214 0.02887873 0 0.008125214 0.02887873 0.02 0.006675628 0.02924784 0 0.006675628 0.02924784 0.02 0.005209445 0.02954423 0 0.005209445 0.02954423 0.02 0.003730311 0.02976718 0.02 0.003730311 0.02976718 0 0.002241903 0.02991611 0 0.002241903 0.02991611 0.02 0.0007479208 0.02999067 0 0.0007479208 0.02999067 0.02 -0.0007479208 0.02999067 0 -0.0007479208 0.02999067 0.02 -0.002241903 0.02991611 0 -0.002241903 0.02991611 0.02 -0.003730311 0.02976718 0 -0.003730311 0.02976718 0.02 -0.005209445 0.02954423 0 -0.005209445 0.02954423 0.02 -0.006675628 0.02924784 0 -0.006675628 0.02924784 0.02 -0.008125214 0.02887873 0 -0.008125214 0.02887873 0.02 -0.0095546 0.02843782 0.02 -0.0095546 0.02843782 0 -0.01096023 0.02792621 0.02 -0.01096023 0.02792621 0 -0.01233861 0.02734517 0 -0.01233861 0.02734517 0.02 -0.01368632 0.02669615 0 -0.01368632 0.02669615 0.02 -0.015 0.02598076 0 -0.015 0.02598076 0.02 -0.01627639 0.02520078 0 -0.01627639 0.02520078 0.02 -0.01751231 0.02435814 0 -0.01751231 0.02435814 0.02 -0.01870469 0.02345494 0 -0.01870469 0.02345494 0.02 -0.01985057 0.02249344 0 -0.01985057 0.02249344 0.02 -0.02094711 0.02147601 0.02 -0.02094711 0.02147601 0 -0.02199156 0.02040518 0 -0.02199156 0.02040518 0.02 -0.02298133 0.01928363 0 -0.02298133 0.01928363 0.02 -0.02391397 0.01811413 0 -0.02391397 0.01811413 0.02 -0.02478716 0.0168996 0.02 -0.02478716 0.0168996 0 -0.02559873 0.01564306 0 -0.02559873 0.01564306 0.02 -0.02634665 0.01434762 0.02 -0.02634665 0.01434762 0 -0.02702907 0.01301651 0 -0.02702907 0.01301651 0.02 -0.02764429 0.01165304 0.02 -0.02764429 0.01165304 0 -0.02819078 0.0102606 0 -0.02819078 0.0102606 0.02 -0.02866718 0.008842655 0 -0.02866718 0.008842655 0.02 -0.02907232 0.007402722 0.02 -0.02907232 0.007402722 0 -0.02940517 0.005944384 0 -0.02940517 0.005944384 0.02 -0.02966492 0.004471268 0 -0.02966492 0.004471268 0.02 -0.02985092 0.002987036 0 -0.02985092 0.002987036 0.02 -0.02996271 0.001495377 0 -0.02996271 0.001495377 0.02 -0.03 -1.029075e-16 0.02 -0.03 -1.029075e-16 0 -0.02996271 -0.001495377 0.02 -0.02996271 -0.001495377 0 -0.02985092 -0.002987036 0 -0.02985092 -0.002987036 0.02 -0.02966492 -0.004471268 0.02 -0.02966492 -0.004471268 0 -0.02940517 -0.005944384 0.02 -0.02940517 -0.005944384 0 -0.02907232 -0.007402722 0.02 -0.02907232 -0.007402722 0 -0.02866718 -0.008842655 0 -0.02866718 -0.008842655 0.02 -0.02819078 -0.0102606 0.02 -0.02819078 -0.0102606 0 -0.02764429 -0.01165304 0.02 -0.02764429 -0.01165304 0 -0.02702907 -0.01301651 0 -0.02702907 -0.01301651 0.02 -0.02634665 -0.01434762 0.02 -0.02634665 -0.01434762 0 -0.02559873 -0.01564306 0 -0.02559873 -0.01564306 0.02 -0.02478716 -0.0168996 0 -0.02478716 -0.0168996 0.02 -0.02391397 -0.01811413 0 -0.02391397 -0.01811413 0.02 -0.02298133 -0.01928363 0.02 -0.02298133 -0.01928363 0 -0.02199156 -0.02040518 0 -0.02199156 -0.02040518 0.02 -0.02094711 -0.02147601 0 -0.02094711 -0.02147601 0.02 -0.01985057 -0.02249344 0.02 -0.01985057 -0.02249344 0 -0.01870469 -0.02345494 0 -0.01870469 -0.02345494 0.02 -0.01751231 -0.02435814 0 -0.01751231 -0.02435814 0.02 -0.01627639 -0.02520078 0 -0.01627639 -0.02520078 0.02 -0.015 -0.02598076 0.02 -0.015 -0.02598076 0 -0.01368632 -0.02669615 0 -0.01368632 -0.02669615 0.02 -0.01233861 -0.02734517 0 -0.01233861 -0.02734517 0.02 -0.01096023 -0.02792621 0 -0.01096023 -0.02792621 0.02 -0.0095546 -0.02843782 0 -0.0095546 -0.02843782 0.02 -0.008125214 -0.02887873 0 -0.008125214 -0.02887873 0.02 -0.006675628 -0.02924784 0 -0.006675628 -0.02924784 0.02 -0.005209445 -0.02954423 0 -0.005209445 -0.02954423 0.02 -0.003730311 -0.02976718 0.02 -0.003730311 -0.02976718 0 -0.002241903 -0.02991611 0 -0.002241903 -0.02991611 0.02 -0.0007479208 -0.02999067 0 -0.0007479208 -0.02999067 0.02 0.0007479208 -0.02999067 0 0.0007479208 -0.02999067 0.02 0.002241903 -0.02991611 0 0.002241903 -0.02991611 0.02 0.003730311 -0.02976718 0 0.003730311 -0.02976718 0.02 0.005209445 -0.02954423 0 0.005209445 -0.02954423 0.02 0.006675628 -0.02924784 0 0.006675628 -0.02924784 0.02 0.008125214 -0.02887873 0 0.008125214 -0.02887873 0.02 0.0095546 -0.02843782 0 0.0095546 -0.02843782 0.02 0.01096023 -0.02792621 0 0.01096023 -0.02792621 0.02 0.01233861 -0.02734517 0 0.01233861 -0.02734517 0.02 0.01368632 -0.02669615 0 0.01368632 -0.02669615 0.02 0.015 -0.02598076 0.02 0.015 -0.02598076 0 0.01627639 -0.02520078 0 0.01627639 -0.02520078 0.02 0.01751231 -0.02435814 0 0.01751231 -0.02435814 0.02 0.01870469 -0.02345494 0 0.01870469 -0.02345494 0.02 0.01985057 -0.02249344 0 0.01985057 -0.02249344 0.02 0.02094711 -0.02147601 0 0.02094711 -0.02147601 0.02 0.02199156 -0.02040518 0 0.02199156 -0.02040518 0.02 0.02298133 -0.01928363 0 0.02298133 -0.01928363 0.02 0.02391397 -0.01811413 0 0.02391397 -0.01811413 0.02 0.02478716 -0.0168996 0 0.02478716 -0.0168996 0.02 0.02559873 -0.01564306 0 0.02559873 -0.01564306 0.02 0.02634665 -0.01434762 0 0.02634665 -0.01434762 0.02 0.02702907 -0.01301651 0 0.02702907 -0.01301651 0.02 0.02764429 -0.01165304 0 0.02764429 -0.01165304 0.02 0.02819078 -0.0102606 0 0.02819078 -0.0102606 0.02 0.02866718 -0.008842655 0.02 0.02866718 -0.008842655 0 0.02907232 -0.007402722 0 0.02907232 -0.007402722 0.02 0.02940517 -0.005944384 0 0.02940517 -0.005944384 0.02 0.02966492 -0.004471268 0 0.02966492 -0.004471268 0.02 0.02985092 -0.002987036 0 0.02985092 -0.002987036 0.02 0.02996271 -0.001495377 0 0.02996271 -0.001495377 0.02 -0.01502756 -0.01394354 -4.440892e-18 -0.01431386 -0.01467527 -4.440892e-18 -0.01356456 -0.01537051 -4.440892e-18 -0.01570391 -0.01317715 -4.440892e-18 -0.01278154 -0.01602755 -4.440892e-18 -0.01634122 -0.01237799 -4.440892e-18 -0.01196675 -0.01664473 -4.440892e-18 -0.01693789 -0.01154806 -4.440892e-18 -0.0111222 -0.01722053 -4.440892e-18 -0.01749246 -0.01068942 -4.440892e-18 -0.01025 -0.01775352 -4.440892e-18 -0.01800354 -0.009804207 -4.440892e-18 -0.009352319 -0.01824237 -4.440892e-18 -0.01846986 -0.008894617 -4.440892e-18 -0.008431386 -0.01868587 -4.440892e-18 -0.01889026 -0.007962914 -4.440892e-18 -0.007489491 -0.01908291 -4.440892e-18 -0.0192637 -0.007011413 -4.440892e-18 -0.006528976 -0.01943251 -4.440892e-18 -0.01958924 -0.006042481 -4.440892e-18 -0.005552229 -0.0197338 -4.440892e-18 -0.01986609 -0.005058527 -4.440892e-18 -0.004561679 -0.01998602 -4.440892e-18 -0.02009354 -0.004061996 -4.440892e-18 -0.003559788 -0.02018856 -4.440892e-18 -0.02027103 -0.003055367 -4.440892e-18 -0.002549046 -0.0203409 -4.440892e-18 -0.02039813 -0.002041141 -4.440892e-18 -0.001531967 -0.02044268 -4.440892e-18 -0.02047452 -0.001021841 -4.440892e-18 -0.0005110792 -0.02049363 -4.440892e-18 -0.0205 -7.032011e-17 -4.440892e-18 0.0005110792 -0.02049363 -4.440892e-18 -0.02047452 0.001021841 -4.440892e-18 0.001531967 -0.02044268 -4.440892e-18 -0.02039813 0.002041141 -4.440892e-18 0.002549046 -0.0203409 -4.440892e-18 -0.02027103 0.003055367 -4.440892e-18 0.003559788 -0.02018856 -4.440892e-18 -0.02009354 0.004061996 -4.440892e-18 0.004561679 -0.01998602 -4.440892e-18 -0.01986609 0.005058527 -4.440892e-18 0.005552229 -0.0197338 -4.440892e-18 -0.01958924 0.006042481 -4.440892e-18 0.006528976 -0.01943251 -4.440892e-18 -0.0192637 0.007011413 -4.440892e-18 0.007489491 -0.01908291 -4.440892e-18 -0.01889026 0.007962914 -4.440892e-18 0.008431386 -0.01868587 -4.440892e-18 -0.01846986 0.008894617 -4.440892e-18 0.009352319 -0.01824237 -4.440892e-18 -0.01800354 0.009804207 -4.440892e-18 0.01025 -0.01775352 -4.440892e-18 -0.01749246 0.01068942 -4.440892e-18 0.0111222 -0.01722053 -4.440892e-18 -0.01693789 0.01154806 -4.440892e-18 0.01196675 -0.01664473 -4.440892e-18 -0.01634122 0.01237799 -4.440892e-18 0.01278154 -0.01602755 -4.440892e-18 -0.01570391 0.01317715 -4.440892e-18 0.01356456 -0.01537051 -4.440892e-18 -0.01502756 0.01394354 -4.440892e-18 0.01431386 -0.01467527 -4.440892e-18 -0.01431386 0.01467527 -4.440892e-18 0.01502756 -0.01394354 -4.440892e-18 0.01570391 -0.01317715 -4.440892e-18 -0.01356456 0.01537051 -4.440892e-18 -0.01278154 0.01602755 -4.440892e-18 0.01634122 -0.01237799 -4.440892e-18 -0.01196675 0.01664473 -4.440892e-18 -0.0111222 0.01722053 -4.440892e-18 0.01693789 -0.01154806 -4.440892e-18 -0.01025 0.01775352 -4.440892e-18 0.01749246 -0.01068942 -4.440892e-18 0.01800354 -0.009804207 -4.440892e-18 -0.009352319 0.01824237 -4.440892e-18 0.01846986 -0.008894617 -4.440892e-18 -0.008431386 0.01868587 -4.440892e-18 0.01889026 -0.007962914 -4.440892e-18 0.0192637 -0.007011413 -4.440892e-18 -0.007489491 0.01908291 -4.440892e-18 -0.006528976 0.01943251 -4.440892e-18 -0.005552229 0.0197338 -4.440892e-18 0.01958924 -0.006042481 -4.440892e-18 0.01986609 -0.005058527 -4.440892e-18 -0.004561679 0.01998602 -4.440892e-18 0.02009354 -0.004061996 -4.440892e-18 -0.003559788 0.02018856 -4.440892e-18 0.02027103 -0.003055367 -4.440892e-18 -0.002549046 0.0203409 -4.440892e-18 0.02039813 -0.002041141 -4.440892e-18 -0.001531967 0.02044268 -4.440892e-18 0.02047452 -0.001021841 -4.440892e-18 -0.0005110792 0.02049363 -4.440892e-18 0.0005110792 0.02049363 -4.440892e-18 0.0205 0 -4e-18 0.02047452 0.001021841 -4.440892e-18 0.001531967 0.02044268 -4.440892e-18 0.002549046 0.0203409 -4.440892e-18 0.02039813 0.002041141 -4.440892e-18 0.003559788 0.02018856 -4.440892e-18 0.02027103 0.003055367 -4.440892e-18 0.02009354 0.004061996 -4.440892e-18 0.004561679 0.01998602 -4.440892e-18 0.005552229 0.0197338 -4.440892e-18 0.01986609 0.005058527 -4.440892e-18 0.01958924 0.006042481 -4.440892e-18 0.006528976 0.01943251 -4.440892e-18 0.0192637 0.007011413 -4.440892e-18 0.007489491 0.01908291 -4.440892e-18 0.01889026 0.007962914 -4.440892e-18 0.01846986 0.008894617 -4.440892e-18 0.008431386 0.01868587 -4.440892e-18 0.009352319 0.01824237 -4.440892e-18 0.01800354 0.009804207 -4.440892e-18 0.01025 0.01775352 -4.440892e-18 0.01749246 0.01068942 -4.440892e-18 0.01693789 0.01154806 -4.440892e-18 0.0111222 0.01722053 -4.440892e-18 0.01196675 0.01664473 -4.440892e-18 0.01634122 0.01237799 -4.440892e-18 0.01570391 0.01317715 -4.440892e-18 0.01278154 0.01602755 -4.440892e-18 0.01356456 0.01537051 -4.440892e-18 0.01502756 0.01394354 -4.440892e-18 0.01431386 0.01467527 -4.440892e-18 -0.01722672 -0.01598406 0.02 -0.01640857 -0.01682287 0.02 -0.01554962 -0.01761986 0.02 -0.01800204 -0.01510551 0.02 -0.01465201 -0.01837304 0.02 -0.01873261 -0.0141894 0.02 -0.01371798 -0.01908054 0.02 -0.01941661 -0.01323802 0.02 -0.01274984 -0.01974061 0.02 -0.02005234 -0.01225373 0.02 -0.01175 -0.0203516 0.02 -0.02063821 -0.01123897 0.02 -0.01072095 -0.02091199 0.02 -0.02117277 -0.01019627 0.02 -0.009665247 -0.02142039 0.02 -0.02165469 -0.009128218 0.02 -0.008585514 -0.02187553 0.02 -0.02208278 -0.008037474 0.02 -0.007484437 -0.02227629 0.02 -0.02245596 -0.006926746 0.02 -0.006364751 -0.02262167 0.02 -0.02277332 -0.005798799 0.02 -0.005229242 -0.02291081 0.02 -0.02303405 -0.004656435 0.02 -0.004080732 -0.02314298 0.02 -0.02323752 -0.003502493 0.02 -0.002922077 -0.02331762 0.02 -0.02338322 -0.002339844 0.02 -0.001756157 -0.02343429 0.02 -0.02347079 -0.001171378 0.02 -0.0005858713 -0.02349269 0.02 -0.0235 -8.061085e-17 0.02 0.0005858713 -0.02349269 0.02 -0.02347079 0.001171378 0.02 0.001756157 -0.02343429 0.02 -0.02338322 0.002339844 0.02 0.002922077 -0.02331762 0.02 -0.02323752 0.003502493 0.02 0.004080732 -0.02314298 0.02 -0.02303405 0.004656435 0.02 0.005229242 -0.02291081 0.02 -0.02277332 0.005798799 0.02 0.006364751 -0.02262167 0.02 -0.02245596 0.006926746 0.02 0.007484437 -0.02227629 0.02 -0.02208278 0.008037474 0.02 0.008585514 -0.02187553 0.02 -0.02165469 0.009128218 0.02 0.009665247 -0.02142039 0.02 -0.02117277 0.01019627 0.02 0.01072095 -0.02091199 0.02 -0.02063821 0.01123897 0.02 0.01175 -0.0203516 0.02 -0.02005234 0.01225373 0.02 0.01274984 -0.01974061 0.02 -0.01941661 0.01323802 0.02 0.01371798 -0.01908054 0.02 -0.01873261 0.0141894 0.02 0.01465201 -0.01837304 0.02 -0.01800204 0.01510551 0.02 0.01554962 -0.01761986 0.02 -0.01722672 0.01598406 0.02 0.01640857 -0.01682287 0.02 -0.01640857 0.01682287 0.02 0.01722672 -0.01598406 0.02 -0.01554962 0.01761986 0.02 0.01800204 -0.01510551 0.02 0.01873261 -0.0141894 0.02 -0.01465201 0.01837304 0.02 -0.01371798 0.01908054 0.02 0.01941661 -0.01323802 0.02 -0.01274984 0.01974061 0.02 -0.01175 0.0203516 0.02 0.02005234 -0.01225373 0.02 0.02063821 -0.01123897 0.02 0.02117277 -0.01019627 0.02 -0.01072095 0.02091199 0.02 -0.009665247 0.02142039 0.02 0.02165469 -0.009128218 0.02 -0.008585514 0.02187553 0.02 0.02208278 -0.008037474 0.02 -0.007484437 0.02227629 0.02 0.02245596 -0.006926746 0.02 0.02277332 -0.005798799 0.02 -0.006364751 0.02262167 0.02 0.02303405 -0.004656435 0.02 -0.005229242 0.02291081 0.02 -0.004080732 0.02314298 0.02 -0.002922077 0.02331762 0.02 0.02323752 -0.003502493 0.02 0.02338322 -0.002339844 0.02 -0.001756157 0.02343429 0.02 -0.0005858713 0.02349269 0.02 0.02347079 -0.001171378 0.02 0.0005858713 0.02349269 0.02 0.02347079 0.001171378 0.02 0.0235 0 0.02 0.001756157 0.02343429 0.02 0.02338322 0.002339844 0.02 0.02323752 0.003502493 0.02 0.002922077 0.02331762 0.02 0.02303405 0.004656435 0.02 0.004080732 0.02314298 0.02 0.02277332 0.005798799 0.02 0.005229242 0.02291081 0.02 0.006364751 0.02262167 0.02 0.02245596 0.006926746 0.02 0.007484437 0.02227629 0.02 0.02208278 0.008037474 0.02 0.008585514 0.02187553 0.02 0.02165469 0.009128218 0.02 0.009665247 0.02142039 0.02 0.02117277 0.01019627 0.02 0.01072095 0.02091199 0.02 0.02063821 0.01123897 0.02 0.01175 0.0203516 0.02 0.01274984 0.01974061 0.02 0.02005234 0.01225373 0.02 0.01941661 0.01323802 0.02 0.01371798 0.01908054 0.02 0.01873261 0.0141894 0.02 0.01800204 0.01510551 0.02 0.01465201 0.01837304 0.02 0.01722672 0.01598406 0.02 0.01554962 0.01761986 0.02 0.01640857 0.01682287 0.02 0.0205 0 0.00425 0.02047452 0.001021841 0.00425 0.02039813 0.002041141 0.00425 0.02027103 0.003055367 0.00425 0.02009354 0.004061996 0.00425 0.01986609 0.005058527 0.00425 0.01958924 0.006042481 0.00425 0.0192637 0.007011413 0.00425 0.01889026 0.007962914 0.00425 0.01846986 0.008894617 0.00425 0.01800354 0.009804207 0.00425 0.01749246 0.01068942 0.00425 0.01693789 0.01154806 0.00425 0.01634122 0.01237799 0.00425 0.01570391 0.01317715 0.00425 0.01502756 0.01394354 0.00425 0.01431386 0.01467527 0.00425 0.01356456 0.01537051 0.00425 0.01278154 0.01602755 0.00425 0.01196675 0.01664473 0.00425 0.0111222 0.01722053 0.00425 0.01025 0.01775352 0.00425 0.009352319 0.01824237 0.00425 0.008431386 0.01868587 0.00425 0.007489491 0.01908291 0.00425 0.006528976 0.01943251 0.00425 0.005552229 0.0197338 0.00425 0.004561679 0.01998602 0.00425 0.003559788 0.02018856 0.00425 0.002549046 0.0203409 0.00425 0.001531967 0.02044268 0.00425 0.0005110792 0.02049363 0.00425 -0.0005110792 0.02049363 0.00425 -0.001531967 0.02044268 0.00425 -0.002549046 0.0203409 0.00425 -0.003559788 0.02018856 0.00425 -0.004561679 0.01998602 0.00425 -0.005552229 0.0197338 0.00425 -0.006528976 0.01943251 0.00425 -0.007489491 0.01908291 0.00425 -0.008431386 0.01868587 0.00425 -0.009352319 0.01824237 0.00425 -0.01025 0.01775352 0.00425 -0.0111222 0.01722053 0.00425 -0.01196675 0.01664473 0.00425 -0.01278154 0.01602755 0.00425 -0.01356456 0.01537051 0.00425 -0.01431386 0.01467527 0.00425 -0.01502756 0.01394354 0.00425 -0.01570391 0.01317715 0.00425 -0.01634122 0.01237799 0.00425 -0.01693789 0.01154806 0.00425 -0.01749246 0.01068942 0.00425 -0.01800354 0.009804207 0.00425 -0.01846986 0.008894617 0.00425 -0.01889026 0.007962914 0.00425 -0.0192637 0.007011413 0.00425 -0.01958924 0.006042481 0.00425 -0.01986609 0.005058527 0.00425 -0.02009354 0.004061996 0.00425 -0.02027103 0.003055367 0.00425 -0.02039813 0.002041141 0.00425 -0.02047452 0.001021841 0.00425 -0.0205 -7.032011e-17 0.00425 -0.02047452 -0.001021841 0.00425 -0.02039813 -0.002041141 0.00425 -0.02027103 -0.003055367 0.00425 -0.02009354 -0.004061996 0.00425 -0.01986609 -0.005058527 0.00425 -0.01958924 -0.006042481 0.00425 -0.0192637 -0.007011413 0.00425 -0.01889026 -0.007962914 0.00425 -0.01846986 -0.008894617 0.00425 -0.01800354 -0.009804207 0.00425 -0.01749246 -0.01068942 0.00425 -0.01693789 -0.01154806 0.00425 -0.01634122 -0.01237799 0.00425 -0.01570391 -0.01317715 0.00425 -0.01502756 -0.01394354 0.00425 -0.01431386 -0.01467527 0.00425 -0.01356456 -0.01537051 0.00425 -0.01278154 -0.01602755 0.00425 -0.01196675 -0.01664473 0.00425 -0.0111222 -0.01722053 0.00425 -0.01025 -0.01775352 0.00425 -0.009352319 -0.01824237 0.00425 -0.008431386 -0.01868587 0.00425 -0.007489491 -0.01908291 0.00425 -0.006528976 -0.01943251 0.00425 -0.005552229 -0.0197338 0.00425 -0.004561679 -0.01998602 0.00425 -0.003559788 -0.02018856 0.00425 -0.002549046 -0.0203409 0.00425 -0.001531967 -0.02044268 0.00425 -0.0005110792 -0.02049363 0.00425 0.0005110792 -0.02049363 0.00425 0.001531967 -0.02044268 0.00425 0.002549046 -0.0203409 0.00425 0.003559788 -0.02018856 0.00425 0.004561679 -0.01998602 0.00425 0.005552229 -0.0197338 0.00425 0.006528976 -0.01943251 0.00425 0.007489491 -0.01908291 0.00425 0.008431386 -0.01868587 0.00425 0.009352319 -0.01824237 0.00425 0.01025 -0.01775352 0.00425 0.0111222 -0.01722053 0.00425 0.01196675 -0.01664473 0.00425 0.01278154 -0.01602755 0.00425 0.01356456 -0.01537051 0.00425 0.01431386 -0.01467527 0.00425 0.01502756 -0.01394354 0.00425 0.01570391 -0.01317715 0.00425 0.01634122 -0.01237799 0.00425 0.01693789 -0.01154806 0.00425 0.01749246 -0.01068942 0.00425 0.01800354 -0.009804207 0.00425 0.01846986 -0.008894617 0.00425 0.01889026 -0.007962914 0.00425 0.0192637 -0.007011413 0.00425 0.01958924 -0.006042481 0.00425 0.01986609 -0.005058527 0.00425 0.02009354 -0.004061996 0.00425 0.02027103 -0.003055367 0.00425 0.02039813 -0.002041141 0.00425 0.02047452 -0.001021841 0.00425 0.0235 0 0.00425 0.02347079 0.001171378 0.00425 0.02338322 0.002339844 0.00425 0.02323752 0.003502493 0.00425 0.02303405 0.004656435 0.00425 0.02277332 0.005798799 0.00425 0.02245596 0.006926746 0.00425 0.02208278 0.008037474 0.00425 0.02165469 0.009128218 0.00425 0.02117277 0.01019627 0.00425 0.02063821 0.01123897 0.00425 0.02005234 0.01225373 0.00425 0.01941661 0.01323802 0.00425 0.01873261 0.0141894 0.00425 0.01800204 0.01510551 0.00425 0.01722672 0.01598406 0.00425 0.01640857 0.01682287 0.00425 0.01554962 0.01761986 0.00425 0.01465201 0.01837304 0.00425 0.01371798 0.01908054 0.00425 0.01274984 0.01974061 0.00425 0.01175 0.0203516 0.00425 0.01072095 0.02091199 0.00425 0.009665247 0.02142039 0.00425 0.008585514 0.02187553 0.00425 0.007484437 0.02227629 0.00425 0.006364751 0.02262167 0.00425 0.005229242 0.02291081 0.00425 0.004080732 0.02314298 0.00425 0.002922077 0.02331762 0.00425 0.001756157 0.02343429 0.00425 0.0005858713 0.02349269 0.00425 -0.0005858713 0.02349269 0.00425 -0.001756157 0.02343429 0.00425 -0.002922077 0.02331762 0.00425 -0.004080732 0.02314298 0.00425 -0.005229242 0.02291081 0.00425 -0.006364751 0.02262167 0.00425 -0.007484437 0.02227629 0.00425 -0.008585514 0.02187553 0.00425 -0.009665247 0.02142039 0.00425 -0.01072095 0.02091199 0.00425 -0.01175 0.0203516 0.00425 -0.01274984 0.01974061 0.00425 -0.01371798 0.01908054 0.00425 -0.01465201 0.01837304 0.00425 -0.01554962 0.01761986 0.00425 -0.01640857 0.01682287 0.00425 -0.01722672 0.01598406 0.00425 -0.01800204 0.01510551 0.00425 -0.01873261 0.0141894 0.00425 -0.01941661 0.01323802 0.00425 -0.02005234 0.01225373 0.00425 -0.02063821 0.01123897 0.00425 -0.02117277 0.01019627 0.00425 -0.02165469 0.009128218 0.00425 -0.02208278 0.008037474 0.00425 -0.02245596 0.006926746 0.00425 -0.02277332 0.005798799 0.00425 -0.02303405 0.004656435 0.00425 -0.02323752 0.003502493 0.00425 -0.02338322 0.002339844 0.00425 -0.02347079 0.001171378 0.00425 -0.0235 -8.061085e-17 0.00425 -0.02347079 -0.001171378 0.00425 -0.02338322 -0.002339844 0.00425 -0.02323752 -0.003502493 0.00425 -0.02303405 -0.004656435 0.00425 -0.02277332 -0.005798799 0.00425 -0.02245596 -0.006926746 0.00425 -0.02208278 -0.008037474 0.00425 -0.02165469 -0.009128218 0.00425 -0.02117277 -0.01019627 0.00425 -0.02063821 -0.01123897 0.00425 -0.02005234 -0.01225373 0.00425 -0.01941661 -0.01323802 0.00425 -0.01873261 -0.0141894 0.00425 -0.01800204 -0.01510551 0.00425 -0.01722672 -0.01598406 0.00425 -0.01640857 -0.01682287 0.00425 -0.01554962 -0.01761986 0.00425 -0.01465201 -0.01837304 0.00425 -0.01371798 -0.01908054 0.00425 -0.01274984 -0.01974061 0.00425 -0.01175 -0.0203516 0.00425 -0.01072095 -0.02091199 0.00425 -0.009665247 -0.02142039 0.00425 -0.008585514 -0.02187553 0.00425 -0.007484437 -0.02227629 0.00425 -0.006364751 -0.02262167 0.00425 -0.005229242 -0.02291081 0.00425 -0.004080732 -0.02314298 0.00425 -0.002922077 -0.02331762 0.00425 -0.001756157 -0.02343429 0.00425 -0.0005858713 -0.02349269 0.00425 0.0005858713 -0.02349269 0.00425 0.001756157 -0.02343429 0.00425 0.002922077 -0.02331762 0.00425 0.004080732 -0.02314298 0.00425 0.005229242 -0.02291081 0.00425 0.006364751 -0.02262167 0.00425 0.007484437 -0.02227629 0.00425 0.008585514 -0.02187553 0.00425 0.009665247 -0.02142039 0.00425 0.01072095 -0.02091199 0.00425 0.01175 -0.0203516 0.00425 0.01274984 -0.01974061 0.00425 0.01371798 -0.01908054 0.00425 0.01465201 -0.01837304 0.00425 0.01554962 -0.01761986 0.00425 0.01640857 -0.01682287 0.00425 0.01722672 -0.01598406 0.00425 0.01800204 -0.01510551 0.00425 0.01873261 -0.0141894 0.00425 0.01941661 -0.01323802 0.00425 0.02005234 -0.01225373 0.00425 0.02063821 -0.01123897 0.00425 0.02117277 -0.01019627 0.00425 0.02165469 -0.009128218 0.00425 0.02208278 -0.008037474 0.00425 0.02245596 -0.006926746 0.00425 0.02277332 -0.005798799 0.00425 0.02303405 -0.004656435 0.00425 0.02323752 -0.003502493 0.00425 0.02338322 -0.002339844 0.00425 0.02347079 -0.001171378 0.00425</float_array>
          <technique_common>
            <accessor count="756" source="#cubeverts-array0-array" stride="3">
              <param type="float" name="X"/>
              <param type="float" name="Y"/>
              <param type="float" name="Z"/>
            </accessor>
          </technique_common>
        </source>
        <source id="cubenormals-array0">
          <float_array count="4536" id="cubenormals-array0-array">0.9996892 0.02493077 -0 0.9996892 0.02493077 0 0.9972038 0.07472982 0 0.9922392 0.124344 0 0.9972038 0.07472982 0 0.9922392 0.124344 0 0.9848077 0.1736484 0 0.9749281 0.2225204 0 0.9848077 0.1736484 -0 0.9749281 0.2225204 0 0.9626243 0.2708403 0 0.9626243 0.2708403 -0 0.9479272 0.318487 0 0.9308739 0.3653406 0 0.9479272 0.318487 -0 0.9308739 0.3653406 0 0.9115056 0.4112875 0 0.9115056 0.4112875 -0 0.8898718 0.4562107 0 0.8898718 0.4562107 -0 0.8660254 0.5000001 -0 0.8660254 0.5000001 0 0.8400257 0.5425466 0 0.8400257 0.5425466 0 0.8119381 0.5837436 -0 0.8119381 0.5837436 0 0.7818316 0.6234896 -0 0.7818316 0.6234896 0 0.7497813 0.6616858 0 0.7158672 0.6982364 0 0.7497813 0.6616858 -0 0.7158672 0.6982364 0 0.6801725 0.7330521 0 0.6801725 0.7330521 -0 0.6427878 0.7660443 0 0.6038044 0.7971325 0 0.6427878 0.7660443 -0 0.6038044 0.7971325 0 0.5633196 0.8262392 0 0.5633196 0.8262392 -0 0.5214356 0.8532906 0 0.5214356 0.8532906 -0 0.4782534 0.8782219 0 0.4782534 0.8782219 -0 0.4338838 0.9009688 0 0.4338838 0.9009688 -0 0.3884351 0.9214761 0 0.3884351 0.9214761 -0 0.3420203 0.9396926 0 0.3420203 0.9396926 -0 0.2947547 0.955573 0 0.2947547 0.955573 -0 0.2467576 0.9690773 0 0.2467576 0.9690773 -0 0.1981468 0.9801723 0 0.1490414 0.9888309 0 0.1981468 0.9801723 -0 0.1490414 0.9888309 0 0.09956878 0.9950307 0 0.09956878 0.9950307 -0 0.04984497 0.9987569 0 0.04984497 0.9987569 -0 0 1 0 0 1 -0 -0.04984497 0.9987569 0 -0.04984497 0.9987569 0 -0.09956878 0.9950307 0 -0.09956878 0.9950307 0 -0.1490414 0.9888309 0 -0.1490414 0.9888309 0 -0.1981468 0.9801723 0 -0.1981468 0.9801723 0 -0.2467576 0.9690773 0 -0.2947547 0.955573 0 -0.2467576 0.9690773 0 -0.2947547 0.955573 0 -0.3420203 0.9396926 0 -0.3420203 0.9396926 0 -0.3884351 0.9214761 0 -0.3884351 0.9214761 0 -0.4338838 0.9009688 0 -0.4338838 0.9009688 0 -0.4782534 0.8782219 0 -0.4782534 0.8782219 0 -0.5214356 0.8532906 0 -0.5214356 0.8532906 0 -0.5633196 0.8262392 0 -0.5633196 0.8262392 0 -0.6038044 0.7971325 0 -0.6038044 0.7971325 0 -0.6427878 0.7660443 0 -0.6427878 0.7660443 0 -0.6801725 0.7330521 0 -0.6801725 0.7330521 0 -0.7158672 0.6982364 0 -0.7158672 0.6982364 0 -0.7497813 0.6616858 0 -0.7497813 0.6616858 0 -0.7818316 0.6234896 0 -0.8119381 0.5837436 0 -0.7818316 0.6234896 0 -0.8119381 0.5837436 0 -0.8400257 0.5425466 0 -0.8660254 0.5000001 0 -0.8400257 0.5425466 0 -0.8660254 0.5000001 0 -0.8898718 0.4562107 0 -0.9115056 0.4112875 0 -0.8898718 0.4562107 0 -0.9115056 0.4112875 0 -0.9308739 0.3653406 0 -0.9308739 0.3653406 0 -0.9479272 0.318487 0 -0.9626243 0.2708403 0 -0.9479272 0.318487 0 -0.9626243 0.2708403 0 -0.9749281 0.2225204 0 -0.9749281 0.2225204 0 -0.9848077 0.1736484 0 -0.9848077 0.1736484 0 -0.9922392 0.124344 0 -0.9922392 0.124344 0 -0.9972038 0.07472982 0 -0.9972038 0.07472982 0 -0.9996892 0.02493077 0 -0.9996892 0.02493077 0 -0.9996892 -0.02493077 -0 -0.9996892 -0.02493077 0 -0.9972038 -0.07472982 0 -0.9972038 -0.07472982 0 -0.9922392 -0.124344 -0 -0.9922392 -0.124344 0 -0.9848077 -0.1736484 -0 -0.9848077 -0.1736484 0 -0.9749281 -0.2225204 -0 -0.9749281 -0.2225204 0 -0.9626243 -0.2708403 0 -0.9626243 -0.2708403 0 -0.9479272 -0.318487 -0 -0.9479272 -0.318487 0 -0.9308739 -0.3653406 -0 -0.9308739 -0.3653406 0 -0.9115056 -0.4112875 0 -0.9115056 -0.4112875 0 -0.8898718 -0.4562107 -0 -0.8898718 -0.4562107 0 -0.8660254 -0.5000001 0 -0.8660254 -0.5000001 0 -0.8400257 -0.5425466 0 -0.8400257 -0.5425466 0 -0.8119381 -0.5837436 0 -0.8119381 -0.5837436 0 -0.7818316 -0.6234896 -0 -0.7818316 -0.6234896 0 -0.7497813 -0.6616858 0 -0.7497813 -0.6616858 0 -0.7158672 -0.6982364 0 -0.7158672 -0.6982364 0 -0.6801725 -0.7330521 -0 -0.6801725 -0.7330521 0 -0.6427878 -0.7660443 0 -0.6427878 -0.7660443 0 -0.6038044 -0.7971325 0 -0.6038044 -0.7971325 0 -0.5633196 -0.8262392 0 -0.5633196 -0.8262392 0 -0.5214356 -0.8532906 -0 -0.5214356 -0.8532906 0 -0.4782534 -0.8782219 0 -0.4782534 -0.8782219 0 -0.4338838 -0.9009688 0 -0.4338838 -0.9009688 0 -0.3884351 -0.9214761 0 -0.3884351 -0.9214761 0 -0.3420203 -0.9396926 0 -0.3420203 -0.9396926 0 -0.2947547 -0.955573 0 -0.2947547 -0.955573 0 -0.2467576 -0.9690773 0 -0.2467576 -0.9690773 0 -0.1981468 -0.9801723 0 -0.1981468 -0.9801723 0 -0.1490414 -0.9888309 -0 -0.1490414 -0.9888309 0 -0.09956878 -0.9950307 0 -0.09956878 -0.9950307 0 -0.04984497 -0.9987569 0 -0.04984497 -0.9987569 0 0 -1 0 0 -1 0 0.04984497 -0.9987569 0 0.04984497 -0.9987569 0 0.09956878 -0.9950307 0 0.09956878 -0.9950307 0 0.1490414 -0.9888309 0 0.1490414 -0.9888309 0 0.1981468 -0.9801723 0 0.1981468 -0.9801723 0 0.2467576 -0.9690773 0 0.2467576 -0.9690773 0 0.2947547 -0.955573 0 0.2947547 -0.955573 0 0.3420203 -0.9396926 0 0.3420203 -0.9396926 0 0.3884351 -0.9214761 0 0.3884351 -0.9214761 0 0.4338838 -0.9009688 0 0.4782534 -0.8782219 0 0.4338838 -0.9009688 0 0.4782534 -0.8782219 0 0.5214356 -0.8532906 0 0.5214356 -0.8532906 0 0.5633196 -0.8262392 0 0.5633196 -0.8262392 0 0.6038044 -0.7971325 0 0.6038044 -0.7971325 0 0.6427878 -0.7660443 0 0.6427878 -0.7660443 0 0.6801725 -0.7330521 0 0.6801725 -0.7330521 0 0.7158672 -0.6982364 0 0.7158672 -0.6982364 0 0.7497813 -0.6616858 0 0.7497813 -0.6616858 0 0.7818316 -0.6234896 0 0.7818316 -0.6234896 0 0.8119381 -0.5837436 0 0.8119381 -0.5837436 0 0.8400257 -0.5425466 0 0.8400257 -0.5425466 0 0.8660254 -0.5000001 0 0.8660254 -0.5000001 0 0.8898718 -0.4562107 0 0.8898718 -0.4562107 0 0.9115056 -0.4112875 0 0.9115056 -0.4112875 0 0.9308739 -0.3653406 0 0.9479272 -0.318487 0 0.9308739 -0.3653406 0 0.9479272 -0.318487 0 0.9626243 -0.2708403 0 0.9626243 -0.2708403 0 0.9749281 -0.2225204 0 0.9749281 -0.2225204 0 0.9848077 -0.1736484 0 0.9848077 -0.1736484 0 0.9922392 -0.124344 0 0.9922392 -0.124344 0 0.9972038 -0.07472982 0 0.9996892 -0.02493077 0 0.9972038 -0.07472982 0 0.9996892 -0.02493077 0 -3.506035e-16 -3.094093e-16 -1 -3.34745e-16 -3.265007e-16 -1 -3.347447e-16 -3.265009e-16 -1 -3.180539e-16 -3.427808e-16 -1 -3.005725e-16 -3.582082e-16 -1 -3.180541e-16 -3.427806e-16 -1 -3.506034e-16 -3.094094e-16 -1 -3.005724e-16 -3.582082e-16 -1 -3.655902e-16 -2.91549e-16 -1 -3.655905e-16 -2.915486e-16 -1 -2.823436e-16 -3.727452e-16 -1 -2.823436e-16 -3.727453e-16 -1 -2.634126e-16 -3.863558e-16 -1 -3.796687e-16 -2.729627e-16 -1 -3.796685e-16 -2.72963e-16 -1 -2.634126e-16 -3.863557e-16 -1 -3.928028e-16 -2.536984e-16 -1 -3.928024e-16 -2.536989e-16 -1 -2.438272e-16 -3.990053e-16 -1 -2.438273e-16 -3.990052e-16 -1 -4.049598e-16 -2.338039e-16 -1 -4.049601e-16 -2.338039e-16 -1 -2.236354e-16 -4.10663e-16 -1 -2.23635e-16 -4.106633e-16 -1 -4.16111e-16 -2.133279e-16 -1 -4.161109e-16 -2.133276e-16 -1 -2.02887e-16 -4.213002e-16 -1 -2.028874e-16 -4.212999e-16 -1 -4.262271e-16 -1.923211e-16 -1 -4.26227e-16 -1.923212e-16 -1 -1.816355e-16 -4.308892e-16 -1 -1.816352e-16 -4.308893e-16 -1 -4.352836e-16 -1.708361e-16 -1 -4.43258e-16 -1.48927e-16 -1 -4.352838e-16 -1.708361e-16 -1 -1.59931e-16 -4.394076e-16 -1 -1.599313e-16 -4.394074e-16 -1 -4.432581e-16 -1.489272e-16 -1 -1.378298e-16 -4.468331e-16 -1 -1.378296e-16 -4.468333e-16 -1 -1.153857e-16 -4.53148e-16 -1 -4.501304e-16 -1.26647e-16 -1 -4.501305e-16 -1.26647e-16 -1 -1.15386e-16 -4.53148e-16 -1 -4.558838e-16 -1.040522e-16 -1 -4.558837e-16 -1.040524e-16 -1 -9.265417e-17 -4.583363e-16 -1 -9.265495e-17 -4.58336e-16 -1 -4.605037e-16 -8.119931e-17 -1 -4.605036e-16 -8.119941e-17 -1 -6.969368e-17 -4.623848e-16 -1 -6.969292e-17 -4.62385e-16 -1 -4.639786e-16 -5.814419e-17 -1 -4.639787e-16 -5.814367e-17 -1 -4.655874e-17 -4.652841e-16 -1 -4.655913e-17 -4.65284e-16 -1 -4.663001e-16 -3.494518e-17 -1 -4.674624e-16 -1.165782e-17 -1 -4.663002e-16 -3.494424e-17 -1 -2.330773e-17 -4.670264e-16 -1 -2.330789e-17 -4.670264e-16 -1 0 -4.676077e-16 -1 -4.674623e-16 -1.165735e-17 -1 0 -4.676077e-16 -1 -4.674624e-16 1.165782e-17 -1 -4.674623e-16 1.165735e-17 -1 2.330789e-17 -4.670264e-16 -1 2.330773e-17 -4.670264e-16 -1 -4.663001e-16 3.494424e-17 -1 -4.663002e-16 3.494484e-17 -1 4.655873e-17 -4.65284e-16 -1 4.655913e-17 -4.65284e-16 -1 -4.639787e-16 5.814421e-17 -1 -4.639787e-16 5.814366e-17 -1 6.969291e-17 -4.623849e-16 -1 6.96937e-17 -4.623849e-16 -1 -4.605037e-16 8.119931e-17 -1 -4.605037e-16 8.119941e-17 -1 9.265415e-17 -4.583362e-16 -1 9.265497e-17 -4.583361e-16 -1 -4.558839e-16 1.040522e-16 -1 -4.558838e-16 1.040524e-16 -1 1.15386e-16 -4.531479e-16 -1 1.153857e-16 -4.53148e-16 -1 -4.501305e-16 1.266474e-16 -1 -4.501305e-16 1.26647e-16 -1 1.378296e-16 -4.468332e-16 -1 1.378298e-16 -4.468332e-16 -1 -4.432581e-16 1.489272e-16 -1 -4.43258e-16 1.48927e-16 -1 1.599313e-16 -4.394075e-16 -1 1.599309e-16 -4.394076e-16 -1 -4.352837e-16 1.708361e-16 -1 -4.352838e-16 1.708361e-16 -1 1.816352e-16 -4.308893e-16 -1 1.816356e-16 -4.308892e-16 -1 -4.161109e-16 2.133276e-16 -1 -4.262271e-16 1.923208e-16 -1 -4.262271e-16 1.923212e-16 -1 2.028874e-16 -4.213e-16 -1 2.028869e-16 -4.213001e-16 -1 -4.16111e-16 2.133279e-16 -1 2.236354e-16 -4.106631e-16 -1 2.236349e-16 -4.106633e-16 -1 2.438273e-16 -3.990052e-16 -1 -4.049601e-16 2.338039e-16 -1 -4.049598e-16 2.338042e-16 -1 2.634126e-16 -3.863558e-16 -1 2.438272e-16 -3.990053e-16 -1 -3.928028e-16 2.536986e-16 -1 -3.928025e-16 2.536989e-16 -1 2.634126e-16 -3.863557e-16 -1 -3.796685e-16 2.72963e-16 -1 -3.796685e-16 2.729629e-16 -1 -3.655905e-16 2.915486e-16 -1 2.823436e-16 -3.727453e-16 -1 2.823436e-16 -3.727452e-16 -1 -3.655902e-16 2.91549e-16 -1 3.005725e-16 -3.582082e-16 -1 3.005724e-16 -3.582082e-16 -1 -3.506035e-16 3.094094e-16 -1 -3.506034e-16 3.094094e-16 -1 3.180537e-16 -3.427808e-16 -1 3.180541e-16 -3.427806e-16 -1 -3.34745e-16 3.265007e-16 -1 -3.347448e-16 3.265009e-16 -1 3.347448e-16 -3.265009e-16 -1 3.34745e-16 -3.265007e-16 -1 3.506035e-16 -3.094093e-16 -1 -3.180539e-16 3.427808e-16 -1 -3.180541e-16 3.427806e-16 -1 -3.005726e-16 3.582084e-16 -1 3.506034e-16 -3.094093e-16 -1 3.655901e-16 -2.91549e-16 -1 -3.005725e-16 3.582082e-16 -1 3.655907e-16 -2.915487e-16 -1 -2.823436e-16 3.727453e-16 -1 -2.634126e-16 3.863557e-16 -1 -2.823436e-16 3.727452e-16 -1 3.796685e-16 -2.72963e-16 -1 3.796686e-16 -2.729628e-16 -1 -2.634126e-16 3.863558e-16 -1 -2.438272e-16 3.990053e-16 -1 3.928026e-16 -2.536991e-16 -1 3.928027e-16 -2.536984e-16 -1 -2.438273e-16 3.990052e-16 -1 4.0496e-16 -2.338041e-16 -1 4.049601e-16 -2.338041e-16 -1 -2.236349e-16 4.106633e-16 -1 -2.236354e-16 4.106631e-16 -1 4.161108e-16 -2.133278e-16 -1 4.161109e-16 -2.133276e-16 -1 -2.028869e-16 4.213001e-16 -1 -2.028874e-16 4.213e-16 -1 4.262271e-16 -1.92321e-16 -1 4.352838e-16 -1.708361e-16 -1 4.26227e-16 -1.923211e-16 -1 -1.816356e-16 4.308892e-16 -1 -1.816352e-16 4.308893e-16 -1 4.352837e-16 -1.708359e-16 -1 -1.378298e-16 4.468331e-16 -1 -1.599309e-16 4.394076e-16 -1 -1.599313e-16 4.394075e-16 -1 4.43258e-16 -1.48927e-16 -1 4.501305e-16 -1.266472e-16 -1 4.432581e-16 -1.489272e-16 -1 -1.378296e-16 4.468333e-16 -1 4.501305e-16 -1.266469e-16 -1 -1.153857e-16 4.53148e-16 -1 -1.15386e-16 4.53148e-16 -1 4.558838e-16 -1.040524e-16 -1 4.558838e-16 -1.040522e-16 -1 -9.265497e-17 4.583361e-16 -1 -9.265414e-17 4.583362e-16 -1 4.605037e-16 -8.119931e-17 -1 4.605036e-16 -8.119923e-17 -1 -6.969291e-17 4.623849e-16 -1 -6.96937e-17 4.623849e-16 -1 4.639787e-16 -5.814366e-17 -1 4.639787e-16 -5.814433e-17 -1 -4.655913e-17 4.65284e-16 -1 -4.655873e-17 4.65284e-16 -1 4.663001e-16 -3.494412e-17 -1 4.663002e-16 -3.494502e-17 -1 0 4.676077e-16 -1 -2.330773e-17 4.670264e-16 -1 -2.330789e-17 4.670264e-16 -1 4.210527e-16 4.209685e-16 -1 4.674624e-16 -1.165782e-17 -1 0 4.676077e-16 -1 4.889693e-16 -4.192748e-16 -1 4.210526e-16 1.050038e-17 -1 2.330789e-17 4.670264e-16 -1 4.655873e-17 4.65284e-16 -1 2.330773e-17 4.670264e-16 -1 4.663001e-16 3.494501e-17 -1 4.663003e-16 3.494436e-17 -1 6.96937e-17 4.623849e-16 -1 4.655913e-17 4.65284e-16 -1 4.639788e-16 5.814368e-17 -1 4.639786e-16 5.814432e-17 -1 6.969291e-17 4.623849e-16 -1 4.605037e-16 8.119924e-17 -1 4.605036e-16 8.11993e-17 -1 9.265495e-17 4.58336e-16 -1 1.15386e-16 4.531479e-16 -1 9.265417e-17 4.583364e-16 -1 4.558838e-16 1.040524e-16 -1 4.558838e-16 1.040522e-16 -1 1.153857e-16 4.53148e-16 -1 4.501305e-16 1.266469e-16 -1 4.501304e-16 1.266472e-16 -1 1.378296e-16 4.468333e-16 -1 1.378298e-16 4.468331e-16 -1 4.43258e-16 1.48927e-16 -1 4.43258e-16 1.48927e-16 -1 1.599313e-16 4.394074e-16 -1 1.59931e-16 4.394076e-16 -1 4.352837e-16 1.708359e-16 -1 4.352838e-16 1.708361e-16 -1 4.262271e-16 1.92321e-16 -1 1.816352e-16 4.308893e-16 -1 1.816355e-16 4.308892e-16 -1 4.26227e-16 1.923211e-16 -1 2.028874e-16 4.212999e-16 -1 2.02887e-16 4.213002e-16 -1 4.16111e-16 2.133277e-16 -1 4.161108e-16 2.133278e-16 -1 2.23635e-16 4.106633e-16 -1 2.236354e-16 4.10663e-16 -1 4.0496e-16 2.338038e-16 -1 4.049599e-16 2.338041e-16 -1 3.928027e-16 2.536984e-16 -1 2.438273e-16 3.990052e-16 -1 2.438272e-16 3.990053e-16 -1 3.928026e-16 2.536991e-16 -1 2.634126e-16 3.863558e-16 -1 2.634126e-16 3.863557e-16 -1 3.796684e-16 2.729627e-16 -1 3.796687e-16 2.729628e-16 -1 3.655902e-16 2.91549e-16 -1 2.823436e-16 3.727453e-16 -1 2.823436e-16 3.727452e-16 -1 3.655906e-16 2.915487e-16 -1 3.005724e-16 3.582082e-16 -1 3.005725e-16 3.582082e-16 -1 3.506035e-16 3.094093e-16 -1 3.506034e-16 3.094093e-16 -1 3.347448e-16 3.265009e-16 -1 3.180541e-16 3.427806e-16 -1 3.180539e-16 3.427808e-16 -1 3.34745e-16 3.265007e-16 -1 0 0 1 0 0 1 0 0 1 0 0 1 0 0 1 0 0 1 0 0 1 0 0 1 0 0 1 0 0 1 0 0 1 0 0 1 0 0 1 0 0 1 0 0 1 0 0 1 0 0 1 0 0 1 0 0 1 0 0 1 0 0 1 0 0 1 0 0 1 0 0 1 0 0 1 0 0 1 0 0 1 0 0 1 0 0 1 0 0 1 0 0 1 0 0 1 0 0 1 0 0 1 0 0 1 0 0 1 0 0 1 0 0 1 0 0 1 0 0 1 0 0 1 0 0 1 0 0 1 0 0 1 0 0 1 0 0 1 0 0 1 0 0 1 0 0 1 0 0 1 0 0 1 0 0 1 0 0 1 0 0 1 0 0 1 0 0 1 0 0 1 0 0 1 0 0 1 0 0 1 0 0 1 0 0 1 0 0 1 0 0 1 0 0 1 0 0 1 0 0 1 0 0 1 0 0 1 0 0 1 0 0 1 0 0 1 0 0 1 0 0 1 0 0 1 0 0 1 0 0 1 0 0 1 0 0 1 0 0 1 0 0 1 0 0 1 0 0 1 0 0 1 0 0 1 0 0 1 0 0 1 0 0 1 0 0 1 0 0 1 0 0 1 0 0 1 0 0 1 0 0 1 0 0 1 0 0 1 0 0 1 0 0 1 0 0 1 0 0 1 0 0 1 0 0 1 0 0 1 0 0 1 0 0 1 0 0 1 0 0 1 0 0 1 0 0 1 0 0 1 0 0 1 0 0 1 0 0 1 0 0 1 0 0 1 0 0 1 0 0 1 0 0 1 0 0 1 0 0 1 0 0 1 0 0 1 0 0 1 0 0 1 0 0 1 0 0 1 0 0 1 0 0 1 0 0 1 0 0 1 0 0 1 0 0 1 0 0 1 0 0 1 0 0 1 0 0 1 0 0 1 0 0 1 0 0 1 0 0 1 0 0 1 0 0 1 0 0 1 0 0 1 0 0 1 0 0 1 0 0 1 0 0 1 0 0 1 0 0 1 0 0 1 0 0 1 0 0 1 0 0 1 0 0 1 0 0 1 0 0 1 0 0 1 0 0 1 0 0 1 0 0 1 0 0 1 0 0 1 0 0 1 0 0 1 0 0 1 0 0 1 0 0 1 0 0 1 0 0 1 0 0 1 0 0 1 0 0 1 0 0 1 0 0 1 0 0 1 0 0 1 0 0 1 0 0 1 0 0 1 0 0 1 0 0 1 0 0 1 0 0 1 0 0 1 0 0 1 0 0 1 0 0 1 0 0 1 0 0 1 0 0 1 0 0 1 0 0 1 0 0 1 0 0 1 0 0 1 0 0 1 0 0 1 0 0 1 0 0 1 0 0 1 0 0 1 0 0 1 0 0 1 0 0 1 0 0 1 0 0 1 0 0 1 0 0 1 0 0 1 0 0 1 0 0 1 0 0 1 0 0 1 0 0 1 0 0 1 0 0 1 0 0 1 0 0 1 0 0 1 0 0 1 0 0 1 0 0 1 0 0 1 0 0 1 0 0 1 0 0 1 0 0 1 0 0 1 0 0 1 0 0 1 0 0 1 0 0 1 0 0 1 0 0 1 0 0 1 0 0 1 0 0 1 0 0 1 0 0 1 0 0 1 0 0 1 0 0 1 0 0 1 0 0 1 0 0 1 0 0 1 0 0 1 0 0 1 0 0 1 0 0 1 0 0 1 -0.9996893 -0.02492977 -0 -0.9996893 -0.02492977 0 -0.9972036 -0.07473147 0 -0.9972036 -0.07473147 0 -0.9922393 -0.1243429 0 -0.9848078 -0.1736482 0 -0.9922393 -0.1243429 -0 -0.9848078 -0.1736482 0 -0.974928 -0.2225207 0 -0.974928 -0.2225207 -0 -0.9626241 -0.2708407 0 -0.9626241 -0.2708407 -0 -0.9479273 -0.3184871 0 -0.9308739 -0.3653407 0 -0.9479273 -0.3184871 -0 -0.9308739 -0.3653407 0 -0.9115058 -0.411287 0 -0.9115058 -0.411287 -0 -0.8898716 -0.4562111 0 -0.8898716 -0.4562111 -0 -0.866025 -0.5000005 -0 -0.866025 -0.5000005 0 -0.8400264 -0.5425456 -0 -0.8400264 -0.5425456 0 -0.8119384 -0.5837432 -0 -0.8119384 -0.5837432 0 -0.7818309 -0.6234905 -0 -0.7818309 -0.6234905 0 -0.7497814 -0.6616856 0 -0.7497814 -0.6616856 0 -0.7158669 -0.6982369 -0 -0.7158669 -0.6982369 0 -0.680173 -0.7330517 0 -0.6427876 -0.7660444 0 -0.680173 -0.7330517 -0 -0.6427876 -0.7660444 0 -0.6038045 -0.7971324 -0 -0.6038045 -0.7971324 0 -0.5633196 -0.8262391 0 -0.5633196 -0.8262391 -0 -0.5214355 -0.8532908 0 -0.5214355 -0.8532908 -0 -0.4782543 -0.8782214 0 -0.4338828 -0.9009693 0 -0.4782543 -0.8782214 -0 -0.3884358 -0.9214758 0 -0.4338828 -0.9009693 0 -0.3420195 -0.9396929 0 -0.3884358 -0.9214758 0 -0.2947553 -0.9555728 0 -0.3420195 -0.9396929 0 -0.2947553 -0.9555728 0 -0.2467582 -0.9690772 0 -0.2467582 -0.9690772 -0 -0.1981451 -0.9801728 0 -0.1490431 -0.9888307 0 -0.1981451 -0.9801728 -0 -0.1490431 -0.9888307 0 -0.09956794 -0.9950307 0 -0.09956794 -0.9950307 -0 -0.04984463 -0.998757 0 0 -1 0 -0.04984463 -0.998757 -0 -0 -1 0 0.04984463 -0.998757 0 0.09956794 -0.9950307 0 0.04984463 -0.998757 0 0.09956794 -0.9950307 0 0.1490431 -0.9888307 0 0.1981451 -0.9801728 0 0.1490431 -0.9888307 0 0.1981451 -0.9801728 0 0.2467582 -0.9690772 0 0.2467582 -0.9690772 0 0.2947553 -0.9555728 0 0.2947553 -0.9555728 0 0.3420195 -0.9396929 0 0.3420195 -0.9396929 0 0.3884358 -0.9214758 0 0.3884358 -0.9214758 0 0.4338828 -0.9009693 0 0.4338828 -0.9009693 0 0.4782543 -0.8782214 0 0.4782543 -0.8782214 0 0.5214355 -0.8532908 0 0.5214355 -0.8532908 0 0.5633196 -0.8262391 0 0.5633196 -0.8262391 0 0.6038045 -0.7971324 0 0.6038045 -0.7971324 0 0.6427876 -0.7660444 0 0.6427876 -0.7660444 0 0.680173 -0.7330517 0 0.680173 -0.7330517 0 0.7158669 -0.6982369 0 0.7158669 -0.6982369 0 0.7497814 -0.6616856 0 0.7497814 -0.6616856 0 0.7818309 -0.6234905 0 0.7818309 -0.6234905 0 0.8119384 -0.5837432 0 0.8119384 -0.5837432 0 0.8400264 -0.5425456 0 0.8400264 -0.5425456 0 0.866025 -0.5000005 0 0.866025 -0.5000005 0 0.8898716 -0.4562111 0 0.8898716 -0.4562111 0 0.9115058 -0.411287 0 0.9115058 -0.411287 0 0.9308739 -0.3653407 0 0.9308739 -0.3653407 0 0.9479273 -0.3184871 0 0.9626241 -0.2708407 0 0.9479273 -0.3184871 0 0.9626241 -0.2708407 0 0.974928 -0.2225207 0 0.974928 -0.2225207 0 0.9848078 -0.1736482 0 0.9848078 -0.1736482 0 0.9922393 -0.1243429 0 0.9922393 -0.1243429 0 0.9972036 -0.07473147 0 0.9972036 -0.07473147 0 0.9996893 -0.02492977 0 0.9996893 -0.02492977 0 0.9996893 0.02492977 0 0.9996893 0.02492977 0 0.9972036 0.07473147 -0 0.9972036 0.07473147 0 0.9922393 0.1243429 0 0.9922393 0.1243429 0 0.9848078 0.1736482 0 0.9848078 0.1736482 0 0.974928 0.2225207 0 0.974928 0.2225207 0 0.9626241 0.2708407 -0 0.9626241 0.2708407 0 0.9479273 0.3184871 -0 0.9479273 0.3184871 0 0.9308739 0.3653407 0 0.9308739 0.3653407 0 0.9115058 0.411287 0 0.9115058 0.411287 0 0.8898716 0.4562111 0 0.8898716 0.4562111 0 0.866025 0.5000005 -0 0.866025 0.5000005 0 0.8400264 0.5425456 -0 0.8400264 0.5425456 0 0.8119384 0.5837432 0 0.8119384 0.5837432 0 0.7818309 0.6234905 -0 0.7818309 0.6234905 0 0.7497814 0.6616856 0 0.7497814 0.6616856 0 0.7158669 0.6982369 -0 0.7158669 0.6982369 0 0.680173 0.7330517 0 0.680173 0.7330517 0 0.6427876 0.7660444 0 0.6427876 0.7660444 0 0.6038045 0.7971324 -0 0.6038045 0.7971324 0 0.5633196 0.8262391 0 0.5633196 0.8262391 0 0.5214355 0.8532908 0 0.5214355 0.8532908 0 0.4782543 0.8782214 0 0.4782543 0.8782214 0 0.4338828 0.9009693 0 0.4338828 0.9009693 0 0.3884358 0.9214758 0 0.3884358 0.9214758 0 0.3420195 0.9396929 0 0.3420195 0.9396929 0 0.2947553 0.9555728 0 0.2947553 0.9555728 0 0.2467582 0.9690772 0 0.2467582 0.9690772 0 0.1981451 0.9801728 0 0.1981451 0.9801728 0 0.1490431 0.9888307 -0 0.1490431 0.9888307 0 0.09956794 0.9950307 0 0.09956794 0.9950307 0 0.04984463 0.998757 0 0.04984463 0.998757 0 -0 1 0 0 1 0 -0.04984463 0.998757 0 -0.04984463 0.998757 0 -0.09956794 0.9950307 0 -0.09956794 0.9950307 0 -0.1490431 0.9888307 0 -0.1490431 0.9888307 0 -0.1981451 0.9801728 0 -0.1981451 0.9801728 0 -0.2467582 0.9690772 0 -0.2947553 0.9555728 0 -0.2467582 0.9690772 0 -0.2947553 0.9555728 0 -0.3420195 0.9396929 0 -0.3420195 0.9396929 0 -0.3884358 0.9214758 0 -0.3884358 0.9214758 0 -0.4338828 0.9009693 0 -0.4338828 0.9009693 0 -0.4782543 0.8782214 0 -0.4782543 0.8782214 0 -0.5214355 0.8532908 0 -0.5214355 0.8532908 0 -0.5633196 0.8262391 0 -0.5633196 0.8262391 0 -0.6038045 0.7971324 0 -0.6038045 0.7971324 0 -0.6427876 0.7660444 0 -0.6427876 0.7660444 0 -0.680173 0.7330517 0 -0.7158669 0.6982369 0 -0.680173 0.7330517 0 -0.7158669 0.6982369 0 -0.7497814 0.6616856 0 -0.7497814 0.6616856 0 -0.7818309 0.6234905 0 -0.7818309 0.6234905 0 -0.8119384 0.5837432 0 -0.8119384 0.5837432 0 -0.8400264 0.5425456 0 -0.8400264 0.5425456 0 -0.866025 0.5000005 0 -0.866025 0.5000005 0 -0.8898716 0.4562111 0 -0.8898716 0.4562111 0 -0.9115058 0.411287 0 -0.9115058 0.411287 0 -0.9308739 0.3653407 0 -0.9308739 0.3653407 0 -0.9479273 0.3184871 0 -0.9479273 0.3184871 0 -0.9626241 0.2708407 0 -0.9626241 0.2708407 0 -0.974928 0.2225207 0 -0.974928 0.2225207 0 -0.9848078 0.1736482 0 -0.9848078 0.1736482 0 -0.9922393 0.1243429 0 -0.9922393 0.1243429 0 -0.9972036 0.07473147 0 -0.9972036 0.07473147 0 -0.9996893 0.02492977 0 -0.9996893 0.02492977 0 -0.9996891 -0.0249312 0 -0.9996891 -0.0249312 0 -0.9972038 -0.07473012 0 -0.9922392 -0.1243435 0 -0.9972038 -0.07473012 -0 -0.9848079 -0.1736475 0 -0.9922392 -0.1243435 0 -0.9848079 -0.1736475 0 -0.9749277 -0.2225219 0 -0.9626245 -0.2708397 0 -0.9749277 -0.2225219 -0 -0.9626245 -0.2708397 0 -0.9479274 -0.3184864 0 -0.9308738 -0.3653409 0 -0.9479274 -0.3184864 -0 -0.9308738 -0.3653409 0 -0.9115054 -0.4112881 0 -0.9115054 -0.4112881 -0 -0.8898719 -0.4562104 0 -0.8898719 -0.4562104 -0 -0.8660254 -0.4999999 -0 -0.8660254 -0.4999999 0 -0.8400257 -0.5425466 0 -0.8400257 -0.5425466 0 -0.8119386 -0.5837429 -0 -0.8119386 -0.5837429 0 -0.7818314 -0.62349 -0 -0.7818314 -0.62349 0 -0.7497811 -0.661686 0 -0.7497811 -0.661686 0 -0.7158667 -0.6982369 -0 -0.7158667 -0.6982369 0 -0.6801726 -0.7330521 0 -0.6801726 -0.7330521 -0 -0.6427875 -0.7660444 0 -0.6038052 -0.7971319 0 -0.6427875 -0.7660444 -0 -0.6038052 -0.7971319 0 -0.5633202 -0.8262388 0 -0.5633202 -0.8262388 -0 -0.5214346 -0.8532912 0 -0.5214346 -0.8532912 -0 -0.4782539 -0.8782217 0 -0.4782539 -0.8782217 -0 -0.4338838 -0.9009688 0 -0.4338838 -0.9009688 -0 -0.3884343 -0.9214764 0 -0.3884343 -0.9214764 -0 -0.342021 -0.9396923 0 -0.342021 -0.9396923 -0 -0.2947549 -0.9555728 0 -0.2947549 -0.9555728 -0 -0.246758 -0.9690771 0 -0.246758 -0.9690771 -0 -0.1981458 -0.9801726 0 -0.1981458 -0.9801726 -0 -0.1490419 -0.9888309 0 -0.1490419 -0.9888309 -0 -0.09956854 -0.9950306 0 -0.09956854 -0.9950306 -0 -0.04984451 -0.998757 0 0 -1 0 -0.04984451 -0.998757 -0 -0 -1 0 0.04984451 -0.998757 0 0.04984451 -0.998757 0 0.09956854 -0.9950306 0 0.1490419 -0.9888309 0 0.09956854 -0.9950306 0 0.1490419 -0.9888309 0 0.1981458 -0.9801726 0 0.1981458 -0.9801726 0 0.246758 -0.9690771 0 0.246758 -0.9690771 0 0.2947549 -0.9555728 0 0.2947549 -0.9555728 0 0.342021 -0.9396923 0 0.342021 -0.9396923 0 0.3884343 -0.9214764 0 0.3884343 -0.9214764 0 0.4338838 -0.9009688 0 0.4338838 -0.9009688 0 0.4782539 -0.8782217 0 0.4782539 -0.8782217 0 0.5214346 -0.8532912 0 0.5214346 -0.8532912 0 0.5633202 -0.8262388 0 0.5633202 -0.8262388 0 0.6038052 -0.7971319 0 0.6038052 -0.7971319 0 0.6427875 -0.7660444 0 0.6427875 -0.7660444 0 0.6801726 -0.7330521 0 0.6801726 -0.7330521 0 0.7158667 -0.6982369 0 0.7158667 -0.6982369 0 0.7497811 -0.661686 0 0.7497811 -0.661686 0 0.7818314 -0.62349 0 0.7818314 -0.62349 0 0.8119386 -0.5837429 0 0.8400257 -0.5425466 0 0.8119386 -0.5837429 0 0.8400257 -0.5425466 0 0.8660254 -0.4999999 0 0.8898719 -0.4562104 0 0.8660254 -0.4999999 0 0.8898719 -0.4562104 0 0.9115054 -0.4112881 0 0.9308738 -0.3653409 0 0.9115054 -0.4112881 0 0.9308738 -0.3653409 0 0.9479274 -0.3184864 0 0.9626245 -0.2708397 0 0.9479274 -0.3184864 0 0.9626245 -0.2708397 0 0.9749277 -0.2225219 0 0.9749277 -0.2225219 0 0.9848079 -0.1736475 0 0.9922392 -0.1243435 0 0.9848079 -0.1736475 0 0.9922392 -0.1243435 0 0.9972038 -0.07473012 0 0.9972038 -0.07473012 0 0.9996891 -0.0249312 0 0.9996891 -0.0249312 0 0.9996891 0.0249312 0 0.9996891 0.0249312 0 0.9972038 0.07473012 -0 0.9972038 0.07473012 0 0.9922392 0.1243435 0 0.9922392 0.1243435 0 0.9848079 0.1736475 -0 0.9848079 0.1736475 0 0.9749277 0.2225219 0 0.9749277 0.2225219 0 0.9626245 0.2708397 0 0.9626245 0.2708397 0 0.9479274 0.3184864 0 0.9479274 0.3184864 0 0.9308738 0.3653409 0 0.9308738 0.3653409 0 0.9115054 0.4112881 0 0.9115054 0.4112881 0 0.8898719 0.4562104 0 0.8898719 0.4562104 0 0.8660254 0.4999999 -0 0.8660254 0.4999999 0 0.8400257 0.5425466 0 0.8400257 0.5425466 0 0.8119386 0.5837429 0 0.8119386 0.5837429 0 0.7818314 0.62349 0 0.7818314 0.62349 0 0.7497811 0.661686 0 0.7497811 0.661686 0 0.7158667 0.6982369 -0 0.7158667 0.6982369 0 0.6801726 0.7330521 0 0.6801726 0.7330521 0 0.6427875 0.7660444 0 0.6427875 0.7660444 0 0.6038052 0.7971319 0 0.6038052 0.7971319 0 0.5633202 0.8262388 -0 0.5633202 0.8262388 0 0.5214346 0.8532912 0 0.5214346 0.8532912 0 0.4782539 0.8782217 0 0.4782539 0.8782217 0 0.4338838 0.9009688 0 0.3884343 0.9214764 -0 0.4338838 0.9009688 0 0.3884343 0.9214764 0 0.342021 0.9396923 0 0.342021 0.9396923 0 0.2947549 0.9555728 0 0.2947549 0.9555728 0 0.246758 0.9690771 0 0.246758 0.9690771 0 0.1981458 0.9801726 -0 0.1981458 0.9801726 0 0.1490419 0.9888309 0 0.1490419 0.9888309 0 0.09956854 0.9950306 0 0.09956854 0.9950306 0 0.04984451 0.998757 0 0.04984451 0.998757 0 0 1 0 -0 1 0 -0.04984451 0.998757 0 -0.04984451 0.998757 0 -0.09956854 0.9950306 0 -0.09956854 0.9950306 0 -0.1490419 0.9888309 0 -0.1490419 0.9888309 0 -0.246758 0.9690771 0 -0.1981458 0.9801726 0 -0.1981458 0.9801726 0 -0.246758 0.9690771 0 -0.2947549 0.9555728 0 -0.342021 0.9396923 0 -0.2947549 0.9555728 0 -0.342021 0.9396923 0 -0.3884343 0.9214764 0 -0.4338838 0.9009688 0 -0.3884343 0.9214764 0 -0.4338838 0.9009688 0 -0.4782539 0.8782217 0 -0.4782539 0.8782217 0 -0.5214346 0.8532912 0 -0.5633202 0.8262388 0 -0.5214346 0.8532912 0 -0.5633202 0.8262388 0 -0.6038052 0.7971319 0 -0.6038052 0.7971319 0 -0.6427875 0.7660444 0 -0.6427875 0.7660444 0 -0.6801726 0.7330521 0 -0.6801726 0.7330521 0 -0.7158667 0.6982369 0 -0.7158667 0.6982369 0 -0.7497811 0.661686 0 -0.7497811 0.661686 0 -0.7818314 0.62349 0 -0.7818314 0.62349 0 -0.8119386 0.5837429 0 -0.8119386 0.5837429 0 -0.8400257 0.5425466 0 -0.8400257 0.5425466 0 -0.8660254 0.4999999 0 -0.8898719 0.4562104 0 -0.8660254 0.4999999 0 -0.8898719 0.4562104 0 -0.9115054 0.4112881 0 -0.9115054 0.4112881 0 -0.9308738 0.3653409 0 -0.9308738 0.3653409 0 -0.9479274 0.3184864 0 -0.9479274 0.3184864 0 -0.9626245 0.2708397 0 -0.9626245 0.2708397 0 -0.9749277 0.2225219 0 -0.9848079 0.1736475 0 -0.9749277 0.2225219 0 -0.9848079 0.1736475 0 -0.9922392 0.1243435 0 -0.9922392 0.1243435 0 -0.9972038 0.07473012 0 -0.9996891 0.0249312 0 -0.9972038 0.07473012 0 -0.9996891 0.0249312 0 0 0 1 0 0 1 0 0 1 0 0 1 0 0 1 0 0 1 0 0 1 0 0 1 0 0 1 0 0 1 0 0 1 0 0 1 0 0 1 0 0 1 0 0 1 0 0 1 0 0 1 0 0 1 0 0 1 0 0 1 0 0 1 0 0 1 0 0 1 0 0 1 0 0 1 0 0 1 0 0 1 0 0 1 0 0 1 0 0 1 0 0 1 0 0 1 0 0 1 0 0 1 0 0 1 0 0 1 0 0 1 0 0 1 0 0 1 0 0 1 0 0 1 0 0 1 0 0 1 0 0 1 0 0 1 0 0 1 0 0 1 0 0 1 0 0 1 0 0 1 0 0 1 0 0 1 0 0 1 0 0 1 0 0 1 0 0 1 0 0 1 0 0 1 0 0 1 0 0 1 0 0 1 0 0 1 0 0 1 0 0 1 0 0 1 0 0 1 0 0 1 0 0 1 0 0 1 0 0 1 0 0 1 0 0 1 0 0 1 0 0 1 0 0 1 0 0 1 0 0 1 0 0 1 0 0 1 0 0 1 0 0 1 0 0 1 0 0 1 0 0 1 0 0 1 0 0 1 0 0 1 0 0 1 0 0 1 0 0 1 0 0 1 0 0 1 0 0 1 0 0 1 0 0 1 0 0 1 0 0 1 0 0 1 0 0 1 0 0 1 0 0 1 0 0 1 0 0 1 0 0 1 0 0 1 0 0 1 0 0 1 0 0 1 0 0 1 0 0 1 0 0 1 0 0 1 0 0 1 0 0 1 0 0 1 0 0 1 0 0 1 0 0 1 0 0 1 0 0 1 0 0 1 0 0 1 0 0 1 0 0 1 0 0 1 0 0 1 0 0 1 0 0 1 0 0 1 0 0 1 0 0 1 0 0 1 0 0 1 0 0 1 0 0 1 0 0 1 0 0 1 0 0 1 0 0 1 0 0 1 0 0 1 0 0 1 0 0 1 0 0 1 0 0 1 0 0 1 0 0 1 0 0 1 0 0 1 0 0 1 0 0 1 0 0 1 0 0 1 0 0 1 0 0 1 0 0 1 0 0 1 0 0 1 0 0 1 0 0 1 0 0 1 0 0 1 0 0 1 0 0 1 0 0 1 0 0 1 0 0 1 0 0 1 0 0 1 0 0 1 0 0 1 0 0 1 0 0 1 0 0 1 0 0 1 0 0 1 0 0 1 0 0 1 0 0 1 0 0 1 0 0 1 0 0 1 0 0 1 0 0 1 0 0 1 0 0 1 0 0 1 0 0 1 0 0 1 0 0 1 0 0 1 0 0 1 0 0 1 0 0 1 0 0 1 0 0 1 0 0 1 0 0 1 0 0 1 0 0 1 0 0 1 0 0 1 0 0 1 0 0 1 0 0 1 0 0 1 0 0 1 0 0 1 0 0 1 0 0 1 0 0 1 0 0 1 0 0 1 0 0 1 0 0 1 0 0 1 0 0 1 0 0 1 0 0 1 0 0 1 0 0 1 0 0 1 0 0 1 0 0 1 0 0 1 0 0 1 0 0 1 0 0 1 0 0 1 0 0 1 0 0 1 0 0 1 0 0 1 0 0 1 0 0 1 0 0 1 0 0 1 0 0 1 0 0 1 0 0 1 0 0 1 0 0 1 0 0 1 0 0 1 0 0 1 0 0 1 0 0 1 0 0 1 0 0 1 0 0 1 0 0 1 0 0 1</float_array>
          <technique_common>
            <accessor count="1512" source="#cubenormals-array0-array" stride="3">
              <param type="float" name="X"/>
              <param type="float" name="Y"/>
              <param type="float" name="Z"/>
            </accessor>
          </technique_common>
        </source>
        <vertices id="cubeverts-array0-vertices">
          <input semantic="POSITION" source="#cubeverts-array0"/>
        </vertices>
        <triangles count="1512" material="ref_Body011">
          <input offset="0" semantic="VERTEX" source="#cubeverts-array0-vertices"/>
          <input offset="1" semantic="NORMAL" source="#cubenormals-array0"/>
          <p>0 0 1 0 2 0 2 1 1 1 3 1 3 2 1 2 4 2 4 3 5 3 6 3 1 4 5 4 4 4 5 5 7 5 6 5 6 6 8 6 9 6 9 7 8 7 10 7 7 8 8 8 6 8 8 9 11 9 10 9 10 10 12 10 13 10 11 11 12 11 10 11 13 12 14 12 15 12 15 13 14 13 16 13 12 14 14 14 13 14 14 15 17 15 16 15 16 16 18 16 19 16 17 17 18 17 16 17 19 18 20 18 21 18 18 19 20 19 19 19 20 20 22 20 21 20 21 21 22 21 23 21 23 22 22 22 24 22 22 23 25 23 24 23 25 24 26 24 24 24 24 25 26 25 27 25 26 26 28 26 27 26 27 27 28 27 29 27 29 28 30 28 31 28 31 29 30 29 32 29 28 30 30 30 29 30 30 31 33 31 32 31 32 32 34 32 35 32 33 33 34 33 32 33 35 34 36 34 37 34 37 35 36 35 38 35 34 36 36 36 35 36 36 37 39 37 38 37 38 38 40 38 41 38 39 39 40 39 38 39 41 40 42 40 43 40 40 41 42 41 41 41 43 42 44 42 45 42 42 43 44 43 43 43 45 44 46 44 47 44 44 45 46 45 45 45 47 46 48 46 49 46 46 47 48 47 47 47 49 48 50 48 51 48 48 49 50 49 49 49 51 50 52 50 53 50 50 51 52 51 51 51 53 52 54 52 55 52 52 53 54 53 53 53 55 54 56 54 57 54 57 55 56 55 58 55 54 56 56 56 55 56 56 57 59 57 58 57 58 58 60 58 61 58 59 59 60 59 58 59 61 60 62 60 63 60 60 61 62 61 61 61 63 62 64 62 65 62 62 63 64 63 63 63 65 64 66 64 67 64 64 65 66 65 65 65 67 66 68 66 69 66 66 67 68 67 67 67 69 68 70 68 71 68 68 69 70 69 69 69 71 70 72 70 73 70 70 71 72 71 71 71 73 72 74 72 75 72 75 73 74 73 76 73 72 74 74 74 73 74 74 75 77 75 76 75 76 76 77 76 78 76 77 77 79 77 78 77 79 78 80 78 78 78 78 79 80 79 81 79 80 80 82 80 81 80 81 81 82 81 83 81 82 82 84 82 83 82 83 83 84 83 85 83 84 84 86 84 85 84 85 85 86 85 87 85 86 86 88 86 87 86 87 87 88 87 89 87 88 88 90 88 89 88 89 89 90 89 91 89 90 90 92 90 91 90 91 91 92 91 93 91 93 92 92 92 94 92 92 93 95 93 94 93 94 94 96 94 97 94 95 95 96 95 94 95 97 96 98 96 99 96 96 97 98 97 97 97 99 98 100 98 101 98 101 99 100 99 102 99 98 100 100 100 99 100 100 101 103 101 102 101 102 102 104 102 105 102 105 103 104 103 106 103 103 104 104 104 102 104 104 105 107 105 106 105 106 106 108 106 109 106 109 107 108 107 110 107 107 108 108 108 106 108 108 109 111 109 110 109 110 110 112 110 113 110 111 111 112 111 110 111 113 112 114 112 115 112 115 113 114 113 116 113 112 114 114 114 113 114 114 115 117 115 116 115 116 116 118 116 119 116 117 117 118 117 116 117 119 118 120 118 121 118 118 119 120 119 119 119 121 120 122 120 123 120 120 121 122 121 121 121 122 122 124 122 123 122 123 123 124 123 125 123 125 124 124 124 126 124 124 125 127 125 126 125 126 126 127 126 128 126 127 127 129 127 128 127 129 128 130 128 128 128 128 129 130 129 131 129 131 130 130 130 132 130 130 131 133 131 132 131 132 132 133 132 134 132 133 133 135 133 134 133 134 134 135 134 136 134 135 135 137 135 136 135 137 136 138 136 136 136 136 137 138 137 139 137 139 138 138 138 140 138 138 139 141 139 140 139 140 140 141 140 142 140 141 141 143 141 142 141 143 142 144 142 142 142 142 143 144 143 145 143 145 144 144 144 146 144 144 145 147 145 146 145 147 146 148 146 146 146 146 147 148 147 149 147 148 148 150 148 149 148 149 149 150 149 151 149 150 150 152 150 151 150 151 151 152 151 153 151 153 152 152 152 154 152 152 153 155 153 154 153 155 154 156 154 154 154 154 155 156 155 157 155 156 156 158 156 157 156 157 157 158 157 159 157 159 158 158 158 160 158 158 159 161 159 160 159 161 160 162 160 160 160 160 161 162 161 163 161 162 162 164 162 163 162 163 163 164 163 165 163 165 164 166 164 167 164 164 165 166 165 165 165 167 166 166 166 168 166 166 167 169 167 168 167 168 168 170 168 171 168 169 169 170 169 168 169 171 170 172 170 173 170 170 171 172 171 171 171 173 172 174 172 175 172 172 173 174 173 173 173 174 174 176 174 175 174 175 175 176 175 177 175 176 176 178 176 177 176 177 177 178 177 179 177 178 178 180 178 179 178 179 179 180 179 181 179 180 180 182 180 181 180 181 181 182 181 183 181 183 182 182 182 184 182 182 183 185 183 184 183 185 184 186 184 184 184 184 185 186 185 187 185 186 186 188 186 187 186 187 187 188 187 189 187 188 188 190 188 189 188 189 189 190 189 191 189 190 190 192 190 191 190 191 191 192 191 193 191 192 192 194 192 193 192 193 193 194 193 195 193 194 194 196 194 195 194 195 195 196 195 197 195 196 196 198 196 197 196 197 197 198 197 199 197 199 198 200 198 201 198 198 199 200 199 199 199 201 200 202 200 203 200 200 201 202 201 201 201 203 202 204 202 205 202 202 203 204 203 203 203 205 204 206 204 207 204 204 205 206 205 205 205 207 206 208 206 209 206 209 207 208 207 210 207 206 208 208 208 207 208 208 209 211 209 210 209 210 210 212 210 213 210 211 211 212 211 210 211 213 212 214 212 215 212 212 213 214 213 213 213 215 214 216 214 217 214 214 215 216 215 215 215 217 216 218 216 219 216 216 217 218 217 217 217 219 218 220 218 221 218 218 219 220 219 219 219 221 220 222 220 223 220 220 221 222 221 221 221 222 222 224 222 223 222 223 223 224 223 225 223 224 224 226 224 225 224 225 225 226 225 227 225 226 226 228 226 227 226 227 227 228 227 229 227 228 228 230 228 229 228 229 229 230 229 231 229 230 230 232 230 231 230 231 231 232 231 233 231 233 232 234 232 235 232 232 233 234 233 233 233 235 234 236 234 237 234 234 235 236 235 235 235 237 236 238 236 239 236 239 237 238 237 240 237 236 238 238 238 237 238 238 239 241 239 240 239 240 240 242 240 243 240 241 241 242 241 240 241 243 242 244 242 245 242 242 243 244 243 243 243 245 244 246 244 247 244 244 245 246 245 245 245 247 246 248 246 249 246 246 247 248 247 247 247 249 248 250 248 251 248 251 249 250 249 2 249 248 250 250 250 249 250 250 251 0 251 2 251 155 252 252 252 156 252 156 253 252 253 158 253 158 254 252 254 253 254 158 255 254 255 161 255 161 256 254 256 162 256 253 257 254 257 158 257 155 258 255 258 252 258 254 259 256 259 162 259 155 260 257 260 255 260 152 261 257 261 155 261 256 262 258 262 162 262 162 263 258 263 164 263 164 264 258 264 166 264 152 265 259 265 257 265 150 266 259 266 152 266 258 267 260 267 166 267 150 268 261 268 259 268 148 269 261 269 150 269 260 270 262 270 166 270 166 271 262 271 169 271 148 272 263 272 261 272 147 273 263 273 148 273 262 274 264 274 169 274 169 275 264 275 170 275 147 276 265 276 263 276 144 277 265 277 147 277 264 278 266 278 170 278 170 279 266 279 172 279 144 280 267 280 265 280 143 281 267 281 144 281 266 282 268 282 172 282 172 283 268 283 174 283 143 284 269 284 267 284 138 285 269 285 141 285 141 286 269 286 143 286 268 287 270 287 174 287 174 288 270 288 176 288 138 289 271 289 269 289 270 290 272 290 176 290 176 291 272 291 178 291 178 292 272 292 180 292 138 293 273 293 271 293 137 294 273 294 138 294 272 295 274 295 180 295 135 296 275 296 137 296 137 297 275 297 273 297 274 298 276 298 180 298 180 299 276 299 182 299 133 300 277 300 135 300 135 301 277 301 275 301 276 302 278 302 182 302 182 303 278 303 185 303 130 304 279 304 133 304 133 305 279 305 277 305 278 306 280 306 185 306 185 307 280 307 186 307 130 308 281 308 279 308 127 309 281 309 129 309 129 310 281 310 130 310 280 311 282 311 186 311 186 312 282 312 188 312 188 313 282 313 190 313 127 314 283 314 281 314 282 315 284 315 190 315 124 316 285 316 127 316 127 317 285 317 283 317 190 318 286 318 192 318 284 319 286 319 190 319 122 320 287 320 124 320 124 321 287 321 285 321 286 322 288 322 192 322 192 323 288 323 194 323 120 324 289 324 122 324 122 325 289 325 287 325 194 326 290 326 196 326 288 327 290 327 194 327 118 328 291 328 120 328 120 329 291 329 289 329 290 330 292 330 196 330 196 331 292 331 198 331 117 332 293 332 118 332 118 333 293 333 291 333 292 334 294 334 198 334 198 335 294 335 200 335 117 336 295 336 293 336 114 337 295 337 117 337 200 338 296 338 202 338 294 339 296 339 200 339 114 340 297 340 295 340 112 341 297 341 114 341 202 342 298 342 204 342 296 343 298 343 202 343 112 344 299 344 297 344 111 345 299 345 112 345 204 346 300 346 206 346 298 347 300 347 204 347 107 348 301 348 108 348 111 349 301 349 299 349 108 350 301 350 111 350 206 351 302 351 208 351 300 352 302 352 206 352 107 353 303 353 301 353 302 354 304 354 208 354 208 355 304 355 211 355 211 356 304 356 212 356 104 357 305 357 107 357 107 358 305 358 303 358 212 359 306 359 214 359 304 360 306 360 212 360 104 361 307 361 305 361 103 362 307 362 104 362 306 363 308 363 214 363 100 364 309 364 103 364 103 365 309 365 307 365 100 366 98 366 309 366 214 367 310 367 216 367 308 368 310 368 214 368 98 369 311 369 309 369 216 370 312 370 218 370 310 371 312 371 216 371 96 372 313 372 98 372 98 373 313 373 311 373 312 374 220 374 218 374 312 375 314 375 220 375 96 376 95 376 313 376 313 377 95 377 315 377 314 378 316 378 220 378 316 379 222 379 220 379 316 380 317 380 222 380 95 381 92 381 315 381 315 382 92 382 318 382 92 383 319 383 318 383 317 384 224 384 222 384 317 385 320 385 224 385 92 386 90 386 319 386 320 387 226 387 224 387 90 388 88 388 319 388 321 389 88 389 322 389 319 390 88 390 321 390 320 391 228 391 226 391 323 392 228 392 320 392 88 393 86 393 322 393 322 394 86 394 324 394 323 395 230 395 228 395 325 396 230 396 323 396 86 397 84 397 324 397 326 398 232 398 325 398 325 399 232 399 230 399 84 400 82 400 324 400 324 401 82 401 327 401 328 402 234 402 326 402 326 403 234 403 232 403 327 404 80 404 329 404 82 405 80 405 327 405 330 406 236 406 328 406 331 407 236 407 330 407 328 408 236 408 234 408 329 409 79 409 332 409 80 410 79 410 329 410 331 411 238 411 236 411 333 412 77 412 334 412 332 413 77 413 333 413 79 414 77 414 332 414 335 415 241 415 331 415 336 416 241 416 335 416 331 417 241 417 238 417 77 418 74 418 334 418 336 419 242 419 241 419 74 420 72 420 334 420 334 421 72 421 337 421 338 422 244 422 336 422 336 423 244 423 242 423 72 424 70 424 337 424 337 425 70 425 339 425 338 426 246 426 244 426 340 427 246 427 338 427 70 428 68 428 339 428 339 429 68 429 341 429 342 430 248 430 340 430 340 431 248 431 246 431 68 432 66 432 341 432 341 433 66 433 343 433 342 434 250 434 248 434 344 435 250 435 342 435 345 436 64 436 346 436 343 437 64 437 345 437 66 438 64 438 343 438 347 439 0 439 344 439 344 440 0 440 250 440 64 441 62 441 346 441 348 442 1 442 347 442 347 443 1 443 0 443 62 444 60 444 346 444 349 445 60 445 350 445 346 446 60 446 349 446 351 447 5 447 348 447 348 448 5 448 1 448 350 449 59 449 352 449 60 450 59 450 350 450 353 451 7 451 351 451 351 452 7 452 5 452 59 453 56 453 352 453 354 454 8 454 353 454 353 455 8 455 7 455 56 456 54 456 352 456 355 457 54 457 356 457 352 458 54 458 355 458 357 459 11 459 354 459 354 460 11 460 8 460 54 461 52 461 356 461 357 462 12 462 11 462 358 463 12 463 357 463 52 464 50 464 356 464 356 465 50 465 359 465 360 466 14 466 358 466 358 467 14 467 12 467 50 468 48 468 359 468 359 469 48 469 361 469 360 470 17 470 14 470 362 471 17 471 360 471 363 472 17 472 362 472 48 473 46 473 361 473 361 474 46 474 364 474 363 475 18 475 17 475 46 476 44 476 364 476 364 477 44 477 365 477 363 478 20 478 18 478 366 479 20 479 363 479 44 480 42 480 365 480 365 481 42 481 367 481 366 482 22 482 20 482 368 483 22 483 366 483 369 484 22 484 368 484 42 485 40 485 367 485 367 486 40 486 370 486 369 487 25 487 22 487 40 488 39 488 370 488 370 489 39 489 371 489 369 490 26 490 25 490 372 491 26 491 369 491 373 492 26 492 372 492 39 493 36 493 371 493 371 494 36 494 374 494 373 495 28 495 26 495 374 496 34 496 375 496 36 497 34 497 374 497 376 498 30 498 373 498 373 499 30 499 28 499 377 500 33 500 376 500 375 501 33 501 377 501 34 502 33 502 375 502 376 503 33 503 30 503 378 504 159 504 379 504 378 505 157 505 159 505 380 506 379 506 159 506 380 507 159 507 160 507 380 508 160 508 163 508 381 509 157 509 378 509 381 510 154 510 157 510 382 511 380 511 163 511 383 512 154 512 381 512 383 513 151 513 153 513 383 514 153 514 154 514 384 515 382 515 163 515 384 516 163 516 165 516 384 517 165 517 167 517 385 518 151 518 383 518 386 519 384 519 167 519 387 520 149 520 151 520 387 521 151 521 385 521 388 522 386 522 167 522 388 523 167 523 168 523 389 524 149 524 387 524 389 525 146 525 149 525 390 526 388 526 168 526 390 527 168 527 171 527 391 528 146 528 389 528 391 529 142 529 145 529 391 530 145 530 146 530 392 531 171 531 173 531 392 532 390 532 171 532 393 533 142 533 391 533 393 534 140 534 142 534 394 535 392 535 173 535 394 536 173 536 175 536 395 537 140 537 393 537 395 538 139 538 140 538 396 539 394 539 175 539 396 540 175 540 177 540 397 541 139 541 395 541 398 542 396 542 177 542 398 543 177 543 179 543 398 544 179 544 181 544 399 545 139 545 397 545 399 546 136 546 139 546 400 547 398 547 181 547 401 548 136 548 399 548 401 549 132 549 134 549 401 550 134 550 136 550 402 551 400 551 181 551 402 552 181 552 183 552 402 553 183 553 184 553 403 554 132 554 401 554 404 555 402 555 184 555 405 556 131 556 132 556 405 557 132 557 403 557 406 558 404 558 184 558 406 559 184 559 187 559 407 560 131 560 405 560 407 561 126 561 128 561 407 562 128 562 131 562 408 563 406 563 187 563 408 564 187 564 189 564 408 565 189 565 191 565 409 566 126 566 407 566 410 567 408 567 191 567 411 568 125 568 126 568 411 569 126 569 409 569 412 570 410 570 191 570 412 571 191 571 193 571 413 572 125 572 411 572 413 573 121 573 123 573 413 574 123 574 125 574 414 575 193 575 195 575 414 576 412 576 193 576 415 577 121 577 413 577 416 578 414 578 195 578 416 579 195 579 197 579 417 580 121 580 415 580 417 581 119 581 121 581 418 582 416 582 197 582 418 583 197 583 199 583 419 584 119 584 417 584 419 585 116 585 119 585 420 586 418 586 199 586 420 587 199 587 201 587 421 588 116 588 419 588 421 589 115 589 116 589 422 590 201 590 203 590 422 591 420 591 201 591 423 592 115 592 421 592 423 593 113 593 115 593 424 594 203 594 205 594 424 595 422 595 203 595 425 596 113 596 423 596 425 597 110 597 113 597 426 598 205 598 207 598 426 599 424 599 205 599 427 600 110 600 425 600 427 601 109 601 110 601 428 602 207 602 209 602 428 603 426 603 207 603 429 604 106 604 109 604 429 605 109 605 427 605 430 606 209 606 210 606 430 607 428 607 209 607 431 608 106 608 429 608 431 609 102 609 105 609 431 610 105 610 106 610 432 611 210 611 213 611 432 612 430 612 210 612 433 613 102 613 431 613 434 614 213 614 215 614 434 615 432 615 213 615 435 616 101 616 102 616 435 617 102 617 433 617 436 618 215 618 217 618 436 619 434 619 215 619 99 620 101 620 435 620 437 621 99 621 435 621 438 622 217 622 219 622 438 623 436 623 217 623 439 624 97 624 99 624 439 625 99 625 437 625 440 626 219 626 221 626 440 627 438 627 219 627 94 628 439 628 441 628 94 629 97 629 439 629 442 630 440 630 221 630 223 631 442 631 221 631 93 632 94 632 441 632 93 633 441 633 443 633 225 634 442 634 223 634 225 635 444 635 442 635 445 636 444 636 225 636 91 637 93 637 443 637 91 638 443 638 446 638 227 639 445 639 225 639 89 640 446 640 447 640 89 641 91 641 446 641 229 642 445 642 227 642 229 643 448 643 445 643 87 644 89 644 447 644 87 645 449 645 450 645 87 646 447 646 449 646 231 647 451 647 448 647 231 648 448 648 229 648 85 649 87 649 450 649 233 650 452 650 451 650 233 651 453 651 452 651 233 652 451 652 231 652 83 653 85 653 450 653 83 654 450 654 454 654 235 655 453 655 233 655 81 656 83 656 454 656 81 657 454 657 455 657 237 658 456 658 453 658 237 659 453 659 235 659 78 660 455 660 457 660 78 661 81 661 455 661 239 662 458 662 456 662 239 663 456 663 237 663 76 664 457 664 459 664 76 665 78 665 457 665 240 666 460 666 458 666 240 667 461 667 460 667 240 668 458 668 239 668 75 669 459 669 462 669 75 670 76 670 459 670 243 671 463 671 461 671 243 672 461 672 240 672 73 673 462 673 464 673 73 674 75 674 462 674 245 675 463 675 243 675 71 676 73 676 464 676 71 677 465 677 466 677 71 678 464 678 465 678 247 679 463 679 245 679 247 680 467 680 463 680 69 681 71 681 466 681 249 682 467 682 247 682 249 683 468 683 467 683 67 684 469 684 470 684 67 685 466 685 469 685 67 686 69 686 466 686 251 687 468 687 249 687 251 688 471 688 468 688 65 689 67 689 470 689 65 690 470 690 472 690 2 691 473 691 474 691 2 692 471 692 251 692 2 693 474 693 471 693 63 694 65 694 472 694 63 695 472 695 475 695 3 696 473 696 2 696 61 697 63 697 475 697 4 698 476 698 473 698 4 699 477 699 476 699 4 700 473 700 3 700 58 701 475 701 478 701 58 702 61 702 475 702 6 703 479 703 477 703 6 704 477 704 4 704 57 705 478 705 480 705 57 706 58 706 478 706 9 707 481 707 479 707 9 708 479 708 6 708 55 709 57 709 480 709 55 710 480 710 482 710 10 711 481 711 9 711 53 712 55 712 482 712 53 713 482 713 483 713 13 714 484 714 481 714 13 715 481 715 10 715 51 716 53 716 483 716 51 717 483 717 485 717 15 718 484 718 13 718 15 719 486 719 484 719 49 720 51 720 485 720 49 721 485 721 487 721 16 722 488 722 486 722 16 723 486 723 15 723 47 724 49 724 487 724 47 725 487 725 489 725 19 726 488 726 16 726 19 727 490 727 488 727 45 728 47 728 489 728 45 729 489 729 491 729 21 730 490 730 19 730 21 731 492 731 490 731 43 732 45 732 491 732 43 733 493 733 494 733 43 734 491 734 493 734 23 735 492 735 21 735 23 736 495 736 492 736 23 737 496 737 495 737 41 738 43 738 494 738 24 739 496 739 23 739 38 740 41 740 494 740 38 741 494 741 497 741 27 742 496 742 24 742 27 743 498 743 496 743 27 744 499 744 498 744 37 745 38 745 497 745 37 746 497 746 500 746 29 747 501 747 499 747 29 748 499 748 27 748 35 749 500 749 502 749 35 750 37 750 500 750 31 751 501 751 29 751 32 752 503 752 501 752 32 753 502 753 503 753 32 754 35 754 502 754 32 755 501 755 31 755 504 756 505 756 347 756 347 757 505 757 348 757 348 758 505 758 351 758 505 759 506 759 351 759 351 760 507 760 353 760 353 761 507 761 354 761 506 762 507 762 351 762 507 763 508 763 354 763 354 764 509 764 357 764 508 765 509 765 354 765 357 766 510 766 358 766 509 767 510 767 357 767 358 768 511 768 360 768 360 769 511 769 362 769 510 770 511 770 358 770 511 771 512 771 362 771 362 772 513 772 363 772 512 773 513 773 362 773 363 774 514 774 366 774 513 775 514 775 363 775 514 776 515 776 366 776 366 777 515 777 368 777 515 778 516 778 368 778 368 779 516 779 369 779 516 780 517 780 369 780 369 781 517 781 372 781 517 782 518 782 372 782 372 783 518 783 373 783 373 784 518 784 376 784 518 785 519 785 376 785 519 786 520 786 376 786 376 787 520 787 377 787 377 788 521 788 375 788 375 789 521 789 374 789 520 790 521 790 377 790 521 791 522 791 374 791 522 792 523 792 374 792 374 793 523 793 371 793 371 794 524 794 370 794 523 795 524 795 371 795 370 796 525 796 367 796 524 797 525 797 370 797 367 798 526 798 365 798 365 799 526 799 364 799 525 800 526 800 367 800 364 801 527 801 361 801 526 802 527 802 364 802 361 803 528 803 359 803 527 804 528 804 361 804 359 805 529 805 356 805 528 806 529 806 359 806 529 807 530 807 356 807 356 808 531 808 355 808 530 809 531 809 356 809 355 810 532 810 352 810 352 811 532 811 350 811 531 812 532 812 355 812 532 813 533 813 350 813 350 814 534 814 349 814 533 815 534 815 350 815 349 816 535 816 346 816 346 817 535 817 345 817 534 818 535 818 349 818 535 819 536 819 345 819 345 820 537 820 343 820 343 821 537 821 341 821 536 822 537 822 345 822 537 823 538 823 341 823 341 824 539 824 339 824 339 825 539 825 337 825 538 826 539 826 341 826 539 827 540 827 337 827 540 828 541 828 337 828 337 829 541 829 334 829 541 830 542 830 334 830 334 831 542 831 333 831 333 832 542 832 332 832 542 833 543 833 332 833 543 834 544 834 332 834 332 835 544 835 329 835 544 836 545 836 329 836 329 837 545 837 327 837 327 838 545 838 324 838 545 839 546 839 324 839 546 840 547 840 324 840 324 841 547 841 322 841 322 842 547 842 321 842 547 843 548 843 321 843 321 844 548 844 319 844 548 845 549 845 319 845 549 846 550 846 319 846 319 847 550 847 318 847 318 848 550 848 315 848 550 849 551 849 315 849 315 850 552 850 313 850 551 851 552 851 315 851 313 852 553 852 311 852 552 853 553 853 313 853 311 854 554 854 309 854 553 855 554 855 311 855 309 856 555 856 307 856 554 857 555 857 309 857 307 858 556 858 305 858 555 859 556 859 307 859 305 860 557 860 303 860 556 861 557 861 305 861 303 862 558 862 301 862 557 863 558 863 303 863 301 864 559 864 299 864 558 865 559 865 301 865 299 866 560 866 297 866 559 867 560 867 299 867 297 868 561 868 295 868 295 869 561 869 293 869 560 870 561 870 297 870 561 871 562 871 293 871 293 872 563 872 291 872 562 873 563 873 293 873 291 874 564 874 289 874 563 875 564 875 291 875 289 876 565 876 287 876 564 877 565 877 289 877 565 878 566 878 287 878 287 879 566 879 285 879 566 880 567 880 285 880 285 881 567 881 283 881 567 882 568 882 283 882 283 883 568 883 281 883 281 884 568 884 279 884 568 885 569 885 279 885 569 886 570 886 279 886 279 887 570 887 277 887 570 888 571 888 277 888 277 889 571 889 275 889 571 890 572 890 275 890 275 891 572 891 273 891 273 892 572 892 271 892 572 893 573 893 271 893 271 894 573 894 269 894 573 895 574 895 269 895 574 896 575 896 269 896 269 897 575 897 267 897 575 898 576 898 267 898 267 899 576 899 265 899 576 900 577 900 265 900 265 901 577 901 263 901 263 902 577 902 261 902 577 903 578 903 261 903 261 904 578 904 259 904 578 905 579 905 259 905 579 906 580 906 259 906 259 907 580 907 257 907 257 908 580 908 255 908 580 909 581 909 255 909 581 910 582 910 255 910 255 911 582 911 252 911 252 912 582 912 253 912 582 913 583 913 253 913 583 914 584 914 253 914 253 915 584 915 254 915 584 916 585 916 254 916 254 917 585 917 256 917 256 918 585 918 258 918 585 919 586 919 258 919 258 920 587 920 260 920 586 921 587 921 258 921 260 922 588 922 262 922 587 923 588 923 260 923 262 924 589 924 264 924 588 925 589 925 262 925 264 926 590 926 266 926 589 927 590 927 264 927 266 928 591 928 268 928 590 929 591 929 266 929 591 930 592 930 268 930 268 931 592 931 270 931 592 932 593 932 270 932 270 933 593 933 272 933 593 934 594 934 272 934 272 935 594 935 274 935 594 936 595 936 274 936 274 937 595 937 276 937 276 938 595 938 278 938 595 939 596 939 278 939 596 940 597 940 278 940 278 941 597 941 280 941 597 942 598 942 280 942 280 943 598 943 282 943 598 944 599 944 282 944 282 945 599 945 284 945 284 946 599 946 286 946 599 947 600 947 286 947 286 948 600 948 288 948 600 949 601 949 288 949 601 950 602 950 288 950 288 951 602 951 290 951 602 952 603 952 290 952 290 953 603 953 292 953 292 954 604 954 294 954 294 955 604 955 296 955 603 956 604 956 292 956 604 957 605 957 296 957 296 958 606 958 298 958 605 959 606 959 296 959 298 960 607 960 300 960 606 961 607 961 298 961 300 962 608 962 302 962 607 963 608 963 300 963 302 964 609 964 304 964 608 965 609 965 302 965 304 966 610 966 306 966 609 967 610 967 304 967 306 968 611 968 308 968 610 969 611 969 306 969 308 970 612 970 310 970 611 971 612 971 308 971 310 972 613 972 312 972 612 973 613 973 310 973 312 974 614 974 314 974 314 975 614 975 316 975 613 976 614 976 312 976 614 977 615 977 316 977 615 978 616 978 316 978 316 979 616 979 317 979 616 980 617 980 317 980 317 981 617 981 320 981 617 982 618 982 320 982 320 983 618 983 323 983 618 984 619 984 323 984 323 985 619 985 325 985 325 986 620 986 326 986 619 987 620 987 325 987 326 988 621 988 328 988 620 989 621 989 326 989 328 990 622 990 330 990 621 991 622 991 328 991 330 992 623 992 331 992 622 993 623 993 330 993 331 994 624 994 335 994 623 995 624 995 331 995 335 996 625 996 336 996 624 997 625 997 335 997 336 998 626 998 338 998 625 999 626 999 336 999 338 1000 627 1000 340 1000 626 1001 627 1001 338 1001 340 1002 628 1002 342 1002 627 1003 628 1003 340 1003 342 1004 629 1004 344 1004 628 1005 629 1005 342 1005 344 1006 504 1006 347 1006 629 1007 504 1007 344 1007 630 1008 474 1008 631 1008 474 1009 473 1009 631 1009 631 1010 476 1010 632 1010 632 1011 476 1011 633 1011 473 1012 476 1012 631 1012 633 1013 477 1013 634 1013 476 1014 477 1014 633 1014 477 1015 479 1015 634 1015 634 1016 481 1016 635 1016 635 1017 481 1017 636 1017 479 1018 481 1018 634 1018 481 1019 484 1019 636 1019 636 1020 486 1020 637 1020 637 1021 486 1021 638 1021 484 1022 486 1022 636 1022 486 1023 488 1023 638 1023 638 1024 490 1024 639 1024 488 1025 490 1025 638 1025 639 1026 492 1026 640 1026 490 1027 492 1027 639 1027 492 1028 495 1028 640 1028 640 1029 495 1029 641 1029 641 1030 495 1030 642 1030 495 1031 496 1031 642 1031 496 1032 498 1032 642 1032 642 1033 498 1033 643 1033 498 1034 499 1034 643 1034 643 1035 499 1035 644 1035 644 1036 499 1036 645 1036 499 1037 501 1037 645 1037 501 1038 503 1038 645 1038 645 1039 503 1039 646 1039 646 1040 502 1040 647 1040 503 1041 502 1041 646 1041 647 1042 500 1042 648 1042 648 1043 500 1043 649 1043 502 1044 500 1044 647 1044 500 1045 497 1045 649 1045 649 1046 494 1046 650 1046 497 1047 494 1047 649 1047 650 1048 493 1048 651 1048 494 1049 493 1049 650 1049 651 1050 491 1050 652 1050 493 1051 491 1051 651 1051 652 1052 489 1052 653 1052 491 1053 489 1053 652 1053 653 1054 487 1054 654 1054 489 1055 487 1055 653 1055 654 1056 485 1056 655 1056 487 1057 485 1057 654 1057 655 1058 483 1058 656 1058 485 1059 483 1059 655 1059 656 1060 482 1060 657 1060 483 1061 482 1061 656 1061 657 1062 480 1062 658 1062 482 1063 480 1063 657 1063 658 1064 478 1064 659 1064 480 1065 478 1065 658 1065 659 1066 475 1066 660 1066 478 1067 475 1067 659 1067 660 1068 472 1068 661 1068 661 1069 472 1069 662 1069 475 1070 472 1070 660 1070 472 1071 470 1071 662 1071 662 1072 469 1072 663 1072 470 1073 469 1073 662 1073 663 1074 466 1074 664 1074 664 1075 466 1075 665 1075 469 1076 466 1076 663 1076 466 1077 465 1077 665 1077 465 1078 464 1078 665 1078 665 1079 464 1079 666 1079 666 1080 462 1080 667 1080 464 1081 462 1081 666 1081 462 1082 459 1082 667 1082 667 1083 459 1083 668 1083 459 1084 457 1084 668 1084 668 1085 457 1085 669 1085 457 1086 455 1086 669 1086 669 1087 455 1087 670 1087 455 1088 454 1088 670 1088 670 1089 454 1089 671 1089 454 1090 450 1090 671 1090 671 1091 450 1091 672 1091 672 1092 450 1092 673 1092 450 1093 449 1093 673 1093 449 1094 447 1094 673 1094 673 1095 447 1095 674 1095 447 1096 446 1096 674 1096 674 1097 446 1097 675 1097 675 1098 446 1098 676 1098 446 1099 443 1099 676 1099 443 1100 441 1100 676 1100 676 1101 441 1101 677 1101 677 1102 441 1102 678 1102 441 1103 439 1103 678 1103 678 1104 437 1104 679 1104 439 1105 437 1105 678 1105 679 1106 437 1106 680 1106 437 1107 435 1107 680 1107 680 1108 433 1108 681 1108 681 1109 433 1109 682 1109 435 1110 433 1110 680 1110 433 1111 431 1111 682 1111 682 1112 429 1112 683 1112 683 1113 429 1113 684 1113 431 1114 429 1114 682 1114 429 1115 427 1115 684 1115 684 1116 425 1116 685 1116 685 1117 425 1117 686 1117 427 1118 425 1118 684 1118 425 1119 423 1119 686 1119 686 1120 421 1120 687 1120 687 1121 421 1121 688 1121 423 1122 421 1122 686 1122 421 1123 419 1123 688 1123 688 1124 417 1124 689 1124 419 1125 417 1125 688 1125 689 1126 415 1126 690 1126 690 1127 415 1127 691 1127 417 1128 415 1128 689 1128 415 1129 413 1129 691 1129 413 1130 411 1130 691 1130 691 1131 411 1131 692 1131 692 1132 411 1132 693 1132 411 1133 409 1133 693 1133 409 1134 407 1134 693 1134 693 1135 407 1135 694 1135 694 1136 407 1136 695 1136 407 1137 405 1137 695 1137 405 1138 403 1138 695 1138 695 1139 403 1139 696 1139 696 1140 403 1140 697 1140 403 1141 401 1141 697 1141 401 1142 399 1142 697 1142 697 1143 399 1143 698 1143 399 1144 397 1144 698 1144 698 1145 397 1145 699 1145 397 1146 395 1146 699 1146 699 1147 395 1147 700 1147 395 1148 393 1148 700 1148 700 1149 393 1149 701 1149 393 1150 391 1150 701 1150 701 1151 391 1151 702 1151 391 1152 389 1152 702 1152 702 1153 389 1153 703 1153 703 1154 389 1154 704 1154 389 1155 387 1155 704 1155 387 1156 385 1156 704 1156 704 1157 385 1157 705 1157 385 1158 383 1158 705 1158 705 1159 383 1159 706 1159 383 1160 381 1160 706 1160 706 1161 381 1161 707 1161 381 1162 378 1162 707 1162 707 1163 378 1163 708 1163 708 1164 378 1164 709 1164 378 1165 379 1165 709 1165 379 1166 380 1166 709 1166 709 1167 380 1167 710 1167 380 1168 382 1168 710 1168 710 1169 382 1169 711 1169 382 1170 384 1170 711 1170 711 1171 384 1171 712 1171 712 1172 384 1172 713 1172 384 1173 386 1173 713 1173 713 1174 388 1174 714 1174 386 1175 388 1175 713 1175 714 1176 390 1176 715 1176 388 1177 390 1177 714 1177 715 1178 392 1178 716 1178 716 1179 392 1179 717 1179 390 1180 392 1180 715 1180 392 1181 394 1181 717 1181 394 1182 396 1182 717 1182 717 1183 396 1183 718 1183 396 1184 398 1184 718 1184 718 1185 398 1185 719 1185 398 1186 400 1186 719 1186 719 1187 400 1187 720 1187 720 1188 400 1188 721 1188 400 1189 402 1189 721 1189 402 1190 404 1190 721 1190 721 1191 404 1191 722 1191 404 1192 406 1192 722 1192 722 1193 406 1193 723 1193 406 1194 408 1194 723 1194 723 1195 408 1195 724 1195 724 1196 408 1196 725 1196 408 1197 410 1197 725 1197 410 1198 412 1198 725 1198 725 1199 412 1199 726 1199 412 1200 414 1200 726 1200 726 1201 414 1201 727 1201 727 1202 414 1202 728 1202 414 1203 416 1203 728 1203 729 1204 418 1204 730 1204 416 1205 418 1205 728 1205 728 1206 418 1206 729 1206 418 1207 420 1207 730 1207 730 1208 422 1208 731 1208 731 1209 422 1209 732 1209 420 1210 422 1210 730 1210 422 1211 424 1211 732 1211 732 1212 426 1212 733 1212 733 1213 426 1213 734 1213 424 1214 426 1214 732 1214 426 1215 428 1215 734 1215 734 1216 430 1216 735 1216 428 1217 430 1217 734 1217 735 1218 432 1218 736 1218 736 1219 432 1219 737 1219 430 1220 432 1220 735 1220 432 1221 434 1221 737 1221 737 1222 436 1222 738 1222 434 1223 436 1223 737 1223 738 1224 438 1224 739 1224 436 1225 438 1225 738 1225 739 1226 440 1226 740 1226 438 1227 440 1227 739 1227 740 1228 442 1228 741 1228 440 1229 442 1229 740 1229 442 1230 444 1230 741 1230 741 1231 444 1231 742 1231 742 1232 444 1232 743 1232 444 1233 445 1233 743 1233 743 1234 445 1234 744 1234 445 1235 448 1235 744 1235 448 1236 451 1236 744 1236 744 1237 451 1237 745 1237 745 1238 452 1238 746 1238 746 1239 452 1239 747 1239 451 1240 452 1240 745 1240 452 1241 453 1241 747 1241 747 1242 456 1242 748 1242 453 1243 456 1243 747 1243 748 1244 458 1244 749 1244 456 1245 458 1245 748 1245 749 1246 460 1246 750 1246 458 1247 460 1247 749 1247 750 1248 461 1248 751 1248 460 1249 461 1249 750 1249 751 1250 463 1250 752 1250 752 1251 463 1251 753 1251 461 1252 463 1252 751 1252 463 1253 467 1253 753 1253 753 1254 468 1254 754 1254 467 1255 468 1255 753 1255 754 1256 471 1256 755 1256 755 1257 471 1257 630 1257 468 1258 471 1258 754 1258 471 1259 474 1259 630 1259 583 1260 709 1260 710 1260 582 1261 709 1261 583 1261 582 1262 708 1262 709 1262 584 1263 583 1263 710 1263 581 1264 707 1264 708 1264 581 1265 708 1265 582 1265 585 1266 710 1266 711 1266 585 1267 584 1267 710 1267 580 1268 707 1268 581 1268 580 1269 706 1269 707 1269 586 1270 585 1270 711 1270 586 1271 711 1271 712 1271 579 1272 706 1272 580 1272 579 1273 705 1273 706 1273 587 1274 586 1274 712 1274 587 1275 712 1275 713 1275 578 1276 705 1276 579 1276 578 1277 704 1277 705 1277 588 1278 587 1278 713 1278 588 1279 713 1279 714 1279 588 1280 714 1280 715 1280 577 1281 704 1281 578 1281 577 1282 703 1282 704 1282 589 1283 588 1283 715 1283 576 1284 703 1284 577 1284 576 1285 701 1285 702 1285 576 1286 702 1286 703 1286 590 1287 589 1287 715 1287 590 1288 715 1288 716 1288 590 1289 716 1289 717 1289 575 1290 701 1290 576 1290 591 1291 590 1291 717 1291 574 1292 701 1292 575 1292 574 1293 700 1293 701 1293 592 1294 591 1294 717 1294 592 1295 717 1295 718 1295 592 1296 718 1296 719 1296 573 1297 700 1297 574 1297 573 1298 698 1298 699 1298 573 1299 699 1299 700 1299 593 1300 592 1300 719 1300 572 1301 698 1301 573 1301 594 1302 593 1302 719 1302 594 1303 719 1303 720 1303 571 1304 698 1304 572 1304 571 1305 697 1305 698 1305 595 1306 594 1306 720 1306 595 1307 720 1307 721 1307 570 1308 697 1308 571 1308 570 1309 696 1309 697 1309 596 1310 595 1310 721 1310 596 1311 721 1311 722 1311 596 1312 722 1312 723 1312 569 1313 695 1313 696 1313 569 1314 696 1314 570 1314 597 1315 596 1315 723 1315 568 1316 694 1316 695 1316 568 1317 695 1317 569 1317 598 1318 597 1318 723 1318 598 1319 723 1319 724 1319 598 1320 724 1320 725 1320 567 1321 693 1321 694 1321 567 1322 694 1322 568 1322 599 1323 598 1323 725 1323 566 1324 691 1324 692 1324 566 1325 692 1325 693 1325 566 1326 693 1326 567 1326 600 1327 599 1327 725 1327 600 1328 725 1328 726 1328 565 1329 691 1329 566 1329 601 1330 600 1330 726 1330 601 1331 726 1331 727 1331 564 1332 691 1332 565 1332 564 1333 689 1333 690 1333 564 1334 690 1334 691 1334 602 1335 601 1335 727 1335 602 1336 727 1336 728 1336 563 1337 689 1337 564 1337 603 1338 602 1338 728 1338 603 1339 728 1339 729 1339 603 1340 729 1340 730 1340 562 1341 689 1341 563 1341 562 1342 688 1342 689 1342 604 1343 603 1343 730 1343 561 1344 688 1344 562 1344 561 1345 687 1345 688 1345 605 1346 730 1346 731 1346 605 1347 604 1347 730 1347 560 1348 687 1348 561 1348 560 1349 686 1349 687 1349 606 1350 731 1350 732 1350 606 1351 605 1351 731 1351 559 1352 686 1352 560 1352 559 1353 685 1353 686 1353 607 1354 732 1354 733 1354 607 1355 606 1355 732 1355 734 1356 607 1356 733 1356 558 1357 685 1357 559 1357 558 1358 684 1358 685 1358 608 1359 607 1359 734 1359 557 1360 683 1360 684 1360 557 1361 684 1361 558 1361 609 1362 734 1362 735 1362 609 1363 608 1363 734 1363 556 1364 682 1364 683 1364 556 1365 683 1365 557 1365 610 1366 735 1366 736 1366 610 1367 609 1367 735 1367 555 1368 681 1368 682 1368 555 1369 682 1369 556 1369 611 1370 736 1370 737 1370 611 1371 610 1371 736 1371 554 1372 680 1372 681 1372 554 1373 681 1373 555 1373 612 1374 737 1374 738 1374 612 1375 611 1375 737 1375 553 1376 679 1376 680 1376 553 1377 680 1377 554 1377 739 1378 612 1378 738 1378 613 1379 612 1379 739 1379 552 1380 678 1380 679 1380 552 1381 679 1381 553 1381 740 1382 613 1382 739 1382 614 1383 613 1383 740 1383 551 1384 678 1384 552 1384 677 1385 678 1385 551 1385 741 1386 615 1386 614 1386 741 1387 614 1387 740 1387 676 1388 677 1388 551 1388 676 1389 551 1389 550 1389 616 1390 615 1390 741 1390 742 1391 616 1391 741 1391 549 1392 676 1392 550 1392 675 1393 676 1393 549 1393 743 1394 616 1394 742 1394 743 1395 617 1395 616 1395 548 1396 675 1396 549 1396 674 1397 675 1397 548 1397 744 1398 617 1398 743 1398 744 1399 618 1399 617 1399 619 1400 618 1400 744 1400 673 1401 674 1401 548 1401 673 1402 548 1402 547 1402 546 1403 673 1403 547 1403 745 1404 619 1404 744 1404 620 1405 619 1405 745 1405 672 1406 673 1406 546 1406 746 1407 620 1407 745 1407 671 1408 672 1408 546 1408 671 1409 546 1409 545 1409 747 1410 621 1410 620 1410 747 1411 622 1411 621 1411 747 1412 620 1412 746 1412 670 1413 671 1413 545 1413 670 1414 544 1414 543 1414 670 1415 545 1415 544 1415 748 1416 623 1416 622 1416 748 1417 622 1417 747 1417 669 1418 543 1418 542 1418 669 1419 670 1419 543 1419 749 1420 624 1420 623 1420 749 1421 623 1421 748 1421 668 1422 542 1422 541 1422 668 1423 669 1423 542 1423 750 1424 624 1424 749 1424 667 1425 668 1425 541 1425 751 1426 625 1426 624 1426 751 1427 624 1427 750 1427 666 1428 541 1428 540 1428 666 1429 667 1429 541 1429 752 1430 626 1430 625 1430 752 1431 625 1431 751 1431 665 1432 540 1432 539 1432 665 1433 666 1433 540 1433 753 1434 627 1434 626 1434 753 1435 626 1435 752 1435 664 1436 665 1436 539 1436 664 1437 538 1437 537 1437 664 1438 539 1438 538 1438 754 1439 627 1439 753 1439 754 1440 628 1440 627 1440 754 1441 629 1441 628 1441 663 1442 664 1442 537 1442 755 1443 629 1443 754 1443 662 1444 663 1444 537 1444 662 1445 537 1445 536 1445 630 1446 629 1446 755 1446 630 1447 505 1447 504 1447 630 1448 504 1448 629 1448 661 1449 662 1449 536 1449 661 1450 536 1450 535 1450 631 1451 506 1451 505 1451 631 1452 505 1452 630 1452 660 1453 661 1453 535 1453 660 1454 535 1454 534 1454 632 1455 506 1455 631 1455 659 1456 533 1456 532 1456 659 1457 534 1457 533 1457 659 1458 660 1458 534 1458 633 1459 507 1459 506 1459 633 1460 508 1460 507 1460 633 1461 506 1461 632 1461 658 1462 532 1462 531 1462 658 1463 659 1463 532 1463 634 1464 509 1464 508 1464 634 1465 508 1465 633 1465 657 1466 658 1466 531 1466 635 1467 510 1467 509 1467 635 1468 509 1468 634 1468 656 1469 530 1469 529 1469 656 1470 531 1470 530 1470 656 1471 657 1471 531 1471 636 1472 510 1472 635 1472 655 1473 529 1473 528 1473 655 1474 656 1474 529 1474 637 1475 510 1475 636 1475 637 1476 511 1476 510 1476 654 1477 655 1477 528 1477 638 1478 512 1478 511 1478 638 1479 513 1479 512 1479 638 1480 511 1480 637 1480 653 1481 654 1481 528 1481 653 1482 528 1482 527 1482 639 1483 513 1483 638 1483 652 1484 653 1484 527 1484 652 1485 527 1485 526 1485 640 1486 514 1486 513 1486 640 1487 513 1487 639 1487 651 1488 652 1488 526 1488 651 1489 526 1489 525 1489 641 1490 515 1490 514 1490 641 1491 514 1491 640 1491 650 1492 651 1492 525 1492 650 1493 525 1493 524 1493 642 1494 516 1494 515 1494 642 1495 515 1495 641 1495 649 1496 650 1496 524 1496 649 1497 524 1497 523 1497 643 1498 516 1498 642 1498 643 1499 517 1499 516 1499 648 1500 649 1500 523 1500 648 1501 523 1501 522 1501 644 1502 518 1502 517 1502 644 1503 519 1503 518 1503 644 1504 517 1504 643 1504 647 1505 522 1505 521 1505 647 1506 648 1506 522 1506 645 1507 519 1507 644 1507 646 1508 520 1508 519 1508 646 1509 521 1509 520 1509 646 1510 647 1510 521 1510 646 1511 519 1511 645 1511</p>
        </triangles>
      </mesh>
    </geometry>
  </library_geometries>
  <library_materials>
    <material id="mat_Body011" name="Body011">
      <instance_effect url="#effect_Body011"/>
    </material>
  </library_materials>
  <library_visual_scenes>
    <visual_scene id="scene">
      <node id="node0" name="node0">
        <instance_geometry url="#geometry0">
          <bind_material>
            <technique_common>
              <instance_material symbol="ref_Body011" target="#mat_Body011"/>
            </technique_common>
          </bind_material>
        </instance_geometry>
      </node>
    </visual_scene>
  </library_visual_scenes>
  <scene>
    <instance_visual_scene url="#scene"/>
  </scene>
</COLLADA>
