<COLLADA xmlns="http://www.collada.org/2005/11/COLLADASchema" version="1.4.1">
  <asset>
    <contributor/>
    <created>2026-10-07T19:15:28.074295</created>
    <modified>2026-10-07T19:15:28.074295</modified>
    <unit name="meter" meter="1.0"/>
    <up_axis>Z_UP</up_axis>
  </asset>
  <library_effects>
    <effect id="effect_Body007" name="effect_Body007">
      <profile_COMMON>
        <technique sid="common">
          <phong>
            <emission>
              <color>0.0 0.0 0.0 1.0</color>
            </emission>
            <ambient>
              <color>0.0 0.0 0.0 1.0</color>
            </ambient>
            <diffuse>
              <color>0.4470588266849518 0.4745098054409027 0.501960813999176 1.0</color>
            </diffuse>
            <specular>
              <color>1 1 1 1.0</color>
            </specular>
            <shininess>
              <float>0.0</float>
            </shininess>
            <reflective>
              <color>0.0 0.0 0.0 1.0</color>
            </reflective>
            <reflectivity>
              <float>0.0</float>
            </reflectivity>
            <transparent>
              <color>0.0 0.0 0.0 1.0</color>
            </transparent>
            <transparency>
              <float>1.0</float>
            </transparency>
          </phong>
        </technique>
        <extra>
          <technique profile="GOOGLEEARTH">
            <double_sided>0</double_sided>
          </technique>
        </extra>
      </profile_COMMON>
    </effect>
  </library_effects>
  <library_geometries>
    <geometry id="geometry0" name="J2_Tension_Ring">
      <mesh>
        <source id="cubeverts-array0">
          <float_array count="1494" id="cubeverts-array0-array">-0.191406 0.04293687 0.02516562 -0.191406 0.008355365 0.04891007 -0.195406 0.008355365 0.04891007 -0.195406 0.04293687 0.02516562 -0.191406 0.008189156 0.05041549 -0.191406 0.00841136 0.0505946 -0.191406 0.008257403 0.05048219 -0.191406 0.008331697 0.05054207 -0.191406 0.008026597 0.05018091 -0.191406 0.007988117 0.05009359 -0.191406 0.008073225 0.05026416 -0.191406 0.008127576 0.05034259 -0.191406 0.007958135 0.05000299 -0.191406 0.007936924 0.04990996 -0.191406 0.007927443 0.04962471 -0.191406 0.007942428 0.04953047 -0.191406 0.007921508 0.04971995 -0.191406 0.007924678 0.04981532 -0.191406 0.007966327 0.04943809 -0.191406 0.007998924 0.0493484 -0.191406 0.00803992 0.04926223 -0.191406 0.008088943 0.04918037 -0.191406 0.008145546 0.04910354 -0.191406 0.008209213 0.04903246 -0.191406 0.008279366 0.04896778 -0.191406 0.008495667 0.0506393 -0.191406 0.03242255 0.061897 -0.191406 0.03813499 0.07052466 -0.191406 0.05119004 0.05884534 -0.191406 0.03918277 0.07157764 -0.191406 0.03714061 0.0694211 -0.191406 0.05075485 0.05839916 -0.191406 0.05164693 0.05926926 -0.191406 0.04028139 0.07257747 -0.191406 0.03620208 0.06826967 -0.191406 0.05034245 0.05793185 -0.191406 0.05212438 0.0596699 -0.191406 0.04142817 0.07352169 -0.191406 0.03532169 0.06707319 -0.191406 0.04995384 0.05744455 -0.191406 0.0526212 0.06004623 -0.191406 0.04262027 0.07440799 -0.191406 0.03450161 0.0658346 -0.191406 0.04959002 0.0569385 -0.191406 0.05313617 0.06039732 -0.191406 0.04385478 0.07523418 -0.191406 0.03374385 0.06455694 -0.191406 0.04925187 0.05641494 -0.191406 0.053668 0.06072232 -0.191406 0.04512868 0.07599827 -0.191406 0.03305026 0.06324333 -0.191406 0.04894023 0.05587518 -0.191406 0.05421537 0.0610204 -0.191406 0.04643884 0.07669835 -0.191406 0.04865589 0.05532055 -0.191406 0.05477691 0.06129082 -0.191406 0.04778205 0.07733272 -0.191406 0.04839955 0.05475243 -0.191406 0.05535124 0.06153292 -0.191406 0.04915501 0.07789982 -0.191406 0.04817184 0.05417225 -0.191406 0.05593692 0.06174609 -0.191406 0.05055436 0.07839827 -0.191406 0.04797334 0.05358144 -0.191406 0.05653249 0.0619298 -0.191406 0.05197667 0.07882684 -0.191406 0.04780453 0.05298147 -0.191406 0.05713649 0.0620836 -0.191406 0.05341845 0.07918447 -0.191406 0.04766584 0.05237383 -0.191406 0.0577474 0.0622071 -0.191406 0.05487616 0.0794703 -0.191406 0.04755761 0.05176003 -0.191406 0.0583637 0.06229999 -0.191406 0.05634624 0.07968362 -0.191406 0.04748011 0.0511416 -0.191406 0.05898388 0.06236205 -0.191406 0.05782507 0.07982391 -0.191406 0.04743354 0.05052007 -0.191406 0.05960637 0.06239312 -0.191406 0.05930904 0.07989082 -0.191406 0.047418 0.049897 -0.191406 0.06022963 0.06239312 -0.191406 0.0607945 0.07988419 -0.191406 0.04743354 0.04927393 -0.191406 0.06085213 0.06236205 -0.191406 0.06227781 0.07980405 -0.191406 0.04748011 0.0486524 -0.191406 0.0614723 0.06229999 -0.191406 0.06375533 0.07965057 -0.191406 0.04755761 0.04803397 -0.191406 0.0620886 0.0622071 -0.191406 0.06522345 0.07942414 -0.191406 0.04766584 0.04742017 -0.191406 0.06269951 0.0620836 -0.191406 0.06667856 0.07912532 -0.191406 0.04780453 0.04681253 -0.191406 0.0633035 0.0619298 -0.191406 0.06811709 0.07875484 -0.191406 0.04797334 0.04621256 -0.191406 0.06389908 0.06174609 -0.191406 0.06953551 0.07831361 -0.191406 0.06448476 0.06153292 -0.191406 0.07093037 0.0778027 -0.191406 0.06505909 0.06129082 -0.191406 0.07229822 0.07722337 -0.191406 0.06562064 0.0610204 -0.191406 0.07363571 0.07657704 -0.191406 0.066168 0.06072232 -0.191406 0.07493957 0.0758653 -0.191406 0.06669983 0.06039732 -0.191406 0.0762066 0.07508988 -0.191406 0.0672148 0.06004623 -0.191406 0.0774337 0.07425271 -0.191406 0.07861784 0.07335581 -0.191406 0.06771162 0.0596699 -0.191406 0.07975615 0.0724014 -0.191406 0.06818907 0.05926926 -0.191406 0.08084581 0.07139181 -0.191406 0.06864596 0.05884534 -0.191406 0.08188416 0.07032952 -0.191406 0.06908115 0.05839916 -0.191406 0.08286865 0.06921713 -0.191406 0.06949355 0.05793185 -0.191406 0.08379688 0.06805737 -0.191406 0.06988216 0.05744455 -0.191406 0.05075485 0.04139484 -0.191406 0.05119004 0.04094867 -0.191406 0.05164693 0.04052473 -0.191406 0.05212438 0.04012411 -0.191406 0.0526212 0.03974778 -0.191406 0.05313617 0.03939668 -0.191406 0.04817184 0.04562175 -0.191406 0.04839955 0.04504156 -0.191406 0.04865589 0.04447345 -0.191406 0.04894023 0.04391883 -0.191406 0.04925187 0.04337906 -0.191406 0.04959002 0.0428555 -0.191406 0.04995384 0.04234945 -0.191406 0.05034245 0.04186216 -0.191406 0.08466655 0.0668531 -0.191406 0.07024599 0.0569385 -0.191406 0.0441819 0.02435536 -0.191406 0.053668 0.03907168 -0.191406 0.07058414 0.05641494 -0.191406 0.08547555 0.06560724 -0.191406 0.04546552 0.02360773 -0.191406 0.05421537 0.0387736 -0.191406 0.07089577 0.05587518 -0.191406 0.08622189 0.06432287 -0.191406 0.04678457 0.02292455 -0.191406 0.05477691 0.03850318 -0.191406 0.08690373 0.06300312 -0.191406 0.07118011 0.05532055 -0.191406 0.04813583 0.0223075 -0.191406 0.05535124 0.03826108 -0.191406 0.07143645 0.05475243 -0.191406 0.08751941 0.06165125 -0.191406 0.04951597 0.0217581 -0.191406 0.05593692 0.03804791 -0.191406 0.07166415 0.05417225 -0.191406 0.08806741 0.06027055 -0.191406 0.05092161 0.02127769 -0.191406 0.05653249 0.0378642 -0.191406 0.0885464 0.05886442 -0.191406 0.07186266 0.05358144 -0.191406 0.05234932 0.02086745 -0.191406 0.05713649 0.0377104 -0.191406 0.0889552 0.0574363 -0.191406 0.07203146 0.05298147 -0.191406 0.05379557 0.02052838 -0.191406 0.0577474 0.0375869 -0.191406 0.07217016 0.05237383 -0.191406 0.0892928 0.0559897 -0.191406 0.05525684 0.02026132 -0.191406 0.0583637 0.03749401 -0.191406 0.07227839 0.05176003 -0.191406 0.08955838 0.05452816 -0.191406 0.05672954 0.02006692 -0.191406 0.05898388 0.03743195 -0.191406 0.07235589 0.0511416 -0.191406 0.08975129 0.05305527 -0.191406 0.05821006 0.01994566 -0.191406 0.05960637 0.03740089 -0.191406 0.08987106 0.05157463 -0.191406 0.07240246 0.05052007 -0.191406 0.05969476 0.01989783 -0.191406 0.06022963 0.03740089 -0.191406 0.072418 0.049897 -0.191406 0.08991738 0.05008988 -0.191406 0.06118001 0.01992356 -0.191406 0.06085213 0.03743195 -0.191406 0.07240246 0.04927393 -0.191406 0.08989015 0.04860466 -0.191406 0.06266217 0.02002277 -0.191406 0.0614723 0.03749401 -0.191406 0.07235589 0.0486524 -0.191406 0.08978944 0.0471226 -0.191406 0.0641376 0.02019523 -0.191406 0.0620886 0.0375869 -0.191406 0.07227839 0.04803397 -0.191406 0.08961548 0.04564735 -0.191406 0.06560268 0.02044052 -0.191406 0.06269951 0.0377104 -0.191406 0.07217016 0.04742017 -0.191406 0.08936871 0.04418251 -0.191406 0.06705383 0.02075802 -0.191406 0.0633035 0.0378642 -0.191406 0.07203146 0.04681253 -0.191406 0.08904974 0.04273169 -0.191406 0.06848747 0.02114697 -0.191406 0.06389908 0.03804791 -0.191406 0.07186266 0.04621256 -0.191406 0.08865934 0.04129844 -0.191406 0.06990011 0.02160641 -0.191406 0.06448476 0.03826108 -0.191406 0.08819847 0.03988626 -0.191406 0.07166415 0.04562175 -0.191406 0.07128828 0.02213521 -0.191406 0.06505909 0.03850318 -0.191406 0.08766827 0.03849863 -0.191406 0.07143645 0.04504156 -0.191406 0.07264856 0.02273208 -0.191406 0.06562064 0.0387736 -0.191406 0.08707002 0.03713895 -0.191406 0.07118011 0.04447345 -0.191406 0.07397764 0.02339555 -0.191406 0.066168 0.03907168 -0.191406 0.0864052 0.03581055 -0.191406 0.07089577 0.04391883 -0.191406 0.07527224 0.024124 -0.191406 0.06669983 0.03939668 -0.191406 0.08567545 0.03451669 -0.191406 0.07058414 0.04337906 -0.191406 0.0765292 0.02491564 -0.191406 0.0672148 0.03974778 -0.191406 0.08488253 0.03326053 -0.191406 0.07024599 0.0428555 -0.191406 0.07774542 0.02576853 -0.191406 0.06771162 0.04012411 -0.191406 0.08402841 0.03204517 -0.191406 0.06988216 0.04234945 -0.191406 0.07891794 0.02668058 -0.191406 0.06818907 0.04052473 -0.191406 0.08311518 0.03087357 -0.191406 0.06949355 0.04186216 -0.191406 0.08004388 0.02764955 -0.191406 0.06864596 0.04094867 -0.191406 0.06908115 0.04139484 -0.191406 0.08214507 0.02974862 -0.191406 0.08112047 0.02867307 -0.195406 0.008279366 0.04896778 -0.195406 0.008209213 0.04903246 -0.195406 0.008145546 0.04910354 -0.195406 0.008088943 0.04918037 -0.195406 0.00803992 0.04926223 -0.195406 0.007998924 0.0493484 -0.195406 0.007966327 0.04943809 -0.195406 0.007942428 0.04953047 -0.195406 0.007927443 0.04962471 -0.195406 0.007921508 0.04971995 -0.195406 0.007924678 0.04981532 -0.195406 0.007936924 0.04990996 -0.195406 0.007958135 0.05000299 -0.195406 0.007988117 0.05009359 -0.195406 0.008026597 0.05018091 -0.195406 0.008073225 0.05026416 -0.195406 0.008127576 0.05034259 -0.195406 0.008189156 0.05041549 -0.195406 0.008257403 0.05048219 -0.195406 0.008331697 0.05054207 -0.195406 0.00841136 0.0505946 -0.195406 0.008495667 0.0506393 -0.195406 0.03242255 0.061897 -0.195406 0.03305026 0.06324333 -0.195406 0.03374385 0.06455694 -0.195406 0.03450161 0.0658346 -0.195406 0.03532169 0.06707319 -0.195406 0.03620208 0.06826967 -0.195406 0.03714061 0.0694211 -0.195406 0.03813499 0.07052466 -0.195406 0.03918277 0.07157764 -0.195406 0.04028139 0.07257747 -0.195406 0.04142817 0.07352169 -0.195406 0.04262027 0.07440799 -0.195406 0.04385478 0.07523418 -0.195406 0.04512868 0.07599827 -0.195406 0.04643884 0.07669835 -0.195406 0.04778205 0.07733272 -0.195406 0.04915501 0.07789982 -0.195406 0.05055436 0.07839827 -0.195406 0.05197667 0.07882684 -0.195406 0.05341845 0.07918447 -0.195406 0.05487616 0.0794703 -0.195406 0.05634624 0.07968362 -0.195406 0.05782507 0.07982391 -0.195406 0.05930904 0.07989082 -0.195406 0.0607945 0.07988419 -0.195406 0.06227781 0.07980405 -0.195406 0.06375533 0.07965057 -0.195406 0.06522345 0.07942414 -0.195406 0.06667856 0.07912532 -0.195406 0.06811709 0.07875484 -0.195406 0.06953551 0.07831361 -0.195406 0.07093037 0.0778027 -0.195406 0.07229822 0.07722337 -0.195406 0.07363571 0.07657704 -0.195406 0.07493957 0.0758653 -0.195406 0.0762066 0.07508988 -0.195406 0.0774337 0.07425271 -0.195406 0.07861784 0.07335581 -0.195406 0.07975615 0.0724014 -0.195406 0.08084581 0.07139181 -0.195406 0.08188416 0.07032952 -0.195406 0.08286865 0.06921713 -0.195406 0.08379688 0.06805737 -0.195406 0.08466655 0.0668531 -0.195406 0.08547555 0.06560724 -0.195406 0.08622189 0.06432287 -0.195406 0.08690373 0.06300312 -0.195406 0.08751941 0.06165125 -0.195406 0.08806741 0.06027055 -0.195406 0.0885464 0.05886442 -0.195406 0.0889552 0.0574363 -0.195406 0.0892928 0.0559897 -0.195406 0.08955838 0.05452816 -0.195406 0.08975129 0.05305527 -0.195406 0.08987106 0.05157463 -0.195406 0.08991738 0.05008988 -0.195406 0.08989015 0.04860466 -0.195406 0.08978944 0.0471226 -0.195406 0.08961548 0.04564735 -0.195406 0.08936871 0.04418251 -0.195406 0.08904974 0.04273169 -0.195406 0.08865934 0.04129844 -0.195406 0.08819847 0.03988626 -0.195406 0.08766827 0.03849863 -0.195406 0.08707002 0.03713895 -0.195406 0.0864052 0.03581055 -0.195406 0.08567545 0.03451669 -0.195406 0.08488253 0.03326053 -0.195406 0.08402841 0.03204517 -0.195406 0.08311518 0.03087357 -0.195406 0.08214507 0.02974862 -0.195406 0.08112047 0.02867307 -0.195406 0.08004388 0.02764955 -0.195406 0.07891794 0.02668058 -0.195406 0.07774542 0.02576853 -0.195406 0.0765292 0.02491564 -0.195406 0.07527224 0.024124 -0.195406 0.07397764 0.02339555 -0.195406 0.07264856 0.02273208 -0.195406 0.07128828 0.02213521 -0.195406 0.06990011 0.02160641 -0.195406 0.06848747 0.02114697 -0.195406 0.06705383 0.02075802 -0.195406 0.06560268 0.02044052 -0.195406 0.0641376 0.02019523 -0.195406 0.06266217 0.02002277 -0.195406 0.06118001 0.01992356 -0.195406 0.05969476 0.01989783 -0.195406 0.05821006 0.01994566 -0.195406 0.05672954 0.02006692 -0.195406 0.05525684 0.02026132 -0.195406 0.05379557 0.02052838 -0.195406 0.05234932 0.02086745 -0.195406 0.05092161 0.02127769 -0.195406 0.04951597 0.0217581 -0.195406 0.04813583 0.0223075 -0.195406 0.04678457 0.02292455 -0.195406 0.04546552 0.02360773 -0.195406 0.0441819 0.02435536 -0.195406 0.05119004 0.05884534 -0.195406 0.05075485 0.05839916 -0.195406 0.05164693 0.05926926 -0.195406 0.05034245 0.05793185 -0.195406 0.05212438 0.0596699 -0.195406 0.04995384 0.05744455 -0.195406 0.0526212 0.06004623 -0.195406 0.04959002 0.0569385 -0.195406 0.05313617 0.06039732 -0.195406 0.04925187 0.05641494 -0.195406 0.053668 0.06072232 -0.195406 0.04894023 0.05587518 -0.195406 0.05421537 0.0610204 -0.195406 0.04865589 0.05532055 -0.195406 0.05477691 0.06129082 -0.195406 0.04839955 0.05475243 -0.195406 0.05535124 0.06153292 -0.195406 0.04817184 0.05417225 -0.195406 0.05593692 0.06174609 -0.195406 0.04797334 0.05358144 -0.195406 0.05653249 0.0619298 -0.195406 0.04780453 0.05298147 -0.195406 0.05713649 0.0620836 -0.195406 0.04766584 0.05237383 -0.195406 0.0577474 0.0622071 -0.195406 0.04755761 0.05176003 -0.195406 0.0583637 0.06229999 -0.195406 0.04748011 0.0511416 -0.195406 0.05898388 0.06236205 -0.195406 0.04743354 0.05052007 -0.195406 0.05960637 0.06239312 -0.195406 0.047418 0.049897 -0.195406 0.06022963 0.06239312 -0.195406 0.04743354 0.04927393 -0.195406 0.06085213 0.06236205 -0.195406 0.04748011 0.0486524 -0.195406 0.0614723 0.06229999 -0.195406 0.04755761 0.04803397 -0.195406 0.0620886 0.0622071 -0.195406 0.04766584 0.04742017 -0.195406 0.06269951 0.0620836 -0.195406 0.04780453 0.04681253 -0.195406 0.0633035 0.0619298 -0.195406 0.04797334 0.04621256 -0.195406 0.06389908 0.06174609 -0.195406 0.06448476 0.06153292 -0.195406 0.06505909 0.06129082 -0.195406 0.06562064 0.0610204 -0.195406 0.066168 0.06072232 -0.195406 0.06669983 0.06039732 -0.195406 0.0672148 0.06004623 -0.195406 0.06771162 0.0596699 -0.195406 0.06818907 0.05926926 -0.195406 0.06864596 0.05884534 -0.195406 0.06908115 0.05839916 -0.195406 0.06949355 0.05793185 -0.195406 0.06988216 0.05744455 -0.195406 0.05075485 0.04139484 -0.195406 0.05119004 0.04094867 -0.195406 0.05164693 0.04052473 -0.195406 0.05212438 0.04012411 -0.195406 0.0526212 0.03974778 -0.195406 0.05313617 0.03939668 -0.195406 0.04817184 0.04562175 -0.195406 0.04839955 0.04504156 -0.195406 0.04865589 0.04447345 -0.195406 0.04894023 0.04391883 -0.195406 0.04925187 0.04337906 -0.195406 0.04959002 0.0428555 -0.195406 0.04995384 0.04234945 -0.195406 0.05034245 0.04186216 -0.195406 0.07024599 0.0569385 -0.195406 0.053668 0.03907168 -0.195406 0.07058414 0.05641494 -0.195406 0.05421537 0.0387736 -0.195406 0.07089577 0.05587518 -0.195406 0.05477691 0.03850318 -0.195406 0.07118011 0.05532055 -0.195406 0.05535124 0.03826108 -0.195406 0.07143645 0.05475243 -0.195406 0.05593692 0.03804791 -0.195406 0.07166415 0.05417225 -0.195406 0.05653249 0.0378642 -0.195406 0.07186266 0.05358144 -0.195406 0.05713649 0.0377104 -0.195406 0.07203146 0.05298147 -0.195406 0.0577474 0.0375869 -0.195406 0.07217016 0.05237383 -0.195406 0.0583637 0.03749401 -0.195406 0.07227839 0.05176003 -0.195406 0.05898388 0.03743195 -0.195406 0.07235589 0.0511416 -0.195406 0.05960637 0.03740089 -0.195406 0.07240246 0.05052007 -0.195406 0.06022963 0.03740089 -0.195406 0.072418 0.049897 -0.195406 0.06085213 0.03743195 -0.195406 0.07240246 0.04927393 -0.195406 0.0614723 0.03749401 -0.195406 0.07235589 0.0486524 -0.195406 0.0620886 0.0375869 -0.195406 0.07227839 0.04803397 -0.195406 0.06269951 0.0377104 -0.195406 0.07217016 0.04742017 -0.195406 0.0633035 0.0378642 -0.195406 0.07203146 0.04681253 -0.195406 0.06389908 0.03804791 -0.195406 0.07186266 0.04621256 -0.195406 0.06448476 0.03826108 -0.195406 0.07166415 0.04562175 -0.195406 0.06505909 0.03850318 -0.195406 0.07143645 0.04504156 -0.195406 0.06562064 0.0387736 -0.195406 0.07118011 0.04447345 -0.195406 0.066168 0.03907168 -0.195406 0.07089577 0.04391883 -0.195406 0.06669983 0.03939668 -0.195406 0.07058414 0.04337906 -0.195406 0.0672148 0.03974778 -0.195406 0.07024599 0.0428555 -0.195406 0.06771162 0.04012411 -0.195406 0.06988216 0.04234945 -0.195406 0.06818907 0.04052473 -0.195406 0.06949355 0.04186216 -0.195406 0.06864596 0.04094867 -0.195406 0.06908115 0.04139484</float_array>
          <technique_common>
            <accessor count="498" source="#cubeverts-array0-array" stride="3">
              <param type="float" name="X"/>
              <param type="float" name="Y"/>
              <param type="float" name="Z"/>
            </accessor>
          </technique_common>
        </source>
        <source id="cubenormals-array0">
          <float_array count="2988" id="cubenormals-array0-array">0 -0.5660377 -0.8243793 -0 -0.5660377 -0.8243793 1 0 0 1 0 0 1 -0 0 1 -0 0 1 -0 0 1 -0 0 1 -0 0 1 -0 -0 1 -0 0 1 -0 -0 1 -0 0 1 -0 0 1 -0 -0 1 -0 -0 1 -0 -0 1 -0 -0 1 -0 0 1 -0 -0 1 -0 0 1 -0 -0 1 -0 -0 1 0 0 1 -0 0 1 -0 0 1 0 0 1 -0 0 1 0 -0 1 -0 0 1 0 0 1 0 -0 1 -0 0 1 -0 0 1 0 0 1 -0 0 1 0 -0 1 -0 0 1 0 0 1 -0 0 1 0 -0 1 -0 0 1 0 0 1 -0 0 1 0 -0 1 -0 0 1 0 0 1 -0 0 1 0 -0 1 -0 0 1 0 0 1 -0 0 1 0 -0 1 0 0 1 -0 0 1 0 -0 1 0 0 1 -0 0 1 0 -0 1 0 0 1 -0 0 1 0 -0 1 0 0 1 -0 0 1 0 -0 1 0 0 1 0 -0 1 -0 0 1 0 0 1 0 -0 1 -0 0 1 0 0 1 0 -0 1 -0 0 1 0 0 1 0 -0 1 -0 0 1 0 0 1 0 -0 1 0 0 1 0 0 1 -0 0 1 0 0 1 0 0 1 0 0 1 -0 0 1 0 0 1 -0 0 1 0 0 1 0 0 1 -0 0 1 0 0 1 -0 0 1 0 0 1 -0 0 1 0 0 1 0 0 1 -0 0 1 0 0 1 -0 0 1 0 0 1 0 0 1 -0 0 1 -0 0 1 0 0 1 -0 0 1 0 0 1 -0 0 1 0 0 1 0 0 1 0 0 1 -0 0 1 0 0 1 -0 0 1 -0 0 1 0 0 1 -0 0 1 0 0 1 0 -0 1 0 0 1 0 -0 1 0 0 1 0 -0 1 0 0 1 0 0 1 0 0 1 0 0 1 0 0 1 0 0 1 0 0 1 0 0 1 0 0 1 0 0 1 0 0 1 0 0 1 0 0 1 0 0 1 0 0 1 0 0 1 0 -0 1 0 0 1 -0 0 1 0 -0 1 0 0 1 0 0 1 -0 0 1 0 -0 1 0 0 1 0 0 1 -0 0 1 0 0 1 0 -0 1 0 0 1 -0 0 1 0 -0 1 0 0 1 0 0 1 -0 0 1 0 -0 1 0 0 1 -0 0 1 0 0 1 0 0 1 0 -0 1 0 0 1 -0 0 1 0 0 1 0 -0 1 0 0 1 -0 0 1 0 -0 1 0 0 1 0 0 1 -0 0 1 0 -0 1 0 0 1 0 0 1 -0 0 1 0 -0 1 0 0 1 0 0 1 -0 0 1 0 0 1 0 -0 1 -0 0 1 -0 0 1 0 -0 1 -0 0 1 -0 0 1 0 0 1 -0 0 1 -0 0 1 -0 0 1 0 -0 1 -0 0 1 0 0 1 -0 0 1 0 -0 1 -0 0 1 0 0 1 -0 0 1 0 -0 1 -0 0 1 0 0 1 -0 0 1 0 -0 1 -0 0 1 0 0 1 -0 0 1 0 -0 1 -0 0 1 0 0 1 0 -0 1 -0 0 1 0 0 1 -0 0 1 -0 0 1 0 -0 1 0 0 1 -0 0 1 0 -0 1 -0 0 1 0 0 1 -0 0 1 0 -0 1 -0 0 1 0 0 1 -0 0 1 -0 0 1 0 -0 1 0 0 1 -0 0 1 0 -0 1 -0 0 1 0 0 1 -0 0 1 0 -0 1 -0 0 1 0 0 1 -0 0 1 0 -0 1 -0 0 1 0 0 1 -0 0 1 -0 0 1 0 -0 1 -0 0 1 0 0 1 -0 0 1 0 -0 1 0 0 0 -0.6047211 -0.7964373 0 -0.6047211 -0.7964373 0 -0.6778831 -0.7351696 0 -0.6778831 -0.7351696 0 -0.7448763 -0.6672026 0 -0.7448763 -0.6672026 0 -0.8050752 -0.5931728 0 -0.8050752 -0.5931728 0 -0.8579441 -0.513743 0 -0.8579441 -0.513743 0 -0.9030124 -0.4296145 0 -0.9030124 -0.4296145 0 -0.9398459 -0.3415986 0 -0.9398459 -0.3415986 0 -0.968129 -0.2504521 0 -0.968129 -0.2504521 0 -0.9875923 -0.1570397 0 -0.9980642 -0.06219163 0 -0.9875923 -0.1570397 0 -0.9994481 0.03322032 0 -0.9980642 -0.06219163 0 -0.9994481 0.03322032 0 -0.991731 0.1283338 0 -0.9749832 0.2222785 0 -0.991731 0.1283338 0 -0.9749832 0.2222785 0 -0.9493573 0.3141988 0 -0.9493573 0.3141988 0 -0.9150889 0.4032521 0 -0.9150889 0.4032521 0 -0.8724847 0.4886414 0 -0.8724847 0.4886414 0 -0.821932 0.5695856 0 -0.821932 0.5695856 0 -0.7639065 0.6453269 0 -0.7639065 0.6453269 0 -0.69893 0.7151901 0 -0.69893 0.7151901 0 -0.6275575 0.7785702 0 -0.6275575 0.7785702 0 -0.5505095 0.8348289 0 -0.5505095 0.8348289 0 -0.4684373 0.8834968 0 -0.4684373 0.8834968 0 -0.9063317 0.4225669 0 -0.9063317 0.4225669 0 -0.8843025 0.4669145 0 -0.8843025 0.4669145 0 -0.8601047 0.5101174 0 -0.8601047 0.5101174 0 -0.8338011 0.552065 0 -0.8338011 0.552065 0 -0.8054512 0.5926621 0 -0.8054512 0.5926621 0 -0.7751265 0.6318061 0 -0.7751265 0.6318061 0 -0.7429005 0.6694019 0 -0.7429005 0.6694019 0 -0.708856 0.7053533 0 -0.708856 0.7053533 0 -0.6730687 0.73958 0 -0.6730687 0.73958 0 -0.635636 0.7719889 0 -0.635636 0.7719889 0 -0.5966432 0.8025067 0 -0.5966432 0.8025067 0 -0.5561844 0.8310589 0 -0.5561844 0.8310589 0 -0.5143692 0.8575688 0 -0.5143692 0.8575688 0 -0.4712852 0.8819809 0 -0.4712852 0.8819809 0 -0.4270482 0.9042289 0 -0.4270482 0.9042289 0 -0.3817643 0.9242598 0 -0.3817643 0.9242598 0 -0.3355504 0.9420223 0 -0.2885045 0.9574785 0 -0.3355504 0.9420223 0 -0.2885045 0.9574785 0 -0.2407551 0.9705859 0 -0.2407551 0.9705859 0 -0.1924153 0.9813135 0 -0.1924153 0.9813135 0 -0.1436026 0.9896355 0 -0.1436026 0.9896355 0 -0.09444093 0.9955305 0 -0.0450427 0.9989851 0 -0.09444093 0.9955305 0 -0.0450427 0.9989851 0 0.004458051 0.99999 -0 0.05395367 0.9985434 0 0.004458051 0.99999 0 0.05395367 0.9985434 0 0.1033209 0.994648 0 0.1033209 0.994648 0 0.1524261 0.9883149 0 0.1524261 0.9883149 -0 0.2011616 0.979558 0 0.2011616 0.979558 0 0.2494045 0.9683994 0 0.2494045 0.9683994 0 0.2970313 0.9548677 0 0.2970313 0.9548677 -0 0.3439368 0.9389927 0 0.3439368 0.9389927 0 0.3899963 0.9208164 0 0.3899963 0.9208164 -0 0.435097 0.9003836 0 0.435097 0.9003836 0 0.4791386 0.8777393 0 0.4791386 0.8777393 0 0.5219957 0.8529481 0 0.5219957 0.8529481 0 0.5635743 0.8260654 0 0.5635743 0.8260654 0 0.60378 0.797151 -0 0.6424962 0.7662889 0 0.60378 0.797151 0 0.6424962 0.7662889 0 0.6796418 0.7335441 0 0.6796418 0.7335441 0 0.7151167 0.699005 0 0.7151167 0.699005 0 0.748845 0.6627451 0 0.748845 0.6627451 0 0.7807325 0.6248654 0 0.7807325 0.6248654 0 0.8107051 0.5854547 0 0.8107051 0.5854547 0 0.8386924 0.5446054 0 0.8386924 0.5446054 0 0.864621 0.5024247 0 0.864621 0.5024247 0 0.8884317 0.4590088 0 0.8884317 0.4590088 0 0.9100654 0.4144647 -0 0.9294655 0.368909 0 0.9100654 0.4144647 0 0.9294655 0.368909 0 0.9465871 0.3224481 0 0.9465871 0.3224481 0 0.9613878 0.2751973 0 0.9613878 0.2751973 0 0.9738322 0.2272681 0 0.9738322 0.2272681 0 0.9838883 0.1787842 0 0.9838883 0.1787842 0 0.9915318 0.1298639 0 0.9915318 0.1298639 0 0.9967445 0.08062501 0 0.9967445 0.08062501 0 0.9995136 0.03118577 0 0.9995136 0.03118577 0 0.999832 -0.01833042 0 0.999832 -0.01833042 0 0.9976988 -0.06780034 0 0.9976988 -0.06780034 0 0.9931195 -0.1171059 0 0.9931195 -0.1171059 0 0.9861057 -0.166119 0 0.9861057 -0.166119 0 0.9766743 -0.2147258 0 0.9766743 -0.2147258 0 0.9648464 -0.2628143 0 0.9648464 -0.2628143 0 0.950655 -0.3102502 0 0.950655 -0.3102502 0 0.9341323 -0.356927 0 0.9341323 -0.356927 0 0.9153193 -0.4027289 0 0.9153193 -0.4027289 0 0.8942607 -0.4475464 0 0.8942607 -0.4475464 0 0.8710111 -0.4912632 0 0.8710111 -0.4912632 0 0.845624 -0.533779 0 0.845624 -0.533779 0 0.8181673 -0.5749803 0 0.7887024 -0.6147752 0 0.8181673 -0.5749803 0 0.7573029 -0.6530638 0 0.7887024 -0.6147752 0 0.7573029 -0.6530638 0 0.7240479 -0.6897497 0 0.7240479 -0.6897497 0 0.6890168 -0.7247453 0 0.6890168 -0.7247453 0 0.6522956 -0.7579648 0 0.6522956 -0.7579648 0 0.6139782 -0.789323 0 0.5741547 -0.8187469 0 0.6139782 -0.789323 0 0.5741547 -0.8187469 0 0.5329199 -0.8461657 0 0.5329199 -0.8461657 0 0.4903817 -0.8715077 0 0.4903817 -0.8715077 0 0.4466383 -0.8947146 0 0.4466383 -0.8947146 0 0.4018055 -0.9157251 0 0.4018055 -0.9157251 0 0.3559806 -0.9344934 0 0.3559806 -0.9344934 0 0.3092892 -0.950968 0 0.3092892 -0.950968 0 0.261835 -0.9651127 0 0.261835 -0.9651127 0 0.2137405 -0.9768904 0 0.2137405 -0.9768904 0 0.1651215 -0.9862733 0 0.1651215 -0.9862733 0 0.1160979 -0.9932377 0 0.1160979 -0.9932377 0 0.06679121 -0.997767 0 0.06679121 -0.997767 0 0.0173173 -0.99985 0 0.0173173 -0.99985 -0 -0.03219632 -0.9994816 0 -0.03219632 -0.9994816 0 -0.08163168 -0.9966625 0 -0.08163168 -0.9966625 -0 -0.1308666 -0.9914 0 -0.1308666 -0.9914 -0 -0.1797819 -0.9837064 0 -0.1797819 -0.9837064 0 -0.2282555 -0.9736013 0 -0.2282555 -0.9736013 -0 -0.2761689 -0.9611091 0 -0.2761689 -0.9611091 -0 -0.3234065 -0.9462602 0 -0.3234065 -0.9462602 0 -0.3698496 -0.9290916 0 -0.3698496 -0.9290916 -0 -0.4153869 -0.9096448 0 -0.4153869 -0.9096448 -0 -0.4599066 -0.8879673 0 -0.4599066 -0.8879673 -0 -0.5032969 -0.8641136 0 -0.5032969 -0.8641136 -0 -0.5454543 -0.8381405 0 -0.5454543 -0.8381405 -1 0 0 -1 0 0 -1 0 0 -1 0 0 -1 0 0 -1 0 0 -1 0 0 -1 0 0 -1 0 0 -1 0 0 -1 0 0 -1 0 0 -1 0 0 -1 0 0 -1 0 0 -1 0 0 -1 0 0 -1 0 0 -1 0 0 -1 0 0 -1 0 0 -1 0 0 -1 0 0 -1 0 0 -1 0 0 -1 0 0 -1 -0 0 -1 0 0 -1 0 0 -1 -0 0 -1 0 0 -1 0 0 -1 0 0 -1 0 0 -1 -0 0 -1 0 0 -1 0 0 -1 0 0 -1 -0 0 -1 0 0 -1 0 0 -1 0 0 -1 -0 0 -1 0 0 -1 0 0 -1 0 0 -1 -0 0 -1 0 0 -1 0 0 -1 0 0 -1 -0 0 -1 0 0 -1 0 0 -1 -0 0 -1 0 0 -1 0 0 -1 -0 0 -1 0 0 -1 0 0 -1 -0 0 -1 0 0 -1 0 0 -1 -0 0 -1 0 0 -1 -0 0 -1 0 0 -1 0 0 -1 -0 0 -1 0 0 -1 0 0 -1 -0 0 -1 0 0 -1 0 0 -1 -0 0 -1 0 0 -1 0 0 -1 0 0 -1 0 0 -1 0 0 -1 0 0 -1 0 0 -1 0 0 -1 0 0 -1 0 0 -1 0 0 -1 0 0 -1 0 0 -1 0 0 -1 0 0 -1 0 0 -1 0 0 -1 0 0 -1 0 0 -1 0 0 -1 0 0 -1 0 0 -1 0 0 -1 0 0 -1 0 0 -1 0 0 -1 0 0 -1 0 0 -1 0 0 -1 0 0 -1 0 0 -1 0 0 -1 0 0 -1 0 0 -1 0 0 -1 0 0 -1 0 0 -1 0 0 -1 0 0 -1 -0 0 -1 0 0 -1 -0 0 -1 0 0 -1 -0 0 -1 0 0 -1 -0 0 -1 0 0 -1 0 0 -1 0 0 -1 0 0 -1 0 0 -1 0 0 -1 0 0 -1 0 0 -1 0 0 -1 0 0 -1 0 0 -1 0 0 -1 0 0 -1 0 0 -1 0 0 -1 0 0 -1 -0 0 -1 0 0 -1 0 0 -1 0 0 -1 0 0 -1 -0 0 -1 0 0 -1 0 0 -1 0 0 -1 -0 0 -1 0 0 -1 0 0 -1 -0 0 -1 0 0 -1 0 0 -1 0 0 -1 0 0 -1 -0 0 -1 0 0 -1 0 0 -1 0 0 -1 -0 0 -1 0 0 -1 0 0 -1 -0 0 -1 0 0 -1 0 0 -1 0 0 -1 -0 0 -1 0 0 -1 0 0 -1 0 0 -1 0 0 -1 -0 0 -1 0 0 -1 0 0 -1 0 0 -1 -0 0 -1 0 0 -1 0 0 -1 0 0 -1 -0 0 -1 0 0 -1 0 0 -1 -0 0 -1 0 0 -1 0 0 -1 0 0 -1 -0 0 -1 0 0 -1 0 0 -1 -0 0 -1 0 0 -1 0 0 -1 0 0 -1 -0 0 -1 0 0 -1 0 0 -1 0 0 -1 -0 0 -1 0 0 -1 0 0 -1 0 0 -1 -0 0 -1 0 0 -1 0 0 -1 0 0 -1 -0 0 -1 0 0 -1 0 0 -1 0 0 -1 -0 0 -1 0 0 -1 0 0 -1 -0 0 -1 0 0 -1 0 0 -1 0 0 -1 0 0 -1 -0 0 -1 0 0 -1 0 0 -1 -0 0 -1 0 0 -1 0 0 -1 0 0 -1 -0 0 -1 0 0 -1 0 0 -1 0 0 -1 0 0 -1 -0 0 -1 0 0 -1 0 0 -1 -0 0 -1 0 0 -1 0 0 -1 0 0 -1 -0 0 -1 0 0 -1 0 0 -1 0 0 -1 -0 0 -1 0 0 -1 0 0 -1 0 0 -1 0 0 -1 -0 0 -1 0 0 -1 0 0 -1 0 0 -1 -0 0 -1 0 0 0 -0.4257348 0.904848 0 -0.4257348 0.904848 -0 -0.9996891 -0.02493485 0 -0.9996891 -0.02493485 0 -0.9972047 -0.07471889 -0 -0.9972047 -0.07471889 0 -0.9922392 -0.1243436 -0 -0.9922392 -0.1243436 0 -0.9848073 -0.1736509 -0 -0.9848073 -0.1736509 0 -0.9749264 -0.2225273 -0 -0.9749264 -0.2225273 0 -0.9626266 -0.2708322 0 -0.9479241 -0.3184963 -0 -0.9626266 -0.2708322 0 -0.9479241 -0.3184963 0 -0.9308766 -0.365334 -0 -0.9308766 -0.365334 0 -0.9115022 -0.4112951 -0 -0.9115022 -0.4112951 0 -0.8898734 -0.4562076 -0 -0.8898734 -0.4562076 -0 -0.8660274 -0.4999965 0 -0.8660274 -0.4999965 -0 -0.8400264 -0.5425456 0 -0.8400264 -0.5425456 -0 -0.8119361 -0.5837464 0 -0.8119361 -0.5837464 -0 -0.7818316 -0.6234896 0 -0.7818316 -0.6234896 0 -0.7497798 -0.6616874 -0 -0.7497798 -0.6616874 0 -0.7158684 -0.6982353 -0 -0.7158684 -0.6982353 0 -0.6801717 -0.7330528 -0 -0.6801717 -0.7330528 0 -0.6427922 -0.7660406 -0 -0.6427922 -0.7660406 0 -0.6038045 -0.7971324 0 -0.5633171 -0.8262408 -0 -0.6038045 -0.7971324 0 -0.5214337 -0.8532918 0 -0.5633171 -0.8262408 0 -0.5214337 -0.8532918 0 -0.4782568 -0.87822 -0 -0.4782568 -0.87822 0 -0.4338853 -0.900968 -0 -0.4338853 -0.900968 0 -0.3884313 -0.9214777 -0 -0.3884313 -0.9214777 0 -0.3420178 -0.9396935 -0 -0.3420178 -0.9396935 0 -0.2947563 -0.9555725 -0 -0.2947563 -0.9555725 0 -0.2467601 -0.9690766 -0 -0.2467601 -0.9690766 0 -0.1981449 -0.9801728 -0 -0.1981449 -0.9801728 0 -0.1490458 -0.9888303 -0 -0.1490458 -0.9888303 0 -0.09956795 -0.9950308 -0 -0.09956795 -0.9950308 0 -0.04984512 -0.9987569 -0 -0.04984512 -0.9987569 0 0 -1 0 0.04984543 -0.9987569 -0 -0 -1 0 0.04984543 -0.9987569 0 0.09956795 -0.9950308 0 0.09956795 -0.9950308 0 0.1490458 -0.9888303 0 0.1490458 -0.9888303 0 0.1981449 -0.9801728 0 0.1981449 -0.9801728 0 0.2467586 -0.9690769 0 0.2467586 -0.9690769 0 0.2947563 -0.9555725 0 0.2947563 -0.9555725 0 0.3420197 -0.9396928 0 0.3420197 -0.9396928 0 0.3884313 -0.9214777 0 0.3884313 -0.9214777 0 0.4338853 -0.900968 0 0.4338853 -0.900968 0 0.4782542 -0.8782214 0 0.4782542 -0.8782214 0 0.5214364 -0.8532901 0 0.5214364 -0.8532901 0 0.5633171 -0.8262408 0 0.5633171 -0.8262408 0 0.6038045 -0.7971324 0 0.6038045 -0.7971324 0 0.6427892 -0.7660431 0 0.6427892 -0.7660431 0 0.6801717 -0.7330528 0 0.6801717 -0.7330528 0 0.7158684 -0.6982353 0 0.7158684 -0.6982353 0 0.7497798 -0.6616874 0 0.7497798 -0.6616874 0 0.7818316 -0.6234896 0 0.7818316 -0.6234896 0 0.8119389 -0.5837424 0 0.8119389 -0.5837424 0 0.8400264 -0.5425456 0 0.8400264 -0.5425456 0 0.8660248 -0.5000011 0 0.8660248 -0.5000011 0 0.8898709 -0.4562124 0 0.8898709 -0.4562124 0 0.9115068 -0.411285 0 0.9115068 -0.411285 0 0.9308723 -0.3653446 0 0.9308723 -0.3653446 0 0.9479278 -0.3184853 0 0.9479278 -0.3184853 0 0.962625 -0.2708379 0 0.962625 -0.2708379 0 0.9749278 -0.2225215 0 0.9749278 -0.2225215 0 0.9848073 -0.1736509 0 0.9848073 -0.1736509 0 0.9922392 -0.1243436 0 0.9922392 -0.1243436 0 0.9972042 -0.07472498 0 0.9972042 -0.07472498 0 0.9996891 -0.02493485 0 0.9996891 -0.02493485 0 0.9996891 0.02493485 0 0.9996891 0.02493485 0 0.9972042 0.07472498 0 0.9972042 0.07472498 0 0.9922392 0.1243436 0 0.9922392 0.1243436 0 0.9848073 0.1736509 0 0.9848073 0.1736509 0 0.9749275 0.2225228 0 0.9749275 0.2225228 0 0.9626254 0.2708363 0 0.9626254 0.2708363 0 0.9479272 0.3184872 0 0.9479272 0.3184872 0 0.9308731 0.3653426 0 0.9308731 0.3653426 0 0.9115068 0.411285 0 0.9115068 0.411285 0 0.8898697 0.4562149 0 0.8898697 0.4562149 -0 0.8660263 0.4999985 0 0.8660263 0.4999985 0 0.8400264 0.5425456 0 0.8400264 0.5425456 0 0.8119389 0.5837424 0 0.8119389 0.5837424 0 0.7818292 0.6234926 0 0.7818292 0.6234926 0 0.7497825 0.6616844 0 0.7497825 0.6616844 0 0.7158654 0.6982384 0 0.7158654 0.6982384 0 0.680175 0.7330498 0 0.680175 0.7330498 0 0.6427856 0.766046 0 0.6427856 0.766046 0 0.6038045 0.7971324 0 0.6038045 0.7971324 0 0.5633212 0.826238 0 0.5633212 0.826238 0 0.5214364 0.8532901 0 0.5214364 0.8532901 0 0.4782542 0.8782214 0 0.4782542 0.8782214 0 0.4338804 0.9009705 0 0.4338804 0.9009705 0 0.3884365 0.9214755 0 0.3884365 0.9214755 0 0.3420197 0.9396928 0 0.3420197 0.9396928 0 0.2947563 0.9555725 0 0.2947563 0.9555725 0 0.2467586 0.9690769 0 0.2467586 0.9690769 0 0.1981449 0.9801728 0 0.1981449 0.9801728 0 0.1490398 0.9888312 0 0.1490398 0.9888312 0 0.09956795 0.9950308 0 0.09956795 0.9950308 0 0.04984543 0.9987569 0 0.04984543 0.9987569 0 -0 1 0 0 1 0 -0.04984512 0.9987569 0 -0.04984512 0.9987569 0 -0.09956795 0.9950308 0 -0.09956795 0.9950308 0 -0.1490398 0.9888312 0 -0.1490398 0.9888312 0 -0.1981449 0.9801728 0 -0.1981449 0.9801728 0 -0.2467601 0.9690766 0 -0.2467601 0.9690766 0 -0.2947563 0.9555725 0 -0.2947563 0.9555725 0 -0.3420178 0.9396935 0 -0.3420178 0.9396935 0 -0.3884365 0.9214755 0 -0.3884365 0.9214755 0 -0.4338804 0.9009705 0 -0.4338804 0.9009705 0 -0.4782568 0.87822 0 -0.4782568 0.87822 0 -0.5214337 0.8532918 0 -0.5214337 0.8532918 0 -0.5633212 0.826238 0 -0.5633212 0.826238 0 -0.6038045 0.7971324 0 -0.6038045 0.7971324 0 -0.6427886 0.7660435 0 -0.6427886 0.7660435 0 -0.680175 0.7330498 0 -0.680175 0.7330498 0 -0.7158654 0.6982384 0 -0.7158654 0.6982384 0 -0.7497825 0.6616844 0 -0.7497825 0.6616844 0 -0.7818292 0.6234926 0 -0.7818292 0.6234926 0 -0.8119361 0.5837464 0 -0.8119361 0.5837464 0 -0.8400264 0.5425456 0 -0.8400264 0.5425456 0 -0.8660289 0.4999939 0 -0.8660289 0.4999939 0 -0.8898722 0.45621 0 -0.8898722 0.45621 0 -0.9115022 0.4112951 0 -0.9115022 0.4112951 0 -0.9308773 0.3653319 0 -0.9308773 0.3653319 0 -0.9479235 0.3184982 0 -0.9479235 0.3184982 0 -0.962627 0.2708307 0 -0.962627 0.2708307 0 -0.9749262 0.2225287 0 -0.9749262 0.2225287 0 -0.9848073 0.1736509 0 -0.9848073 0.1736509 0 -0.9922392 0.1243436 0 -0.9922392 0.1243436 0 -0.9972047 0.07471889 0 -0.9972047 0.07471889 0 -0.9996891 0.02493485 0 -0.9996891 0.02493485</float_array>
          <technique_common>
            <accessor count="996" source="#cubenormals-array0-array" stride="3">
              <param type="float" name="X"/>
              <param type="float" name="Y"/>
              <param type="float" name="Z"/>
            </accessor>
          </technique_common>
        </source>
        <vertices id="cubeverts-array0-vertices">
          <input semantic="POSITION" source="#cubeverts-array0"/>
        </vertices>
        <triangles count="996" material="ref_Body007">
          <input offset="0" semantic="VERTEX" source="#cubeverts-array0-vertices"/>
          <input offset="1" semantic="NORMAL" source="#cubenormals-array0"/>
          <p>0 0 1 0 2 0 0 1 2 1 3 1 4 2 5 2 6 2 6 3 5 3 7 3 8 4 9 4 10 4 10 5 9 5 11 5 11 6 9 6 4 6 4 7 9 7 5 7 12 8 13 8 9 8 14 9 15 9 16 9 16 10 15 10 17 10 15 11 18 11 17 11 17 12 19 12 13 12 13 13 19 13 9 13 18 14 19 14 17 14 20 15 21 15 19 15 22 16 23 16 21 16 24 17 1 17 23 17 5 18 1 18 25 18 21 19 1 19 19 19 9 20 1 20 5 20 23 21 1 21 21 21 19 22 1 22 9 22 1 23 26 23 25 23 27 24 28 24 29 24 30 25 31 25 27 25 27 26 31 26 28 26 29 27 32 27 33 27 28 28 32 28 29 28 34 29 35 29 30 29 30 30 35 30 31 30 32 31 36 31 33 31 33 32 36 32 37 32 38 33 39 33 34 33 34 34 39 34 35 34 37 35 40 35 41 35 36 36 40 36 37 36 42 37 43 37 38 37 38 38 43 38 39 38 41 39 44 39 45 39 40 40 44 40 41 40 46 41 47 41 42 41 42 42 47 42 43 42 45 43 48 43 49 43 44 44 48 44 45 44 50 45 51 45 46 45 46 46 51 46 47 46 49 47 52 47 53 47 48 48 52 48 49 48 26 49 54 49 50 49 50 50 54 50 51 50 53 51 55 51 56 51 52 52 55 52 53 52 26 53 57 53 54 53 56 54 58 54 59 54 55 55 58 55 56 55 26 56 60 56 57 56 59 57 61 57 62 57 58 58 61 58 59 58 26 59 63 59 60 59 62 60 64 60 65 60 61 61 64 61 62 61 26 62 66 62 63 62 65 63 67 63 68 63 64 64 67 64 65 64 26 65 69 65 66 65 67 66 70 66 68 66 68 67 70 67 71 67 26 68 72 68 69 68 70 69 73 69 71 69 71 70 73 70 74 70 26 71 75 71 72 71 73 72 76 72 74 72 74 73 76 73 77 73 26 74 78 74 75 74 76 75 79 75 77 75 77 76 79 76 80 76 26 77 81 77 78 77 79 78 82 78 80 78 80 79 82 79 83 79 26 80 84 80 81 80 82 81 85 81 83 81 83 82 85 82 86 82 26 83 87 83 84 83 86 84 88 84 89 84 85 85 88 85 86 85 26 86 90 86 87 86 88 87 91 87 89 87 89 88 91 88 92 88 26 89 93 89 90 89 91 90 94 90 92 90 92 91 94 91 95 91 1 92 96 92 26 92 26 93 96 93 93 93 94 94 97 94 95 94 95 95 97 95 98 95 1 96 99 96 96 96 97 97 100 97 98 97 98 98 100 98 101 98 100 99 102 99 101 99 101 100 102 100 103 100 103 101 104 101 105 101 102 102 104 102 103 102 104 103 106 103 105 103 105 104 106 104 107 104 106 105 108 105 107 105 107 106 108 106 109 106 108 107 110 107 109 107 109 108 110 108 111 108 111 109 112 109 113 109 113 110 112 110 114 110 110 111 112 111 111 111 114 112 115 112 116 112 112 113 115 113 114 113 115 114 117 114 116 114 117 115 118 115 116 115 117 116 119 116 118 116 119 117 120 117 118 117 121 118 120 118 119 118 121 119 122 119 120 119 123 120 122 120 121 120 123 121 124 121 122 121 125 122 124 122 123 122 126 123 0 123 127 123 127 124 0 124 128 124 128 125 0 125 129 125 129 126 0 126 130 126 130 127 0 127 131 127 1 128 0 128 99 128 99 129 0 129 132 129 132 130 0 130 133 130 133 131 0 131 134 131 134 132 0 132 135 132 135 133 0 133 136 133 136 134 0 134 137 134 137 135 0 135 138 135 138 136 0 136 139 136 139 137 0 137 126 137 125 138 140 138 124 138 141 139 140 139 125 139 131 140 142 140 143 140 0 141 142 141 131 141 144 142 145 142 141 142 141 143 145 143 140 143 143 144 146 144 147 144 142 145 146 145 143 145 148 146 149 146 144 146 144 147 149 147 145 147 147 148 150 148 151 148 146 149 150 149 147 149 148 150 152 150 149 150 153 151 152 151 148 151 151 152 154 152 155 152 150 153 154 153 151 153 156 154 157 154 153 154 153 155 157 155 152 155 155 156 158 156 159 156 154 157 158 157 155 157 160 158 161 158 156 158 156 159 161 159 157 159 158 160 162 160 159 160 159 161 162 161 163 161 160 162 164 162 161 162 165 163 164 163 160 163 163 164 166 164 167 164 162 165 166 165 163 165 165 166 168 166 164 166 169 167 168 167 165 167 167 168 170 168 171 168 166 169 170 169 167 169 172 170 173 170 169 170 169 171 173 171 168 171 171 172 174 172 175 172 170 173 174 173 171 173 176 174 177 174 172 174 172 175 177 175 173 175 175 176 178 176 179 176 174 177 178 177 175 177 180 178 181 178 176 178 176 179 181 179 177 179 179 180 182 180 183 180 178 181 182 181 179 181 180 182 184 182 181 182 185 183 184 183 180 183 183 184 186 184 187 184 182 185 186 185 183 185 188 186 189 186 185 186 185 187 189 187 184 187 187 188 190 188 191 188 186 189 190 189 187 189 192 190 193 190 188 190 188 191 193 191 189 191 191 192 194 192 195 192 190 193 194 193 191 193 196 194 197 194 192 194 192 195 197 195 193 195 195 196 198 196 199 196 194 197 198 197 195 197 200 198 201 198 196 198 196 199 201 199 197 199 199 200 202 200 203 200 198 201 202 201 199 201 204 202 205 202 200 202 200 203 205 203 201 203 203 204 206 204 207 204 202 205 206 205 203 205 208 206 209 206 204 206 204 207 209 207 205 207 207 208 210 208 211 208 206 209 210 209 207 209 212 210 213 210 208 210 208 211 213 211 209 211 210 212 214 212 211 212 211 213 214 213 215 213 212 214 216 214 213 214 217 215 216 215 212 215 215 216 218 216 219 216 214 217 218 217 215 217 217 218 220 218 216 218 221 219 220 219 217 219 218 220 222 220 219 220 219 221 222 221 223 221 221 222 224 222 220 222 225 223 224 223 221 223 222 224 226 224 223 224 223 225 226 225 227 225 225 226 228 226 224 226 229 227 228 227 225 227 227 228 230 228 231 228 226 229 230 229 227 229 229 230 232 230 228 230 233 231 232 231 229 231 230 232 234 232 231 232 231 233 234 233 235 233 233 234 236 234 232 234 237 235 236 235 233 235 234 236 238 236 235 236 235 237 238 237 239 237 237 238 240 238 236 238 241 239 240 239 237 239 238 240 242 240 239 240 239 241 242 241 243 241 241 242 244 242 240 242 245 243 244 243 241 243 243 244 246 244 247 244 242 245 246 245 243 245 248 246 249 246 245 246 245 247 249 247 244 247 247 248 250 248 248 248 246 249 250 249 247 249 248 250 250 250 249 250 251 251 1 251 24 251 251 252 2 252 1 252 252 253 24 253 23 253 252 254 251 254 24 254 253 255 23 255 22 255 253 256 252 256 23 256 254 257 22 257 21 257 254 258 253 258 22 258 255 259 21 259 20 259 255 260 254 260 21 260 256 261 20 261 19 261 256 262 255 262 20 262 257 263 19 263 18 263 257 264 256 264 19 264 258 265 18 265 15 265 258 266 257 266 18 266 259 267 15 267 14 267 259 268 14 268 16 268 259 269 258 269 15 269 260 270 16 270 17 270 260 271 259 271 16 271 261 272 260 272 17 272 262 273 17 273 13 273 262 274 13 274 12 274 262 275 261 275 17 275 263 276 262 276 12 276 264 277 263 277 12 277 264 278 12 278 9 278 265 279 264 279 9 279 265 280 9 280 8 280 265 281 8 281 10 281 266 282 265 282 10 282 267 283 10 283 11 283 267 284 266 284 10 284 268 285 11 285 4 285 268 286 267 286 11 286 269 287 4 287 6 287 269 288 268 288 4 288 270 289 6 289 7 289 270 290 269 290 6 290 271 291 7 291 5 291 271 292 270 292 7 292 272 293 5 293 25 293 272 294 271 294 5 294 26 295 50 295 273 295 273 296 50 296 274 296 274 297 46 297 275 297 50 298 46 298 274 298 275 299 42 299 276 299 46 300 42 300 275 300 276 301 38 301 277 301 42 302 38 302 276 302 277 303 34 303 278 303 38 304 34 304 277 304 278 305 30 305 279 305 34 306 30 306 278 306 279 307 27 307 280 307 30 308 27 308 279 308 280 309 29 309 281 309 27 310 29 310 280 310 281 311 33 311 282 311 29 312 33 312 281 312 282 313 37 313 283 313 33 314 37 314 282 314 283 315 41 315 284 315 37 316 41 316 283 316 284 317 45 317 285 317 41 318 45 318 284 318 285 319 49 319 286 319 45 320 49 320 285 320 286 321 53 321 287 321 49 322 53 322 286 322 287 323 56 323 288 323 53 324 56 324 287 324 288 325 59 325 289 325 56 326 59 326 288 326 289 327 62 327 290 327 290 328 62 328 291 328 59 329 62 329 289 329 62 330 65 330 291 330 291 331 65 331 292 331 65 332 68 332 292 332 292 333 71 333 293 333 68 334 71 334 292 334 293 335 74 335 294 335 71 336 74 336 293 336 294 337 77 337 295 337 295 338 77 338 296 338 74 339 77 339 294 339 77 340 80 340 296 340 296 341 83 341 297 341 297 342 83 342 298 342 80 343 83 343 296 343 83 344 86 344 298 344 86 345 89 345 298 345 298 346 89 346 299 346 89 347 92 347 299 347 299 348 92 348 300 348 300 349 92 349 301 349 92 350 95 350 301 350 95 351 98 351 301 351 301 352 98 352 302 352 98 353 101 353 302 353 302 354 101 354 303 354 303 355 101 355 304 355 101 356 103 356 304 356 103 357 105 357 304 357 304 358 105 358 305 358 305 359 105 359 306 359 105 360 107 360 306 360 306 361 109 361 307 361 107 362 109 362 306 362 307 363 111 363 308 363 109 364 111 364 307 364 308 365 113 365 309 365 111 366 113 366 308 366 309 367 114 367 310 367 310 368 114 368 311 368 113 369 114 369 309 369 114 370 116 370 311 370 311 371 118 371 312 371 116 372 118 372 311 372 312 373 120 373 313 373 118 374 120 374 312 374 313 375 122 375 314 375 120 376 122 376 313 376 314 377 124 377 315 377 122 378 124 378 314 378 315 379 140 379 316 379 124 380 140 380 315 380 316 381 145 381 317 381 140 382 145 382 316 382 317 383 149 383 318 383 145 384 149 384 317 384 318 385 152 385 319 385 149 386 152 386 318 386 319 387 157 387 320 387 320 388 157 388 321 388 152 389 157 389 319 389 157 390 161 390 321 390 321 391 164 391 322 391 161 392 164 392 321 392 322 393 168 393 323 393 164 394 168 394 322 394 168 395 173 395 323 395 323 396 173 396 324 396 173 397 177 397 324 397 324 398 177 398 325 398 177 399 181 399 325 399 325 400 181 400 326 400 181 401 184 401 326 401 326 402 184 402 327 402 184 403 189 403 327 403 327 404 189 404 328 404 189 405 193 405 328 405 328 406 193 406 329 406 193 407 197 407 329 407 329 408 197 408 330 408 197 409 201 409 330 409 330 410 201 410 331 410 201 411 205 411 331 411 331 412 205 412 332 412 205 413 209 413 332 413 332 414 209 414 333 414 333 415 209 415 334 415 209 416 213 416 334 416 213 417 216 417 334 417 334 418 216 418 335 418 216 419 220 419 335 419 335 420 220 420 336 420 220 421 224 421 336 421 336 422 224 422 337 422 224 423 228 423 337 423 337 424 228 424 338 424 338 425 228 425 339 425 228 426 232 426 339 426 232 427 236 427 339 427 339 428 236 428 340 428 340 429 240 429 341 429 341 430 240 430 342 430 236 431 240 431 340 431 342 432 244 432 343 432 240 433 244 433 342 433 244 434 249 434 343 434 343 435 250 435 344 435 249 436 250 436 343 436 344 437 246 437 345 437 250 438 246 438 344 438 345 439 242 439 346 439 246 440 242 440 345 440 346 441 238 441 347 441 347 442 238 442 348 442 242 443 238 443 346 443 238 444 234 444 348 444 348 445 234 445 349 445 234 446 230 446 349 446 230 447 226 447 349 447 349 448 226 448 350 448 350 449 226 449 351 449 226 450 222 450 351 450 222 451 218 451 351 451 351 452 218 452 352 452 218 453 214 453 352 453 352 454 214 454 353 454 214 455 210 455 353 455 353 456 210 456 354 456 210 457 206 457 354 457 354 458 206 458 355 458 206 459 202 459 355 459 355 460 202 460 356 460 202 461 198 461 356 461 356 462 198 462 357 462 198 463 194 463 357 463 357 464 194 464 358 464 358 465 194 465 359 465 194 466 190 466 359 466 190 467 186 467 359 467 359 468 186 468 360 468 186 469 182 469 360 469 360 470 182 470 361 470 361 471 182 471 362 471 182 472 178 472 362 472 178 473 174 473 362 473 362 474 174 474 363 474 174 475 170 475 363 475 363 476 170 476 364 476 364 477 170 477 365 477 170 478 166 478 365 478 166 479 162 479 365 479 365 480 162 480 366 480 162 481 158 481 366 481 366 482 158 482 367 482 367 483 158 483 368 483 158 484 154 484 368 484 154 485 150 485 368 485 368 486 150 486 369 486 150 487 146 487 369 487 369 488 146 488 370 488 146 489 142 489 370 489 370 490 142 490 371 490 142 491 0 491 371 491 371 492 0 492 3 492 271 493 268 493 269 493 271 494 269 494 270 494 264 495 265 495 266 495 264 496 266 496 267 496 264 497 267 497 268 497 264 498 268 498 271 498 262 499 263 499 264 499 258 500 259 500 260 500 258 501 260 501 261 501 257 502 258 502 261 502 256 503 261 503 262 503 256 504 262 504 264 504 256 505 257 505 261 505 254 506 255 506 256 506 252 507 253 507 254 507 2 508 251 508 252 508 2 509 271 509 272 509 2 510 254 510 256 510 2 511 264 511 271 511 2 512 252 512 254 512 2 513 256 513 264 513 273 514 2 514 272 514 372 515 280 515 281 515 373 516 279 516 280 516 373 517 280 517 372 517 374 518 281 518 282 518 374 519 372 519 281 519 375 520 278 520 279 520 375 521 279 521 373 521 376 522 374 522 282 522 376 523 282 523 283 523 377 524 277 524 278 524 377 525 278 525 375 525 378 526 283 526 284 526 378 527 376 527 283 527 379 528 276 528 277 528 379 529 277 529 377 529 380 530 284 530 285 530 380 531 378 531 284 531 381 532 275 532 276 532 381 533 276 533 379 533 382 534 285 534 286 534 382 535 380 535 285 535 383 536 274 536 275 536 383 537 275 537 381 537 384 538 286 538 287 538 384 539 382 539 286 539 385 540 273 540 274 540 385 541 274 541 383 541 386 542 287 542 288 542 386 543 384 543 287 543 387 544 273 544 385 544 388 545 288 545 289 545 388 546 386 546 288 546 389 547 273 547 387 547 390 548 289 548 290 548 390 549 388 549 289 549 391 550 273 550 389 550 392 551 290 551 291 551 392 552 390 552 290 552 393 553 273 553 391 553 394 554 291 554 292 554 394 555 392 555 291 555 395 556 273 556 393 556 396 557 394 557 292 557 396 558 292 558 293 558 397 559 273 559 395 559 398 560 396 560 293 560 398 561 293 561 294 561 399 562 273 562 397 562 400 563 398 563 294 563 400 564 294 564 295 564 401 565 273 565 399 565 402 566 400 566 295 566 402 567 295 567 296 567 403 568 273 568 401 568 404 569 402 569 296 569 404 570 296 570 297 570 405 571 273 571 403 571 406 572 404 572 297 572 406 573 297 573 298 573 407 574 273 574 405 574 408 575 298 575 299 575 408 576 406 576 298 576 409 577 273 577 407 577 410 578 408 578 299 578 410 579 299 579 300 579 411 580 273 580 409 580 412 581 410 581 300 581 412 582 300 582 301 582 413 583 2 583 273 583 413 584 273 584 411 584 414 585 412 585 301 585 414 586 301 586 302 586 415 587 2 587 413 587 416 588 414 588 302 588 416 589 302 589 303 589 417 590 416 590 303 590 417 591 303 591 304 591 418 592 304 592 305 592 418 593 417 593 304 593 419 594 418 594 305 594 419 595 305 595 306 595 420 596 419 596 306 596 420 597 306 597 307 597 421 598 420 598 307 598 421 599 307 599 308 599 422 600 308 600 309 600 422 601 309 601 310 601 422 602 421 602 308 602 423 603 310 603 311 603 423 604 422 604 310 604 424 605 423 605 311 605 312 606 424 606 311 606 425 607 424 607 312 607 313 608 425 608 312 608 313 609 426 609 425 609 314 610 426 610 313 610 314 611 427 611 426 611 315 612 427 612 314 612 315 613 428 613 427 613 3 614 429 614 430 614 3 615 430 615 431 615 3 616 431 616 432 616 3 617 432 617 433 617 3 618 433 618 434 618 3 619 2 619 415 619 3 620 415 620 435 620 3 621 435 621 436 621 3 622 436 622 437 622 3 623 437 623 438 623 3 624 438 624 439 624 3 625 439 625 440 625 3 626 440 626 441 626 3 627 441 627 442 627 3 628 442 628 429 628 316 629 428 629 315 629 316 630 443 630 428 630 371 631 434 631 444 631 371 632 3 632 434 632 317 633 445 633 443 633 317 634 443 634 316 634 370 635 444 635 446 635 370 636 371 636 444 636 318 637 447 637 445 637 318 638 445 638 317 638 369 639 446 639 448 639 369 640 370 640 446 640 319 641 447 641 318 641 319 642 449 642 447 642 368 643 448 643 450 643 368 644 369 644 448 644 320 645 451 645 449 645 320 646 449 646 319 646 367 647 450 647 452 647 367 648 368 648 450 648 321 649 453 649 451 649 321 650 451 650 320 650 366 651 367 651 452 651 366 652 452 652 454 652 322 653 453 653 321 653 322 654 455 654 453 654 365 655 454 655 456 655 365 656 366 656 454 656 323 657 455 657 322 657 323 658 457 658 455 658 364 659 456 659 458 659 364 660 365 660 456 660 324 661 459 661 457 661 324 662 457 662 323 662 363 663 458 663 460 663 363 664 364 664 458 664 325 665 461 665 459 665 325 666 459 666 324 666 362 667 460 667 462 667 362 668 363 668 460 668 326 669 463 669 461 669 326 670 461 670 325 670 361 671 462 671 464 671 361 672 362 672 462 672 327 673 463 673 326 673 327 674 465 674 463 674 360 675 464 675 466 675 360 676 361 676 464 676 328 677 467 677 465 677 328 678 465 678 327 678 359 679 466 679 468 679 359 680 360 680 466 680 329 681 469 681 467 681 329 682 467 682 328 682 358 683 468 683 470 683 358 684 359 684 468 684 330 685 471 685 469 685 330 686 469 686 329 686 357 687 470 687 472 687 357 688 358 688 470 688 331 689 473 689 471 689 331 690 471 690 330 690 356 691 472 691 474 691 356 692 357 692 472 692 332 693 475 693 473 693 332 694 473 694 331 694 355 695 474 695 476 695 355 696 356 696 474 696 333 697 477 697 475 697 333 698 475 698 332 698 354 699 476 699 478 699 354 700 355 700 476 700 334 701 479 701 477 701 334 702 477 702 333 702 353 703 354 703 478 703 353 704 478 704 480 704 335 705 479 705 334 705 335 706 481 706 479 706 352 707 480 707 482 707 352 708 353 708 480 708 336 709 481 709 335 709 336 710 483 710 481 710 351 711 352 711 482 711 351 712 482 712 484 712 337 713 483 713 336 713 337 714 485 714 483 714 350 715 351 715 484 715 350 716 484 716 486 716 338 717 485 717 337 717 338 718 487 718 485 718 349 719 486 719 488 719 349 720 350 720 486 720 339 721 487 721 338 721 339 722 489 722 487 722 348 723 349 723 488 723 348 724 488 724 490 724 340 725 489 725 339 725 340 726 491 726 489 726 347 727 348 727 490 727 347 728 490 728 492 728 341 729 491 729 340 729 341 730 493 730 491 730 346 731 347 731 492 731 346 732 492 732 494 732 342 733 493 733 341 733 342 734 495 734 493 734 345 735 494 735 496 735 345 736 346 736 494 736 343 737 497 737 495 737 343 738 495 738 342 738 344 739 496 739 497 739 344 740 345 740 496 740 344 741 497 741 343 741 25 742 26 742 272 742 272 743 26 743 273 743 188 744 185 744 467 744 467 745 185 745 465 745 465 746 180 746 463 746 185 747 180 747 465 747 463 748 176 748 461 748 180 749 176 749 463 749 461 750 172 750 459 750 176 751 172 751 461 751 459 752 169 752 457 752 172 753 169 753 459 753 457 754 165 754 455 754 455 755 165 755 453 755 169 756 165 756 457 756 165 757 160 757 453 757 453 758 156 758 451 758 160 759 156 759 453 759 451 760 153 760 449 760 156 761 153 761 451 761 449 762 148 762 447 762 153 763 148 763 449 763 148 764 144 764 447 764 447 765 144 765 445 765 144 766 141 766 445 766 445 767 141 767 443 767 141 768 125 768 443 768 443 769 125 769 428 769 125 770 123 770 428 770 428 771 123 771 427 771 427 772 121 772 426 772 123 773 121 773 427 773 426 774 119 774 425 774 121 775 119 775 426 775 425 776 117 776 424 776 119 777 117 777 425 777 424 778 115 778 423 778 117 779 115 779 424 779 423 780 112 780 422 780 422 781 112 781 421 781 115 782 112 782 423 782 421 783 110 783 420 783 112 784 110 784 421 784 110 785 108 785 420 785 420 786 106 786 419 786 108 787 106 787 420 787 419 788 104 788 418 788 106 789 104 789 419 789 418 790 102 790 417 790 104 791 102 791 418 791 417 792 100 792 416 792 102 793 100 793 417 793 416 794 97 794 414 794 100 795 97 795 416 795 414 796 94 796 412 796 97 797 94 797 414 797 412 798 91 798 410 798 94 799 91 799 412 799 410 800 88 800 408 800 91 801 88 801 410 801 408 802 85 802 406 802 88 803 85 803 408 803 406 804 82 804 404 804 85 805 82 805 406 805 404 806 79 806 402 806 402 807 79 807 400 807 82 808 79 808 404 808 79 809 76 809 400 809 400 810 73 810 398 810 76 811 73 811 400 811 398 812 70 812 396 812 73 813 70 813 398 813 396 814 67 814 394 814 70 815 67 815 396 815 394 816 64 816 392 816 67 817 64 817 394 817 64 818 61 818 392 818 392 819 61 819 390 819 61 820 58 820 390 820 390 821 58 821 388 821 58 822 55 822 388 822 388 823 55 823 386 823 55 824 52 824 386 824 386 825 52 825 384 825 384 826 52 826 382 826 52 827 48 827 382 827 48 828 44 828 382 828 382 829 44 829 380 829 44 830 40 830 380 830 380 831 40 831 378 831 40 832 36 832 378 832 378 833 36 833 376 833 36 834 32 834 376 834 376 835 32 835 374 835 32 836 28 836 374 836 374 837 28 837 372 837 372 838 31 838 373 838 28 839 31 839 372 839 373 840 35 840 375 840 31 841 35 841 373 841 375 842 39 842 377 842 35 843 39 843 375 843 377 844 43 844 379 844 39 845 43 845 377 845 379 846 47 846 381 846 43 847 47 847 379 847 381 848 51 848 383 848 47 849 51 849 381 849 383 850 54 850 385 850 51 851 54 851 383 851 385 852 57 852 387 852 54 853 57 853 385 853 387 854 60 854 389 854 57 855 60 855 387 855 389 856 63 856 391 856 60 857 63 857 389 857 391 858 66 858 393 858 63 859 66 859 391 859 393 860 69 860 395 860 66 861 69 861 393 861 395 862 72 862 397 862 69 863 72 863 395 863 397 864 75 864 399 864 72 865 75 865 397 865 75 866 78 866 399 866 399 867 78 867 401 867 78 868 81 868 401 868 401 869 81 869 403 869 81 870 84 870 403 870 403 871 84 871 405 871 84 872 87 872 405 872 405 873 87 873 407 873 87 874 90 874 407 874 407 875 90 875 409 875 90 876 93 876 409 876 409 877 93 877 411 877 93 878 96 878 411 878 411 879 96 879 413 879 96 880 99 880 413 880 413 881 99 881 415 881 99 882 132 882 415 882 415 883 132 883 435 883 132 884 133 884 435 884 435 885 133 885 436 885 133 886 134 886 436 886 436 887 134 887 437 887 134 888 135 888 437 888 437 889 135 889 438 889 438 890 135 890 439 890 135 891 136 891 439 891 136 892 137 892 439 892 439 893 137 893 440 893 137 894 138 894 440 894 440 895 138 895 441 895 138 896 139 896 441 896 441 897 139 897 442 897 139 898 126 898 442 898 442 899 126 899 429 899 126 900 127 900 429 900 429 901 127 901 430 901 127 902 128 902 430 902 430 903 128 903 431 903 128 904 129 904 431 904 431 905 129 905 432 905 129 906 130 906 432 906 432 907 130 907 433 907 433 908 131 908 434 908 130 909 131 909 433 909 434 910 143 910 444 910 131 911 143 911 434 911 444 912 147 912 446 912 143 913 147 913 444 913 446 914 151 914 448 914 147 915 151 915 446 915 448 916 155 916 450 916 151 917 155 917 448 917 155 918 159 918 450 918 450 919 159 919 452 919 159 920 163 920 452 920 452 921 163 921 454 921 163 922 167 922 454 922 454 923 167 923 456 923 167 924 171 924 456 924 456 925 171 925 458 925 171 926 175 926 458 926 458 927 175 927 460 927 175 928 179 928 460 928 460 929 179 929 462 929 179 930 183 930 462 930 462 931 183 931 464 931 183 932 187 932 464 932 464 933 187 933 466 933 187 934 191 934 466 934 466 935 191 935 468 935 191 936 195 936 468 936 468 937 195 937 470 937 195 938 199 938 470 938 470 939 199 939 472 939 199 940 203 940 472 940 472 941 203 941 474 941 474 942 207 942 476 942 203 943 207 943 474 943 476 944 211 944 478 944 207 945 211 945 476 945 478 946 215 946 480 946 211 947 215 947 478 947 480 948 219 948 482 948 215 949 219 949 480 949 482 950 223 950 484 950 219 951 223 951 482 951 484 952 227 952 486 952 223 953 227 953 484 953 486 954 231 954 488 954 227 955 231 955 486 955 488 956 235 956 490 956 231 957 235 957 488 957 490 958 239 958 492 958 235 959 239 959 490 959 492 960 243 960 494 960 239 961 243 961 492 961 494 962 247 962 496 962 243 963 247 963 494 963 496 964 248 964 497 964 247 965 248 965 496 965 497 966 245 966 495 966 248 967 245 967 497 967 245 968 241 968 495 968 495 969 241 969 493 969 241 970 237 970 493 970 493 971 237 971 491 971 237 972 233 972 491 972 491 973 233 973 489 973 233 974 229 974 489 974 489 975 229 975 487 975 487 976 225 976 485 976 229 977 225 977 487 977 485 978 221 978 483 978 225 979 221 979 485 979 483 980 217 980 481 980 221 981 217 981 483 981 481 982 212 982 479 982 217 983 212 983 481 983 479 984 208 984 477 984 212 985 208 985 479 985 477 986 204 986 475 986 208 987 204 987 477 987 475 988 200 988 473 988 204 989 200 989 475 989 473 990 196 990 471 990 200 991 196 991 473 991 471 992 192 992 469 992 196 993 192 993 471 993 469 994 188 994 467 994 192 995 188 995 469 995</p>
        </triangles>
      </mesh>
    </geometry>
  </library_geometries>
  <library_materials>
    <material id="mat_Body007" name="Body007">
      <instance_effect url="#effect_Body007"/>
    </material>
  </library_materials>
  <library_visual_scenes>
    <visual_scene id="scene">
      <node id="node0" name="node0">
        <instance_geometry url="#geometry0">
          <bind_material>
            <technique_common>
              <instance_material symbol="ref_Body007" target="#mat_Body007"/>
            </technique_common>
          </bind_material>
        </instance_geometry>
      </node>
    </visual_scene>
  </library_visual_scenes>
  <scene>
    <instance_visual_scene url="#scene"/>
  </scene>
</COLLADA>
