<COLLADA xmlns="http://www.collada.org/2005/11/COLLADASchema" version="1.4.1">
  <asset>
    <contributor/>
    <created>2026-10-07T19:15:39.427560</created>
    <modified>2026-10-07T19:15:39.427560</modified>
    <unit name="meter" meter="1.0"/>
    <up_axis>Z_UP</up_axis>
  </asset>
  <library_effects>
    <effect id="effect_Body008" name="effect_Body008">
      <profile_COMMON>
        <technique sid="common">
          <phong>
            <emission>
              <color>0.0 0.0 0.0 1.0</color>
            </emission>
            <ambient>
              <color>0.0 0.0 0.0 1.0</color>
            </ambient>
            <diffuse>
              <color>0.4470588266849518 0.4745098054409027 0.501960813999176 1.0</color>
            </diffuse>
            <specular>
              <color>1 1 1 1.0</color>
            </specular>
            <shininess>
              <float>0.0</float>
            </shininess>
            <reflective>
              <color>0.0 0.0 0.0 1.0</color>
            </reflective>
            <reflectivity>
              <float>0.0</float>
            </reflectivity>
            <transparent>
              <color>0.0 0.0 0.0 1.0</color>
            </transparent>
            <transparency>
              <float>1.0</float>
            </transparency>
          </phong>
        </technique>
        <extra>
          <technique profile="GOOGLEEARTH">
            <double_sided>0</double_sided>
          </technique>
        </extra>
      </profile_COMMON>
    </effect>
  </library_effects>
  <library_geometries>
    <geometry id="geometry0" name="J2_Spindle">
      <mesh>
        <source id="cubeverts-array0">
          <float_array count="2268" id="cubeverts-array0-array">-0.262403 0.059949 0.032391 -0.262403 0.0608213 0.03241275 -0.257403 0.059949 0.032391 -0.257403 0.0608213 0.03241275 -0.262403 0.06169144 0.03247796 -0.257403 0.06169144 0.03247796 -0.257403 0.06255724 0.03258646 -0.262403 0.06255724 0.03258646 -0.262403 0.06341656 0.03273798 -0.257403 0.06341656 0.03273798 -0.257403 0.06426726 0.03293215 -0.262403 0.06426726 0.03293215 -0.262403 0.06510722 0.03316848 -0.257403 0.06510722 0.03316848 -0.262403 0.06593435 0.03344638 -0.257403 0.06593435 0.03344638 -0.257403 0.06674661 0.03376517 -0.262403 0.06674661 0.03376517 -0.262403 0.06754196 0.03412405 -0.257403 0.06754196 0.03412405 -0.262403 0.06831844 0.03452212 -0.257403 0.06831844 0.03452212 -0.262403 0.06907412 0.03495841 -0.257403 0.06907412 0.03495841 -0.257403 0.0698071 0.03543182 -0.262403 0.0698071 0.03543182 -0.262403 0.07051558 0.03594118 -0.257403 0.07051558 0.03594118 -0.262403 0.07119778 0.03648522 -0.257403 0.07119778 0.03648522 -0.262403 0.07185202 0.03706259 -0.257403 0.07185202 0.03706259 -0.257403 0.07247667 0.03767186 -0.262403 0.07247667 0.03767186 -0.262403 0.07307017 0.0383115 -0.257403 0.07307017 0.0383115 -0.262403 0.07363105 0.03897993 -0.257403 0.07363105 0.03897993 -0.257403 0.07415791 0.03967549 -0.262403 0.07415791 0.03967549 -0.262403 0.07464945 0.04039644 -0.257403 0.07464945 0.04039644 -0.262403 0.07510445 0.041141 -0.257403 0.07510445 0.041141 -0.262403 0.07552176 0.04190731 -0.257403 0.07552176 0.04190731 -0.262403 0.07590035 0.04269347 -0.257403 0.07590035 0.04269347 -0.262403 0.07623929 0.04349753 -0.257403 0.07623929 0.04349753 -0.262403 0.07653773 0.04431748 -0.257403 0.07653773 0.04431748 -0.262403 0.07679492 0.04515129 -0.257403 0.07679492 0.04515129 -0.262403 0.07701024 0.04599688 -0.257403 0.07701024 0.04599688 -0.262403 0.07718314 0.04685216 -0.257403 0.07718314 0.04685216 -0.257403 0.07731319 0.04771498 -0.262403 0.07731319 0.04771498 -0.262403 0.07740007 0.04858323 -0.257403 0.07740007 0.04858323 -0.262403 0.07744356 0.04945471 -0.257403 0.07744356 0.04945471 -0.262403 0.07744356 0.05032729 -0.257403 0.07744356 0.05032729 -0.262403 0.07740007 0.05119878 -0.257403 0.07740007 0.05119878 -0.262403 0.07731319 0.05206702 -0.257403 0.07731319 0.05206702 -0.262403 0.07718314 0.05292984 -0.257403 0.07718314 0.05292984 -0.262403 0.07701024 0.05378512 -0.257403 0.07701024 0.05378512 -0.262403 0.07679492 0.05463071 -0.257403 0.07679492 0.05463071 -0.257403 0.07653773 0.05546452 -0.262403 0.07653773 0.05546452 -0.257403 0.07623929 0.05628447 -0.262403 0.07623929 0.05628447 -0.262403 0.07590035 0.05708852 -0.257403 0.07590035 0.05708852 -0.262403 0.07552176 0.05787469 -0.257403 0.07552176 0.05787469 -0.262403 0.07510445 0.058641 -0.257403 0.07510445 0.058641 -0.262403 0.07464945 0.05938556 -0.257403 0.07464945 0.05938556 -0.262403 0.07415791 0.06010651 -0.257403 0.07415791 0.06010651 -0.262403 0.07363105 0.06080207 -0.257403 0.07363105 0.06080207 -0.262403 0.07307017 0.0614705 -0.257403 0.07307017 0.0614705 -0.257403 0.07247667 0.06211015 -0.262403 0.07247667 0.06211015 -0.262403 0.07185202 0.06271941 -0.257403 0.07185202 0.06271941 -0.262403 0.07119778 0.06329678 -0.257403 0.07119778 0.06329678 -0.262403 0.07051558 0.06384082 -0.257403 0.07051558 0.06384082 -0.257403 0.0698071 0.06435018 -0.262403 0.0698071 0.06435018 -0.262403 0.06907412 0.06482359 -0.257403 0.06907412 0.06482359 -0.257403 0.06831844 0.06525988 -0.262403 0.06831844 0.06525988 -0.262403 0.06754196 0.06565796 -0.257403 0.06754196 0.06565796 -0.257403 0.06674661 0.06601683 -0.262403 0.06674661 0.06601683 -0.262403 0.06593435 0.06633562 -0.257403 0.06593435 0.06633562 -0.262403 0.06510722 0.06661353 -0.257403 0.06510722 0.06661353 -0.257403 0.06426726 0.06684985 -0.262403 0.06426726 0.06684985 -0.262403 0.06341656 0.06704402 -0.257403 0.06341656 0.06704402 -0.262403 0.06255724 0.06719554 -0.257403 0.06255724 0.06719554 -0.262403 0.06169144 0.06730404 -0.257403 0.06169144 0.06730404 -0.262403 0.0608213 0.06736925 -0.257403 0.0608213 0.06736925 -0.257403 0.059949 0.067391 -0.262403 0.059949 0.067391 -0.257403 0.0590767 0.06736925 -0.262403 0.0590767 0.06736925 -0.262403 0.05820656 0.06730404 -0.257403 0.05820656 0.06730404 -0.257403 0.05734076 0.06719554 -0.262403 0.05734076 0.06719554 -0.257403 0.05648144 0.06704402 -0.262403 0.05648144 0.06704402 -0.257403 0.05563074 0.06684985 -0.262403 0.05563074 0.06684985 -0.262403 0.05479078 0.06661353 -0.257403 0.05479078 0.06661353 -0.257403 0.05396365 0.06633562 -0.262403 0.05396365 0.06633562 -0.262403 0.05315139 0.06601683 -0.257403 0.05315139 0.06601683 -0.262403 0.05235603 0.06565796 -0.257403 0.05235603 0.06565796 -0.257403 0.05157956 0.06525988 -0.262403 0.05157956 0.06525988 -0.262403 0.05082388 0.06482359 -0.257403 0.05082388 0.06482359 -0.262403 0.0500909 0.06435018 -0.257403 0.0500909 0.06435018 -0.262403 0.04938242 0.06384082 -0.257403 0.04938242 0.06384082 -0.257403 0.04870022 0.06329678 -0.262403 0.04870022 0.06329678 -0.262403 0.04804598 0.06271941 -0.257403 0.04804598 0.06271941 -0.262403 0.04742133 0.06211015 -0.257403 0.04742133 0.06211015 -0.257403 0.04682783 0.0614705 -0.262403 0.04682783 0.0614705 -0.262403 0.04626695 0.06080207 -0.257403 0.04626695 0.06080207 -0.262403 0.04574009 0.06010651 -0.257403 0.04574009 0.06010651 -0.262403 0.04524855 0.05938556 -0.257403 0.04524855 0.05938556 -0.257403 0.04479356 0.058641 -0.262403 0.04479356 0.058641 -0.262403 0.04437624 0.05787469 -0.257403 0.04437624 0.05787469 -0.262403 0.04399765 0.05708852 -0.257403 0.04399765 0.05708852 -0.262403 0.04365871 0.05628447 -0.257403 0.04365871 0.05628447 -0.262403 0.04336027 0.05546452 -0.257403 0.04336027 0.05546452 -0.262403 0.04310308 0.05463071 -0.257403 0.04310308 0.05463071 -0.262403 0.04288776 0.05378512 -0.257403 0.04288776 0.05378512 -0.262403 0.04271486 0.05292984 -0.257403 0.04271486 0.05292984 -0.257403 0.04258481 0.05206702 -0.262403 0.04258481 0.05206702 -0.262403 0.04249793 0.05119878 -0.257403 0.04249793 0.05119878 -0.262403 0.04245444 0.05032729 -0.257403 0.04245444 0.05032729 -0.262403 0.04245444 0.04945471 -0.257403 0.04245444 0.04945471 -0.262403 0.04249793 0.04858323 -0.257403 0.04249793 0.04858323 -0.262403 0.04258481 0.04771498 -0.257403 0.04258481 0.04771498 -0.262403 0.04271486 0.04685216 -0.257403 0.04271486 0.04685216 -0.262403 0.04288776 0.04599688 -0.257403 0.04288776 0.04599688 -0.262403 0.04310308 0.04515129 -0.257403 0.04310308 0.04515129 -0.262403 0.04336027 0.04431748 -0.257403 0.04336027 0.04431748 -0.262403 0.04365871 0.04349753 -0.257403 0.04365871 0.04349753 -0.262403 0.04399765 0.04269347 -0.257403 0.04399765 0.04269347 -0.262403 0.04437624 0.04190731 -0.257403 0.04437624 0.04190731 -0.257403 0.04479356 0.041141 -0.262403 0.04479356 0.041141 -0.262403 0.04524855 0.04039644 -0.257403 0.04524855 0.04039644 -0.262403 0.04574009 0.03967549 -0.257403 0.04574009 0.03967549 -0.262403 0.04626695 0.03897993 -0.257403 0.04626695 0.03897993 -0.262403 0.04682783 0.0383115 -0.257403 0.04682783 0.0383115 -0.262403 0.04742133 0.03767186 -0.257403 0.04742133 0.03767186 -0.262403 0.04804598 0.03706259 -0.257403 0.04804598 0.03706259 -0.262403 0.04870022 0.03648522 -0.257403 0.04870022 0.03648522 -0.262403 0.04938242 0.03594118 -0.257403 0.04938242 0.03594118 -0.262403 0.0500909 0.03543182 -0.257403 0.0500909 0.03543182 -0.262403 0.05082388 0.03495841 -0.257403 0.05082388 0.03495841 -0.262403 0.05157956 0.03452212 -0.257403 0.05157956 0.03452212 -0.262403 0.05235603 0.03412405 -0.257403 0.05235603 0.03412405 -0.262403 0.05315139 0.03376517 -0.257403 0.05315139 0.03376517 -0.262403 0.05396365 0.03344638 -0.257403 0.05396365 0.03344638 -0.257403 0.05479078 0.03316848 -0.262403 0.05479078 0.03316848 -0.262403 0.05563074 0.03293215 -0.257403 0.05563074 0.03293215 -0.262403 0.05648144 0.03273798 -0.257403 0.05648144 0.03273798 -0.262403 0.05734076 0.03258646 -0.257403 0.05734076 0.03258646 -0.262403 0.05820656 0.03247796 -0.257403 0.05820656 0.03247796 -0.262403 0.0590767 0.03241275 -0.257403 0.0590767 0.03241275 -0.257403 0.05144684 0.05905415 -0.257403 0.05100066 0.05861896 -0.257403 0.05057674 0.05816207 -0.257403 0.05191415 0.05946656 -0.257403 0.05017611 0.05768462 -0.257403 0.05240144 0.05985516 -0.257403 0.04979977 0.0571878 -0.257403 0.0529075 0.06021899 -0.257403 0.04944868 0.05667283 -0.257403 0.05343106 0.06055714 -0.257403 0.04912368 0.056141 -0.257403 0.05397083 0.06086877 -0.257403 0.0488256 0.05559363 -0.257403 0.05452545 0.06115311 -0.257403 0.04855518 0.05503209 -0.257403 0.05509357 0.06140945 -0.257403 0.04831308 0.05445776 -0.257403 0.05567375 0.06163716 -0.257403 0.04809991 0.05387208 -0.257403 0.05626456 0.06183566 -0.257403 0.0479162 0.0532765 -0.257403 0.05686453 0.06200447 -0.257403 0.0477624 0.05267251 -0.257403 0.05747217 0.06214316 -0.257403 0.0476389 0.0520616 -0.257403 0.05808597 0.06225138 -0.257403 0.04754601 0.0514453 -0.257403 0.0587044 0.06232888 -0.257403 0.04748395 0.05082513 -0.257403 0.05932593 0.06237546 -0.257403 0.04745288 0.05020263 -0.257403 0.059949 0.062391 -0.257403 0.04745288 0.04957936 -0.257403 0.06057207 0.06237546 -0.257403 0.04748395 0.04895687 -0.257403 0.0611936 0.06232888 -0.257403 0.04754601 0.0483367 -0.257403 0.06181203 0.06225138 -0.257403 0.0476389 0.0477204 -0.257403 0.06242583 0.06214316 -0.257403 0.0477624 0.04710949 -0.257403 0.06303347 0.06200447 -0.257403 0.0479162 0.04650549 -0.257403 0.06363344 0.06183566 -0.257403 0.04809991 0.04590992 -0.257403 0.06422425 0.06163716 -0.257403 0.04831308 0.04532424 -0.257403 0.06480444 0.06140945 -0.257403 0.04855518 0.04474991 -0.257403 0.06537254 0.06115311 -0.257403 0.0488256 0.04418837 -0.257403 0.06592718 0.06086877 -0.257403 0.04912368 0.043641 -0.257403 0.06646694 0.06055714 -0.257403 0.04944868 0.04310917 -0.257403 0.0669905 0.06021899 -0.257403 0.04979977 0.0425942 -0.257403 0.06749655 0.05985516 -0.257403 0.05017611 0.04209738 -0.257403 0.06798385 0.05946656 -0.257403 0.05057674 0.04161993 -0.257403 0.06845116 0.05905415 -0.257403 0.05100066 0.04116304 -0.257403 0.06889734 0.05861896 -0.257403 0.05144684 0.04072785 -0.257403 0.06932127 0.05816207 -0.257403 0.05191415 0.04031544 -0.257403 0.06972189 0.05768462 -0.257403 0.05240144 0.03992685 -0.257403 0.07009823 0.0571878 -0.257403 0.0529075 0.03956301 -0.257403 0.05343106 0.03922486 -0.257403 0.07044933 0.05667283 -0.257403 0.07077431 0.056141 -0.257403 0.0710724 0.05559363 -0.257403 0.05397083 0.03891323 -0.257403 0.05452545 0.03862889 -0.257403 0.07134283 0.05503209 -0.257403 0.05509357 0.03837255 -0.257403 0.07158492 0.05445776 -0.257403 0.05567375 0.03814484 -0.257403 0.07179809 0.05387208 -0.257403 0.05626456 0.03794634 -0.257403 0.05686453 0.03777753 -0.257403 0.0719818 0.0532765 -0.257403 0.05747217 0.03763884 -0.257403 0.0721356 0.05267251 -0.257403 0.07225909 0.0520616 -0.257403 0.07235199 0.0514453 -0.257403 0.05808597 0.03753061 -0.257403 0.0587044 0.03745311 -0.257403 0.07241405 0.05082513 -0.257403 0.05932593 0.03740654 -0.257403 0.059949 0.037391 -0.257403 0.07244511 0.05020263 -0.257403 0.06057207 0.03740654 -0.257403 0.07244511 0.04957936 -0.257403 0.07241405 0.04895687 -0.257403 0.0611936 0.03745311 -0.257403 0.06181203 0.03753061 -0.257403 0.07235199 0.0483367 -0.257403 0.07225909 0.0477204 -0.257403 0.06242583 0.03763884 -0.257403 0.0721356 0.04710949 -0.257403 0.06303347 0.03777753 -0.257403 0.06363344 0.03794634 -0.257403 0.0719818 0.04650549 -0.257403 0.07179809 0.04590992 -0.257403 0.06422425 0.03814484 -0.257403 0.07158492 0.04532424 -0.257403 0.06480444 0.03837255 -0.257403 0.07134283 0.04474991 -0.257403 0.06537254 0.03862889 -0.257403 0.0710724 0.04418837 -0.257403 0.06592718 0.03891323 -0.257403 0.07077431 0.043641 -0.257403 0.06646694 0.03922486 -0.257403 0.0669905 0.03956301 -0.257403 0.07044933 0.04310917 -0.257403 0.07009823 0.0425942 -0.257403 0.06972189 0.04209738 -0.257403 0.06749655 0.03992685 -0.257403 0.06798385 0.04031544 -0.257403 0.06932127 0.04161993 -0.257403 0.06889734 0.04116304 -0.257403 0.06845116 0.04072785 -0.191403 0.06057207 0.03740654 -0.191403 0.059949 0.037391 -0.191403 0.0611936 0.03745311 -0.191403 0.06181203 0.03753061 -0.191403 0.06242583 0.03763884 -0.191403 0.06303347 0.03777753 -0.191403 0.06363344 0.03794634 -0.191403 0.06422425 0.03814484 -0.191403 0.06480444 0.03837255 -0.191403 0.06537254 0.03862889 -0.191403 0.06592718 0.03891323 -0.191403 0.06646694 0.03922486 -0.191403 0.0669905 0.03956301 -0.191403 0.06749655 0.03992685 -0.191403 0.06798385 0.04031544 -0.191403 0.06845116 0.04072785 -0.191403 0.06889734 0.04116304 -0.191403 0.06932127 0.04161993 -0.191403 0.06972189 0.04209738 -0.191403 0.07009823 0.0425942 -0.191403 0.07044933 0.04310917 -0.191403 0.07077431 0.043641 -0.191403 0.0710724 0.04418837 -0.191403 0.07134283 0.04474991 -0.191403 0.07158492 0.04532424 -0.191403 0.07179809 0.04590992 -0.191403 0.0719818 0.04650549 -0.191403 0.0721356 0.04710949 -0.191403 0.07225909 0.0477204 -0.191403 0.07235199 0.0483367 -0.191403 0.07241405 0.04895687 -0.191403 0.07244511 0.04957936 -0.191403 0.07244511 0.05020263 -0.191403 0.07241405 0.05082513 -0.191403 0.07235199 0.0514453 -0.191403 0.07225909 0.0520616 -0.191403 0.0721356 0.05267251 -0.191403 0.0719818 0.0532765 -0.191403 0.07179809 0.05387208 -0.191403 0.07158492 0.05445776 -0.191403 0.07134283 0.05503209 -0.191403 0.0710724 0.05559363 -0.191403 0.07077431 0.056141 -0.191403 0.07044933 0.05667283 -0.191403 0.07009823 0.0571878 -0.191403 0.06972189 0.05768462 -0.191403 0.06932127 0.05816207 -0.191403 0.06889734 0.05861896 -0.191403 0.06845116 0.05905415 -0.191403 0.06798385 0.05946656 -0.191403 0.06749655 0.05985516 -0.191403 0.0669905 0.06021899 -0.191403 0.06646694 0.06055714 -0.191403 0.06592718 0.06086877 -0.191403 0.06537254 0.06115311 -0.191403 0.06480444 0.06140945 -0.191403 0.06422425 0.06163716 -0.191403 0.06363344 0.06183566 -0.191403 0.06303347 0.06200447 -0.191403 0.06242583 0.06214316 -0.191403 0.06181203 0.06225138 -0.191403 0.0611936 0.06232888 -0.191403 0.06057207 0.06237546 -0.191403 0.059949 0.062391 -0.191403 0.05932593 0.06237546 -0.191403 0.0587044 0.06232888 -0.191403 0.05808597 0.06225138 -0.191403 0.05747217 0.06214316 -0.191403 0.05686453 0.06200447 -0.191403 0.05626456 0.06183566 -0.191403 0.05567375 0.06163716 -0.191403 0.05509357 0.06140945 -0.191403 0.05452545 0.06115311 -0.191403 0.05397083 0.06086877 -0.191403 0.05343106 0.06055714 -0.191403 0.0529075 0.06021899 -0.191403 0.05240144 0.05985516 -0.191403 0.05191415 0.05946656 -0.191403 0.05144684 0.05905415 -0.191403 0.05100066 0.05861896 -0.191403 0.05057674 0.05816207 -0.191403 0.05017611 0.05768462 -0.191403 0.04979977 0.0571878 -0.191403 0.04944868 0.05667283 -0.191403 0.04912368 0.056141 -0.191403 0.0488256 0.05559363 -0.191403 0.04855518 0.05503209 -0.191403 0.04831308 0.05445776 -0.191403 0.04809991 0.05387208 -0.191403 0.0479162 0.0532765 -0.191403 0.0477624 0.05267251 -0.191403 0.0476389 0.0520616 -0.191403 0.04754601 0.0514453 -0.191403 0.04748395 0.05082513 -0.191403 0.04745288 0.05020263 -0.191403 0.04745288 0.04957936 -0.191403 0.04748395 0.04895687 -0.191403 0.04754601 0.0483367 -0.191403 0.0476389 0.0477204 -0.191403 0.0477624 0.04710949 -0.191403 0.0479162 0.04650549 -0.191403 0.04809991 0.04590992 -0.191403 0.04831308 0.04532424 -0.191403 0.04855518 0.04474991 -0.191403 0.0488256 0.04418837 -0.191403 0.04912368 0.043641 -0.191403 0.04944868 0.04310917 -0.191403 0.04979977 0.0425942 -0.191403 0.05017611 0.04209738 -0.191403 0.05057674 0.04161993 -0.191403 0.05100066 0.04116304 -0.191403 0.05144684 0.04072785 -0.191403 0.05191415 0.04031544 -0.191403 0.05240144 0.03992685 -0.191403 0.0529075 0.03956301 -0.191403 0.05343106 0.03922486 -0.191403 0.05397083 0.03891323 -0.191403 0.05452545 0.03862889 -0.191403 0.05509357 0.03837255 -0.191403 0.05567375 0.03814484 -0.191403 0.05626456 0.03794634 -0.191403 0.05686453 0.03777753 -0.191403 0.05747217 0.03763884 -0.191403 0.05808597 0.03753061 -0.191403 0.0587044 0.03745311 -0.191403 0.05932593 0.03740654 -0.191403 0.05382745 0.05648847 -0.191403 0.0535062 0.05617513 -0.191403 0.05320097 0.05584617 -0.191403 0.05416391 0.0567854 -0.191403 0.05291252 0.05550241 -0.191403 0.05451476 0.05706519 -0.191403 0.05264156 0.05514469 -0.191403 0.05487912 0.05732715 -0.191403 0.05238877 0.05477392 -0.191403 0.05525608 0.05757062 -0.191403 0.05215477 0.054391 -0.191403 0.05564471 0.05779499 -0.191403 0.05194016 0.05399689 -0.191403 0.05604404 0.05799972 -0.191403 0.05174545 0.05359258 -0.191403 0.05645309 0.05818428 -0.191403 0.05157114 0.05317907 -0.191403 0.05687082 0.05834823 -0.191403 0.05141765 0.05275738 -0.191403 0.0572962 0.05849115 -0.191403 0.05128538 0.05232856 -0.191403 0.05772818 0.05861269 -0.191403 0.05117465 0.05189369 -0.191403 0.05816568 0.05871255 -0.191403 0.05108573 0.05145383 -0.191403 0.05860762 0.05879048 -0.191403 0.05101885 0.05101009 -0.191403 0.05905289 0.05884628 -0.191403 0.05097417 0.05056357 -0.191403 0.05950039 0.05887981 -0.191403 0.0509518 0.05011538 -0.191403 0.059949 0.058891 -0.191403 0.0509518 0.04966662 -0.191403 0.06039761 0.05887981 -0.191403 0.05097417 0.04921843 -0.191403 0.06084511 0.05884628 -0.191403 0.05101885 0.04877191 -0.191403 0.06129038 0.05879048 -0.191403 0.05108573 0.04832817 -0.191403 0.06173232 0.05871255 -0.191403 0.05117465 0.04788831 -0.191403 0.06216982 0.05861269 -0.191403 0.05128538 0.04745343 -0.191403 0.0626018 0.05849115 -0.191403 0.05141765 0.04702462 -0.191403 0.06302718 0.05834823 -0.191403 0.05157114 0.04660293 -0.191403 0.06344491 0.05818428 -0.191403 0.05174545 0.04618941 -0.191403 0.06385395 0.05799972 -0.191403 0.05194016 0.0457851 -0.191403 0.06425329 0.05779499 -0.191403 0.05215477 0.045391 -0.191403 0.06464191 0.05757062 -0.191403 0.05238877 0.04500808 -0.191403 0.06501888 0.05732715 -0.191403 0.05264156 0.04463731 -0.191403 0.06538324 0.05706519 -0.191403 0.05291252 0.04427959 -0.191403 0.06573409 0.0567854 -0.191403 0.05320097 0.04393583 -0.191403 0.06607056 0.05648847 -0.191403 0.0535062 0.04360687 -0.191403 0.0663918 0.05617513 -0.191403 0.05382745 0.04329353 -0.191403 0.06669703 0.05584617 -0.191403 0.05416391 0.0429966 -0.191403 0.06698548 0.05550241 -0.191403 0.06725644 0.05514469 -0.191403 0.05451476 0.04271681 -0.191403 0.05487912 0.04245485 -0.191403 0.06750923 0.05477392 -0.191403 0.05525608 0.04221138 -0.191403 0.05564471 0.04198701 -0.191403 0.06774323 0.054391 -0.191403 0.06795785 0.05399689 -0.191403 0.05604404 0.04178228 -0.191403 0.06815255 0.05359258 -0.191403 0.05645309 0.04159771 -0.191403 0.06832687 0.05317907 -0.191403 0.05687082 0.04143377 -0.191403 0.06848035 0.05275738 -0.191403 0.06861262 0.05232856 -0.191403 0.0572962 0.04129084 -0.191403 0.05772818 0.0411693 -0.191403 0.06872335 0.05189369 -0.191403 0.05816568 0.04106945 -0.191403 0.05860762 0.04099152 -0.191403 0.06881227 0.05145383 -0.191403 0.06887915 0.05101009 -0.191403 0.05905289 0.04093572 -0.191403 0.06892384 0.05056357 -0.191403 0.05950039 0.04090219 -0.191403 0.06894621 0.05011538 -0.191403 0.06894621 0.04966662 -0.191403 0.06039761 0.04090219 -0.191403 0.059949 0.040891 -0.191403 0.06892384 0.04921843 -0.191403 0.06084511 0.04093572 -0.191403 0.06129038 0.04099152 -0.191403 0.06887915 0.04877191 -0.191403 0.06881227 0.04832817 -0.191403 0.06872335 0.04788831 -0.191403 0.06173232 0.04106945 -0.191403 0.06216982 0.0411693 -0.191403 0.06861262 0.04745343 -0.191403 0.0626018 0.04129084 -0.191403 0.06848035 0.04702462 -0.191403 0.06832687 0.04660293 -0.191403 0.06302718 0.04143377 -0.191403 0.06344491 0.04159771 -0.191403 0.06385395 0.04178228 -0.191403 0.06815255 0.04618941 -0.191403 0.06795785 0.0457851 -0.191403 0.06774323 0.045391 -0.191403 0.06425329 0.04198701 -0.191403 0.06464191 0.04221138 -0.191403 0.06750923 0.04500808 -0.191403 0.06501888 0.04245485 -0.191403 0.06725644 0.04463731 -0.191403 0.06538324 0.04271681 -0.191403 0.06698548 0.04427959 -0.191403 0.06669703 0.04393583 -0.191403 0.06573409 0.0429966 -0.191403 0.0663918 0.04360687 -0.191403 0.06607056 0.04329353 -0.170403 0.059949 0.040891 -0.170403 0.06039761 0.04090219 -0.170403 0.06084511 0.04093572 -0.170403 0.06129038 0.04099152 -0.170403 0.06173232 0.04106945 -0.170403 0.06216982 0.0411693 -0.170403 0.0626018 0.04129084 -0.170403 0.06302718 0.04143377 -0.170403 0.06344491 0.04159771 -0.170403 0.06385395 0.04178228 -0.170403 0.06425329 0.04198701 -0.170403 0.06464191 0.04221138 -0.170403 0.06501888 0.04245485 -0.170403 0.06538324 0.04271681 -0.170403 0.06573409 0.0429966 -0.170403 0.06607056 0.04329353 -0.170403 0.0663918 0.04360687 -0.170403 0.06669703 0.04393583 -0.170403 0.06698548 0.04427959 -0.170403 0.06725644 0.04463731 -0.170403 0.06750923 0.04500808 -0.170403 0.06774323 0.045391 -0.170403 0.06795785 0.0457851 -0.170403 0.06815255 0.04618941 -0.170403 0.06832687 0.04660293 -0.170403 0.06848035 0.04702462 -0.170403 0.06861262 0.04745343 -0.170403 0.06872335 0.04788831 -0.170403 0.06881227 0.04832817 -0.170403 0.06887915 0.04877191 -0.170403 0.06892384 0.04921843 -0.170403 0.06894621 0.04966662 -0.170403 0.06894621 0.05011538 -0.170403 0.06892384 0.05056357 -0.170403 0.06887915 0.05101009 -0.170403 0.06881227 0.05145383 -0.170403 0.06872335 0.05189369 -0.170403 0.06861262 0.05232856 -0.170403 0.06848035 0.05275738 -0.170403 0.06832687 0.05317907 -0.170403 0.06815255 0.05359258 -0.170403 0.06795785 0.05399689 -0.170403 0.06774323 0.054391 -0.170403 0.06750923 0.05477392 -0.170403 0.06725644 0.05514469 -0.170403 0.06698548 0.05550241 -0.170403 0.06669703 0.05584617 -0.170403 0.0663918 0.05617513 -0.170403 0.06607056 0.05648847 -0.170403 0.06573409 0.0567854 -0.170403 0.06538324 0.05706519 -0.170403 0.06501888 0.05732715 -0.170403 0.06464191 0.05757062 -0.170403 0.06425329 0.05779499 -0.170403 0.06385395 0.05799972 -0.170403 0.06344491 0.05818428 -0.170403 0.06302718 0.05834823 -0.170403 0.0626018 0.05849115 -0.170403 0.06216982 0.05861269 -0.170403 0.06173232 0.05871255 -0.170403 0.06129038 0.05879048 -0.170403 0.06084511 0.05884628 -0.170403 0.06039761 0.05887981 -0.170403 0.059949 0.058891 -0.170403 0.05950039 0.05887981 -0.170403 0.05905289 0.05884628 -0.170403 0.05860762 0.05879048 -0.170403 0.05816568 0.05871255 -0.170403 0.05772818 0.05861269 -0.170403 0.0572962 0.05849115 -0.170403 0.05687082 0.05834823 -0.170403 0.05645309 0.05818428 -0.170403 0.05604404 0.05799972 -0.170403 0.05564471 0.05779499 -0.170403 0.05525608 0.05757062 -0.170403 0.05487912 0.05732715 -0.170403 0.05451476 0.05706519 -0.170403 0.05416391 0.0567854 -0.170403 0.05382745 0.05648847 -0.170403 0.0535062 0.05617513 -0.170403 0.05320097 0.05584617 -0.170403 0.05291252 0.05550241 -0.170403 0.05264156 0.05514469 -0.170403 0.05238877 0.05477392 -0.170403 0.05215477 0.054391 -0.170403 0.05194016 0.05399689 -0.170403 0.05174545 0.05359258 -0.170403 0.05157114 0.05317907 -0.170403 0.05141765 0.05275738 -0.170403 0.05128538 0.05232856 -0.170403 0.05117465 0.05189369 -0.170403 0.05108573 0.05145383 -0.170403 0.05101885 0.05101009 -0.170403 0.05097417 0.05056357 -0.170403 0.0509518 0.05011538 -0.170403 0.0509518 0.04966662 -0.170403 0.05097417 0.04921843 -0.170403 0.05101885 0.04877191 -0.170403 0.05108573 0.04832817 -0.170403 0.05117465 0.04788831 -0.170403 0.05128538 0.04745343 -0.170403 0.05141765 0.04702462 -0.170403 0.05157114 0.04660293 -0.170403 0.05174545 0.04618941 -0.170403 0.05194016 0.0457851 -0.170403 0.05215477 0.045391 -0.170403 0.05238877 0.04500808 -0.170403 0.05264156 0.04463731 -0.170403 0.05291252 0.04427959 -0.170403 0.05320097 0.04393583 -0.170403 0.0535062 0.04360687 -0.170403 0.05382745 0.04329353 -0.170403 0.05416391 0.0429966 -0.170403 0.05451476 0.04271681 -0.170403 0.05487912 0.04245485 -0.170403 0.05525608 0.04221138 -0.170403 0.05564471 0.04198701 -0.170403 0.05604404 0.04178228 -0.170403 0.05645309 0.04159771 -0.170403 0.05687082 0.04143377 -0.170403 0.0572962 0.04129084 -0.170403 0.05772818 0.0411693 -0.170403 0.05816568 0.04106945 -0.170403 0.05860762 0.04099152 -0.170403 0.05905289 0.04093572 -0.170403 0.05950039 0.04090219</float_array>
          <technique_common>
            <accessor count="756" source="#cubeverts-array0-array" stride="3">
              <param type="float" name="X"/>
              <param type="float" name="Y"/>
              <param type="float" name="Z"/>
            </accessor>
          </technique_common>
        </source>
        <source id="cubenormals-array0">
          <float_array count="4524" id="cubenormals-array0-array">0 0.02493222 -0.999689 0 0.02493222 -0.999689 0 0.07473126 -0.9972037 0 0.124342 -0.9922395 0 0.07473126 -0.9972037 0 0.124342 -0.9922395 0 0.1736469 -0.984808 0 0.2225223 -0.9749277 0 0.1736469 -0.984808 0 0.2225223 -0.9749277 0 0.270841 -0.9626241 0 0.270841 -0.9626241 0 0.3184893 -0.9479264 0 0.3653377 -0.930875 0 0.3184893 -0.9479264 0 0.3653377 -0.930875 0 0.4112908 -0.9115041 0 0.4112908 -0.9115041 0 0.4562072 -0.8898735 0 0.4562072 -0.8898735 0 0.4999974 -0.8660269 0 0.4999974 -0.8660269 0 0.5425492 -0.840024 0 0.5425492 -0.840024 0 0.5837424 -0.811939 0 0.5837424 -0.811939 0 0.62349 -0.7818314 0 0.62349 -0.7818314 0 0.6616879 -0.7497794 0 0.6616879 -0.7497794 0 0.6982362 -0.7158675 0 0.6982362 -0.7158675 0 0.7330528 -0.6801717 0 0.7330528 -0.6801717 0 0.7660428 -0.6427896 0 0.7660428 -0.6427896 0 0.7971344 -0.6038018 0 0.7971344 -0.6038018 0 0.8262372 -0.5633223 0 0.8262372 -0.5633223 0 0.8532894 -0.5214376 0 0.8532894 -0.5214376 0 0.8782219 -0.4782535 0 0.8782219 -0.4782535 0 0.9009693 -0.4338828 0 0.9009693 -0.4338828 0 0.9214776 -0.3884318 0 0.9214776 -0.3884318 0 0.939692 -0.3420217 0 0.939692 -0.3420217 0 0.9555733 -0.2947536 0 0.9555733 -0.2947536 0 0.9690766 -0.2467601 0 0.9690766 -0.2467601 0 0.9801725 -0.1981461 0 0.9888307 -0.1490427 0 0.9801725 -0.1981461 0 0.9888307 -0.1490427 0 0.9950304 -0.09957124 0 0.9950304 -0.09957124 0 0.9987573 -0.04983841 0 0.9987573 -0.04983841 0 1 -0 0 1 0 0 0.9987573 0.04983819 -0 0.9987573 0.04983819 0 0.9950304 0.09957124 -0 0.9950304 0.09957124 0 0.9888307 0.1490427 -0 0.9888307 0.1490427 0 0.9801725 0.1981461 -0 0.9801725 0.1981461 -0 0.9690764 0.2467611 0 0.9690764 0.2467611 0 0.9555733 0.2947536 0 0.9555733 0.2947536 0 0.9396926 0.3420204 0 0.9396926 0.3420204 -0 0.9214768 0.3884334 0 0.9214768 0.3884334 -0 0.9009702 0.4338811 0 0.9009702 0.4338811 -0 0.8782209 0.4782554 0 0.8782209 0.4782554 -0 0.8532894 0.5214376 0 0.8532894 0.5214376 -0 0.8262386 0.5633202 0 0.8262386 0.5633202 -0 0.7971328 0.603804 0 0.7971328 0.603804 -0 0.7660428 0.6427896 0 0.7660428 0.6427896 0 0.7330549 0.6801695 0 0.7330549 0.6801695 -0 0.6982339 0.7158696 0 0.6982339 0.7158696 -0 0.6616903 0.7497772 0 0.6616903 0.7497772 -0 0.62349 0.7818314 0 0.62349 0.7818314 0 0.5837424 0.811939 0 0.5837424 0.811939 -0 0.5425492 0.840024 0 0.5425492 0.840024 0 0.4999974 0.8660269 0 0.4999974 0.8660269 -0 0.4562107 0.8898718 0 0.4562107 0.8898718 0 0.4112836 0.9115074 0 0.4112836 0.9115074 -0 0.3653377 0.930875 0 0.3653377 0.930875 -0 0.3184932 0.9479252 0 0.3184932 0.9479252 0 0.270841 0.9626241 0 0.270841 0.9626241 0 0.2225223 0.9749277 -0 0.2225223 0.9749277 0 0.1736469 0.984808 -0 0.1736469 0.984808 0 0.124342 0.9922395 -0 0.124342 0.9922395 -0 0.07473126 0.9972037 0 0.07473126 0.9972037 0 0.02492786 0.9996893 0 0.02492786 0.9996893 0 -0.02492786 0.9996893 0 -0.02492786 0.9996893 0 -0.07473093 0.9972037 0 -0.07473093 0.9972037 0 -0.124342 0.9922395 0 -0.124342 0.9922395 0 -0.1736469 0.984808 0 -0.1736469 0.984808 0 -0.2225233 0.9749273 0 -0.2225233 0.9749273 0 -0.2708399 0.9626244 0 -0.2708399 0.9626244 0 -0.3184919 0.9479256 0 -0.3184919 0.9479256 0 -0.3653407 0.9308739 0 -0.3653407 0.9308739 0 -0.4112803 0.9115089 0 -0.4112803 0.9115089 0 -0.4562124 0.8898709 0 -0.4562124 0.8898709 0 -0.4999993 0.8660258 0 -0.4999993 0.8660258 0 -0.5425472 0.8400254 0 -0.5425472 0.8400254 0 -0.5837444 0.8119375 0 -0.62349 0.7818314 0 -0.5837444 0.8119375 0 -0.62349 0.7818314 0 -0.6616881 0.7497792 0 -0.6616881 0.7497792 0 -0.6982339 0.7158696 0 -0.7330527 0.6801718 0 -0.6982339 0.7158696 0 -0.7330527 0.6801718 0 -0.7660449 0.642787 0 -0.7660449 0.642787 0 -0.7971328 0.603804 0 -0.7971328 0.603804 0 -0.8262386 0.5633202 0 -0.8532913 0.5214344 0 -0.8262386 0.5633202 0 -0.8532913 0.5214344 0 -0.8782209 0.4782554 0 -0.8782209 0.4782554 0 -0.9009685 0.4338847 0 -0.9009685 0.4338847 0 -0.9214768 0.3884334 0 -0.9214768 0.3884334 0 -0.9396926 0.3420204 0 -0.9396926 0.3420204 0 -0.9555733 0.2947536 0 -0.9555733 0.2947536 0 -0.9690764 0.2467611 0 -0.9690764 0.2467611 0 -0.9801725 0.1981461 0 -0.9801725 0.1981461 0 -0.9888307 0.1490427 0 -0.9888307 0.1490427 0 -0.9950308 0.09956691 0 -0.9950308 0.09956691 0 -0.9987571 0.04984255 0 -0.9987571 0.04984255 0 -1 -0 0 -1 0 0 -0.9987571 -0.04984277 0 -0.9987571 -0.04984277 0 -0.9950308 -0.09956691 0 -0.9950308 -0.09956691 0 -0.9888307 -0.1490427 0 -0.9888307 -0.1490427 0 -0.9801725 -0.1981461 0 -0.9801725 -0.1981461 0 -0.9690766 -0.2467601 0 -0.9690766 -0.2467601 0 -0.9555733 -0.2947536 0 -0.9555733 -0.2947536 0 -0.939692 -0.3420217 0 -0.939692 -0.3420217 0 -0.9214776 -0.3884318 0 -0.9214776 -0.3884318 0 -0.9009677 -0.4338863 -0 -0.8782219 -0.4782535 0 -0.9009677 -0.4338863 0 -0.8782219 -0.4782535 0 -0.8532913 -0.5214344 0 -0.8532913 -0.5214344 0 -0.8262372 -0.5633223 0 -0.8262372 -0.5633223 0 -0.7971344 -0.6038018 0 -0.7971344 -0.6038018 0 -0.7660449 -0.642787 0 -0.7660449 -0.642787 0 -0.7330507 -0.6801741 0 -0.7330507 -0.6801741 0 -0.6982362 -0.7158675 0 -0.6982362 -0.7158675 0 -0.6616857 -0.7497813 0 -0.6616857 -0.7497813 0 -0.62349 -0.7818314 0 -0.62349 -0.7818314 0 -0.5837444 -0.8119375 0 -0.5837444 -0.8119375 0 -0.5425472 -0.8400254 0 -0.5425472 -0.8400254 0 -0.4999993 -0.8660258 0 -0.4999993 -0.8660258 0 -0.456209 -0.8898726 0 -0.456209 -0.8898726 0 -0.4112875 -0.9115056 0 -0.4112875 -0.9115056 0 -0.3653407 -0.9308739 0 -0.3653407 -0.9308739 -0 -0.318488 -0.9479269 0 -0.318488 -0.9479269 0 -0.2708399 -0.9626244 0 -0.2708399 -0.9626244 0 -0.2225233 -0.9749273 0 -0.2225233 -0.9749273 0 -0.1736469 -0.984808 0 -0.1736469 -0.984808 0 -0.124342 -0.9922395 0 -0.124342 -0.9922395 0 -0.07473093 -0.9972037 0 -0.07473093 -0.9972037 -0 -0.02493222 -0.999689 0 -0.02493222 -0.999689 -1 0 0 -1 0 -0 -1 0 -0 -1 0 0 -1 0 0 -1 0 -0 -1 0 -0 -1 0 -0 -1 0 0 -1 0 0 -1 0 0 -1 0 0 -1 0 0 -1 0 -0 -1 0 -0 -1 0 0 -1 0 0 -1 0 0 -1 0 -0 -1 0 -0 -1 0 0 -1 0 0 -1 0 0 -1 0 0 -1 0 0 -1 0 -0 -1 0 -0 -1 0 -0 -1 -0 -0 -1 0 -0 -1 0 0 -1 0 0 -1 -0 -0 -1 0 0 -1 -0 -0 -1 -0 -0 -1 0 -0 -1 0 0 -1 0 0 -1 -0 -0 -1 0 0 -1 -0 -0 -1 0 0 -1 0 -0 -1 -0 -0 -1 0 0 -1 0 0 -1 0 -0 -1 0 0 -1 0 0 -1 -0 -0 -1 0 0 -1 0 0 -1 -0 -0 -1 -0 -0 -1 -0 -0 -1 -0 -0 -1 0 0 -1 0 0 -1 -0 -0 -1 -0 -0 -1 0 0 -1 0 0 -1 0 0 -1 -0 -0 -1 0 -0 -1 -0 -0 -1 0 0 -1 0 -0 -1 0 0 -1 0 0 -1 -0 -0 -1 -0 -0 -1 0 0 -1 0 -0 -1 0 0 -1 0 0 -1 0 0 -1 -0 -0 -1 -0 -0 -1 0 0 -1 -0 -0 -1 -0 -0 -1 0 0 -1 -0 -0 -1 -0 -0 -1 -0 -0 -1 -0 -0 -1 -0 0 -1 -0 0 -1 0 -0 -1 0 0 -1 0 0 -1 0 0 -1 0 0 -1 0 0 -1 -0 0 -1 -0 0 -1 0 0 -1 -0 0 -1 0 0 -1 0 0 -1 0 0 -1 0 0 -1 0 0 -1 0 0 -1 0 0 -1 -0 0 -1 -0 0 -1 0 0 -1 -0 0 -1 0 0 -1 0 0 -1 0 0 -1 -0 0 -1 -0 0 -1 -0 0 -1 0 0 -1 0 0 -1 0 0 -1 0 0 -1 -0 0 -1 0 0 -1 -0 0 1 0 0 1 0 0 1 0 0 1 0 0 1 0 -0 1 0 0 1 0 0 1 0 -0 1 0 0 1 0 0 1 0 -0 1 0 0 1 0 0 1 0 0 1 0 0 1 0 -0 1 0 0 1 0 0 1 0 0 1 0 -0 1 0 0 1 0 0 1 0 -0 1 0 0 1 0 0 1 0 0 1 0 0 1 0 -0 1 0 0 1 0 0 1 0 0 1 0 -0 1 0 0 1 0 0 1 0 0 1 0 0 1 0 -0 1 0 0 1 0 -0 1 0 0 1 0 0 1 0 0 1 0 -0 1 0 0 1 0 0 1 0 0 1 0 -0 1 0 0 1 0 0 1 0 0 1 0 0 1 0 -0 1 0 -0 1 0 0 1 0 0 1 0 -0 1 0 0 1 0 0 1 0 -0 1 0 0 1 0 -0 1 0 -0 1 0 -0 1 0 0 1 0 0 1 0 0 1 0 -0 1 0 0 1 0 0 1 0 0 1 0 -0 1 0 0 1 0 0 1 0 -0 1 0 0 1 0 0 1 0 -0 1 0 0 1 0 0 1 0 0 1 0 -0 1 0 0 1 0 0 1 0 0 1 0 -0 1 0 0 1 0 0 1 0 0 1 0 -0 1 0 0 1 0 0 1 0 0 1 0 0 1 0 -0 1 0 0 1 0 0 1 0 -0 1 0 0 1 0 0 1 0 0 1 0 0 1 0 -0 1 0 0 1 0 0 1 0 0 1 0 -0 1 0 0 1 0 0 1 0 0 1 0 0 1 0 -0 1 0 0 1 0 0 1 0 -0 1 0 0 1 0 0 1 0 0 1 0 -0 1 0 0 1 0 0 1 0 0 1 0 -0 1 0 0 1 0 0 1 0 0 1 0 0 1 0 0 1 0 -0 1 0 -0 1 0 0 1 0 -0 1 0 0 1 0 0 1 0 0 1 0 -0 1 0 0 1 0 0 1 0 0 1 0 -0 1 0 0 1 0 0 1 0 0 1 0 0 1 0 -0 1 0 0 1 0 0 1 0 0 1 0 0 1 0 -0 1 0 0 1 0 -0 1 0 0 1 0 0 1 0 0 1 0 0 1 0 -0 1 0 0 1 0 0 1 0 0 1 0 -0 1 0 0 1 0 0 1 0 0 1 0 0 1 0 -0 1 0 0 1 0 0 1 0 0 1 0 -0 1 0 0 1 0 0 1 0 -0 1 0 0 1 0 0 1 0 0 1 0 -0 1 0 0 1 0 0 1 0 0 1 0 -0 1 0 0 1 0 0 1 0 0 1 0 -0 1 0 0 1 0 0 1 0 0 1 0 0 1 0 -0 1 0 0 1 0 0 1 0 -0 1 0 0 1 0 -0 1 0 0 1 0 -0 1 0 0 1 0 -0 1 0 0 1 0 0 1 0 0 1 0 0 1 0 -0 1 0 0 1 0 -0 1 0 0 1 0 0 1 0 0 1 0 0 1 0 -0 1 0 0 1 0 0 1 0 -0 1 0 0 1 0 0 1 0 0 1 0 -0 1 0 0 1 0 0 1 0 0 1 0 -0 1 0 0 1 0 0 1 0 0 1 0 -0 1 0 0 1 0 0 1 0 0 1 0 -0 1 0 0 1 0 0 1 0 0 1 0 0 1 0 -0 1 0 0 1 0 0 1 0 0 1 0 -0 1 0 0 1 0 0 1 0 0 1 0 0 1 0 -0 1 0 0 1 0 0 1 0 0 1 0 -0 1 0 0 1 0 0 1 0 -0 1 0 0 1 0 0 0 0.02493485 -0.999689 0 0.02493485 -0.999689 0 0.07472498 -0.9972041 0 0.07472498 -0.9972041 0 0.1243443 -0.9922391 0 0.1243443 -0.9922391 0 0.1736499 -0.9848074 0 0.1736499 -0.9848074 0 0.2225228 -0.9749275 0 0.2708379 -0.962625 0 0.2225228 -0.9749275 0 0.2708379 -0.962625 0 0.3184908 -0.9479259 0 0.3184908 -0.9479259 0 0.3653373 -0.9308753 0 0.3653373 -0.9308753 0 0.4112923 -0.9115034 0 0.4112923 -0.9115034 0 0.456205 -0.8898746 0 0.456205 -0.8898746 0 0.5000011 -0.8660247 0 0.5000011 -0.8660247 0 0.5425456 -0.8400263 0 0.5425456 -0.8400263 0 0.5837493 -0.811934 0 0.5837493 -0.811934 0 0.6234829 -0.781837 0 0.6234829 -0.781837 0 0.6616905 -0.7497771 0 0.6616905 -0.7497771 0 0.6982322 -0.7158713 0 0.6982322 -0.7158713 0 0.7330528 -0.6801717 0 0.7330528 -0.6801717 0 0.7660462 -0.6427857 0 0.7660462 -0.6427857 0 0.7971295 -0.6038084 0 0.7971295 -0.6038084 0 0.8262408 -0.5633171 0 0.8262408 -0.5633171 0 0.8532928 -0.5214319 0 0.8532928 -0.5214319 0 0.8782214 -0.4782542 0 0.8782214 -0.4782542 0 0.9009657 -0.4338903 0 0.9009657 -0.4338903 0 0.9214777 -0.3884313 0 0.9214777 -0.3884313 0 0.9396947 -0.3420143 0 0.9555708 -0.2947619 0 0.9396947 -0.3420143 0 0.9555708 -0.2947619 0 0.9690785 -0.2467529 0 0.9801728 -0.1981449 0 0.9690785 -0.2467529 0 0.9801728 -0.1981449 0 0.9888303 -0.1490459 0 0.9888303 -0.1490459 0 0.9950307 -0.09956796 0 0.9950307 -0.09956796 0 0.998757 -0.04984543 0 0.998757 -0.04984543 0 1 0 0 0.9987569 0.04984512 0 1 0 0 0.9987569 0.04984512 0 0.9950307 0.09956796 0 0.9950307 0.09956796 0 0.9888303 0.1490459 0 0.9888303 0.1490459 0 0.9801728 0.1981449 0 0.9801728 0.1981449 0 0.969078 0.2467543 0 0.969078 0.2467543 0 0.9555708 0.2947619 0 0.9555708 0.2947619 0 0.9396955 0.3420124 0 0.9396955 0.3420124 0 0.9214777 0.3884313 0 0.9214777 0.3884313 0 0.9009645 0.4338927 0 0.9009645 0.4338927 0 0.8782214 0.4782542 0 0.8782214 0.4782542 0 0.8532946 0.5214292 0 0.8532946 0.5214292 0 0.8262408 0.5633171 0 0.8262408 0.5633171 0 0.7971295 0.6038084 0 0.7971295 0.6038084 0 0.7660436 0.6427886 0 0.7660436 0.6427886 0 0.7330557 0.6801686 0 0.7330557 0.6801686 0 0.6982322 0.7158713 0 0.6982322 0.7158713 0 0.6616905 0.7497771 0 0.6616905 0.7497771 0 0.6234829 0.781837 0 0.6234829 0.781837 0 0.5837493 0.811934 0 0.5837493 0.811934 0 0.5425456 0.8400263 0 0.5425456 0.8400263 0 0.5000011 0.8660247 0 0.5000011 0.8660247 0 0.456205 0.8898746 0 0.456205 0.8898746 0 0.4112923 0.9115034 0 0.4112923 0.9115034 0 0.3653373 0.9308753 0 0.3653373 0.9308753 0 0.3184853 0.9479278 0 0.3184853 0.9479278 0 0.2708436 0.9626234 0 0.2708436 0.9626234 0 0.2225228 0.9749275 0 0.2225228 0.9749275 0 0.1736439 0.9848085 0 0.1736439 0.9848085 0 0.1243443 0.9922391 0 0.07473107 0.9972037 0 0.1243443 0.9922391 0 0.07473107 0.9972037 0 0.02492873 0.9996892 0 0.02492873 0.9996892 0 -0.02492873 0.9996892 0 -0.02492873 0.9996892 0 -0.07473107 0.9972037 0 -0.07473107 0.9972037 0 -0.1243436 0.9922392 0 -0.1243436 0.9922392 0 -0.1736439 0.9848085 0 -0.1736439 0.9848085 0 -0.2225228 0.9749275 0 -0.2225228 0.9749275 0 -0.2708436 0.9626234 0 -0.2708436 0.9626234 0 -0.3184853 0.9479278 0 -0.3184853 0.9479278 0 -0.3653394 0.9308744 0 -0.3653394 0.9308744 0 -0.4112878 0.9115055 0 -0.4112878 0.9115055 0 -0.45621 0.8898721 0 -0.45621 0.8898721 0 -0.5000011 0.8660247 0 -0.5000011 0.8660247 0 -0.5425428 0.8400282 0 -0.5837464 0.811936 0 -0.5425428 0.8400282 0 -0.5837464 0.811936 0 -0.6234889 0.7818323 0 -0.6616874 0.7497798 0 -0.6234889 0.7818323 0 -0.6616874 0.7497798 0 -0.6982353 0.7158684 0 -0.6982353 0.7158684 0 -0.7330557 0.6801686 0 -0.7330557 0.6801686 0 -0.7660405 0.6427922 0 -0.7660405 0.6427922 0 -0.7971324 0.6038045 0 -0.7971324 0.6038045 0 -0.8262408 0.5633171 0 -0.8262408 0.5633171 0 -0.8532917 0.5214337 0 -0.8532917 0.5214337 0 -0.8782214 0.4782542 0 -0.8782214 0.4782542 0 -0.9009669 0.4338877 0 -0.9009669 0.4338877 0 -0.9214777 0.3884313 0 -0.9396915 0.3420231 0 -0.9214777 0.3884313 0 -0.9396915 0.3420231 0 -0.9555742 0.2947507 0 -0.9555742 0.2947507 0 -0.9690766 0.2467601 0 -0.9690766 0.2467601 0 -0.9801728 0.1981449 0 -0.9801728 0.1981449 0 -0.9888303 0.1490459 0 -0.9888303 0.1490459 0 -0.9950307 0.09956796 0 -0.9950307 0.09956796 0 -0.9987569 0.04984512 0 -0.9987569 0.04984512 0 -1 0 -0 -0.998757 -0.04984543 0 -1 0 -0 -0.998757 -0.04984543 -0 -0.9950307 -0.09956796 0 -0.9950307 -0.09956796 -0 -0.9888303 -0.1490459 0 -0.9888303 -0.1490459 -0 -0.9801728 -0.1981449 0 -0.9801728 -0.1981449 -0 -0.9690771 -0.2467586 0 -0.9690771 -0.2467586 -0 -0.9555742 -0.2947507 0 -0.9555742 -0.2947507 -0 -0.9396908 -0.3420251 0 -0.9396908 -0.3420251 -0 -0.9214777 -0.3884313 0 -0.9214777 -0.3884313 -0 -0.9009681 -0.4338854 -0 -0.8782214 -0.4782542 0 -0.9009681 -0.4338854 -0 -0.8782214 -0.4782542 -0 -0.8532901 -0.5214364 -0 -0.8262408 -0.5633171 0 -0.8532901 -0.5214364 -0 -0.8262408 -0.5633171 -0 -0.7971324 -0.6038045 -0 -0.7660431 -0.6427892 0 -0.7971324 -0.6038045 -0 -0.7660431 -0.6427892 -0 -0.7330528 -0.6801717 0 -0.7330528 -0.6801717 -0 -0.6982353 -0.7158684 0 -0.6982353 -0.7158684 0 -0.6616874 -0.7497798 -0 -0.6616874 -0.7497798 0 -0.6234889 -0.7818323 -0 -0.6234889 -0.7818323 0 -0.5837464 -0.811936 -0 -0.5837464 -0.811936 0 -0.5425428 -0.8400282 -0 -0.5425428 -0.8400282 0 -0.5000011 -0.8660247 -0 -0.5000011 -0.8660247 0 -0.45621 -0.8898721 -0 -0.45621 -0.8898721 0 -0.4112878 -0.9115055 -0 -0.4112878 -0.9115055 0 -0.3653394 -0.9308744 -0 -0.3653394 -0.9308744 0 -0.3184908 -0.9479259 -0 -0.3184908 -0.9479259 -0 -0.2708379 -0.962625 -0 -0.2708379 -0.962625 0 -0.2225228 -0.9749275 -0 -0.2225228 -0.9749275 -0 -0.1736499 -0.9848074 -0 -0.1736499 -0.9848074 -0 -0.1243436 -0.9922392 0 -0.1243436 -0.9922392 -0 -0.07472498 -0.9972041 -0 -0.07472498 -0.9972041 -0 -0.02493485 -0.999689 0 -0.02493485 -0.999689 1 0 0 1 0 0 1 0 0 1 0 0 1 0 -0 1 0 0 1 0 0 1 0 -0 1 0 0 1 0 0 1 0 -0 1 0 0 1 0 0 1 0 0 1 0 -0 1 0 0 1 0 0 1 0 0 1 0 -0 1 0 0 1 0 0 1 0 0 1 0 -0 1 0 0 1 0 0 1 0 0 1 0 0 1 0 -0 1 0 0 1 0 0 1 0 0 1 0 -0 1 0 0 1 0 0 1 0 0 1 0 -0 1 0 0 1 0 0 1 0 0 1 0 -0 1 0 0 1 0 0 1 0 0 1 0 -0 1 0 0 1 0 0 1 0 0 1 0 -0 1 0 0 1 0 0 1 0 -0 1 0 0 1 0 -0 1 0 0 1 0 0 1 0 -0 1 0 0 1 0 0 1 0 0 1 0 -0 1 0 0 1 0 -0 1 0 -0 1 0 0 1 0 0 1 0 -0 1 0 0 1 0 0 1 0 0 1 0 -0 1 0 0 1 0 0 1 0 0 1 0 -0 1 0 0 1 0 0 1 0 -0 1 0 0 1 0 0 1 0 0 1 0 -0 1 0 0 1 0 0 1 0 0 1 0 -0 1 0 0 1 0 0 1 0 0 1 0 0 1 0 -0 1 0 0 1 0 0 1 0 -0 1 0 0 1 0 0 1 0 0 1 0 0 1 0 -0 1 0 0 1 0 0 1 0 0 1 0 -0 1 0 0 1 0 0 1 0 0 1 0 -0 1 0 0 1 0 0 1 0 0 1 0 -0 1 0 0 1 0 0 1 0 0 1 0 -0 1 0 0 1 0 0 1 0 0 1 0 -0 1 0 0 1 0 0 1 0 0 1 0 -0 1 0 0 1 0 0 1 0 0 1 0 0 1 0 0 1 0 -0 1 0 -0 1 0 0 1 0 -0 1 0 0 1 0 0 1 0 0 1 0 -0 1 0 -0 1 0 0 1 0 0 1 0 -0 1 0 0 1 0 0 1 0 0 1 0 0 1 0 -0 1 0 0 1 0 0 1 0 0 1 0 0 1 0 -0 1 0 0 1 0 0 1 0 -0 1 0 0 1 0 0 1 0 0 1 0 -0 1 0 0 1 0 0 1 0 0 1 0 -0 1 0 0 1 0 0 1 0 0 1 0 0 1 0 0 1 0 -0 1 0 0 1 0 -0 1 0 0 1 0 0 1 0 -0 1 0 0 1 0 0 1 0 0 1 0 0 1 0 0 1 0 0 1 0 -0 1 0 0 1 0 -0 1 0 0 1 0 0 1 0 0 1 0 -0 1 0 0 1 0 0 1 0 0 1 0 0 1 0 -0 1 0 0 1 0 0 1 0 -0 1 0 -0 1 0 0 1 0 -0 1 0 -0 1 0 0 1 0 0 1 0 0 1 0 -0 1 0 0 1 0 0 1 0 -0 1 0 0 1 0 0 1 0 0 1 0 -0 1 0 0 1 0 -0 1 0 0 1 0 0 1 0 0 1 0 -0 1 0 0 1 0 0 1 0 0 1 0 0 1 0 -0 1 0 0 1 0 0 1 0 0 1 0 0 1 0 0 1 0 -0 1 0 0 1 0 -0 1 0 0 1 0 0 1 0 0 1 0 0 1 0 -0 1 0 0 1 0 -0 1 0 0 1 0 0 1 0 0 1 0 -0 1 0 0 1 0 0 1 0 0 1 0 -0 1 0 0 1 0 0 1 0 0 1 0 0 1 0 0 1 0 -0 1 0 0 1 0 0 1 0 -0 1 0 0 1 0 0 0 0.02493251 -0.9996891 0 0.02493251 -0.9996891 0 0.07472929 -0.9972038 0 0.07472929 -0.9972038 0 0.1243486 -0.9922385 0 0.1736428 -0.9848087 0 0.1243486 -0.9922385 0 0.1736428 -0.9848087 0 0.2225226 -0.9749275 0 0.2225226 -0.9749275 0 0.2708398 -0.9626244 0 0.3184864 -0.9479275 0 0.2708398 -0.9626244 0 0.3184864 -0.9479275 0 0.3653415 -0.9308736 0 0.3653415 -0.9308736 0 0.4112863 -0.9115062 0 0.4562117 -0.8898712 0 0.4112863 -0.9115062 0 0.4562117 -0.8898712 0 0.5000055 -0.8660222 0 0.5000055 -0.8660222 0 0.5425359 -0.8400326 0 0.5425359 -0.8400326 0 0.5837499 -0.8119335 0 0.5837499 -0.8119335 0 0.6234938 -0.7818282 0 0.6234938 -0.7818282 0 0.6616787 -0.7497875 0 0.6616787 -0.7497875 0 0.6982409 -0.7158629 0 0.6982409 -0.7158629 0 0.7330535 -0.680171 0 0.7330535 -0.680171 0 0.7660422 -0.6427903 0 0.7660422 -0.6427903 0 0.7971336 -0.6038029 0 0.7971336 -0.6038029 0 0.826238 -0.5633212 0 0.826238 -0.5633212 0 0.8532921 -0.5214332 0 0.8532921 -0.5214332 0 0.878217 -0.4782624 0 0.878217 -0.4782624 0 0.9009727 -0.4338759 0 0.9009727 -0.4338759 0 0.9214727 -0.3884431 0 0.9214727 -0.3884431 0 0.9396936 -0.3420174 0 0.9396936 -0.3420174 0 0.9555733 -0.2947536 0 0.9555733 -0.2947536 0 0.9690777 -0.2467556 0 0.9690777 -0.2467556 0 0.9801716 -0.198151 0 0.9801716 -0.198151 0 0.9888321 -0.1490338 0 0.9888321 -0.1490338 0 0.9950298 -0.09957694 0 0.9950298 -0.09957694 0 0.9987569 -0.04984816 0 0.9987569 -0.04984816 0 1 0 0 1 0 0 0.9987568 0.04984773 0 0.9950298 0.09957694 0 0.9987568 0.04984773 0 0.9950298 0.09957694 0 0.9888321 0.1490338 0 0.9888321 0.1490338 0 0.9801716 0.198151 0 0.9801716 0.198151 0 0.9690773 0.2467577 0 0.955574 0.2947512 0 0.9690773 0.2467577 0 0.955574 0.2947512 0 0.9396936 0.3420174 0 0.9396936 0.3420174 0 0.9214714 0.3884461 0 0.9214714 0.3884461 0 0.9009727 0.4338759 0 0.9009727 0.4338759 0 0.878217 0.4782624 0 0.878217 0.4782624 0 0.8532944 0.5214294 0 0.8532944 0.5214294 0 0.8262352 0.5633252 0 0.8262352 0.5633252 0 0.7971336 0.6038029 0 0.7971336 0.6038029 0 0.7660457 0.6427861 0 0.7660457 0.6427861 0 0.7330535 0.680171 0 0.7330535 0.680171 0 0.6982409 0.7158629 0 0.6982409 0.7158629 0 0.6616787 0.7497875 0 0.6616787 0.7497875 0 0.6234938 0.7818282 0 0.6234938 0.7818282 0 0.5837443 0.8119375 0 0.5837443 0.8119375 0 0.5425419 0.8400287 0 0.5425419 0.8400287 0 0.5000055 0.8660222 0 0.5000055 0.8660222 0 0.4562117 0.8898712 0 0.4562117 0.8898712 0 0.4112792 0.9115094 0 0.4112792 0.9115094 0 0.3653415 0.9308736 0 0.3653415 0.9308736 0 0.3184864 0.9479275 0 0.3184864 0.9479275 0 0.2708398 0.9626244 0 0.2708398 0.9626244 0 0.2225226 0.9749275 0 0.2225226 0.9749275 0 0.173651 0.9848073 0 0.1243402 0.9922397 0 0.173651 0.9848073 0 0.1243402 0.9922397 0 0.07473775 0.9972032 0 0.07473775 0.9972032 0 0.02492402 0.9996893 0 0.02492402 0.9996893 0 -0.0249238 0.9996893 0 -0.0249238 0.9996893 0 -0.07473838 0.9972032 0 -0.07473838 0.9972032 0 -0.1243392 0.9922398 0 -0.1243392 0.9922398 0 -0.173651 0.9848073 0 -0.173651 0.9848073 0 -0.2225226 0.9749275 0 -0.2225226 0.9749275 0 -0.2708398 0.9626244 0 -0.2708398 0.9626244 0 -0.3184864 0.9479275 0 -0.3184864 0.9479275 0 -0.3653415 0.9308736 0 -0.3653415 0.9308736 0 -0.4112792 0.9115094 0 -0.4112792 0.9115094 0 -0.4562152 0.8898695 0 -0.4562152 0.8898695 0 -0.5000018 0.8660243 0 -0.5000018 0.8660243 0 -0.5425459 0.8400263 0 -0.5425459 0.8400263 0 -0.5837402 0.8119404 0 -0.5837402 0.8119404 0 -0.6234897 0.7818316 0 -0.6234897 0.7818316 0 -0.6616871 0.7497801 0 -0.6616871 0.7497801 0 -0.6982366 0.715867 0 -0.6982366 0.715867 0 -0.7330535 0.680171 0 -0.7330535 0.680171 0 -0.7660457 0.6427861 0 -0.7660457 0.6427861 0 -0.7971336 0.6038029 0 -0.7971336 0.6038029 0 -0.8262352 0.5633252 0 -0.8262352 0.5633252 0 -0.8532906 0.5214356 0 -0.8532906 0.5214356 0 -0.8782241 0.4782493 0 -0.8782241 0.4782493 0 -0.9009693 0.4338828 0 -0.9009693 0.4338828 0 -0.9214745 0.3884389 0 -0.9214745 0.3884389 0 -0.9396909 0.342025 0 -0.9396909 0.342025 0 -0.955574 0.2947512 0 -0.955574 0.2947512 0 -0.9690773 0.2467577 0 -0.9690773 0.2467577 0 -0.9801731 0.1981428 0 -0.9801731 0.1981428 0 -0.9888309 0.1490421 0 -0.9888309 0.1490421 0 -0.9950308 0.09956853 0 -0.9950308 0.09956853 0 -0.9987568 0.04984773 0 -0.9987568 0.04984773 0 -1 0 0 -1 0 0 -0.9987569 -0.04984816 -0 -0.9987569 -0.04984816 -0 -0.9950308 -0.09956853 -0 -0.9950308 -0.09956853 0 -0.9888309 -0.1490421 -0 -0.9888309 -0.1490421 0 -0.9801731 -0.1981428 -0 -0.9801731 -0.1981428 -0 -0.9690777 -0.2467556 0 -0.9690777 -0.2467556 -0 -0.9555733 -0.2947536 0 -0.9555733 -0.2947536 -0 -0.9396909 -0.342025 0 -0.9396909 -0.342025 -0 -0.9214757 -0.3884358 0 -0.9214757 -0.3884358 -0 -0.9009693 -0.4338828 0 -0.9009693 -0.4338828 -0 -0.8782241 -0.4782493 0 -0.8782241 -0.4782493 -0 -0.8532884 -0.5214393 0 -0.8532884 -0.5214393 -0 -0.826238 -0.5633212 0 -0.826238 -0.5633212 -0 -0.7971336 -0.6038029 0 -0.7971336 -0.6038029 -0 -0.7660422 -0.6427903 0 -0.7660422 -0.6427903 -0 -0.7330535 -0.680171 0 -0.7330535 -0.680171 -0 -0.6982366 -0.715867 0 -0.6982366 -0.715867 -0 -0.6616871 -0.7497801 0 -0.6616871 -0.7497801 0 -0.6234897 -0.7818316 -0 -0.6234897 -0.7818316 0 -0.5837458 -0.8119364 -0 -0.5837458 -0.8119364 0 -0.5425398 -0.8400301 -0 -0.5425398 -0.8400301 0 -0.5000018 -0.8660243 -0 -0.5000018 -0.8660243 -0 -0.4562152 -0.8898695 0 -0.4562152 -0.8898695 -0 -0.4112863 -0.9115062 0 -0.4112863 -0.9115062 -0 -0.3653415 -0.9308736 0 -0.3653415 -0.9308736 -0 -0.3184864 -0.9479275 0 -0.3184864 -0.9479275 -0 -0.2708398 -0.9626244 0 -0.2708398 -0.9626244 -0 -0.2225226 -0.9749275 0 -0.2225226 -0.9749275 -0 -0.1736428 -0.9848087 0 -0.1736428 -0.9848087 -0 -0.1243476 -0.9922387 0 -0.1243476 -0.9922387 -0 -0.07472993 -0.9972038 0 -0.07472993 -0.9972038 -0 -0.0249323 -0.9996891 0 -0.0249323 -0.9996891 1 0 0 1 0 0 1 0 0 1 0 0 1 0 0 1 0 0 1 0 0 1 0 0 1 0 0 1 0 0 1 0 0 1 0 0 1 0 0 1 0 0 1 0 0 1 0 0 1 0 0 1 0 0 1 0 0 1 0 0 1 0 0 1 0 0 1 0 0 1 0 0 1 0 0 1 0 0 1 0 0 1 0 0 1 0 0 1 0 0 1 0 0 1 0 0 1 0 0 1 0 0 1 0 0 1 0 0 1 0 0 1 0 0 1 0 0 1 0 0 1 0 0 1 0 0 1 0 0 1 0 0 1 0 0 1 0 0 1 0 0 1 0 0 1 0 0 1 0 0 1 0 0 1 0 0 1 0 0 1 0 0 1 0 0 1 0 0 1 0 0 1 0 0 1 0 0 1 0 0 1 0 0 1 0 0 1 0 0 1 0 0 1 0 0 1 0 0 1 0 0 1 0 0 1 0 0 1 0 0 1 0 0 1 0 0 1 0 0 1 0 0 1 0 0 1 0 0 1 0 0 1 0 0 1 0 0 1 0 0 1 0 0 1 0 0 1 0 0 1 0 0 1 0 0 1 0 0 1 0 0 1 0 0 1 0 0 1 0 0 1 0 -0 1 0 0 1 0 0 1 0 0 1 0 0 1 0 0 1 0 0 1 0 0 1 0 0 1 0 0 1 0 0 1 0 0 1 0 0 1 0 -0 1 0 0 1 0 0 1 0 0 1 0 -0 1 0 0 1 0 0 1 0 0 1 0 0 1 0 0 1 0 0 1 0 0 1 0 -0 1 0 0 1 0 0 1 0 0 1 0 0 1 0 0 1 0 0 1 0 -0 1 0 0</float_array>
          <technique_common>
            <accessor count="1508" source="#cubenormals-array0-array" stride="3">
              <param type="float" name="X"/>
              <param type="float" name="Y"/>
              <param type="float" name="Z"/>
            </accessor>
          </technique_common>
        </source>
        <vertices id="cubeverts-array0-vertices">
          <input semantic="POSITION" source="#cubeverts-array0"/>
        </vertices>
        <triangles count="1508" material="ref_Body008">
          <input offset="0" semantic="VERTEX" source="#cubeverts-array0-vertices"/>
          <input offset="1" semantic="NORMAL" source="#cubenormals-array0"/>
          <p>0 0 1 0 2 0 2 1 1 1 3 1 3 2 4 2 5 2 5 3 4 3 6 3 1 4 4 4 3 4 4 5 7 5 6 5 6 6 8 6 9 6 9 7 8 7 10 7 7 8 8 8 6 8 8 9 11 9 10 9 10 10 12 10 13 10 11 11 12 11 10 11 13 12 14 12 15 12 15 13 14 13 16 13 12 14 14 14 13 14 14 15 17 15 16 15 16 16 18 16 19 16 17 17 18 17 16 17 19 18 20 18 21 18 18 19 20 19 19 19 20 20 22 20 21 20 21 21 22 21 23 21 23 22 22 22 24 22 22 23 25 23 24 23 25 24 26 24 24 24 24 25 26 25 27 25 26 26 28 26 27 26 27 27 28 27 29 27 28 28 30 28 29 28 29 29 30 29 31 29 31 30 30 30 32 30 30 31 33 31 32 31 33 32 34 32 32 32 32 33 34 33 35 33 34 34 36 34 35 34 35 35 36 35 37 35 37 36 36 36 38 36 36 37 39 37 38 37 39 38 40 38 38 38 38 39 40 39 41 39 40 40 42 40 41 40 41 41 42 41 43 41 42 42 44 42 43 42 43 43 44 43 45 43 45 44 46 44 47 44 44 45 46 45 45 45 47 46 48 46 49 46 46 47 48 47 47 47 49 48 50 48 51 48 48 49 50 49 49 49 51 50 52 50 53 50 50 51 52 51 51 51 53 52 54 52 55 52 52 53 54 53 53 53 55 54 56 54 57 54 57 55 56 55 58 55 54 56 56 56 55 56 56 57 59 57 58 57 58 58 60 58 61 58 59 59 60 59 58 59 61 60 62 60 63 60 60 61 62 61 61 61 63 62 64 62 65 62 62 63 64 63 63 63 65 64 66 64 67 64 64 65 66 65 65 65 67 66 68 66 69 66 66 67 68 67 67 67 69 68 70 68 71 68 68 69 70 69 69 69 71 70 72 70 73 70 70 71 72 71 71 71 72 72 74 72 73 72 73 73 74 73 75 73 75 74 74 74 76 74 74 75 77 75 76 75 76 76 77 76 78 76 77 77 79 77 78 77 79 78 80 78 78 78 78 79 80 79 81 79 80 80 82 80 81 80 81 81 82 81 83 81 82 82 84 82 83 82 83 83 84 83 85 83 84 84 86 84 85 84 85 85 86 85 87 85 86 86 88 86 87 86 87 87 88 87 89 87 88 88 90 88 89 88 89 89 90 89 91 89 90 90 92 90 91 90 91 91 92 91 93 91 93 92 92 92 94 92 92 93 95 93 94 93 95 94 96 94 94 94 94 95 96 95 97 95 96 96 98 96 97 96 97 97 98 97 99 97 98 98 100 98 99 98 99 99 100 99 101 99 101 100 100 100 102 100 100 101 103 101 102 101 103 102 104 102 102 102 102 103 104 103 105 103 105 104 104 104 106 104 104 105 107 105 106 105 107 106 108 106 106 106 106 107 108 107 109 107 109 108 108 108 110 108 108 109 111 109 110 109 111 110 112 110 110 110 110 111 112 111 113 111 112 112 114 112 113 112 113 113 114 113 115 113 115 114 114 114 116 114 114 115 117 115 116 115 116 116 118 116 119 116 117 117 118 117 116 117 119 118 120 118 121 118 118 119 120 119 119 119 121 120 122 120 123 120 120 121 122 121 121 121 122 122 124 122 123 122 123 123 124 123 125 123 125 124 124 124 126 124 124 125 127 125 126 125 126 126 127 126 128 126 127 127 129 127 128 127 129 128 130 128 128 128 128 129 130 129 131 129 131 130 130 130 132 130 130 131 133 131 132 131 132 132 133 132 134 132 133 133 135 133 134 133 134 134 135 134 136 134 135 135 137 135 136 135 137 136 138 136 136 136 136 137 138 137 139 137 139 138 138 138 140 138 138 139 141 139 140 139 141 140 142 140 140 140 140 141 142 141 143 141 142 142 144 142 143 142 143 143 144 143 145 143 145 144 144 144 146 144 144 145 147 145 146 145 147 146 148 146 146 146 146 147 148 147 149 147 149 148 150 148 151 148 148 149 150 149 149 149 151 150 152 150 153 150 153 151 152 151 154 151 150 152 152 152 151 152 152 153 155 153 154 153 154 154 156 154 157 154 155 155 156 155 154 155 157 156 158 156 159 156 159 157 158 157 160 157 156 158 158 158 157 158 158 159 161 159 160 159 160 160 162 160 163 160 161 161 162 161 160 161 163 162 164 162 165 162 162 163 164 163 163 163 165 164 166 164 167 164 167 165 166 165 168 165 164 166 166 166 165 166 166 167 169 167 168 167 168 168 170 168 171 168 169 169 170 169 168 169 171 170 172 170 173 170 170 171 172 171 171 171 173 172 174 172 175 172 172 173 174 173 173 173 174 174 176 174 175 174 175 175 176 175 177 175 176 176 178 176 177 176 177 177 178 177 179 177 178 178 180 178 179 178 179 179 180 179 181 179 180 180 182 180 181 180 181 181 182 181 183 181 183 182 182 182 184 182 182 183 185 183 184 183 184 184 186 184 187 184 185 185 186 185 184 185 187 186 188 186 189 186 186 187 188 187 187 187 189 188 190 188 191 188 188 189 190 189 189 189 191 190 192 190 193 190 190 191 192 191 191 191 193 192 194 192 195 192 192 193 194 193 193 193 195 194 196 194 197 194 194 195 196 195 195 195 197 196 198 196 199 196 196 197 198 197 197 197 199 198 200 198 201 198 198 199 200 199 199 199 201 200 202 200 203 200 200 201 202 201 201 201 203 202 204 202 205 202 202 203 204 203 203 203 205 204 206 204 207 204 204 205 206 205 205 205 207 206 208 206 209 206 209 207 208 207 210 207 206 208 208 208 207 208 208 209 211 209 210 209 210 210 212 210 213 210 211 211 212 211 210 211 213 212 214 212 215 212 212 213 214 213 213 213 215 214 216 214 217 214 214 215 216 215 215 215 217 216 218 216 219 216 216 217 218 217 217 217 219 218 220 218 221 218 218 219 220 219 219 219 221 220 222 220 223 220 220 221 222 221 221 221 222 222 224 222 223 222 223 223 224 223 225 223 224 224 226 224 225 224 225 225 226 225 227 225 226 226 228 226 227 226 227 227 228 227 229 227 228 228 230 228 229 228 229 229 230 229 231 229 230 230 232 230 231 230 231 231 232 231 233 231 232 232 234 232 233 232 233 233 234 233 235 233 234 234 236 234 235 234 235 235 236 235 237 235 236 236 238 236 237 236 237 237 238 237 239 237 239 238 238 238 240 238 238 239 241 239 240 239 241 240 242 240 240 240 240 241 242 241 243 241 242 242 244 242 243 242 243 243 244 243 245 243 244 244 246 244 245 244 245 245 246 245 247 245 246 246 248 246 247 246 247 247 248 247 249 247 249 248 250 248 251 248 248 249 250 249 249 249 251 250 250 250 2 250 250 251 0 251 2 251 161 252 164 252 162 252 152 253 150 253 155 253 155 254 150 254 156 254 161 255 166 255 164 255 158 256 166 256 161 256 147 257 144 257 148 257 144 258 142 258 148 258 148 259 142 259 150 259 158 260 174 260 166 260 156 261 174 261 158 261 166 262 174 262 169 262 169 263 174 263 170 263 170 264 174 264 172 264 142 265 138 265 150 265 141 266 138 266 142 266 150 267 178 267 156 267 156 268 178 268 174 268 174 269 178 269 176 269 137 270 135 270 138 270 135 271 133 271 138 271 150 272 186 272 178 272 138 273 186 273 150 273 178 274 186 274 180 274 180 275 186 275 182 275 182 276 186 276 185 276 129 277 127 277 130 277 130 278 127 278 133 278 133 279 127 279 138 279 124 280 122 280 127 280 186 281 194 281 188 281 188 282 194 282 190 282 190 283 194 283 192 283 122 284 120 284 127 284 194 285 198 285 196 285 120 286 117 286 127 286 118 287 117 287 120 287 127 288 117 288 138 288 194 289 200 289 198 289 186 290 200 290 194 290 114 291 112 291 117 291 200 292 204 292 202 292 112 293 111 293 117 293 204 294 108 294 206 294 117 295 108 295 138 295 111 296 108 296 117 296 186 297 108 297 200 297 200 298 108 298 204 298 138 299 108 299 186 299 206 300 211 300 208 300 206 301 212 301 211 301 104 302 103 302 107 302 212 303 216 303 214 303 212 304 218 304 216 304 103 305 96 305 107 305 98 306 96 306 100 306 100 307 96 307 103 307 96 308 95 308 107 308 218 309 222 309 220 309 212 310 222 310 218 310 107 311 92 311 108 311 95 312 92 312 107 312 108 313 224 313 206 313 206 314 224 314 212 314 212 315 224 315 222 315 90 316 88 316 92 316 108 317 88 317 224 317 92 318 88 318 108 318 224 319 228 319 226 319 88 320 86 320 224 320 228 321 234 321 230 321 230 322 234 322 232 322 82 323 80 323 84 323 84 324 80 324 86 324 224 325 80 325 228 325 86 326 80 326 224 326 228 327 236 327 234 327 228 328 238 328 236 328 228 329 241 329 238 329 77 330 74 330 79 330 79 331 74 331 80 331 241 332 244 332 242 332 72 333 70 333 74 333 74 334 70 334 80 334 241 335 246 335 244 335 66 336 64 336 68 336 68 337 64 337 70 337 64 338 62 338 70 338 70 339 62 339 80 339 62 340 59 340 80 340 60 341 59 341 62 341 80 342 59 342 228 342 228 343 59 343 241 343 0 344 8 344 1 344 1 345 8 345 4 345 4 346 8 346 7 346 0 347 11 347 8 347 54 348 52 348 56 348 52 349 50 349 56 349 59 350 50 350 241 350 56 351 50 351 59 351 241 352 17 352 246 352 11 353 17 353 12 353 12 354 17 354 14 354 246 355 17 355 248 355 248 356 17 356 250 356 250 357 17 357 0 357 0 358 17 358 11 358 46 359 44 359 48 359 48 360 44 360 50 360 17 361 20 361 18 361 44 362 42 362 50 362 20 363 25 363 22 363 17 364 25 364 20 364 241 365 25 365 17 365 36 366 34 366 39 366 39 367 34 367 40 367 40 368 34 368 42 368 25 369 33 369 26 369 26 370 33 370 28 370 28 371 33 371 30 371 50 372 33 372 241 372 42 373 33 373 50 373 241 374 33 374 25 374 34 375 33 375 42 375 252 376 157 376 159 376 252 377 159 377 253 377 254 378 159 378 160 378 254 379 160 379 163 379 254 380 253 380 159 380 255 381 157 381 252 381 255 382 154 382 157 382 256 383 254 383 163 383 257 384 154 384 255 384 257 385 153 385 154 385 258 386 256 386 163 386 258 387 163 387 165 387 258 388 165 388 167 388 259 389 153 389 257 389 259 390 151 390 153 390 260 391 258 391 167 391 260 392 167 392 168 392 261 393 151 393 259 393 261 394 149 394 151 394 262 395 260 395 168 395 263 396 149 396 261 396 263 397 146 397 149 397 264 398 262 398 168 398 264 399 168 399 171 399 265 400 146 400 263 400 265 401 143 401 145 401 265 402 145 402 146 402 266 403 264 403 171 403 266 404 171 404 173 404 266 405 173 405 175 405 267 406 143 406 265 406 268 407 266 407 175 407 268 408 175 408 177 408 269 409 139 409 140 409 269 410 140 410 143 410 269 411 143 411 267 411 270 412 268 412 177 412 271 413 139 413 269 413 272 414 270 414 177 414 272 415 177 415 179 415 273 416 139 416 271 416 273 417 136 417 139 417 274 418 272 418 179 418 274 419 179 419 181 419 275 420 134 420 136 420 275 421 136 421 273 421 276 422 274 422 181 422 276 423 181 423 183 423 276 424 183 424 184 424 277 425 132 425 134 425 277 426 134 426 275 426 278 427 276 427 184 427 279 428 128 428 131 428 279 429 131 429 132 429 279 430 132 430 277 430 280 431 278 431 184 431 280 432 184 432 187 432 281 433 128 433 279 433 281 434 126 434 128 434 282 435 187 435 189 435 282 436 280 436 187 436 283 437 126 437 281 437 284 438 282 438 189 438 284 439 189 439 191 439 284 440 191 440 193 440 285 441 126 441 283 441 285 442 125 442 126 442 286 443 284 443 193 443 287 444 125 444 285 444 287 445 121 445 123 445 287 446 123 446 125 446 288 447 193 447 195 447 288 448 286 448 193 448 289 449 121 449 287 449 290 450 288 450 195 450 290 451 195 451 197 451 291 452 121 452 289 452 291 453 119 453 121 453 292 454 290 454 197 454 292 455 197 455 199 455 293 456 119 456 291 456 293 457 116 457 119 457 294 458 292 458 199 458 294 459 199 459 201 459 295 460 116 460 293 460 295 461 115 461 116 461 296 462 201 462 203 462 296 463 294 463 201 463 297 464 115 464 295 464 297 465 110 465 113 465 297 466 113 466 115 466 298 467 203 467 205 467 298 468 296 468 203 468 299 469 110 469 297 469 300 470 205 470 207 470 300 471 298 471 205 471 301 472 110 472 299 472 301 473 106 473 109 473 301 474 109 474 110 474 302 475 207 475 209 475 302 476 300 476 207 476 303 477 106 477 301 477 304 478 209 478 210 478 304 479 210 479 213 479 304 480 302 480 209 480 305 481 106 481 303 481 305 482 105 482 106 482 306 483 213 483 215 483 306 484 304 484 213 484 307 485 102 485 105 485 307 486 105 486 305 486 308 487 306 487 215 487 309 488 101 488 102 488 309 489 102 489 307 489 310 490 215 490 217 490 310 491 308 491 215 491 311 492 99 492 101 492 311 493 101 493 309 493 312 494 217 494 219 494 312 495 310 495 217 495 313 496 97 496 99 496 313 497 99 497 311 497 314 498 219 498 221 498 314 499 312 499 219 499 94 500 313 500 315 500 94 501 97 501 313 501 223 502 316 502 314 502 223 503 314 503 221 503 317 504 94 504 315 504 93 505 94 505 317 505 225 506 316 506 223 506 225 507 318 507 316 507 91 508 93 508 317 508 91 509 317 509 319 509 227 510 318 510 225 510 227 511 320 511 318 511 89 512 91 512 319 512 89 513 319 513 321 513 229 514 320 514 227 514 229 515 322 515 320 515 229 516 323 516 322 516 87 517 89 517 321 517 87 518 321 518 324 518 231 519 323 519 229 519 85 520 87 520 324 520 85 521 325 521 326 521 85 522 324 522 325 522 233 523 327 523 323 523 233 524 323 524 231 524 83 525 85 525 326 525 235 526 327 526 233 526 235 527 328 527 327 527 81 528 83 528 326 528 81 529 326 529 329 529 237 530 330 530 328 530 237 531 328 531 235 531 78 532 329 532 331 532 78 533 81 533 329 533 239 534 332 534 330 534 239 535 330 535 237 535 76 536 331 536 333 536 76 537 78 537 331 537 240 538 334 538 332 538 240 539 335 539 334 539 240 540 332 540 239 540 75 541 333 541 336 541 75 542 76 542 333 542 243 543 337 543 335 543 243 544 335 544 240 544 73 545 336 545 338 545 73 546 75 546 336 546 245 547 337 547 243 547 71 548 73 548 338 548 71 549 339 549 340 549 71 550 338 550 339 550 247 551 337 551 245 551 247 552 341 552 337 552 69 553 71 553 340 553 249 554 341 554 247 554 249 555 342 555 341 555 67 556 69 556 340 556 67 557 340 557 343 557 251 558 342 558 249 558 251 559 344 559 342 559 251 560 345 560 344 560 65 561 67 561 343 561 65 562 343 562 346 562 2 563 347 563 345 563 2 564 345 564 251 564 63 565 348 565 349 565 63 566 346 566 348 566 63 567 65 567 346 567 3 568 347 568 2 568 61 569 63 569 349 569 5 570 350 570 347 570 5 571 351 571 350 571 5 572 347 572 3 572 58 573 61 573 349 573 58 574 352 574 353 574 58 575 349 575 352 575 6 576 354 576 351 576 6 577 351 577 5 577 57 578 58 578 353 578 9 579 354 579 6 579 55 580 57 580 353 580 55 581 353 581 355 581 10 582 354 582 9 582 10 583 356 583 354 583 10 584 357 584 356 584 53 585 55 585 355 585 53 586 355 586 358 586 13 587 357 587 10 587 51 588 53 588 358 588 51 589 358 589 359 589 15 590 360 590 357 590 15 591 357 591 13 591 49 592 51 592 359 592 49 593 359 593 361 593 16 594 362 594 360 594 16 595 360 595 15 595 47 596 49 596 361 596 47 597 361 597 363 597 19 598 364 598 362 598 19 599 362 599 16 599 45 600 47 600 363 600 45 601 363 601 365 601 21 602 364 602 19 602 21 603 366 603 364 603 43 604 45 604 365 604 43 605 365 605 367 605 23 606 366 606 21 606 23 607 368 607 366 607 23 608 369 608 368 608 41 609 43 609 367 609 41 610 370 610 371 610 41 611 367 611 370 611 24 612 369 612 23 612 38 613 41 613 371 613 38 614 371 614 372 614 27 615 369 615 24 615 27 616 373 616 369 616 27 617 374 617 373 617 37 618 38 618 372 618 29 619 374 619 27 619 35 620 375 620 376 620 35 621 372 621 375 621 35 622 37 622 372 622 31 623 377 623 374 623 31 624 374 624 29 624 32 625 35 625 376 625 32 626 376 626 377 626 32 627 377 627 31 627 378 628 379 628 345 628 378 629 345 629 347 629 380 630 347 630 350 630 380 631 378 631 347 631 381 632 350 632 351 632 381 633 380 633 350 633 382 634 351 634 354 634 382 635 381 635 351 635 383 636 354 636 356 636 383 637 356 637 357 637 383 638 382 638 354 638 384 639 383 639 357 639 385 640 357 640 360 640 385 641 384 641 357 641 386 642 360 642 362 642 386 643 385 643 360 643 387 644 362 644 364 644 387 645 386 645 362 645 388 646 364 646 366 646 388 647 387 647 364 647 389 648 388 648 366 648 389 649 366 649 368 649 390 650 389 650 368 650 390 651 368 651 369 651 391 652 390 652 369 652 391 653 369 653 373 653 392 654 391 654 373 654 392 655 373 655 374 655 393 656 392 656 374 656 393 657 374 657 377 657 394 658 393 658 377 658 394 659 377 659 376 659 394 660 376 660 375 660 395 661 394 661 375 661 396 662 395 662 375 662 396 663 375 663 372 663 397 664 396 664 372 664 397 665 372 665 371 665 398 666 397 666 371 666 398 667 371 667 370 667 399 668 398 668 370 668 399 669 370 669 367 669 400 670 399 670 367 670 400 671 367 671 365 671 401 672 365 672 363 672 401 673 400 673 365 673 402 674 363 674 361 674 402 675 401 675 363 675 403 676 361 676 359 676 403 677 359 677 358 677 403 678 402 678 361 678 404 679 403 679 358 679 405 680 358 680 355 680 405 681 355 681 353 681 405 682 404 682 358 682 406 683 405 683 353 683 407 684 353 684 352 684 407 685 406 685 353 685 408 686 352 686 349 686 408 687 407 687 352 687 409 688 349 688 348 688 409 689 408 689 349 689 410 690 348 690 346 690 410 691 346 691 343 691 410 692 409 692 348 692 411 693 410 693 343 693 412 694 343 694 340 694 412 695 411 695 343 695 413 696 340 696 339 696 413 697 412 697 340 697 414 698 339 698 338 698 414 699 413 699 339 699 415 700 414 700 338 700 415 701 338 701 336 701 416 702 415 702 336 702 416 703 336 703 333 703 417 704 416 704 333 704 417 705 333 705 331 705 418 706 417 706 331 706 418 707 331 707 329 707 419 708 418 708 329 708 419 709 329 709 326 709 420 710 419 710 326 710 420 711 326 711 325 711 421 712 420 712 325 712 421 713 325 713 324 713 422 714 421 714 324 714 422 715 324 715 321 715 423 716 422 716 321 716 423 717 321 717 319 717 424 718 423 718 319 718 424 719 319 719 317 719 425 720 424 720 317 720 425 721 317 721 315 721 426 722 425 722 315 722 426 723 315 723 313 723 427 724 426 724 313 724 427 725 313 725 311 725 428 726 427 726 311 726 428 727 311 727 309 727 429 728 428 728 309 728 429 729 309 729 307 729 430 730 429 730 307 730 430 731 307 731 305 731 431 732 430 732 305 732 431 733 305 733 303 733 432 734 431 734 303 734 432 735 303 735 301 735 433 736 432 736 301 736 433 737 301 737 299 737 434 738 433 738 299 738 434 739 299 739 297 739 435 740 434 740 297 740 435 741 297 741 295 741 436 742 295 742 293 742 436 743 435 743 295 743 437 744 293 744 291 744 437 745 436 745 293 745 438 746 291 746 289 746 438 747 437 747 291 747 439 748 289 748 287 748 439 749 287 749 285 749 439 750 438 750 289 750 440 751 439 751 285 751 441 752 440 752 285 752 441 753 285 753 283 753 441 754 283 754 281 754 442 755 441 755 281 755 443 756 442 756 281 756 443 757 281 757 279 757 444 758 443 758 279 758 444 759 279 759 277 759 445 760 444 760 277 760 445 761 277 761 275 761 446 762 445 762 275 762 446 763 275 763 273 763 446 764 273 764 271 764 447 765 446 765 271 765 448 766 447 766 271 766 448 767 271 767 269 767 448 768 269 768 267 768 449 769 448 769 267 769 449 770 267 770 265 770 450 771 449 771 265 771 451 772 450 772 265 772 451 773 265 773 263 773 452 774 451 774 263 774 452 775 263 775 261 775 453 776 261 776 259 776 453 777 259 777 257 777 453 778 452 778 261 778 454 779 453 779 257 779 455 780 257 780 255 780 455 781 255 781 252 781 455 782 454 782 257 782 456 783 455 783 252 783 457 784 252 784 253 784 457 785 456 785 252 785 458 786 253 786 254 786 458 787 457 787 253 787 459 788 254 788 256 788 459 789 458 789 254 789 460 790 256 790 258 790 460 791 459 791 256 791 461 792 258 792 260 792 461 793 460 793 258 793 462 794 260 794 262 794 462 795 461 795 260 795 463 796 262 796 264 796 463 797 462 797 262 797 464 798 264 798 266 798 464 799 463 799 264 799 465 800 266 800 268 800 465 801 268 801 270 801 465 802 464 802 266 802 466 803 465 803 270 803 467 804 466 804 270 804 467 805 270 805 272 805 467 806 272 806 274 806 468 807 467 807 274 807 469 808 468 808 274 808 469 809 274 809 276 809 470 810 276 810 278 810 470 811 469 811 276 811 471 812 278 812 280 812 471 813 470 813 278 813 472 814 280 814 282 814 472 815 471 815 280 815 473 816 282 816 284 816 473 817 284 817 286 817 473 818 472 818 282 818 474 819 473 819 286 819 475 820 286 820 288 820 475 821 474 821 286 821 476 822 288 822 290 822 476 823 475 823 288 823 477 824 290 824 292 824 477 825 476 825 290 825 478 826 292 826 294 826 478 827 477 827 292 827 479 828 294 828 296 828 479 829 478 829 294 829 480 830 296 830 298 830 480 831 479 831 296 831 481 832 298 832 300 832 481 833 480 833 298 833 482 834 300 834 302 834 482 835 302 835 304 835 482 836 481 836 300 836 483 837 482 837 304 837 484 838 304 838 306 838 484 839 306 839 308 839 484 840 483 840 304 840 485 841 484 841 308 841 486 842 308 842 310 842 486 843 310 843 312 843 486 844 485 844 308 844 487 845 486 845 312 845 488 846 312 846 314 846 488 847 487 847 312 847 489 848 314 848 316 848 489 849 488 849 314 849 490 850 489 850 316 850 490 851 316 851 318 851 491 852 490 852 318 852 491 853 318 853 320 853 492 854 491 854 320 854 492 855 320 855 322 855 493 856 492 856 322 856 493 857 322 857 323 857 494 858 493 858 323 858 494 859 323 859 327 859 495 860 494 860 327 860 495 861 327 861 328 861 496 862 495 862 328 862 496 863 328 863 330 863 497 864 496 864 330 864 497 865 330 865 332 865 498 866 497 866 332 866 498 867 332 867 334 867 498 868 334 868 335 868 499 869 498 869 335 869 500 870 499 870 335 870 500 871 335 871 337 871 500 872 337 872 341 872 501 873 500 873 341 873 502 874 341 874 342 874 502 875 501 875 341 875 502 876 342 876 344 876 503 877 502 877 344 877 379 878 344 878 345 878 379 879 503 879 344 879 504 880 456 880 457 880 504 881 457 881 505 881 506 882 457 882 458 882 506 883 458 883 459 883 506 884 505 884 457 884 507 885 456 885 504 885 507 886 455 886 456 886 508 887 506 887 459 887 509 888 455 888 507 888 509 889 454 889 455 889 510 890 508 890 459 890 510 891 459 891 460 891 511 892 454 892 509 892 511 893 453 893 454 893 512 894 510 894 460 894 512 895 460 895 461 895 513 896 453 896 511 896 513 897 452 897 453 897 514 898 512 898 461 898 514 899 461 899 462 899 515 900 452 900 513 900 515 901 451 901 452 901 516 902 514 902 462 902 516 903 462 903 463 903 517 904 451 904 515 904 517 905 449 905 450 905 517 906 450 906 451 906 518 907 516 907 463 907 518 908 463 908 464 908 519 909 449 909 517 909 520 910 464 910 465 910 520 911 518 911 464 911 521 912 449 912 519 912 521 913 447 913 448 913 521 914 448 914 449 914 522 915 520 915 465 915 522 916 465 916 466 916 523 917 447 917 521 917 523 918 446 918 447 918 524 919 522 919 466 919 524 920 466 920 467 920 524 921 467 921 468 921 525 922 446 922 523 922 526 923 524 923 468 923 526 924 468 924 469 924 527 925 446 925 525 925 527 926 445 926 446 926 528 927 526 927 469 927 529 928 444 928 445 928 529 929 445 929 527 929 530 930 528 930 469 930 530 931 469 931 470 931 531 932 442 932 443 932 531 933 443 933 444 933 531 934 444 934 529 934 532 935 530 935 470 935 532 936 470 936 471 936 533 937 442 937 531 937 534 938 471 938 472 938 534 939 532 939 471 939 535 940 442 940 533 940 535 941 441 941 442 941 536 942 534 942 472 942 536 943 472 943 473 943 537 944 441 944 535 944 537 945 440 945 441 945 538 946 473 946 474 946 538 947 536 947 473 947 539 948 440 948 537 948 539 949 439 949 440 949 540 950 538 950 474 950 540 951 474 951 475 951 541 952 439 952 539 952 541 953 438 953 439 953 542 954 540 954 475 954 542 955 475 955 476 955 543 956 438 956 541 956 543 957 437 957 438 957 544 958 542 958 476 958 544 959 476 959 477 959 545 960 437 960 543 960 545 961 436 961 437 961 546 962 544 962 477 962 546 963 477 963 478 963 547 964 436 964 545 964 547 965 435 965 436 965 548 966 478 966 479 966 548 967 479 967 480 967 548 968 546 968 478 968 549 969 435 969 547 969 549 970 434 970 435 970 550 971 548 971 480 971 551 972 434 972 549 972 551 973 433 973 434 973 552 974 480 974 481 974 552 975 481 975 482 975 552 976 550 976 480 976 553 977 433 977 551 977 553 978 431 978 432 978 553 979 432 979 433 979 554 980 552 980 482 980 555 981 431 981 553 981 556 982 482 982 483 982 556 983 554 983 482 983 557 984 430 984 431 984 557 985 431 985 555 985 558 986 483 986 484 986 558 987 556 987 483 987 559 988 429 988 430 988 559 989 430 989 557 989 560 990 484 990 485 990 560 991 558 991 484 991 561 992 428 992 429 992 561 993 429 993 559 993 562 994 485 994 486 994 562 995 560 995 485 995 563 996 427 996 428 996 563 997 428 997 561 997 564 998 486 998 487 998 564 999 562 999 486 999 565 1000 426 1000 427 1000 565 1001 427 1001 563 1001 566 1002 487 1002 488 1002 566 1003 564 1003 487 1003 425 1004 565 1004 567 1004 425 1005 426 1005 565 1005 568 1006 566 1006 488 1006 489 1007 568 1007 488 1007 569 1008 425 1008 567 1008 424 1009 425 1009 569 1009 490 1010 568 1010 489 1010 490 1011 570 1011 568 1011 423 1012 424 1012 569 1012 423 1013 569 1013 571 1013 572 1014 423 1014 571 1014 491 1015 570 1015 490 1015 491 1016 573 1016 570 1016 422 1017 423 1017 572 1017 492 1018 573 1018 491 1018 492 1019 574 1019 573 1019 421 1020 422 1020 572 1020 421 1021 572 1021 575 1021 493 1022 576 1022 574 1022 493 1023 574 1023 492 1023 493 1024 577 1024 576 1024 420 1025 421 1025 575 1025 420 1026 578 1026 579 1026 420 1027 575 1027 578 1027 494 1028 577 1028 493 1028 419 1029 420 1029 579 1029 495 1030 580 1030 577 1030 495 1031 577 1031 494 1031 418 1032 419 1032 579 1032 418 1033 579 1033 581 1033 496 1034 582 1034 580 1034 496 1035 580 1035 495 1035 417 1036 581 1036 583 1036 417 1037 418 1037 581 1037 497 1038 584 1038 582 1038 497 1039 582 1039 496 1039 416 1040 585 1040 586 1040 416 1041 583 1041 585 1041 416 1042 417 1042 583 1042 498 1043 587 1043 584 1043 498 1044 588 1044 587 1044 498 1045 584 1045 497 1045 415 1046 416 1046 586 1046 499 1047 588 1047 498 1047 414 1048 415 1048 586 1048 414 1049 586 1049 589 1049 500 1050 588 1050 499 1050 500 1051 590 1051 588 1051 500 1052 591 1052 590 1052 413 1053 414 1053 589 1053 413 1054 592 1054 593 1054 413 1055 589 1055 592 1055 501 1056 594 1056 591 1056 501 1057 591 1057 500 1057 412 1058 413 1058 593 1058 502 1059 594 1059 501 1059 411 1060 593 1060 595 1060 411 1061 412 1061 593 1061 503 1062 594 1062 502 1062 503 1063 596 1063 594 1063 410 1064 411 1064 595 1064 410 1065 597 1065 598 1065 410 1066 595 1066 597 1066 379 1067 599 1067 600 1067 379 1068 600 1068 596 1068 379 1069 596 1069 503 1069 409 1070 598 1070 601 1070 409 1071 410 1071 598 1071 378 1072 602 1072 599 1072 378 1073 599 1073 379 1073 408 1074 409 1074 601 1074 380 1075 603 1075 602 1075 380 1076 602 1076 378 1076 407 1077 604 1077 605 1077 407 1078 601 1078 604 1078 407 1079 408 1079 601 1079 381 1080 603 1080 380 1080 406 1081 605 1081 606 1081 406 1082 407 1082 605 1082 382 1083 607 1083 603 1083 382 1084 608 1084 607 1084 382 1085 603 1085 381 1085 405 1086 406 1086 606 1086 383 1087 608 1087 382 1087 404 1088 405 1088 606 1088 404 1089 606 1089 609 1089 384 1090 610 1090 608 1090 384 1091 608 1091 383 1091 403 1092 404 1092 609 1092 403 1093 611 1093 612 1093 403 1094 609 1094 611 1094 385 1095 613 1095 610 1095 385 1096 610 1096 384 1096 402 1097 403 1097 612 1097 386 1098 614 1098 613 1098 386 1099 615 1099 614 1099 386 1100 613 1100 385 1100 401 1101 616 1101 617 1101 401 1102 612 1102 616 1102 401 1103 402 1103 612 1103 387 1104 615 1104 386 1104 400 1105 401 1105 617 1105 400 1106 617 1106 618 1106 388 1107 615 1107 387 1107 388 1108 619 1108 615 1108 388 1109 620 1109 619 1109 399 1110 400 1110 618 1110 389 1111 620 1111 388 1111 398 1112 399 1112 618 1112 398 1113 618 1113 621 1113 390 1114 620 1114 389 1114 390 1115 622 1115 620 1115 397 1116 398 1116 621 1116 397 1117 621 1117 623 1117 391 1118 624 1118 622 1118 391 1119 622 1119 390 1119 396 1120 397 1120 623 1120 396 1121 625 1121 626 1121 396 1122 623 1122 625 1122 392 1123 624 1123 391 1123 392 1124 627 1124 624 1124 395 1125 626 1125 628 1125 395 1126 396 1126 626 1126 393 1127 629 1127 627 1127 393 1128 627 1128 392 1128 394 1129 395 1129 628 1129 394 1130 628 1130 629 1130 394 1131 629 1131 393 1131 630 1132 600 1132 599 1132 631 1133 630 1133 599 1133 632 1134 599 1134 602 1134 632 1135 631 1135 599 1135 633 1136 602 1136 603 1136 633 1137 603 1137 607 1137 633 1138 632 1138 602 1138 634 1139 633 1139 607 1139 635 1140 607 1140 608 1140 635 1141 634 1141 607 1141 636 1142 608 1142 610 1142 636 1143 610 1143 613 1143 636 1144 635 1144 608 1144 637 1145 636 1145 613 1145 638 1146 613 1146 614 1146 638 1147 637 1147 613 1147 639 1148 614 1148 615 1148 639 1149 615 1149 619 1149 639 1150 638 1150 614 1150 640 1151 639 1151 619 1151 641 1152 640 1152 619 1152 641 1153 619 1153 620 1153 642 1154 641 1154 620 1154 642 1155 620 1155 622 1155 643 1156 642 1156 622 1156 643 1157 622 1157 624 1157 644 1158 643 1158 624 1158 644 1159 624 1159 627 1159 645 1160 627 1160 629 1160 645 1161 644 1161 627 1161 646 1162 629 1162 628 1162 646 1163 645 1163 629 1163 647 1164 628 1164 626 1164 647 1165 646 1165 628 1165 648 1166 626 1166 625 1166 648 1167 647 1167 626 1167 649 1168 625 1168 623 1168 649 1169 648 1169 625 1169 650 1170 623 1170 621 1170 650 1171 649 1171 623 1171 651 1172 621 1172 618 1172 651 1173 650 1173 621 1173 652 1174 618 1174 617 1174 652 1175 651 1175 618 1175 653 1176 617 1176 616 1176 653 1177 652 1177 617 1177 654 1178 616 1178 612 1178 654 1179 653 1179 616 1179 655 1180 612 1180 611 1180 655 1181 654 1181 612 1181 656 1182 611 1182 609 1182 656 1183 655 1183 611 1183 657 1184 609 1184 606 1184 657 1185 656 1185 609 1185 658 1186 606 1186 605 1186 658 1187 657 1187 606 1187 659 1188 605 1188 604 1188 659 1189 658 1189 605 1189 660 1190 604 1190 601 1190 660 1191 659 1191 604 1191 661 1192 601 1192 598 1192 661 1193 660 1193 601 1193 662 1194 598 1194 597 1194 662 1195 661 1195 598 1195 663 1196 597 1196 595 1196 663 1197 595 1197 593 1197 663 1198 662 1198 597 1198 664 1199 663 1199 593 1199 665 1200 593 1200 592 1200 665 1201 664 1201 593 1201 666 1202 592 1202 589 1202 666 1203 665 1203 592 1203 667 1204 589 1204 586 1204 667 1205 586 1205 585 1205 667 1206 666 1206 589 1206 668 1207 667 1207 585 1207 669 1208 668 1208 585 1208 669 1209 585 1209 583 1209 670 1210 669 1210 583 1210 670 1211 583 1211 581 1211 670 1212 581 1212 579 1212 671 1213 670 1213 579 1213 672 1214 671 1214 579 1214 672 1215 579 1215 578 1215 673 1216 672 1216 578 1216 673 1217 578 1217 575 1217 674 1218 673 1218 575 1218 674 1219 575 1219 572 1219 675 1220 674 1220 572 1220 675 1221 572 1221 571 1221 676 1222 675 1222 571 1222 676 1223 571 1223 569 1223 677 1224 676 1224 569 1224 677 1225 569 1225 567 1225 678 1226 567 1226 565 1226 678 1227 677 1227 567 1227 679 1228 565 1228 563 1228 679 1229 678 1229 565 1229 680 1230 563 1230 561 1230 680 1231 679 1231 563 1231 681 1232 561 1232 559 1232 681 1233 680 1233 561 1233 682 1234 559 1234 557 1234 682 1235 681 1235 559 1235 683 1236 557 1236 555 1236 683 1237 682 1237 557 1237 684 1238 555 1238 553 1238 684 1239 683 1239 555 1239 685 1240 553 1240 551 1240 685 1241 684 1241 553 1241 686 1242 551 1242 549 1242 686 1243 685 1243 551 1243 687 1244 549 1244 547 1244 687 1245 686 1245 549 1245 688 1246 547 1246 545 1246 688 1247 687 1247 547 1247 689 1248 545 1248 543 1248 689 1249 688 1249 545 1249 690 1250 543 1250 541 1250 690 1251 541 1251 539 1251 690 1252 689 1252 543 1252 691 1253 690 1253 539 1253 692 1254 691 1254 539 1254 692 1255 539 1255 537 1255 693 1256 692 1256 537 1256 693 1257 537 1257 535 1257 694 1258 693 1258 535 1258 694 1259 535 1259 533 1259 694 1260 533 1260 531 1260 695 1261 694 1261 531 1261 696 1262 695 1262 531 1262 696 1263 531 1263 529 1263 696 1264 529 1264 527 1264 697 1265 696 1265 527 1265 698 1266 697 1266 527 1266 698 1267 527 1267 525 1267 699 1268 698 1268 525 1268 699 1269 525 1269 523 1269 700 1270 699 1270 523 1270 700 1271 523 1271 521 1271 701 1272 700 1272 521 1272 701 1273 521 1273 519 1273 702 1274 701 1274 519 1274 702 1275 519 1275 517 1275 703 1276 702 1276 517 1276 703 1277 517 1277 515 1277 704 1278 703 1278 515 1278 704 1279 515 1279 513 1279 705 1280 704 1280 513 1280 705 1281 513 1281 511 1281 706 1282 705 1282 511 1282 706 1283 511 1283 509 1283 707 1284 706 1284 509 1284 707 1285 509 1285 507 1285 708 1286 707 1286 507 1286 708 1287 507 1287 504 1287 709 1288 708 1288 504 1288 709 1289 504 1289 505 1289 710 1290 709 1290 505 1290 710 1291 505 1291 506 1291 711 1292 710 1292 506 1292 711 1293 506 1293 508 1293 712 1294 711 1294 508 1294 712 1295 508 1295 510 1295 713 1296 510 1296 512 1296 713 1297 712 1297 510 1297 714 1298 512 1298 514 1298 714 1299 713 1299 512 1299 715 1300 514 1300 516 1300 715 1301 714 1301 514 1301 716 1302 516 1302 518 1302 716 1303 715 1303 516 1303 717 1304 518 1304 520 1304 717 1305 716 1305 518 1305 718 1306 717 1306 520 1306 718 1307 520 1307 522 1307 719 1308 718 1308 522 1308 719 1309 522 1309 524 1309 720 1310 719 1310 524 1310 720 1311 524 1311 526 1311 721 1312 720 1312 526 1312 721 1313 526 1313 528 1313 722 1314 721 1314 528 1314 722 1315 528 1315 530 1315 723 1316 722 1316 530 1316 723 1317 530 1317 532 1317 724 1318 723 1318 532 1318 724 1319 532 1319 534 1319 725 1320 724 1320 534 1320 725 1321 534 1321 536 1321 726 1322 725 1322 536 1322 726 1323 536 1323 538 1323 726 1324 538 1324 540 1324 727 1325 726 1325 540 1325 728 1326 727 1326 540 1326 728 1327 540 1327 542 1327 729 1328 728 1328 542 1328 729 1329 542 1329 544 1329 730 1330 544 1330 546 1330 730 1331 729 1331 544 1331 731 1332 546 1332 548 1332 731 1333 730 1333 546 1333 732 1334 548 1334 550 1334 732 1335 731 1335 548 1335 733 1336 550 1336 552 1336 733 1337 732 1337 550 1337 734 1338 552 1338 554 1338 734 1339 733 1339 552 1339 735 1340 554 1340 556 1340 735 1341 734 1341 554 1341 736 1342 556 1342 558 1342 736 1343 735 1343 556 1343 737 1344 558 1344 560 1344 737 1345 736 1345 558 1345 738 1346 560 1346 562 1346 738 1347 737 1347 560 1347 739 1348 562 1348 564 1348 739 1349 738 1349 562 1349 740 1350 564 1350 566 1350 740 1351 739 1351 564 1351 741 1352 566 1352 568 1352 741 1353 740 1353 566 1353 742 1354 568 1354 570 1354 742 1355 741 1355 568 1355 743 1356 742 1356 570 1356 743 1357 570 1357 573 1357 744 1358 743 1358 573 1358 744 1359 573 1359 574 1359 745 1360 744 1360 574 1360 745 1361 574 1361 576 1361 746 1362 745 1362 576 1362 746 1363 576 1363 577 1363 747 1364 577 1364 580 1364 747 1365 746 1365 577 1365 748 1366 580 1366 582 1366 748 1367 747 1367 580 1367 749 1368 582 1368 584 1368 749 1369 748 1369 582 1369 750 1370 584 1370 587 1370 750 1371 749 1371 584 1371 751 1372 587 1372 588 1372 751 1373 750 1373 587 1373 752 1374 588 1374 590 1374 752 1375 751 1375 588 1375 753 1376 590 1376 591 1376 753 1377 752 1377 590 1377 754 1378 591 1378 594 1378 754 1379 753 1379 591 1379 755 1380 594 1380 596 1380 755 1381 754 1381 594 1381 630 1382 596 1382 600 1382 630 1383 755 1383 596 1383 711 1384 709 1384 710 1384 705 1385 706 1385 707 1385 705 1386 707 1386 708 1386 713 1387 711 1387 712 1387 704 1388 705 1388 708 1388 704 1389 708 1389 709 1389 715 1390 713 1390 714 1390 702 1391 703 1391 704 1391 716 1392 711 1392 713 1392 716 1393 713 1393 715 1393 720 1394 716 1394 717 1394 720 1395 717 1395 718 1395 720 1396 718 1396 719 1396 697 1397 698 1397 699 1397 696 1398 699 1398 700 1398 696 1399 700 1399 701 1399 696 1400 697 1400 699 1400 723 1401 720 1401 721 1401 723 1402 721 1402 722 1402 725 1403 709 1403 711 1403 725 1404 711 1404 716 1404 725 1405 716 1405 720 1405 725 1406 720 1406 723 1406 725 1407 723 1407 724 1407 692 1408 693 1408 694 1408 692 1409 694 1409 695 1409 690 1410 691 1410 692 1410 690 1411 695 1411 696 1411 690 1412 692 1412 695 1412 728 1413 726 1413 727 1413 689 1414 690 1414 696 1414 729 1415 726 1415 728 1415 729 1416 725 1416 726 1416 687 1417 702 1417 704 1417 687 1418 688 1418 689 1418 687 1419 701 1419 702 1419 687 1420 696 1420 701 1420 687 1421 689 1421 696 1421 733 1422 730 1422 731 1422 733 1423 731 1423 732 1423 684 1424 685 1424 686 1424 684 1425 686 1425 687 1425 683 1426 687 1426 704 1426 683 1427 725 1427 729 1427 683 1428 684 1428 687 1428 683 1429 704 1429 709 1429 683 1430 709 1430 725 1430 683 1431 729 1431 730 1431 735 1432 733 1432 734 1432 736 1433 733 1433 735 1433 681 1434 730 1434 733 1434 681 1435 683 1435 730 1435 681 1436 682 1436 683 1436 738 1437 736 1437 737 1437 739 1438 736 1438 738 1438 740 1439 733 1439 736 1439 740 1440 736 1440 739 1440 676 1441 677 1441 678 1441 676 1442 678 1442 679 1442 675 1443 681 1443 733 1443 675 1444 676 1444 679 1444 675 1445 679 1445 680 1445 675 1446 680 1446 681 1446 744 1447 741 1447 742 1447 744 1448 742 1448 743 1448 745 1449 740 1449 741 1449 745 1450 733 1450 740 1450 745 1451 741 1451 744 1451 671 1452 672 1452 673 1452 671 1453 673 1453 674 1453 747 1454 745 1454 746 1454 749 1455 747 1455 748 1455 667 1456 668 1456 669 1456 667 1457 669 1457 670 1457 667 1458 670 1458 671 1458 667 1459 671 1459 674 1459 752 1460 749 1460 750 1460 752 1461 750 1461 751 1461 753 1462 749 1462 752 1462 664 1463 665 1463 666 1463 664 1464 666 1464 667 1464 664 1465 674 1465 675 1465 664 1466 667 1466 674 1466 631 1467 755 1467 630 1467 660 1468 749 1468 753 1468 660 1469 755 1469 631 1469 660 1470 753 1470 754 1470 660 1471 754 1471 755 1471 660 1472 661 1472 662 1472 660 1473 662 1473 663 1473 660 1474 663 1474 664 1474 660 1475 675 1475 733 1475 660 1476 733 1476 745 1476 660 1477 745 1477 747 1477 660 1478 747 1478 749 1478 660 1479 664 1479 675 1479 658 1480 659 1480 660 1480 634 1481 632 1481 633 1481 657 1482 658 1482 660 1482 636 1483 634 1483 635 1483 637 1484 632 1484 634 1484 637 1485 634 1485 636 1485 654 1486 631 1486 632 1486 654 1487 660 1487 631 1487 654 1488 655 1488 656 1488 654 1489 656 1489 657 1489 654 1490 657 1490 660 1490 638 1491 654 1491 632 1491 638 1492 632 1492 637 1492 651 1493 652 1493 653 1493 651 1494 653 1494 654 1494 641 1495 638 1495 639 1495 641 1496 639 1496 640 1496 650 1497 651 1497 654 1497 649 1498 641 1498 642 1498 649 1499 654 1499 638 1499 649 1500 638 1500 641 1500 649 1501 650 1501 654 1501 645 1502 643 1502 644 1502 646 1503 642 1503 643 1503 646 1504 647 1504 648 1504 646 1505 648 1505 649 1505 646 1506 649 1506 642 1506 646 1507 643 1507 645 1507</p>
        </triangles>
      </mesh>
    </geometry>
  </library_geometries>
  <library_materials>
    <material id="mat_Body008" name="Body008">
      <instance_effect url="#effect_Body008"/>
    </material>
  </library_materials>
  <library_visual_scenes>
    <visual_scene id="scene">
      <node id="node0" name="node0">
        <instance_geometry url="#geometry0">
          <bind_material>
            <technique_common>
              <instance_material symbol="ref_Body008" target="#mat_Body008"/>
            </technique_common>
          </bind_material>
        </instance_geometry>
      </node>
    </visual_scene>
  </library_visual_scenes>
  <scene>
    <instance_visual_scene url="#scene"/>
  </scene>
</COLLADA>
