<COLLADA xmlns="http://www.collada.org/2005/11/COLLADASchema" version="1.4.1">
  <asset>
    <contributor/>
    <created>2026-10-08T20:06:59.780681</created>
    <modified>2026-10-08T20:06:59.780681</modified>
    <unit name="meter" meter="1.0"/>
    <up_axis>Z_UP</up_axis>
  </asset>
  <library_effects>
    <effect id="effect_Body014" name="effect_Body014">
      <profile_COMMON>
        <technique sid="common">
          <phong>
            <emission>
              <color>0.0 0.0 0.0 1.0</color>
            </emission>
            <ambient>
              <color>0.0 0.0 0.0 1.0</color>
            </ambient>
            <diffuse>
              <color>0.4470588266849518 0.4745098054409027 0.501960813999176 1.0</color>
            </diffuse>
            <specular>
              <color>1 1 1 1.0</color>
            </specular>
            <shininess>
              <float>0.0</float>
            </shininess>
            <reflective>
              <color>0.0 0.0 0.0 1.0</color>
            </reflective>
            <reflectivity>
              <float>0.0</float>
            </reflectivity>
            <transparent>
              <color>0.0 0.0 0.0 1.0</color>
            </transparent>
            <transparency>
              <float>1.0</float>
            </transparency>
          </phong>
        </technique>
        <extra>
          <technique profile="GOOGLEEARTH">
            <double_sided>0</double_sided>
          </technique>
        </extra>
      </profile_COMMON>
    </effect>
  </library_effects>
  <library_geometries>
    <geometry id="geometry0" name="J4_Spindle">
      <mesh>
        <source id="cubeverts-array0">
          <float_array count="1512" id="cubeverts-array0-array">0.015 0 0 0.01498135 0.0007476883 0 0.015 0 0.008 0.01498135 0.0007476883 0.008 0.01492546 0.001493518 0 0.01492546 0.001493518 0.008 0.01483246 0.002235634 0 0.01483246 0.002235634 0.008 0.01470259 0.002972192 0 0.01470259 0.002972192 0.008 0.01453616 0.003701361 0 0.01453616 0.003701361 0.008 0.01433359 0.004421328 0 0.01433359 0.004421328 0.008 0.01409539 0.005130302 0.008 0.01409539 0.005130302 0 0.01382214 0.005826522 0 0.01382214 0.005826522 0.008 0.01351453 0.006508256 0 0.01351453 0.006508256 0.008 0.01317332 0.00717381 0 0.01317332 0.00717381 0.008 0.01279936 0.007821528 0.008 0.01279936 0.007821528 0 0.01239358 0.0084498 0 0.01239358 0.0084498 0.008 0.01195699 0.009057066 0 0.01195699 0.009057066 0.008 0.01149067 0.009641814 0 0.01149067 0.009641814 0.008 0.01099578 0.01020259 0 0.01099578 0.01020259 0.008 0.01047355 0.010738 0 0.01047355 0.010738 0.008 0.009925287 0.01124672 0 0.009925287 0.01124672 0.008 0.009352347 0.01172747 0.008 0.009352347 0.01172747 0 0.008756155 0.01217907 0 0.008756155 0.01217907 0.008 0.008138194 0.01260039 0 0.008138194 0.01260039 0.008 0.0075 0.01299038 0.008 0.0075 0.01299038 0 0.00684316 0.01334808 0.008 0.00684316 0.01334808 0 0.006169307 0.01367259 0 0.006169307 0.01367259 0.008 0.005480115 0.01396311 0 0.005480115 0.01396311 0.008 0.0047773 0.01421891 0 0.0047773 0.01421891 0.008 0.004062607 0.01443936 0 0.004062607 0.01443936 0.008 0.003337814 0.01462392 0 0.003337814 0.01462392 0.008 0.002604723 0.01477212 0 0.002604723 0.01477212 0.008 0.001865156 0.01488359 0 0.001865156 0.01488359 0.008 0.001120951 0.01495806 0 0.001120951 0.01495806 0.008 0.0003739604 0.01499534 0 0.0003739604 0.01499534 0.008 -0.0003739604 0.01499534 0 -0.0003739604 0.01499534 0.008 -0.001120951 0.01495806 0.008 -0.001120951 0.01495806 0 -0.001865156 0.01488359 0 -0.001865156 0.01488359 0.008 -0.002604723 0.01477212 0 -0.002604723 0.01477212 0.008 -0.003337814 0.01462392 0 -0.003337814 0.01462392 0.008 -0.004062607 0.01443936 0 -0.004062607 0.01443936 0.008 -0.0047773 0.01421891 0 -0.0047773 0.01421891 0.008 -0.005480115 0.01396311 0 -0.005480115 0.01396311 0.008 -0.006169307 0.01367259 0 -0.006169307 0.01367259 0.008 -0.00684316 0.01334808 0 -0.00684316 0.01334808 0.008 -0.0075 0.01299038 0 -0.0075 0.01299038 0.008 -0.008138194 0.01260039 0 -0.008138194 0.01260039 0.008 -0.008756155 0.01217907 0 -0.008756155 0.01217907 0.008 -0.009352347 0.01172747 0 -0.009352347 0.01172747 0.008 -0.009925287 0.01124672 0 -0.009925287 0.01124672 0.008 -0.01047355 0.010738 0 -0.01047355 0.010738 0.008 -0.01099578 0.01020259 0 -0.01099578 0.01020259 0.008 -0.01149067 0.009641814 0 -0.01149067 0.009641814 0.008 -0.01195699 0.009057066 0 -0.01195699 0.009057066 0.008 -0.01239358 0.0084498 0 -0.01239358 0.0084498 0.008 -0.01279936 0.007821528 0 -0.01279936 0.007821528 0.008 -0.01317332 0.00717381 0.008 -0.01317332 0.00717381 0 -0.01351453 0.006508256 0 -0.01351453 0.006508256 0.008 -0.01382214 0.005826522 0 -0.01382214 0.005826522 0.008 -0.01409539 0.005130302 0 -0.01409539 0.005130302 0.008 -0.01433359 0.004421328 0 -0.01433359 0.004421328 0.008 -0.01453616 0.003701361 0 -0.01453616 0.003701361 0.008 -0.01470259 0.002972192 0 -0.01470259 0.002972192 0.008 -0.01483246 0.002235634 0 -0.01483246 0.002235634 0.008 -0.01492546 0.001493518 0 -0.01492546 0.001493518 0.008 -0.01498135 0.0007476883 0 -0.01498135 0.0007476883 0.008 -0.015 -5.145373e-17 0 -0.015 -5.145373e-17 0.008 -0.01498135 -0.0007476883 0 -0.01498135 -0.0007476883 0.008 -0.01492546 -0.001493518 0 -0.01492546 -0.001493518 0.008 -0.01483246 -0.002235634 0 -0.01483246 -0.002235634 0.008 -0.01470259 -0.002972192 0 -0.01470259 -0.002972192 0.008 -0.01453616 -0.003701361 0 -0.01453616 -0.003701361 0.008 -0.01433359 -0.004421328 0 -0.01433359 -0.004421328 0.008 -0.01409539 -0.005130302 0 -0.01409539 -0.005130302 0.008 -0.01382214 -0.005826522 0 -0.01382214 -0.005826522 0.008 -0.01351453 -0.006508256 0 -0.01351453 -0.006508256 0.008 -0.01317332 -0.00717381 0 -0.01317332 -0.00717381 0.008 -0.01279936 -0.007821528 0 -0.01279936 -0.007821528 0.008 -0.01239358 -0.0084498 0 -0.01239358 -0.0084498 0.008 -0.01195699 -0.009057066 0 -0.01195699 -0.009057066 0.008 -0.01149067 -0.009641814 0 -0.01149067 -0.009641814 0.008 -0.01099578 -0.01020259 0 -0.01099578 -0.01020259 0.008 -0.01047355 -0.010738 0 -0.01047355 -0.010738 0.008 -0.009925287 -0.01124672 0 -0.009925287 -0.01124672 0.008 -0.009352347 -0.01172747 0 -0.009352347 -0.01172747 0.008 -0.008756155 -0.01217907 0 -0.008756155 -0.01217907 0.008 -0.008138194 -0.01260039 0 -0.008138194 -0.01260039 0.008 -0.0075 -0.01299038 0 -0.0075 -0.01299038 0.008 -0.00684316 -0.01334808 0 -0.00684316 -0.01334808 0.008 -0.006169307 -0.01367259 0 -0.006169307 -0.01367259 0.008 -0.005480115 -0.01396311 0 -0.005480115 -0.01396311 0.008 -0.0047773 -0.01421891 0 -0.0047773 -0.01421891 0.008 -0.004062607 -0.01443936 0 -0.004062607 -0.01443936 0.008 -0.003337814 -0.01462392 0 -0.003337814 -0.01462392 0.008 -0.002604723 -0.01477212 0 -0.002604723 -0.01477212 0.008 -0.001865156 -0.01488359 0 -0.001865156 -0.01488359 0.008 -0.001120951 -0.01495806 0 -0.001120951 -0.01495806 0.008 -0.0003739604 -0.01499534 0 -0.0003739604 -0.01499534 0.008 0.0003739604 -0.01499534 0 0.0003739604 -0.01499534 0.008 0.001120951 -0.01495806 0 0.001120951 -0.01495806 0.008 0.001865156 -0.01488359 0 0.001865156 -0.01488359 0.008 0.002604723 -0.01477212 0 0.002604723 -0.01477212 0.008 0.003337814 -0.01462392 0 0.003337814 -0.01462392 0.008 0.004062607 -0.01443936 0 0.004062607 -0.01443936 0.008 0.0047773 -0.01421891 0 0.0047773 -0.01421891 0.008 0.005480115 -0.01396311 0 0.005480115 -0.01396311 0.008 0.006169307 -0.01367259 0 0.006169307 -0.01367259 0.008 0.00684316 -0.01334808 0 0.00684316 -0.01334808 0.008 0.0075 -0.01299038 0 0.0075 -0.01299038 0.008 0.008138194 -0.01260039 0 0.008138194 -0.01260039 0.008 0.008756155 -0.01217907 0 0.008756155 -0.01217907 0.008 0.009352347 -0.01172747 0 0.009352347 -0.01172747 0.008 0.009925287 -0.01124672 0 0.009925287 -0.01124672 0.008 0.01047355 -0.010738 0 0.01047355 -0.010738 0.008 0.01099578 -0.01020259 0 0.01099578 -0.01020259 0.008 0.01149067 -0.009641814 0 0.01149067 -0.009641814 0.008 0.01195699 -0.009057066 0 0.01195699 -0.009057066 0.008 0.01239358 -0.0084498 0 0.01239358 -0.0084498 0.008 0.01279936 -0.007821528 0 0.01279936 -0.007821528 0.008 0.01317332 -0.00717381 0 0.01317332 -0.00717381 0.008 0.01351453 -0.006508256 0 0.01351453 -0.006508256 0.008 0.01382214 -0.005826522 0 0.01382214 -0.005826522 0.008 0.01409539 -0.005130302 0 0.01409539 -0.005130302 0.008 0.01433359 -0.004421328 0 0.01433359 -0.004421328 0.008 0.01453616 -0.003701361 0 0.01453616 -0.003701361 0.008 0.01470259 -0.002972192 0 0.01470259 -0.002972192 0.008 0.01483246 -0.002235634 0 0.01483246 -0.002235634 0.008 0.01492546 -0.001493518 0 0.01492546 -0.001493518 0.008 0.01498135 -0.0007476883 0 0.01498135 -0.0007476883 0.008 -0.005236776 -0.005369001 0.008 -0.005497889 -0.005101295 0.008 -0.004962644 -0.005623359 0.008 -0.005745333 -0.004820907 0.008 -0.004676174 -0.005863736 0.008 -0.005978494 -0.004528533 0.008 -0.004378078 -0.006089535 0.008 -0.006196791 -0.0042249 0.008 -0.004069097 -0.006300194 0.008 -0.006399682 -0.003910764 0.008 -0.00375 -0.006495191 0.008 -0.006586662 -0.003586905 0.008 -0.00342158 -0.006674038 0.008 -0.006757267 -0.003254128 0.008 -0.003084653 -0.006836294 0.008 -0.006911072 -0.002913261 0.008 -0.002740058 -0.006981553 0.008 -0.007047695 -0.002565151 0.008 -0.00238865 -0.007109455 0.008 -0.007166796 -0.002210664 0.008 -0.002031303 -0.007219682 0.008 -0.00726808 -0.00185068 0.008 -0.001668907 -0.007311959 0.008 -0.007351294 -0.001486096 0.008 -0.001302361 -0.007386058 0.008 -0.007416231 -0.001117817 0.008 -0.0009325778 -0.007441794 0.008 -0.007462731 -0.0007467589 0.008 -0.0005604757 -0.007479029 0.008 -0.007490677 -0.0003738441 0.008 -0.0001869802 -0.007497669 0.008 -0.0075 -2.572687e-17 0.008 0.0001869802 -0.007497669 0.008 -0.007490677 0.0003738441 0.008 0.0005604757 -0.007479029 0.008 -0.007462731 0.0007467589 0.008 0.0009325778 -0.007441794 0.008 -0.007416231 0.001117817 0.008 0.001302361 -0.007386058 0.008 -0.007351294 0.001486096 0.008 0.001668907 -0.007311959 0.008 -0.00726808 0.00185068 0.008 0.002031303 -0.007219682 0.008 -0.007166796 0.002210664 0.008 0.00238865 -0.007109455 0.008 -0.007047695 0.002565151 0.008 0.002740058 -0.006981553 0.008 -0.006911072 0.002913261 0.008 0.003084653 -0.006836294 0.008 -0.006757267 0.003254128 0.008 0.00342158 -0.006674038 0.008 -0.006586662 0.003586905 0.008 0.00375 -0.006495191 0.008 -0.006399682 0.003910764 0.008 0.004069097 -0.006300194 0.008 -0.006196791 0.0042249 0.008 0.004378078 -0.006089535 0.008 -0.005978494 0.004528533 0.008 0.004676174 -0.005863736 0.008 -0.005745333 0.004820907 0.008 0.004962644 -0.005623359 0.008 -0.005497889 0.005101295 0.008 0.005236776 -0.005369001 0.008 -0.005236776 0.005369001 0.008 0.005497889 -0.005101295 0.008 0.005745333 -0.004820907 0.008 -0.004962644 0.005623359 0.008 -0.004676174 0.005863736 0.008 -0.004378078 0.006089535 0.008 0.005978494 -0.004528533 0.008 0.006196791 -0.0042249 0.008 0.006399682 -0.003910764 0.008 -0.004069097 0.006300194 0.008 -0.00375 0.006495191 0.008 0.006586662 -0.003586905 0.008 -0.00342158 0.006674038 0.008 0.006757267 -0.003254128 0.008 -0.003084653 0.006836294 0.008 -0.002740058 0.006981553 0.008 0.006911072 -0.002913261 0.008 0.007047695 -0.002565151 0.008 -0.00238865 0.007109455 0.008 0.007166796 -0.002210664 0.008 -0.002031303 0.007219682 0.008 0.00726808 -0.00185068 0.008 -0.001668907 0.007311959 0.008 -0.001302361 0.007386058 0.008 0.007351294 -0.001486096 0.008 0.007416231 -0.001117817 0.008 -0.0009325778 0.007441794 0.008 0.007462731 -0.0007467589 0.008 -0.0005604757 0.007479029 0.008 -0.0001869802 0.007497669 0.008 0.007490677 -0.0003738441 0.008 0.0075 0 0.008 0.0001869802 0.007497669 0.008 0.007490677 0.0003738441 0.008 0.0005604757 0.007479029 0.008 0.007462731 0.0007467589 0.008 0.0009325778 0.007441794 0.008 0.007416231 0.001117817 0.008 0.001302361 0.007386058 0.008 0.007351294 0.001486096 0.008 0.001668907 0.007311959 0.008 0.00726808 0.00185068 0.008 0.002031303 0.007219682 0.008 0.007166796 0.002210664 0.008 0.00238865 0.007109455 0.008 0.007047695 0.002565151 0.008 0.006911072 0.002913261 0.008 0.002740058 0.006981553 0.008 0.003084653 0.006836294 0.008 0.006757267 0.003254128 0.008 0.00342158 0.006674038 0.008 0.00375 0.006495191 0.008 0.006586662 0.003586905 0.008 0.006399682 0.003910764 0.008 0.004069097 0.006300194 0.008 0.006196791 0.0042249 0.008 0.004378078 0.006089535 0.008 0.005978494 0.004528533 0.008 0.004676174 0.005863736 0.008 0.004962644 0.005623359 0.008 0.005745333 0.004820907 0.008 0.005497889 0.005101295 0.008 0.005236776 0.005369001 0.008 0.007490677 0.0003738441 0.044 0.0075 0 0.044 0.007462731 0.0007467589 0.044 0.007416231 0.001117817 0.044 0.007351294 0.001486096 0.044 0.00726808 0.00185068 0.044 0.007166796 0.002210664 0.044 0.007047695 0.002565151 0.044 0.006911072 0.002913261 0.044 0.006757267 0.003254128 0.044 0.006586662 0.003586905 0.044 0.006399682 0.003910764 0.044 0.006196791 0.0042249 0.044 0.005978494 0.004528533 0.044 0.005745333 0.004820907 0.044 0.005497889 0.005101295 0.044 0.005236776 0.005369001 0.044 0.004962644 0.005623359 0.044 0.004676174 0.005863736 0.044 0.004378078 0.006089535 0.044 0.004069097 0.006300194 0.044 0.00375 0.006495191 0.044 0.00342158 0.006674038 0.044 0.003084653 0.006836294 0.044 0.002740058 0.006981553 0.044 0.00238865 0.007109455 0.044 0.002031303 0.007219682 0.044 0.001668907 0.007311959 0.044 0.001302361 0.007386058 0.044 0.0009325778 0.007441794 0.044 0.0005604757 0.007479029 0.044 0.0001869802 0.007497669 0.044 -0.0001869802 0.007497669 0.044 -0.0005604757 0.007479029 0.044 -0.0009325778 0.007441794 0.044 -0.001302361 0.007386058 0.044 -0.001668907 0.007311959 0.044 -0.002031303 0.007219682 0.044 -0.00238865 0.007109455 0.044 -0.002740058 0.006981553 0.044 -0.003084653 0.006836294 0.044 -0.00342158 0.006674038 0.044 -0.00375 0.006495191 0.044 -0.004069097 0.006300194 0.044 -0.004378078 0.006089535 0.044 -0.004676174 0.005863736 0.044 -0.004962644 0.005623359 0.044 -0.005236776 0.005369001 0.044 -0.005497889 0.005101295 0.044 -0.005745333 0.004820907 0.044 -0.005978494 0.004528533 0.044 -0.006196791 0.0042249 0.044 -0.006399682 0.003910764 0.044 -0.006586662 0.003586905 0.044 -0.006757267 0.003254128 0.044 -0.006911072 0.002913261 0.044 -0.007047695 0.002565151 0.044 -0.007166796 0.002210664 0.044 -0.00726808 0.00185068 0.044 -0.007351294 0.001486096 0.044 -0.007416231 0.001117817 0.044 -0.007462731 0.0007467589 0.044 -0.007490677 0.0003738441 0.044 -0.0075 -2.572687e-17 0.044 -0.007490677 -0.0003738441 0.044 -0.007462731 -0.0007467589 0.044 -0.007416231 -0.001117817 0.044 -0.007351294 -0.001486096 0.044 -0.00726808 -0.00185068 0.044 -0.007166796 -0.002210664 0.044 -0.007047695 -0.002565151 0.044 -0.006911072 -0.002913261 0.044 -0.006757267 -0.003254128 0.044 -0.006586662 -0.003586905 0.044 -0.006399682 -0.003910764 0.044 -0.006196791 -0.0042249 0.044 -0.005978494 -0.004528533 0.044 -0.005745333 -0.004820907 0.044 -0.005497889 -0.005101295 0.044 -0.005236776 -0.005369001 0.044 -0.004962644 -0.005623359 0.044 -0.004676174 -0.005863736 0.044 -0.004378078 -0.006089535 0.044 -0.004069097 -0.006300194 0.044 -0.00375 -0.006495191 0.044 -0.00342158 -0.006674038 0.044 -0.003084653 -0.006836294 0.044 -0.002740058 -0.006981553 0.044 -0.00238865 -0.007109455 0.044 -0.002031303 -0.007219682 0.044 -0.001668907 -0.007311959 0.044 -0.001302361 -0.007386058 0.044 -0.0009325778 -0.007441794 0.044 -0.0005604757 -0.007479029 0.044 -0.0001869802 -0.007497669 0.044 0.0001869802 -0.007497669 0.044 0.0005604757 -0.007479029 0.044 0.0009325778 -0.007441794 0.044 0.001302361 -0.007386058 0.044 0.001668907 -0.007311959 0.044 0.002031303 -0.007219682 0.044 0.00238865 -0.007109455 0.044 0.002740058 -0.006981553 0.044 0.003084653 -0.006836294 0.044 0.00342158 -0.006674038 0.044 0.00375 -0.006495191 0.044 0.004069097 -0.006300194 0.044 0.004378078 -0.006089535 0.044 0.004676174 -0.005863736 0.044 0.004962644 -0.005623359 0.044 0.005236776 -0.005369001 0.044 0.005497889 -0.005101295 0.044 0.005745333 -0.004820907 0.044 0.005978494 -0.004528533 0.044 0.006196791 -0.0042249 0.044 0.006399682 -0.003910764 0.044 0.006586662 -0.003586905 0.044 0.006757267 -0.003254128 0.044 0.006911072 -0.002913261 0.044 0.007047695 -0.002565151 0.044 0.007166796 -0.002210664 0.044 0.00726808 -0.00185068 0.044 0.007351294 -0.001486096 0.044 0.007416231 -0.001117817 0.044 0.007462731 -0.0007467589 0.044 0.007490677 -0.0003738441 0.044</float_array>
          <technique_common>
            <accessor count="504" source="#cubeverts-array0-array" stride="3">
              <param type="float" name="X"/>
              <param type="float" name="Y"/>
              <param type="float" name="Z"/>
            </accessor>
          </technique_common>
        </source>
        <source id="cubenormals-array0">
          <float_array count="3012" id="cubenormals-array0-array">0.9996892 0.02493077 -0 0.9996892 0.02493077 0 0.9972038 0.07472982 0 0.9972038 0.07472982 -0 0.9922392 0.124344 0 0.9922392 0.124344 -0 0.9848077 0.1736484 0 0.9848077 0.1736484 -0 0.974928 0.2225204 0 0.974928 0.2225204 -0 0.9626243 0.2708403 0 0.9479272 0.318487 0 0.9626243 0.2708403 -0 0.9479272 0.318487 0 0.9308739 0.3653406 0 0.9308739 0.3653406 -0 0.9115056 0.4112875 0 0.9115056 0.4112875 -0 0.8898718 0.4562106 0 0.8660253 0.5000001 0 0.8898718 0.4562106 -0 0.8660253 0.5000001 0 0.8400257 0.5425466 -0 0.8400257 0.5425466 0 0.8119381 0.5837436 -0 0.8119381 0.5837436 0 0.7818316 0.6234896 -0 0.7818316 0.6234896 0 0.7497813 0.6616858 -0 0.7497813 0.6616858 0 0.7158672 0.6982364 -0 0.7158672 0.6982364 0 0.6801724 0.7330521 -0 0.6801724 0.7330521 0 0.6427878 0.7660443 0 0.6427878 0.7660443 0 0.6038044 0.7971325 -0 0.6038044 0.7971325 0 0.5633195 0.8262391 -0 0.5633195 0.8262391 0 0.5214356 0.8532906 0 0.5214356 0.8532906 0 0.4782534 0.8782219 0 0.4782534 0.8782219 0 0.4338838 0.9009688 0 0.4338838 0.9009688 -0 0.3884351 0.9214761 0 0.3884351 0.9214761 -0 0.3420203 0.9396925 0 0.3420203 0.9396925 -0 0.2947547 0.955573 0 0.2947547 0.955573 -0 0.2467576 0.9690772 0 0.2467576 0.9690772 -0 0.1981468 0.9801723 0 0.1981468 0.9801723 -0 0.1490414 0.9888309 0 0.1490414 0.9888309 -0 0.09956878 0.9950306 0 0.09956878 0.9950306 -0 0.04984497 0.9987569 0 0.04984497 0.9987569 -0 0 1 0 -0.04984497 0.9987569 0 0 1 -0 -0.04984497 0.9987569 0 -0.09956878 0.9950306 0 -0.09956878 0.9950306 0 -0.1490414 0.9888309 0 -0.1490414 0.9888309 0 -0.1981468 0.9801723 0 -0.1981468 0.9801723 0 -0.2467576 0.9690772 0 -0.2467576 0.9690772 0 -0.2947547 0.955573 0 -0.2947547 0.955573 0 -0.3420203 0.9396925 0 -0.3420203 0.9396925 0 -0.3884351 0.9214761 0 -0.3884351 0.9214761 0 -0.4338838 0.9009688 0 -0.4338838 0.9009688 0 -0.4782534 0.8782219 0 -0.4782534 0.8782219 0 -0.5214356 0.8532906 0 -0.5214356 0.8532906 0 -0.5633195 0.8262391 0 -0.5633195 0.8262391 0 -0.6038044 0.7971325 0 -0.6038044 0.7971325 0 -0.6427878 0.7660443 0 -0.6427878 0.7660443 0 -0.6801724 0.7330521 0 -0.6801724 0.7330521 0 -0.7158672 0.6982364 0 -0.7158672 0.6982364 0 -0.7497813 0.6616858 0 -0.7497813 0.6616858 0 -0.7818316 0.6234896 0 -0.7818316 0.6234896 0 -0.8119381 0.5837436 0 -0.8119381 0.5837436 0 -0.8400257 0.5425466 0 -0.8400257 0.5425466 0 -0.8660253 0.5000001 0 -0.8660253 0.5000001 0 -0.8898718 0.4562106 0 -0.8898718 0.4562106 0 -0.9115056 0.4112875 0 -0.9115056 0.4112875 0 -0.9308739 0.3653406 0 -0.9308739 0.3653406 0 -0.9479272 0.318487 0 -0.9479272 0.318487 0 -0.9626243 0.2708403 0 -0.9626243 0.2708403 0 -0.974928 0.2225204 0 -0.974928 0.2225204 0 -0.9848077 0.1736484 0 -0.9848077 0.1736484 0 -0.9922392 0.124344 0 -0.9922392 0.124344 0 -0.9972038 0.07472982 0 -0.9972038 0.07472982 0 -0.9996892 0.02493077 0 -0.9996892 0.02493077 0 -0.9996892 -0.02493077 0 -0.9996892 -0.02493077 0 -0.9972038 -0.07472982 0 -0.9972038 -0.07472982 0 -0.9922392 -0.124344 0 -0.9922392 -0.124344 0 -0.9848077 -0.1736484 0 -0.9848077 -0.1736484 0 -0.974928 -0.2225204 0 -0.974928 -0.2225204 0 -0.9626243 -0.2708403 0 -0.9626243 -0.2708403 0 -0.9479272 -0.318487 0 -0.9479272 -0.318487 0 -0.9308739 -0.3653406 0 -0.9308739 -0.3653406 0 -0.9115056 -0.4112875 0 -0.9115056 -0.4112875 0 -0.8898718 -0.4562106 0 -0.8898718 -0.4562106 0 -0.8660253 -0.5000001 0 -0.8660253 -0.5000001 0 -0.8400257 -0.5425466 0 -0.8400257 -0.5425466 0 -0.8119381 -0.5837436 0 -0.8119381 -0.5837436 0 -0.7818316 -0.6234896 0 -0.7818316 -0.6234896 0 -0.7497813 -0.6616858 0 -0.7497813 -0.6616858 0 -0.7158672 -0.6982364 0 -0.7158672 -0.6982364 0 -0.6801724 -0.7330521 0 -0.6801724 -0.7330521 0 -0.6427878 -0.7660443 0 -0.6427878 -0.7660443 0 -0.6038044 -0.7971325 0 -0.6038044 -0.7971325 0 -0.5633195 -0.8262391 0 -0.5633195 -0.8262391 0 -0.5214356 -0.8532906 0 -0.5214356 -0.8532906 0 -0.4782534 -0.8782219 0 -0.4782534 -0.8782219 0 -0.4338838 -0.9009688 0 -0.4338838 -0.9009688 0 -0.3884351 -0.9214761 0 -0.3884351 -0.9214761 0 -0.3420203 -0.9396925 0 -0.3420203 -0.9396925 0 -0.2947547 -0.955573 0 -0.2947547 -0.955573 0 -0.2467576 -0.9690772 0 -0.2467576 -0.9690772 0 -0.1981468 -0.9801723 0 -0.1981468 -0.9801723 0 -0.1490414 -0.9888309 0 -0.1490414 -0.9888309 0 -0.09956878 -0.9950306 0 -0.09956878 -0.9950306 0 -0.04984497 -0.9987569 0 -0.04984497 -0.9987569 0 0 -1 0 0 -1 0 0.04984497 -0.9987569 0 0.04984497 -0.9987569 0 0.09956878 -0.9950306 0 0.09956878 -0.9950306 0 0.1490414 -0.9888309 0 0.1490414 -0.9888309 0 0.1981468 -0.9801723 0 0.1981468 -0.9801723 0 0.2467576 -0.9690772 0 0.2467576 -0.9690772 0 0.2947547 -0.955573 0 0.2947547 -0.955573 0 0.3420203 -0.9396925 0 0.3420203 -0.9396925 0 0.3884351 -0.9214761 0 0.3884351 -0.9214761 0 0.4338838 -0.9009688 0 0.4338838 -0.9009688 0 0.4782534 -0.8782219 0 0.4782534 -0.8782219 0 0.5214356 -0.8532906 0 0.5214356 -0.8532906 0 0.5633195 -0.8262391 0 0.5633195 -0.8262391 0 0.6038044 -0.7971325 0 0.6038044 -0.7971325 0 0.6427878 -0.7660443 0 0.6427878 -0.7660443 0 0.6801724 -0.7330521 0 0.6801724 -0.7330521 0 0.7158672 -0.6982364 0 0.7158672 -0.6982364 0 0.7497813 -0.6616858 0 0.7497813 -0.6616858 0 0.7818316 -0.6234896 0 0.7818316 -0.6234896 0 0.8119381 -0.5837436 0 0.8119381 -0.5837436 0 0.8400257 -0.5425466 0 0.8400257 -0.5425466 0 0.8660253 -0.5000001 0 0.8660253 -0.5000001 0 0.8898718 -0.4562106 0 0.8898718 -0.4562106 0 0.9115056 -0.4112875 0 0.9115056 -0.4112875 0 0.9308739 -0.3653406 0 0.9308739 -0.3653406 0 0.9479272 -0.318487 0 0.9479272 -0.318487 0 0.9626243 -0.2708403 0 0.9626243 -0.2708403 0 0.974928 -0.2225204 0 0.974928 -0.2225204 0 0.9848077 -0.1736484 0 0.9848077 -0.1736484 0 0.9922392 -0.124344 0 0.9922392 -0.124344 0 0.9972038 -0.07472982 0 0.9972038 -0.07472982 0 0.9996892 -0.02493077 0 0.9996892 -0.02493077 0 0 0 -1 0 0 -1 0 0 -1 0 0 -1 0 0 -1 0 0 -1 0 0 -1 0 0 -1 0 0 -1 0 0 -1 0 0 -1 0 0 -1 0 0 -1 0 0 -1 0 0 -1 0 0 -1 0 0 -1 0 0 -1 0 0 -1 0 0 -1 0 0 -1 0 0 -1 0 0 -1 0 0 -1 0 0 -1 0 0 -1 0 0 -1 0 0 -1 0 0 -1 0 -0 -1 0 -0 -1 0 0 -1 0 0 -1 0 0 -1 0 0 -1 0 -0 -1 0 -0 -1 0 -0 -1 0 0 -1 0 -0 -1 0 -0 -1 0 -0 -1 0 0 -1 0 0 -1 0 0 -1 0 0 -1 0 0 -1 0 0 -1 0 0 -1 0 -0 -1 0 -0 -1 0 -0 -1 0 0 -1 0 0 -1 0 -0 -1 0 -0 -1 0 -0 -1 0 0 -1 0 -0 -1 0 0 -1 0 0 -1 0 0 -1 0 0 -1 0 0 -1 0 0 -1 0 -0 -1 0 -0 -1 0 0 -1 0 -0 -1 0 -0 -1 0 -0 -1 0 -0 -1 0 0 -1 0 -0 -1 0 -0 -1 0 -0 -1 0 -0 -1 0 0 -1 0 0 -1 0 0 -1 0 -0 -1 0 -0 -1 0 -0 -1 0 0 -1 0 0 -1 0 0 -1 -0 -0 -1 0 0 -1 -0 -0 -1 0 0 -1 0 0 -1 -0 -0 -1 -0 -0 -1 -0 -0 -1 0 0 -1 0 0 -1 0 0 -1 0 0 -1 0 0 -1 0 0 -1 0 0 -1 0 0 -1 0 0 -1 -0 -0 -1 -0 -0 -1 0 0 -1 0 0 -1 -0 -0 -1 -0 -0 -1 0 -0 -1 -0 -0 -1 -0 -0 -1 0 0 -1 0 0 -1 0 0 -1 -0 -0 -1 0 0 -1 -0 -0 -1 0 0 -1 0 0 -1 0 0 -1 -0 -0 -1 -0 -0 -1 0 -0 -1 0 0 1 0 0 1 0 0 1 0 0 1 0 0 1 0 0 1 0 0 1 0 0 1 0 0 1 0 0 1 0 0 1 0 0 1 0 0 1 0 0 1 0 0 1 0 0 1 0 0 1 0 0 1 0 0 1 0 0 1 0 0 1 0 0 1 0 0 1 0 0 1 0 0 1 0 0 1 0 0 1 0 0 1 0 0 1 0 0 1 0 0 1 0 0 1 0 0 1 0 0 1 0 0 1 0 0 1 0 0 1 0 0 1 0 0 1 0 0 1 0 0 1 0 0 1 0 0 1 0 0 1 0 0 1 0 0 1 0 0 1 0 0 1 0 0 1 0 0 1 0 0 1 0 0 1 0 0 1 0 0 1 0 0 1 0 0 1 0 0 1 0 0 1 0 0 1 0 0 1 0 0 1 0 0 1 0 0 1 0 0 1 0 0 1 0 0 1 0 0 1 0 0 1 0 0 1 0 0 1 0 0 1 0 0 1 0 0 1 0 0 1 0 0 1 0 0 1 0 0 1 0 0 1 0 0 1 0 0 1 0 0 1 0 0 1 0 0 1 0 0 1 0 0 1 0 0 1 0 0 1 0 0 1 0 0 1 0 0 1 0 0 1 0 0 1 0 0 1 0 0 1 0 0 1 0 0 1 0 0 1 0 0 1 0 0 1 0 0 1 0 0 1 0 0 1 0 0 1 0 0 1 0 0 1 0 0 1 0 0 1 0 0 1 0 0 1 0 0 1 0 0 1 0 0 1 0 0 1 0 0 1 0 0 1 0 0 1 0 0 1 0 0 1 0 0 1 0 0 1 0 0 1 0 0 1 0 0 1 0 0 1 0 0 1 0 0 1 0 0 1 0 0 1 0 0 1 0 0 1 0 0 1 0 0 1 0 0 1 0 0 1 0 0 1 0 0 1 0 0 1 0 0 1 0 0 1 0 0 1 0 0 1 0 0 1 0 0 1 0 0 1 0 0 1 0 0 1 0 0 1 0 0 1 0 0 1 0 0 1 0 0 1 0 0 1 0 0 1 0 0 1 0 0 1 0 0 1 0 0 1 0 0 1 0 0 1 0 0 1 0 0 1 0 0 1 0 0 1 0 0 1 0 0 1 0 0 1 0 0 1 0 0 1 0 0 1 0 0 1 0 0 1 0 0 1 0 0 1 0 0 1 0 0 1 0 0 1 0 0 1 0 0 1 0 0 1 0 0 1 0 0 1 0 0 1 0 0 1 0 0 1 0 0 1 0 0 1 0 0 1 0 0 1 0 0 1 0 0 1 0 0 1 0 0 1 0 0 1 0 0 1 0 0 1 0 0 1 0 0 1 0 0 1 0 0 1 0 0 1 0 0 1 0 0 1 0 0 1 0 0 1 0 0 1 0 0 1 0 0 1 0 0 1 0 0 1 0 0 1 0 0 1 0 0 1 0 0 1 0 0 1 0 0 1 0 0 1 0 0 1 0 0 1 0 0 1 0 0 1 0 0 1 0 0 1 0 0 1 0 0 1 0 0 1 0 0 1 0 0 1 0 0 1 0 0 1 0 0 1 0 0 1 0 0 1 0 0 1 0 0 1 0 0 1 0 0 1 0 0 1 0 0 1 0 0 1 0 0 1 0 0 1 0 0 1 0 0 1 0 0 1 0 0 1 0 0 1 0 0 1 0 0 1 0 0 1 0 0 1 0 0 1 0 0 1 0.9996892 0.02493077 0 0.9996892 0.02493077 0 0.9972038 0.07472983 0 0.9972038 0.07472983 0 0.9922392 0.124344 0 0.9922392 0.124344 0 0.9848077 0.1736484 0 0.9848077 0.1736484 0 0.974928 0.2225204 0 0.9626243 0.2708403 0 0.974928 0.2225204 0 0.9626243 0.2708403 0 0.9479272 0.318487 0 0.9479272 0.318487 0 0.9308739 0.3653406 0 0.9308739 0.3653406 0 0.9115057 0.4112875 0 0.9115057 0.4112875 0 0.8898718 0.4562107 0 0.8660254 0.5000001 0 0.8898718 0.4562107 0 0.8660254 0.5000001 0 0.8400257 0.5425466 0 0.8400257 0.5425466 0 0.811938 0.5837435 0 0.811938 0.5837435 0 0.7818316 0.6234896 0 0.7818316 0.6234896 0 0.7497813 0.6616858 0 0.7158672 0.6982364 0 0.7497813 0.6616858 0 0.7158672 0.6982364 0 0.6801724 0.7330521 0 0.6801724 0.7330521 0 0.6427878 0.7660443 0 0.6427878 0.7660443 0 0.6038044 0.7971326 0 0.6038044 0.7971326 0 0.5633195 0.8262391 0 0.5214356 0.8532907 0 0.5633195 0.8262391 0 0.5214356 0.8532907 0 0.4782534 0.8782219 0 0.4338838 0.9009687 0 0.4782534 0.8782219 0 0.4338838 0.9009687 0 0.3884351 0.9214761 0 0.3420203 0.9396926 0 0.3884351 0.9214761 0 0.2947547 0.955573 0 0.3420203 0.9396926 0 0.2947547 0.955573 0 0.2467576 0.9690772 0 0.1981468 0.9801724 0 0.2467576 0.9690772 0 0.1981468 0.9801724 0 0.1490414 0.988831 0 0.09956878 0.9950306 0 0.1490414 0.988831 0 0.09956878 0.9950306 0 0.04984496 0.9987569 0 0 1 0 0.04984496 0.9987569 0 -0.04984496 0.9987569 0 -0 1 0 -0.04984496 0.9987569 0 -0.09956878 0.9950306 0 -0.09956878 0.9950306 0 -0.1490414 0.988831 0 -0.1981468 0.9801724 0 -0.1490414 0.988831 0 -0.2467576 0.9690772 0 -0.1981468 0.9801724 0 -0.2467576 0.9690772 0 -0.2947547 0.955573 0 -0.2947547 0.955573 0 -0.3420203 0.9396926 0 -0.3420203 0.9396926 0 -0.3884351 0.9214761 0 -0.3884351 0.9214761 0 -0.4338838 0.9009687 0 -0.4338838 0.9009687 0 -0.4782534 0.8782219 0 -0.4782534 0.8782219 0 -0.5214356 0.8532907 0 -0.5214356 0.8532907 0 -0.5633195 0.8262391 0 -0.5633195 0.8262391 0 -0.6038044 0.7971326 0 -0.6038044 0.7971326 0 -0.6427878 0.7660443 0 -0.6427878 0.7660443 0 -0.6801724 0.7330521 0 -0.6801724 0.7330521 0 -0.7158672 0.6982364 0 -0.7158672 0.6982364 0 -0.7497813 0.6616858 0 -0.7497813 0.6616858 0 -0.7818316 0.6234896 0 -0.7818316 0.6234896 0 -0.811938 0.5837435 0 -0.811938 0.5837435 0 -0.8400257 0.5425466 0 -0.8400257 0.5425466 0 -0.8660254 0.5000001 0 -0.8660254 0.5000001 0 -0.8898718 0.4562107 0 -0.8898718 0.4562107 0 -0.9115057 0.4112875 0 -0.9115057 0.4112875 0 -0.9308739 0.3653406 0 -0.9308739 0.3653406 0 -0.9479272 0.318487 0 -0.9479272 0.318487 0 -0.9626243 0.2708403 0 -0.9626243 0.2708403 0 -0.974928 0.2225204 0 -0.974928 0.2225204 0 -0.9848077 0.1736484 0 -0.9848077 0.1736484 0 -0.9922392 0.124344 0 -0.9922392 0.124344 0 -0.9972038 0.07472983 0 -0.9972038 0.07472983 0 -0.9996892 0.02493077 0 -0.9996892 0.02493077 0 -0.9996892 -0.02493077 0 -0.9996892 -0.02493077 -0 -0.9972038 -0.07472983 0 -0.9972038 -0.07472983 -0 -0.9922392 -0.124344 0 -0.9922392 -0.124344 -0 -0.9848077 -0.1736484 0 -0.9848077 -0.1736484 -0 -0.974928 -0.2225204 0 -0.974928 -0.2225204 -0 -0.9626243 -0.2708403 0 -0.9626243 -0.2708403 -0 -0.9479272 -0.318487 0 -0.9479272 -0.318487 -0 -0.9308739 -0.3653406 0 -0.9308739 -0.3653406 -0 -0.9115057 -0.4112875 0 -0.9115057 -0.4112875 -0 -0.8898718 -0.4562107 0 -0.8898718 -0.4562107 -0 -0.8660254 -0.5000001 0 -0.8660254 -0.5000001 -0 -0.8400257 -0.5425466 0 -0.8400257 -0.5425466 -0 -0.811938 -0.5837435 -0 -0.811938 -0.5837435 -0 -0.7818316 -0.6234896 0 -0.7818316 -0.6234896 -0 -0.7497813 -0.6616858 0 -0.7497813 -0.6616858 -0 -0.7158672 -0.6982364 0 -0.7158672 -0.6982364 -0 -0.6801724 -0.7330521 -0 -0.6801724 -0.7330521 -0 -0.6427878 -0.7660443 0 -0.6427878 -0.7660443 -0 -0.6038044 -0.7971326 -0 -0.6038044 -0.7971326 -0 -0.5633195 -0.8262391 -0 -0.5633195 -0.8262391 0 -0.5214356 -0.8532907 -0 -0.5214356 -0.8532907 -0 -0.4782534 -0.8782219 -0 -0.4782534 -0.8782219 0 -0.4338838 -0.9009687 -0 -0.3884351 -0.9214761 -0 -0.4338838 -0.9009687 0 -0.3884351 -0.9214761 -0 -0.3420203 -0.9396926 0 -0.3420203 -0.9396926 -0 -0.2947547 -0.955573 0 -0.2947547 -0.955573 -0 -0.2467576 -0.9690772 0 -0.2467576 -0.9690772 -0 -0.1981468 -0.9801724 -0 -0.1981468 -0.9801724 -0 -0.1490414 -0.988831 0 -0.1490414 -0.988831 -0 -0.09956878 -0.9950306 0 -0.09956878 -0.9950306 -0 -0.04984496 -0.9987569 0 -0.04984496 -0.9987569 -0 -0 -1 0 0 -1 -0 0.04984496 -0.9987569 0 0.04984496 -0.9987569 0 0.09956878 -0.9950306 0 0.09956878 -0.9950306 0 0.1490414 -0.988831 0 0.1490414 -0.988831 0 0.1981468 -0.9801724 0 0.1981468 -0.9801724 0 0.2467576 -0.9690772 0 0.2947547 -0.955573 0 0.2467576 -0.9690772 0 0.2947547 -0.955573 0 0.3420203 -0.9396926 0 0.3420203 -0.9396926 0 0.3884351 -0.9214761 0 0.4338838 -0.9009687 0 0.3884351 -0.9214761 0 0.4338838 -0.9009687 0 0.4782534 -0.8782219 0 0.4782534 -0.8782219 0 0.5214356 -0.8532907 0 0.5633195 -0.8262391 0 0.5214356 -0.8532907 0 0.5633195 -0.8262391 0 0.6038044 -0.7971326 0 0.6038044 -0.7971326 0 0.6427878 -0.7660443 0 0.6427878 -0.7660443 0 0.6801724 -0.7330521 0 0.6801724 -0.7330521 0 0.7158672 -0.6982364 0 0.7158672 -0.6982364 0 0.7497813 -0.6616858 0 0.7497813 -0.6616858 0 0.7818316 -0.6234896 0 0.7818316 -0.6234896 0 0.811938 -0.5837435 0 0.811938 -0.5837435 0 0.8400257 -0.5425466 0 0.8400257 -0.5425466 0 0.8660254 -0.5000001 0 0.8660254 -0.5000001 0 0.8898718 -0.4562107 0 0.8898718 -0.4562107 0 0.9115057 -0.4112875 0 0.9115057 -0.4112875 0 0.9308739 -0.3653406 0 0.9308739 -0.3653406 0 0.9479272 -0.318487 0 0.9626243 -0.2708403 0 0.9479272 -0.318487 0 0.9626243 -0.2708403 0 0.974928 -0.2225204 0 0.974928 -0.2225204 0 0.9848077 -0.1736484 0 0.9848077 -0.1736484 0 0.9922392 -0.124344 0 0.9922392 -0.124344 0 0.9972038 -0.07472983 0 0.9996892 -0.02493077 0 0.9972038 -0.07472983 0 0.9996892 -0.02493077 0 0 0 1 0 0 1 0 0 1 0 0 1 0 0 1 0 0 1 0 0 1 0 0 1 0 0 1 0 0 1 0 0 1 0 0 1 0 0 1 0 0 1 0 0 1 0 0 1 0 0 1 0 0 1 0 0 1 0 0 1 0 0 1 0 0 1 0 0 1 0 0 1 0 0 1 0 0 1 0 0 1 0 0 1 0 0 1 0 0 1 0 0 1 0 0 1 0 0 1 0 0 1 0 0 1 0 0 1 0 0 1 0 0 1 0 0 1 0 0 1 0 0 1 0 0 1 0 0 1 0 0 1 0 0 1 0 0 1 0 0 1 0 0 1 0 0 1 0 0 1 0 0 1 0 0 1 0 0 1 0 0 1 0 0 1 0 0 1 0 0 1 0 0 1 0 0 1 0 0 1 0 0 1 0 0 1 0 0 1 0 0 1 0 0 1 0 0 1 0 0 1 0 0 1 0 0 1 0 0 1 0 0 1 0 0 1 0 0 1 0 0 1 0 0 1 0 0 1 0 0 1 0 0 1 0 0 1 0 0 1 0 0 1 0 0 1 0 0 1 0 0 1 0 0 1 0 0 1 0 0 1 0 0 1 0 0 1 0 0 1 0 0 1 0 0 1 0 0 1 0 0 1 0 0 1 0 0 1 0 0 1 0 0 1 0 0 1 0 0 1 0 0 1 0 0 1 0 0 1 0 0 1 0 0 1 0 0 1 0 0 1 0 0 1 0 0 1 0 0 1 0 0 1 0 0 1 0 0 1 0 0 1 0 0 1 0 0 1 0 0 1 0 0 1 0 0 1 0 0 1 0 0 1 0 0 1 0 0 1 0 0 1</float_array>
          <technique_common>
            <accessor count="1004" source="#cubenormals-array0-array" stride="3">
              <param type="float" name="X"/>
              <param type="float" name="Y"/>
              <param type="float" name="Z"/>
            </accessor>
          </technique_common>
        </source>
        <vertices id="cubeverts-array0-vertices">
          <input semantic="POSITION" source="#cubeverts-array0"/>
        </vertices>
        <triangles count="1004" material="ref_Body014">
          <input offset="0" semantic="VERTEX" source="#cubeverts-array0-vertices"/>
          <input offset="1" semantic="NORMAL" source="#cubenormals-array0"/>
          <p>0 0 1 0 2 0 2 1 1 1 3 1 3 2 4 2 5 2 1 3 4 3 3 3 5 4 6 4 7 4 4 5 6 5 5 5 7 6 8 6 9 6 6 7 8 7 7 7 9 8 10 8 11 8 8 9 10 9 9 9 11 10 12 10 13 10 13 11 12 11 14 11 10 12 12 12 11 12 12 13 15 13 14 13 14 14 16 14 17 14 15 15 16 15 14 15 17 16 18 16 19 16 16 17 18 17 17 17 19 18 20 18 21 18 21 19 20 19 22 19 18 20 20 20 19 20 20 21 23 21 22 21 23 22 24 22 22 22 22 23 24 23 25 23 24 24 26 24 25 24 25 25 26 25 27 25 26 26 28 26 27 26 27 27 28 27 29 27 28 28 30 28 29 28 29 29 30 29 31 29 30 30 32 30 31 30 31 31 32 31 33 31 32 32 34 32 33 32 33 33 34 33 35 33 35 34 34 34 36 34 34 35 37 35 36 35 37 36 38 36 36 36 36 37 38 37 39 37 38 38 40 38 39 38 39 39 40 39 41 39 41 40 40 40 42 40 40 41 43 41 42 41 42 42 43 42 44 42 43 43 45 43 44 43 44 44 46 44 47 44 45 45 46 45 44 45 47 46 48 46 49 46 46 47 48 47 47 47 49 48 50 48 51 48 48 49 50 49 49 49 51 50 52 50 53 50 50 51 52 51 51 51 53 52 54 52 55 52 52 53 54 53 53 53 55 54 56 54 57 54 54 55 56 55 55 55 57 56 58 56 59 56 56 57 58 57 57 57 59 58 60 58 61 58 58 59 60 59 59 59 61 60 62 60 63 60 60 61 62 61 61 61 63 62 64 62 65 62 65 63 64 63 66 63 62 64 64 64 63 64 64 65 67 65 66 65 66 66 68 66 69 66 67 67 68 67 66 67 69 68 70 68 71 68 68 69 70 69 69 69 71 70 72 70 73 70 70 71 72 71 71 71 72 72 74 72 73 72 73 73 74 73 75 73 74 74 76 74 75 74 75 75 76 75 77 75 76 76 78 76 77 76 77 77 78 77 79 77 78 78 80 78 79 78 79 79 80 79 81 79 80 80 82 80 81 80 81 81 82 81 83 81 82 82 84 82 83 82 83 83 84 83 85 83 84 84 86 84 85 84 85 85 86 85 87 85 86 86 88 86 87 86 87 87 88 87 89 87 88 88 90 88 89 88 89 89 90 89 91 89 90 90 92 90 91 90 91 91 92 91 93 91 92 92 94 92 93 92 93 93 94 93 95 93 94 94 96 94 95 94 95 95 96 95 97 95 96 96 98 96 97 96 97 97 98 97 99 97 98 98 100 98 99 98 99 99 100 99 101 99 100 100 102 100 101 100 101 101 102 101 103 101 102 102 104 102 103 102 103 103 104 103 105 103 105 104 104 104 106 104 104 105 107 105 106 105 107 106 108 106 106 106 106 107 108 107 109 107 108 108 110 108 109 108 109 109 110 109 111 109 110 110 112 110 111 110 111 111 112 111 113 111 112 112 114 112 113 112 113 113 114 113 115 113 115 114 116 114 117 114 114 115 116 115 115 115 117 116 118 116 119 116 116 117 118 117 117 117 119 118 120 118 121 118 118 119 120 119 119 119 121 120 122 120 123 120 120 121 122 121 121 121 122 122 124 122 123 122 123 123 124 123 125 123 124 124 126 124 125 124 125 125 126 125 127 125 126 126 128 126 127 126 127 127 128 127 129 127 128 128 130 128 129 128 129 129 130 129 131 129 130 130 132 130 131 130 131 131 132 131 133 131 132 132 134 132 133 132 133 133 134 133 135 133 134 134 136 134 135 134 135 135 136 135 137 135 136 136 138 136 137 136 137 137 138 137 139 137 138 138 140 138 139 138 139 139 140 139 141 139 140 140 142 140 141 140 141 141 142 141 143 141 142 142 144 142 143 142 143 143 144 143 145 143 144 144 146 144 145 144 145 145 146 145 147 145 146 146 148 146 147 146 147 147 148 147 149 147 149 148 150 148 151 148 148 149 150 149 149 149 151 150 152 150 153 150 150 151 152 151 151 151 153 152 154 152 155 152 152 153 154 153 153 153 155 154 156 154 157 154 154 155 156 155 155 155 157 156 158 156 159 156 156 157 158 157 157 157 159 158 160 158 161 158 158 159 160 159 159 159 161 160 162 160 163 160 160 161 162 161 161 161 163 162 164 162 165 162 162 163 164 163 163 163 165 164 166 164 167 164 164 165 166 165 165 165 167 166 168 166 169 166 166 167 168 167 167 167 169 168 170 168 171 168 168 169 170 169 169 169 171 170 172 170 173 170 170 171 172 171 171 171 173 172 174 172 175 172 172 173 174 173 173 173 174 174 176 174 175 174 175 175 176 175 177 175 176 176 178 176 177 176 177 177 178 177 179 177 178 178 180 178 179 178 179 179 180 179 181 179 180 180 182 180 181 180 181 181 182 181 183 181 183 182 184 182 185 182 182 183 184 183 183 183 185 184 186 184 187 184 184 185 186 185 185 185 187 186 188 186 189 186 186 187 188 187 187 187 189 188 190 188 191 188 188 189 190 189 189 189 191 190 192 190 193 190 190 191 192 191 191 191 193 192 194 192 195 192 192 193 194 193 193 193 195 194 196 194 197 194 194 195 196 195 195 195 197 196 198 196 199 196 196 197 198 197 197 197 199 198 200 198 201 198 198 199 200 199 199 199 201 200 202 200 203 200 200 201 202 201 201 201 203 202 204 202 205 202 202 203 204 203 203 203 205 204 206 204 207 204 204 205 206 205 205 205 207 206 208 206 209 206 206 207 208 207 207 207 209 208 210 208 211 208 208 209 210 209 209 209 211 210 212 210 213 210 210 211 212 211 211 211 213 212 214 212 215 212 212 213 214 213 213 213 215 214 216 214 217 214 214 215 216 215 215 215 217 216 218 216 219 216 216 217 218 217 217 217 219 218 220 218 221 218 218 219 220 219 219 219 221 220 222 220 223 220 220 221 222 221 221 221 222 222 224 222 223 222 223 223 224 223 225 223 224 224 226 224 225 224 225 225 226 225 227 225 226 226 228 226 227 226 227 227 228 227 229 227 228 228 230 228 229 228 229 229 230 229 231 229 230 230 232 230 231 230 231 231 232 231 233 231 232 232 234 232 233 232 233 233 234 233 235 233 234 234 236 234 235 234 235 235 236 235 237 235 236 236 238 236 237 236 237 237 238 237 239 237 238 238 240 238 239 238 239 239 240 239 241 239 240 240 242 240 241 240 241 241 242 241 243 241 242 242 244 242 243 242 243 243 244 243 245 243 244 244 246 244 245 244 245 245 246 245 247 245 246 246 248 246 247 246 247 247 248 247 249 247 249 248 250 248 251 248 248 249 250 249 249 249 251 250 0 250 2 250 250 251 0 251 251 251 158 252 162 252 160 252 154 253 152 253 156 253 156 254 152 254 158 254 162 255 166 255 164 255 162 256 168 256 166 256 146 257 144 257 148 257 144 258 142 258 148 258 170 259 174 259 172 259 158 260 138 260 162 260 152 261 138 261 158 261 162 262 138 262 168 262 142 263 138 263 148 263 140 264 138 264 142 264 148 265 138 265 150 265 150 266 138 266 152 266 170 267 180 267 174 267 174 268 180 268 176 268 176 269 180 269 178 269 134 270 132 270 136 270 136 271 132 271 138 271 180 272 184 272 182 272 180 273 188 273 184 273 184 274 188 274 186 274 128 275 126 275 130 275 130 276 126 276 132 276 132 277 126 277 138 277 170 278 190 278 180 278 168 279 190 279 170 279 180 280 190 280 188 280 124 281 122 281 126 281 122 282 120 282 126 282 192 283 198 283 194 283 194 284 198 284 196 284 192 285 200 285 198 285 190 286 200 286 192 286 120 287 114 287 126 287 116 288 114 288 118 288 118 289 114 289 120 289 126 290 114 290 138 290 112 291 110 291 114 291 110 292 108 292 114 292 108 293 107 293 114 293 200 294 212 294 202 294 202 295 212 295 204 295 204 296 212 296 206 296 206 297 212 297 208 297 208 298 212 298 210 298 190 299 212 299 200 299 168 300 212 300 190 300 107 301 100 301 114 301 102 302 100 302 104 302 104 303 100 303 107 303 214 304 220 304 216 304 216 305 220 305 218 305 100 306 94 306 114 306 96 307 94 307 98 307 98 308 94 308 100 308 220 309 224 309 222 309 92 310 90 310 94 310 212 311 228 311 214 311 224 312 228 312 226 312 168 313 228 313 212 313 214 314 228 314 220 314 138 315 228 315 168 315 220 316 228 316 224 316 88 317 86 317 90 317 90 318 86 318 94 318 138 319 230 319 228 319 94 320 84 320 114 320 86 321 84 321 94 321 78 322 76 322 80 322 80 323 76 323 82 323 236 324 240 324 238 324 82 325 74 325 84 325 84 326 74 326 114 326 76 327 74 327 82 327 72 328 70 328 74 328 242 329 246 329 244 329 246 330 250 330 248 330 242 331 250 331 246 331 67 332 64 332 68 332 68 333 64 333 70 333 70 334 64 334 74 334 242 335 0 335 250 335 242 336 1 336 0 336 240 337 1 337 242 337 62 338 60 338 64 338 240 339 4 339 1 339 60 340 58 340 64 340 4 341 8 341 6 341 240 342 8 342 4 342 58 343 52 343 64 343 54 344 52 344 56 344 56 345 52 345 58 345 8 346 12 346 10 346 240 347 12 347 8 347 230 348 15 348 232 348 232 349 15 349 234 349 234 350 15 350 236 350 138 351 15 351 230 351 240 352 15 352 12 352 236 353 15 353 240 353 114 354 15 354 138 354 50 355 48 355 52 355 52 356 48 356 64 356 15 357 18 357 16 357 114 358 18 358 15 358 45 359 43 359 46 359 46 360 43 360 48 360 64 361 40 361 74 361 48 362 40 362 64 362 43 363 40 363 48 363 18 364 24 364 20 364 20 365 24 365 23 365 18 366 26 366 24 366 38 367 37 367 40 367 18 368 28 368 26 368 37 369 34 369 40 369 18 370 30 370 28 370 114 371 32 371 18 371 18 372 32 372 30 372 40 373 32 373 74 373 34 374 32 374 40 374 74 375 32 375 114 375 252 376 157 376 159 376 252 377 159 377 161 377 253 378 157 378 252 378 254 379 161 379 163 379 254 380 252 380 161 380 255 381 157 381 253 381 255 382 153 382 155 382 255 383 155 383 157 383 256 384 254 384 163 384 257 385 153 385 255 385 258 386 163 386 165 386 258 387 256 387 163 387 259 388 153 388 257 388 259 389 151 389 153 389 260 390 258 390 165 390 260 391 165 391 167 391 260 392 167 392 169 392 261 393 151 393 259 393 261 394 149 394 151 394 262 395 260 395 169 395 263 396 149 396 261 396 263 397 147 397 149 397 264 398 262 398 169 398 264 399 169 399 171 399 265 400 147 400 263 400 265 401 145 401 147 401 266 402 264 402 171 402 266 403 171 403 173 403 267 404 145 404 265 404 267 405 143 405 145 405 268 406 266 406 173 406 268 407 173 407 175 407 268 408 175 408 177 408 269 409 141 409 143 409 269 410 143 410 267 410 270 411 268 411 177 411 271 412 139 412 141 412 271 413 141 413 269 413 272 414 270 414 177 414 272 415 177 415 179 415 273 416 139 416 271 416 273 417 137 417 139 417 274 418 272 418 179 418 274 419 179 419 181 419 275 420 137 420 273 420 275 421 135 421 137 421 276 422 274 422 181 422 276 423 181 423 183 423 277 424 135 424 275 424 277 425 133 425 135 425 278 426 276 426 183 426 278 427 183 427 185 427 279 428 133 428 277 428 279 429 131 429 133 429 280 430 185 430 187 430 280 431 187 431 189 431 280 432 278 432 185 432 281 433 129 433 131 433 281 434 131 434 279 434 282 435 280 435 189 435 283 436 129 436 281 436 283 437 127 437 129 437 284 438 282 438 189 438 284 439 189 439 191 439 285 440 127 440 283 440 285 441 123 441 125 441 285 442 125 442 127 442 286 443 284 443 191 443 286 444 191 444 193 444 286 445 193 445 195 445 287 446 123 446 285 446 288 447 286 447 195 447 289 448 123 448 287 448 289 449 121 449 123 449 290 450 288 450 195 450 290 451 195 451 197 451 290 452 197 452 199 452 291 453 121 453 289 453 291 454 119 454 121 454 292 455 290 455 199 455 293 456 119 456 291 456 293 457 117 457 119 457 294 458 292 458 199 458 294 459 199 459 201 459 295 460 117 460 293 460 295 461 115 461 117 461 296 462 201 462 203 462 296 463 294 463 201 463 297 464 115 464 295 464 297 465 113 465 115 465 298 466 203 466 205 466 298 467 296 467 203 467 299 468 113 468 297 468 299 469 111 469 113 469 300 470 205 470 207 470 300 471 298 471 205 471 301 472 106 472 109 472 301 473 109 473 111 473 301 474 111 474 299 474 302 475 207 475 209 475 302 476 300 476 207 476 303 477 106 477 301 477 304 478 209 478 211 478 304 479 302 479 209 479 305 480 105 480 106 480 305 481 106 481 303 481 306 482 211 482 213 482 306 483 304 483 211 483 307 484 105 484 305 484 307 485 103 485 105 485 308 486 213 486 215 486 308 487 306 487 213 487 309 488 101 488 103 488 309 489 103 489 307 489 310 490 215 490 217 490 310 491 217 491 219 491 310 492 308 492 215 492 311 493 101 493 309 493 311 494 99 494 101 494 312 495 310 495 219 495 313 496 97 496 99 496 313 497 99 497 311 497 314 498 219 498 221 498 314 499 312 499 219 499 315 500 97 500 313 500 95 501 97 501 315 501 223 502 316 502 314 502 223 503 314 503 221 503 317 504 316 504 223 504 93 505 95 505 315 505 93 506 318 506 319 506 93 507 315 507 318 507 225 508 317 508 223 508 91 509 93 509 319 509 91 510 319 510 320 510 227 511 317 511 225 511 227 512 321 512 317 512 89 513 91 513 320 513 229 514 321 514 227 514 229 515 322 515 321 515 229 516 323 516 322 516 87 517 89 517 320 517 87 518 320 518 324 518 231 519 323 519 229 519 85 520 87 520 324 520 85 521 324 521 325 521 233 522 323 522 231 522 233 523 326 523 323 523 83 524 325 524 327 524 83 525 85 525 325 525 235 526 328 526 326 526 235 527 326 527 233 527 81 528 329 528 330 528 81 529 327 529 329 529 81 530 83 530 327 530 237 531 331 531 328 531 237 532 328 532 235 532 79 533 81 533 330 533 239 534 332 534 331 534 239 535 331 535 237 535 77 536 79 536 330 536 77 537 330 537 333 537 241 538 334 538 332 538 241 539 332 539 239 539 75 540 77 540 333 540 75 541 333 541 335 541 243 542 334 542 241 542 243 543 336 543 334 543 73 544 75 544 335 544 73 545 337 545 338 545 73 546 335 546 337 546 245 547 339 547 336 547 245 548 336 548 243 548 71 549 73 549 338 549 247 550 340 550 339 550 247 551 339 551 245 551 69 552 338 552 341 552 69 553 71 553 338 553 249 554 342 554 340 554 249 555 340 555 247 555 66 556 343 556 344 556 66 557 341 557 343 557 66 558 69 558 341 558 251 559 345 559 342 559 251 560 346 560 345 560 251 561 342 561 249 561 65 562 66 562 344 562 2 563 346 563 251 563 63 564 344 564 347 564 63 565 65 565 344 565 3 566 348 566 346 566 3 567 346 567 2 567 61 568 347 568 349 568 61 569 63 569 347 569 5 570 350 570 348 570 5 571 348 571 3 571 59 572 349 572 351 572 59 573 61 573 349 573 7 574 352 574 350 574 7 575 350 575 5 575 57 576 351 576 353 576 57 577 59 577 351 577 9 578 354 578 352 578 9 579 352 579 7 579 55 580 57 580 353 580 55 581 353 581 355 581 11 582 356 582 354 582 11 583 354 583 9 583 53 584 55 584 355 584 53 585 355 585 357 585 13 586 356 586 11 586 13 587 358 587 356 587 51 588 53 588 357 588 51 589 357 589 359 589 14 590 358 590 13 590 14 591 360 591 358 591 14 592 361 592 360 592 49 593 51 593 359 593 49 594 359 594 362 594 17 595 361 595 14 595 47 596 49 596 362 596 47 597 362 597 363 597 19 598 364 598 361 598 19 599 361 599 17 599 44 600 47 600 363 600 44 601 365 601 366 601 44 602 363 602 365 602 21 603 364 603 19 603 21 604 367 604 364 604 21 605 368 605 367 605 42 606 44 606 366 606 22 607 368 607 21 607 41 608 42 608 366 608 41 609 366 609 369 609 25 610 370 610 368 610 25 611 368 611 22 611 39 612 41 612 369 612 39 613 369 613 371 613 27 614 370 614 25 614 27 615 372 615 370 615 36 616 39 616 371 616 36 617 373 617 374 617 36 618 371 618 373 618 29 619 375 619 372 619 29 620 372 620 27 620 35 621 36 621 374 621 31 622 376 622 375 622 31 623 375 623 29 623 33 624 377 624 376 624 33 625 374 625 377 625 33 626 35 626 374 626 33 627 376 627 31 627 378 628 379 628 346 628 378 629 346 629 348 629 380 630 348 630 350 630 380 631 378 631 348 631 381 632 350 632 352 632 381 633 380 633 350 633 382 634 352 634 354 634 382 635 381 635 352 635 383 636 354 636 356 636 383 637 356 637 358 637 383 638 382 638 354 638 384 639 383 639 358 639 385 640 358 640 360 640 385 641 384 641 358 641 386 642 360 642 361 642 386 643 385 643 360 643 387 644 361 644 364 644 387 645 386 645 361 645 388 646 364 646 367 646 388 647 367 647 368 647 388 648 387 648 364 648 389 649 388 649 368 649 389 650 368 650 370 650 390 651 389 651 370 651 390 652 370 652 372 652 391 653 390 653 372 653 392 654 391 654 372 654 392 655 372 655 375 655 393 656 375 656 376 656 393 657 376 657 377 657 393 658 392 658 375 658 394 659 393 659 377 659 395 660 394 660 377 660 395 661 377 661 374 661 395 662 374 662 373 662 396 663 395 663 373 663 397 664 373 664 371 664 397 665 396 665 373 665 398 666 371 666 369 666 398 667 369 667 366 667 398 668 397 668 371 668 399 669 398 669 366 669 400 670 366 670 365 670 400 671 365 671 363 671 400 672 399 672 366 672 401 673 400 673 363 673 402 674 363 674 362 674 402 675 362 675 359 675 402 676 401 676 363 676 403 677 359 677 357 677 403 678 402 678 359 678 404 679 403 679 357 679 405 680 357 680 355 680 405 681 355 681 353 681 405 682 404 682 357 682 406 683 405 683 353 683 407 684 353 684 351 684 407 685 351 685 349 685 407 686 406 686 353 686 408 687 407 687 349 687 409 688 349 688 347 688 409 689 347 689 344 689 409 690 408 690 349 690 410 691 344 691 343 691 410 692 409 692 344 692 411 693 410 693 343 693 412 694 343 694 341 694 412 695 411 695 343 695 413 696 341 696 338 696 413 697 338 697 337 697 413 698 412 698 341 698 414 699 337 699 335 699 414 700 413 700 337 700 415 701 414 701 335 701 415 702 335 702 333 702 416 703 415 703 333 703 417 704 416 704 333 704 417 705 333 705 330 705 417 706 330 706 329 706 418 707 417 707 329 707 419 708 418 708 329 708 419 709 329 709 327 709 420 710 419 710 327 710 420 711 327 711 325 711 421 712 420 712 325 712 421 713 325 713 324 713 422 714 421 714 324 714 422 715 324 715 320 715 423 716 422 716 320 716 423 717 320 717 319 717 423 718 319 718 318 718 424 719 423 719 318 719 425 720 424 720 318 720 425 721 318 721 315 721 426 722 315 722 313 722 426 723 425 723 315 723 427 724 313 724 311 724 427 725 426 725 313 725 428 726 311 726 309 726 428 727 427 727 311 727 429 728 309 728 307 728 429 729 428 729 309 729 430 730 307 730 305 730 430 731 429 731 307 731 431 732 305 732 303 732 431 733 430 733 305 733 432 734 303 734 301 734 432 735 431 735 303 735 433 736 301 736 299 736 433 737 432 737 301 737 434 738 299 738 297 738 434 739 433 739 299 739 435 740 297 740 295 740 435 741 434 741 297 741 436 742 295 742 293 742 436 743 435 743 295 743 437 744 293 744 291 744 437 745 436 745 293 745 438 746 291 746 289 746 438 747 437 747 291 747 439 748 289 748 287 748 439 749 438 749 289 749 440 750 439 750 287 750 440 751 287 751 285 751 441 752 440 752 285 752 441 753 285 753 283 753 442 754 441 754 283 754 442 755 283 755 281 755 443 756 442 756 281 756 443 757 281 757 279 757 444 758 443 758 279 758 444 759 279 759 277 759 445 760 444 760 277 760 445 761 277 761 275 761 446 762 445 762 275 762 446 763 275 763 273 763 447 764 446 764 273 764 447 765 273 765 271 765 448 766 447 766 271 766 448 767 271 767 269 767 449 768 448 768 269 768 449 769 269 769 267 769 450 770 449 770 267 770 450 771 267 771 265 771 451 772 450 772 265 772 451 773 265 773 263 773 452 774 451 774 263 774 452 775 263 775 261 775 453 776 452 776 261 776 453 777 261 777 259 777 453 778 259 778 257 778 454 779 453 779 257 779 455 780 454 780 257 780 455 781 257 781 255 781 456 782 455 782 255 782 456 783 255 783 253 783 457 784 456 784 253 784 457 785 253 785 252 785 457 786 252 786 254 786 458 787 457 787 254 787 459 788 458 788 254 788 459 789 254 789 256 789 459 790 256 790 258 790 460 791 459 791 258 791 461 792 258 792 260 792 461 793 460 793 258 793 461 794 260 794 262 794 462 795 461 795 262 795 463 796 262 796 264 796 463 797 462 797 262 797 464 798 264 798 266 798 464 799 266 799 268 799 464 800 463 800 264 800 465 801 464 801 268 801 466 802 465 802 268 802 466 803 268 803 270 803 467 804 466 804 270 804 467 805 270 805 272 805 468 806 467 806 272 806 468 807 272 807 274 807 468 808 274 808 276 808 469 809 468 809 276 809 470 810 469 810 276 810 470 811 276 811 278 811 471 812 470 812 278 812 471 813 278 813 280 813 472 814 471 814 280 814 472 815 280 815 282 815 473 816 472 816 282 816 473 817 282 817 284 817 474 818 473 818 284 818 474 819 284 819 286 819 475 820 474 820 286 820 475 821 286 821 288 821 476 822 475 822 288 822 476 823 288 823 290 823 476 824 290 824 292 824 477 825 476 825 292 825 478 826 292 826 294 826 478 827 294 827 296 827 478 828 477 828 292 828 479 829 478 829 296 829 480 830 296 830 298 830 480 831 479 831 296 831 481 832 298 832 300 832 481 833 300 833 302 833 481 834 480 834 298 834 482 835 481 835 302 835 483 836 302 836 304 836 483 837 482 837 302 837 484 838 304 838 306 838 484 839 306 839 308 839 484 840 483 840 304 840 485 841 484 841 308 841 486 842 308 842 310 842 486 843 485 843 308 843 487 844 310 844 312 844 487 845 486 845 310 845 488 846 312 846 314 846 488 847 487 847 312 847 489 848 314 848 316 848 489 849 488 849 314 849 490 850 489 850 316 850 490 851 316 851 317 851 491 852 490 852 317 852 491 853 317 853 321 853 492 854 491 854 321 854 492 855 321 855 322 855 492 856 322 856 323 856 493 857 492 857 323 857 494 858 493 858 323 858 494 859 323 859 326 859 495 860 326 860 328 860 495 861 494 861 326 861 496 862 328 862 331 862 496 863 495 863 328 863 497 864 331 864 332 864 497 865 496 865 331 865 498 866 332 866 334 866 498 867 334 867 336 867 498 868 497 868 332 868 499 869 498 869 336 869 500 870 336 870 339 870 500 871 499 871 336 871 501 872 339 872 340 872 501 873 500 873 339 873 502 874 340 874 342 874 502 875 501 875 340 875 503 876 342 876 345 876 503 877 345 877 346 877 503 878 502 878 342 878 379 879 503 879 346 879 454 880 455 880 456 880 461 881 459 881 460 881 449 882 454 882 456 882 449 883 459 883 461 883 449 884 450 884 451 884 449 885 451 885 452 885 449 886 452 886 453 886 449 887 453 887 454 887 449 888 456 888 457 888 449 889 457 889 458 889 449 890 458 890 459 890 449 891 461 891 462 891 466 892 464 892 465 892 447 893 449 893 462 893 447 894 448 894 449 894 468 895 464 895 466 895 468 896 462 896 463 896 468 897 463 897 464 897 468 898 466 898 467 898 444 899 445 899 446 899 444 900 446 900 447 900 472 901 468 901 469 901 472 902 469 902 470 902 472 903 470 903 471 903 441 904 442 904 443 904 439 905 440 905 441 905 438 906 439 906 441 906 477 907 475 907 476 907 478 908 475 908 477 908 478 909 473 909 474 909 478 910 474 910 475 910 435 911 438 911 441 911 435 912 436 912 437 912 435 913 437 913 438 913 435 914 443 914 444 914 435 915 444 915 447 915 435 916 441 916 443 916 433 917 434 917 435 917 481 918 479 918 480 918 432 919 433 919 435 919 482 920 479 920 481 920 431 921 432 921 435 921 484 922 478 922 479 922 484 923 482 923 483 923 484 924 473 924 478 924 484 925 479 925 482 925 484 926 468 926 472 926 484 927 472 927 473 927 428 928 431 928 435 928 428 929 429 929 430 929 428 930 430 930 431 930 426 931 427 931 428 931 488 932 484 932 485 932 488 933 485 933 486 933 488 934 486 934 487 934 488 935 468 935 484 935 488 936 447 936 462 936 488 937 462 937 468 937 425 938 428 938 435 938 425 939 426 939 428 939 490 940 488 940 489 940 423 941 424 941 425 941 492 942 490 942 491 942 492 943 488 943 490 943 421 944 422 944 423 944 421 945 423 945 425 945 494 946 492 946 493 946 494 947 488 947 492 947 495 948 488 948 494 948 418 949 419 949 420 949 418 950 420 950 421 950 417 951 418 951 421 951 416 952 417 952 421 952 498 953 495 953 496 953 498 954 496 954 497 954 498 955 488 955 495 955 415 956 425 956 435 956 415 957 421 957 425 957 415 958 416 958 421 958 500 959 498 959 499 959 413 960 414 960 415 960 502 961 500 961 501 961 502 962 498 962 500 962 410 963 411 963 412 963 410 964 412 964 413 964 410 965 413 965 415 965 379 966 498 966 502 966 379 967 502 967 503 967 409 968 410 968 415 968 380 969 379 969 378 969 406 970 407 970 408 970 406 971 408 971 409 971 404 972 405 972 406 972 404 973 406 973 409 973 384 974 380 974 381 974 384 975 381 975 382 975 384 976 382 976 383 976 385 977 435 977 447 977 385 978 379 978 380 978 385 979 498 979 379 979 385 980 380 980 384 980 385 981 447 981 488 981 385 982 488 982 498 982 402 983 403 983 404 983 402 984 404 984 409 984 387 985 385 985 386 985 387 986 435 986 385 986 399 987 402 987 409 987 399 988 400 988 401 988 399 989 401 989 402 989 390 990 387 990 388 990 390 991 388 991 389 991 391 992 387 992 390 992 396 993 397 993 398 993 392 994 387 994 391 994 395 995 396 995 398 995 393 996 387 996 392 996 394 997 409 997 415 997 394 998 398 998 399 998 394 999 435 999 387 999 394 1000 399 1000 409 1000 394 1001 395 1001 398 1001 394 1002 387 1002 393 1002 394 1003 415 1003 435 1003</p>
        </triangles>
      </mesh>
    </geometry>
  </library_geometries>
  <library_materials>
    <material id="mat_Body014" name="Body014">
      <instance_effect url="#effect_Body014"/>
    </material>
  </library_materials>
  <library_visual_scenes>
    <visual_scene id="scene">
      <node id="node0" name="node0">
        <instance_geometry url="#geometry0">
          <bind_material>
            <technique_common>
              <instance_material symbol="ref_Body014" target="#mat_Body014"/>
            </technique_common>
          </bind_material>
        </instance_geometry>
      </node>
    </visual_scene>
  </library_visual_scenes>
  <scene>
    <instance_visual_scene url="#scene"/>
  </scene>
</COLLADA>
