<COLLADA xmlns="http://www.collada.org/2005/11/COLLADASchema" version="1.4.1">
  <asset>
    <contributor/>
    <created>2026-10-08T20:07:07.761310</created>
    <modified>2026-10-08T20:07:07.761310</modified>
    <unit name="meter" meter="1.0"/>
    <up_axis>Z_UP</up_axis>
  </asset>
  <library_effects>
    <effect id="effect_Body015" name="effect_Body015">
      <profile_COMMON>
        <technique sid="common">
          <phong>
            <emission>
              <color>0.0 0.0 0.0 1.0</color>
            </emission>
            <ambient>
              <color>0.0 0.0 0.0 1.0</color>
            </ambient>
            <diffuse>
              <color>0.4470588266849518 0.4745098054409027 0.501960813999176 1.0</color>
            </diffuse>
            <specular>
              <color>1 1 1 1.0</color>
            </specular>
            <shininess>
              <float>0.0</float>
            </shininess>
            <reflective>
              <color>0.0 0.0 0.0 1.0</color>
            </reflective>
            <reflectivity>
              <float>0.0</float>
            </reflectivity>
            <transparent>
              <color>0.0 0.0 0.0 1.0</color>
            </transparent>
            <transparency>
              <float>1.0</float>
            </transparency>
          </phong>
        </technique>
        <extra>
          <technique profile="GOOGLEEARTH">
            <double_sided>0</double_sided>
          </technique>
        </extra>
      </profile_COMMON>
    </effect>
  </library_effects>
  <library_geometries>
    <geometry id="geometry0" name="J5_Arm">
      <mesh>
        <source id="cubeverts-array0">
          <float_array count="2352" id="cubeverts-array0-array">0.012 0.125 0 -0.008 0.125 0 -0.008 0.125 0.042 0.012 0.125 0.042 -0.008 0.115197 0.02814181 -0.008 0.1148315 0.0285166 -0.008 0.1144477 0.0288727 -0.008 0.1155435 0.02774927 -0.008 0.1140466 0.02920923 -0.008 0.1158699 0.02733995 -0.008 0.1136293 0.02952535 -0.008 0.1161755 0.02691486 -0.008 0.1131967 0.02982027 -0.008 0.1164596 0.02647507 -0.008 0.11275 0.03009327 -0.008 0.1167213 0.02602167 -0.008 0.1122902 0.03034365 -0.008 0.1169602 0.02555578 -0.008 0.1118185 0.03057081 -0.008 0.1171755 0.02507857 -0.008 0.1113361 0.03077417 -0.008 0.1173668 0.02459121 -0.008 0.1108441 0.03095324 -0.008 0.1175335 0.02409493 -0.008 0.1103438 0.03110756 -0.008 0.1176753 0.02359095 -0.008 0.1098365 0.03123674 -0.008 0.1177918 0.02308053 -0.008 0.1093233 0.03134048 -0.008 0.1178827 0.02256494 -0.008 0.1088056 0.03141851 -0.008 0.1179478 0.02204546 -0.008 0.1082847 0.03147064 -0.008 0.1179869 0.02152338 -0.008 0.1077618 0.03149674 -0.008 0.118 0.021 -0.008 0.1072382 0.03149674 -0.008 0.1067153 0.03147064 -0.008 0.1061944 0.03141851 -0.008 0.1056767 0.03134048 -0.008 0.1051635 0.03123674 -0.008 0.1046562 0.03110756 -0.008 0.1041559 0.03095324 -0.008 0.1131967 0.01217973 -0.008 0.1136293 0.01247465 -0.008 0.1140466 0.01279077 -0.008 0.1144477 0.0131273 -0.008 0.1148315 0.0134834 -0.008 0.115197 0.01385819 -0.008 0.1155435 0.01425073 -0.008 0.1158699 0.01466005 -0.008 0.1161755 0.01508514 -0.008 0.1164596 0.01552493 -0.008 0.1167213 0.01597833 -0.008 0.1169602 0.01644422 -0.008 0.1171755 0.01692143 -0.008 0.1173668 0.01740879 -0.008 0.1175335 0.01790507 -0.008 0.1176753 0.01840905 -0.008 0.1177918 0.01891947 -0.008 0.1178827 0.01943506 -0.008 0.1179478 0.01995454 -0.008 0.1179869 0.02047662 -0.008 0.11275 0.01190673 -0.008 0.1122902 0.01165635 -0.008 0.1118185 0.01142919 -0.008 0.1113361 0.01122583 -0.008 0.1108441 0.01104676 -0.008 0.1103438 0.01089245 -0.008 0.1098365 0.01076326 -0.008 0.1093233 0.01065952 -0.008 0.1088056 0.01058149 -0.008 0.1082847 0.01052936 -0.008 0.1077618 0.01050326 -0.008 0.1072382 0.01050326 -0.008 0.1067153 0.01052936 -0.008 0.1061944 0.01058149 -0.008 0.1056767 0.01065952 -0.008 0.1051635 0.01076326 -0.008 0.1046562 0.01089245 -0.008 0.1041559 0.01104676 -0.008 0.05307107 0.03307107 -0.008 0.1013707 0.02952535 -0.008 0.1009534 0.02920923 -0.008 0.05340951 0.03271559 -0.008 0.1005523 0.0288727 -0.008 0.05271559 0.03340951 -0.008 0.1018033 0.02982027 -0.008 0.05373011 0.03234393 -0.008 0.1001685 0.0285166 -0.008 0.05234393 0.03373011 -0.008 0.10225 0.03009327 -0.008 0.05403207 0.03195699 -0.008 0.09980296 0.02814181 -0.008 0.05195699 0.03403207 -0.008 0.1027098 0.03034365 -0.008 0.0543147 0.0315557 -0.008 0.09945654 0.02774927 -0.008 0.0515557 0.0343147 -0.008 0.1031815 0.03057081 -0.008 0.05457729 0.03114103 -0.008 0.09913011 0.02733995 -0.008 0.05114103 0.03457729 -0.008 0.1036639 0.03077417 -0.008 0.05481921 0.03071397 -0.008 0.09882449 0.02691486 -0.008 0.05071397 0.03481921 -0.008 0.05503989 0.03027555 -0.008 0.09854044 0.02647507 -0.008 0.05027555 0.03503989 -0.008 0.0552388 0.02982683 -0.008 0.09827867 0.02602167 -0.008 0.04982684 0.0352388 -0.008 0.05541544 0.0293689 -0.008 0.0493689 0.03541544 -0.008 0.04890285 0.0355694 -0.008 0.0555694 0.02890285 -0.008 0.09803983 0.02555578 -0.008 0.05570031 0.0284298 -0.008 0.0978245 0.02507857 -0.008 0.0484298 0.03570031 -0.008 0.05580785 0.0279509 -0.008 0.09763322 0.02459121 -0.008 0.05589177 0.0274673 -0.008 0.09746648 0.02409493 -0.008 0.05595185 0.02698017 -0.008 0.09732469 0.02359095 -0.008 0.05598795 0.02649068 -0.008 0.09720819 0.02308053 -0.008 0.056 0.026 -0.008 0.09711728 0.02256494 -0.008 0.09705218 0.02204546 -0.008 0.09701305 0.02152338 -0.008 0.097 0.021 -0.008 0.056 0.016 -0.008 0.09701305 0.02047662 -0.008 0.09705218 0.01995454 -0.008 0.09711728 0.01943506 -0.008 0.09720819 0.01891947 -0.008 0.05598795 0.01550932 -0.008 0.09732469 0.01840905 -0.008 0.05595185 0.01501983 -0.008 0.09746648 0.01790507 -0.008 0.05589177 0.01453269 -0.008 0.09763322 0.01740879 -0.008 0.05580785 0.0140491 -0.008 0.0978245 0.01692143 -0.008 0.05570031 0.0135702 -0.008 0.09803983 0.01644422 -0.008 0.0555694 0.01309715 -0.008 0.09827867 0.01597833 -0.008 0.05541544 0.0126311 -0.008 0.0552388 0.01217317 -0.008 0.09854044 0.01552493 -0.008 0.05503989 0.01172445 -0.008 0.09882449 0.01508514 -0.008 0.05481921 0.01128603 -0.008 0.09913011 0.01466005 -0.008 0.05457729 0.01085897 -0.008 0.09945654 0.01425073 -0.008 0.0543147 0.0104443 -0.008 0.09980296 0.01385819 -0.008 0.05403207 0.01004301 -0.008 0.1001685 0.0134834 -0.008 0.05373011 0.009656067 -0.008 0.1005523 0.0131273 -0.008 0.05340951 0.00928441 -0.008 0.1009534 0.01279077 -0.008 0.05307107 0.008928932 -0.008 0.1013707 0.01247465 -0.008 0.05271559 0.008590488 -0.008 0.1018033 0.01217973 -0.008 0.05234393 0.008269896 -0.008 0.10225 0.01190673 -0.008 0.05195699 0.007967925 -0.008 0.1027098 0.01165635 -0.008 0.0515557 0.007685304 -0.008 0.1031815 0.01142919 -0.008 0.05114103 0.007422714 -0.008 0.1036639 0.01122583 -0.008 0.05071397 0.007180788 -0.008 0.05027555 0.006960107 -0.008 0.04982684 0.006761205 -0.008 0.0493689 0.006584559 -0.008 0.04890285 0.006430597 -0.008 0.0484298 0.006299687 -0.008 0 0.042 -0.008 0.046 0.036 -0.008 0.028 0.036 -0.008 0.02750932 0.03598795 -0.008 0.02701983 0.03595185 -0.008 0.0265327 0.03589177 -0.008 0.0260491 0.03580785 -0.008 0.0255702 0.03570031 -0.008 0.02509715 0.0355694 -0.008 0.0246311 0.03541544 -0.008 0.02417317 0.0352388 -0.008 0.02372445 0.03503989 -0.008 0.02328603 0.03481921 -0.008 0.02285897 0.03457729 -0.008 0.0224443 0.0343147 -0.008 0.02204301 0.03403207 -0.008 0.02165607 0.03373011 -0.008 0.02128441 0.03340951 -0.008 0.02092893 0.03307107 -0.008 0.02059049 0.03271559 -0.008 0.0202699 0.03234393 -0.008 0.01996792 0.03195699 -0.008 0.0196853 0.0315557 -0.008 0.01942271 0.03114103 -0.008 0.01918079 0.03071397 -0.008 0.01896011 0.03027555 -0.008 0.0187612 0.02982683 -0.008 0.01858456 0.0293689 -0.008 0.0184306 0.02890285 -0.008 0.01829969 0.0284298 -0.008 0.01819215 0.0279509 -0.008 0.01810823 0.0274673 -0.008 0.01804815 0.02698017 -0.008 0.01801204 0.02649068 -0.008 0.018 0.026 -0.008 0 0 -0.008 0.018 0.016 -0.008 0.01801204 0.01550932 -0.008 0.01804815 0.01501983 -0.008 0.01810823 0.01453269 -0.008 0.01819215 0.0140491 -0.008 0.01829969 0.0135702 -0.008 0.0184306 0.01309715 -0.008 0.01858456 0.0126311 -0.008 0.0187612 0.01217317 -0.008 0.01896011 0.01172445 -0.008 0.01918079 0.01128603 -0.008 0.01942271 0.01085897 -0.008 0.0196853 0.0104443 -0.008 0.01996792 0.01004301 -0.008 0.0202699 0.009656067 -0.008 0.02059049 0.00928441 -0.008 0.02092893 0.008928932 -0.008 0.02128441 0.008590488 -0.008 0.02165607 0.008269896 -0.008 0.02204301 0.007967925 -0.008 0.0224443 0.007685304 -0.008 0.02285897 0.007422714 -0.008 0.02328603 0.007180788 -0.008 0.02372445 0.006960107 -0.008 0.02417317 0.006761205 -0.008 0.0246311 0.006584559 -0.008 0.02509715 0.006430597 -0.008 0.0255702 0.006299687 -0.008 0.0260491 0.006192147 -0.008 0.0265327 0.006108235 -0.008 0.02701983 0.006048153 -0.008 0.02750932 0.006012045 -0.008 0.028 0.006 -0.008 0.046 0.006 -0.008 0.04649068 0.03598795 -0.008 0.04698017 0.03595185 -0.008 0.0474673 0.03589177 -0.008 0.0479509 0.03580785 -0.008 0.04649068 0.006012045 -0.008 0.04698017 0.006048153 -0.008 0.0474673 0.006108235 -0.008 0.0479509 0.006192147 0.012 0.1177627 0.03052242 0.012 0.1172753 0.03102214 0.012 0.1167636 0.03149694 0.012 0.1182246 0.02999903 0.012 0.1162289 0.03194564 0.012 0.1186599 0.02945326 0.012 0.1156724 0.03236713 0.012 0.1190673 0.02888648 0.012 0.1150956 0.03276036 0.012 0.1194461 0.02830009 0.012 0.1145 0.03312436 0.012 0.1197951 0.02769556 0.012 0.1138869 0.03345821 0.012 0.1201136 0.02707437 0.012 0.113258 0.03376108 0.012 0.1204007 0.02643809 0.012 0.1126148 0.03403223 0.012 0.1206557 0.02578828 0.012 0.1119588 0.03427098 0.012 0.120878 0.02512657 0.012 0.1112918 0.03447674 0.012 0.1210671 0.0244546 0.012 0.1106153 0.03464899 0.012 0.1212224 0.02377405 0.012 0.1099311 0.03478731 0.012 0.1213436 0.02308659 0.012 0.1092408 0.03489135 0.012 0.1214304 0.02239395 0.012 0.1085462 0.03496085 0.012 0.1214826 0.02169784 0.012 0.107849 0.03499565 0.012 0.1215 0.021 0.012 0.107151 0.03499565 0.012 0.09 0.042 0.012 0.1064538 0.03496085 0.012 0.1057592 0.03489135 0.012 0.1050689 0.03478731 0.012 0.1043847 0.03464899 0.012 0.1037082 0.03447674 0.012 0.1030412 0.03427098 0.012 0.1023852 0.03403223 0.012 0.101742 0.03376108 0.012 0.1011131 0.03345821 0.012 0.1005 0.03312436 0.012 0.09990435 0.03276036 0.012 0.09932759 0.03236713 0.012 0.09877114 0.03194564 0.012 0.0982364 0.03149694 0.012 0.09772469 0.03102214 0.012 0.09723727 0.03052242 0.012 0.09677538 0.02999903 0.012 0.09634014 0.02945326 0.012 0.1162289 0.01005436 0.012 0.1156724 0.009632868 0.012 0.1167636 0.01050306 0.012 0.1172753 0.01097786 0.012 0.1177627 0.01147758 0.012 0.1182246 0.01200097 0.012 0.1186599 0.01254674 0.012 0.1190673 0.01311352 0.012 0.1194461 0.01369991 0.012 0.1197951 0.01430444 0.012 0.1201136 0.01492563 0.012 0.1204007 0.01556191 0.012 0.1206557 0.01621172 0.012 0.120878 0.01687343 0.012 0.1210671 0.0175454 0.012 0.1212224 0.01822595 0.012 0.1213436 0.01891341 0.012 0.1214304 0.01960605 0.012 0.1214826 0.02030216 0.012 0.09593266 0.02888648 0.012 0.1150956 0.009239637 0.012 0.09555392 0.02830009 0.012 0.1145 0.008875645 0.012 0.0952049 0.02769556 0.012 0.1138869 0.008541795 0.012 0.09488644 0.02707437 0.012 0.113258 0.008238918 0.012 0.09459933 0.02643809 0.012 0.1126148 0.007967768 0.012 0.09434431 0.02578828 0.012 0.1119588 0.007729017 0.012 0.09412198 0.02512657 0.012 0.1112918 0.007523261 0.012 0.09393291 0.0244546 0.012 0.1106153 0.007351009 0.012 0.09377759 0.02377405 0.012 0.1099311 0.007212691 0.012 0.09365637 0.02308659 0.012 0.1092408 0.007108651 0.012 0.09356957 0.02239395 0.012 0.1085462 0.007039147 0.012 0.0935174 0.02169784 0.012 0.107849 0.007004352 0.012 0.0935 0.021 0.012 0.09 0 0.012 0.0935174 0.02030216 0.012 0.09356957 0.01960605 0.012 0.09365637 0.01891341 0.012 0.09377759 0.01822595 0.012 0.09393291 0.0175454 0.012 0.09412198 0.01687343 0.012 0.09434431 0.01621172 0.012 0.09459933 0.01556191 0.012 0.09488644 0.01492563 0.012 0.0952049 0.01430444 0.012 0.09555392 0.01369991 0.012 0.09593266 0.01311352 0.012 0.09634014 0.01254674 0.012 0.09677538 0.01200097 0.012 0.09723727 0.01147758 0.012 0.09772469 0.01097786 0.012 0.0982364 0.01050306 0.012 0.09877114 0.01005436 0.012 0.09932759 0.009632868 0.012 0.09990435 0.009239637 0.012 0.1005 0.008875645 0.012 0.1011131 0.008541795 0.012 0.101742 0.008238918 0.012 0.1023852 0.007967768 0.012 0.1030412 0.007729017 0.012 0.1037082 0.007523261 0.012 0.1043847 0.007351009 0.012 0.1050689 0.007212691 0.012 0.1057592 0.007108651 0.012 0.1064538 0.007039147 0.012 0.107151 0.007004352 0 0.008 0 0.042 0 0 0.042 0.008 0 0 0.09 0 0.042 0 0.042 0 0.008 0.042 0.042 0.008 0.042 0 0.09 0.042 0.008 0.118 0.021 0.008 0.1179869 0.02152338 0.008 0.1179478 0.02204546 0.008 0.1178827 0.02256494 0.008 0.1177918 0.02308053 0.008 0.1176753 0.02359095 0.008 0.1175335 0.02409493 0.008 0.1173668 0.02459121 0.008 0.1171755 0.02507857 0.008 0.1169602 0.02555578 0.008 0.1167213 0.02602167 0.008 0.1164596 0.02647507 0.008 0.1161755 0.02691486 0.008 0.1158699 0.02733995 0.008 0.1155435 0.02774927 0.008 0.115197 0.02814181 0.008 0.1148315 0.0285166 0.008 0.1144477 0.0288727 0.008 0.1140466 0.02920923 0.008 0.1136293 0.02952535 0.008 0.1131967 0.02982027 0.008 0.11275 0.03009327 0.008 0.1122902 0.03034365 0.008 0.1118185 0.03057081 0.008 0.1113361 0.03077417 0.008 0.1108441 0.03095324 0.008 0.1103438 0.03110756 0.008 0.1098365 0.03123674 0.008 0.1093233 0.03134048 0.008 0.1088056 0.03141851 0.008 0.1082847 0.03147064 0.008 0.1077618 0.03149674 0.008 0.1072382 0.03149674 0.008 0.1067153 0.03147064 0.008 0.1061944 0.03141851 0.008 0.1056767 0.03134048 0.008 0.1051635 0.03123674 0.008 0.1046562 0.03110756 0.008 0.1041559 0.03095324 0.008 0.1036639 0.03077417 0.008 0.1031815 0.03057081 0.008 0.1027098 0.03034365 0.008 0.10225 0.03009327 0.008 0.1018033 0.02982027 0.008 0.1013707 0.02952535 0.008 0.1009534 0.02920923 0.008 0.1005523 0.0288727 0.008 0.1001685 0.0285166 0.008 0.09980296 0.02814181 0.008 0.09945654 0.02774927 0.008 0.09913011 0.02733995 0.008 0.09882449 0.02691486 0.008 0.09854044 0.02647507 0.008 0.09827867 0.02602167 0.008 0.09803983 0.02555578 0.008 0.0978245 0.02507857 0.008 0.09763322 0.02459121 0.008 0.09746648 0.02409493 0.008 0.09732469 0.02359095 0.008 0.09720819 0.02308053 0.008 0.09711728 0.02256494 0.008 0.09705218 0.02204546 0.008 0.09701305 0.02152338 0.008 0.097 0.021 0.008 0.09701305 0.02047662 0.008 0.09705218 0.01995454 0.008 0.09711728 0.01943506 0.008 0.09720819 0.01891947 0.008 0.09732469 0.01840905 0.008 0.09746648 0.01790507 0.008 0.09763322 0.01740879 0.008 0.0978245 0.01692143 0.008 0.09803983 0.01644422 0.008 0.09827867 0.01597833 0.008 0.09854044 0.01552493 0.008 0.09882449 0.01508514 0.008 0.09913011 0.01466005 0.008 0.09945654 0.01425073 0.008 0.09980296 0.01385819 0.008 0.1001685 0.0134834 0.008 0.1005523 0.0131273 0.008 0.1009534 0.01279077 0.008 0.1013707 0.01247465 0.008 0.1018033 0.01217973 0.008 0.10225 0.01190673 0.008 0.1027098 0.01165635 0.008 0.1031815 0.01142919 0.008 0.1036639 0.01122583 0.008 0.1041559 0.01104676 0.008 0.1046562 0.01089245 0.008 0.1051635 0.01076326 0.008 0.1056767 0.01065952 0.008 0.1061944 0.01058149 0.008 0.1067153 0.01052936 0.008 0.1072382 0.01050326 0.008 0.1077618 0.01050326 0.008 0.1082847 0.01052936 0.008 0.1088056 0.01058149 0.008 0.1093233 0.01065952 0.008 0.1098365 0.01076326 0.008 0.1103438 0.01089245 0.008 0.1108441 0.01104676 0.008 0.1113361 0.01122583 0.008 0.1118185 0.01142919 0.008 0.1122902 0.01165635 0.008 0.11275 0.01190673 0.008 0.1131967 0.01217973 0.008 0.1136293 0.01247465 0.008 0.1140466 0.01279077 0.008 0.1144477 0.0131273 0.008 0.1148315 0.0134834 0.008 0.115197 0.01385819 0.008 0.1155435 0.01425073 0.008 0.1158699 0.01466005 0.008 0.1161755 0.01508514 0.008 0.1164596 0.01552493 0.008 0.1167213 0.01597833 0.008 0.1169602 0.01644422 0.008 0.1171755 0.01692143 0.008 0.1173668 0.01740879 0.008 0.1175335 0.01790507 0.008 0.1176753 0.01840905 0.008 0.1177918 0.01891947 0.008 0.1178827 0.01943506 0.008 0.1179478 0.01995454 0.008 0.1179869 0.02047662 0 0.018 0.016 0 0.01801204 0.01550932 0 0.01804815 0.01501983 0 0.01810823 0.01453269 0 0.01819215 0.0140491 0 0.01829969 0.0135702 0 0.0184306 0.01309715 0 0.01858456 0.0126311 0 0.0187612 0.01217317 0 0.01896011 0.01172445 0 0.01918079 0.01128603 0 0.01942271 0.01085897 0 0.0196853 0.0104443 0 0.01996792 0.01004301 0 0.0202699 0.009656067 0 0.02059049 0.00928441 0 0.02092893 0.008928932 0 0.02128441 0.008590488 0 0.02165607 0.008269896 0 0.02204301 0.007967925 0 0.0224443 0.007685304 0 0.02285897 0.007422714 0 0.02328603 0.007180788 0 0.02372445 0.006960107 0 0.02417317 0.006761205 0 0.0246311 0.006584559 0 0.02509715 0.006430597 0 0.0255702 0.006299687 0 0.0260491 0.006192147 0 0.0265327 0.006108235 0 0.02701983 0.006048153 0 0.02750932 0.006012045 0 0.028 0.006 0 0.018 0.026 0 0.046 0.006 0 0.028 0.036 0 0.02750932 0.03598795 0 0.02701983 0.03595185 0 0.0265327 0.03589177 0 0.0260491 0.03580785 0 0.0255702 0.03570031 0 0.02509715 0.0355694 0 0.0246311 0.03541544 0 0.02417317 0.0352388 0 0.02372445 0.03503989 0 0.02328603 0.03481921 0 0.02285897 0.03457729 0 0.0224443 0.0343147 0 0.02204301 0.03403207 0 0.02165607 0.03373011 0 0.02128441 0.03340951 0 0.02092893 0.03307107 0 0.02059049 0.03271559 0 0.0202699 0.03234393 0 0.01996792 0.03195699 0 0.0196853 0.0315557 0 0.01942271 0.03114103 0 0.01918079 0.03071397 0 0.01896011 0.03027555 0 0.0187612 0.02982683 0 0.01858456 0.0293689 0 0.0184306 0.02890285 0 0.01829969 0.0284298 0 0.01819215 0.0279509 0 0.01810823 0.0274673 0 0.01804815 0.02698017 0 0.01801204 0.02649068 0 0.04649068 0.006012045 0 0.04698017 0.006048153 0 0.0474673 0.006108235 0 0.0479509 0.006192147 0 0.0484298 0.006299687 0 0.04890285 0.006430597 0 0.0493689 0.006584559 0 0.04982684 0.006761205 0 0.05027555 0.006960107 0 0.05071397 0.007180788 0 0.05114103 0.007422714 0 0.0515557 0.007685304 0 0.05195699 0.007967925 0 0.05234393 0.008269896 0 0.05271559 0.008590488 0 0.05307107 0.008928932 0 0.05340951 0.00928441 0 0.05373011 0.009656067 0 0.05403207 0.01004301 0 0.0543147 0.0104443 0 0.05457729 0.01085897 0 0.05481921 0.01128603 0 0.05503989 0.01172445 0 0.0552388 0.01217317 0 0.05541544 0.0126311 0 0.0555694 0.01309715 0 0.05570031 0.0135702 0 0.05580785 0.0140491 0 0.05589177 0.01453269 0 0.05595185 0.01501983 0 0.05598795 0.01550932 0 0.056 0.016 0 0.046 0.036 0 0.056 0.026 0 0.05598795 0.02649068 0 0.05595185 0.02698017 0 0.05589177 0.0274673 0 0.05580785 0.0279509 0 0.05570031 0.0284298 0 0.0555694 0.02890285 0 0.05541544 0.0293689 0 0.0552388 0.02982683 0 0.05503989 0.03027555 0 0.05481921 0.03071397 0 0.05457729 0.03114103 0 0.0543147 0.0315557 0 0.05403207 0.03195699 0 0.05373011 0.03234393 0 0.05340951 0.03271559 0 0.05307107 0.03307107 0 0.05271559 0.03340951 0 0.05234393 0.03373011 0 0.05195699 0.03403207 0 0.0515557 0.0343147 0 0.05114103 0.03457729 0 0.05071397 0.03481921 0 0.05027555 0.03503989 0 0.04982684 0.0352388 0 0.0493689 0.03541544 0 0.04890285 0.0355694 0 0.0484298 0.03570031 0 0.0479509 0.03580785 0 0.0474673 0.03589177 0 0.04698017 0.03595185 0 0.04649068 0.03598795 0.008 0.1215 0.021 0.008 0.1214826 0.02169784 0.008 0.1214304 0.02239395 0.008 0.1213436 0.02308659 0.008 0.1212224 0.02377405 0.008 0.1210671 0.0244546 0.008 0.120878 0.02512657 0.008 0.1206557 0.02578828 0.008 0.1204007 0.02643809 0.008 0.1201136 0.02707437 0.008 0.1197951 0.02769556 0.008 0.1194461 0.02830009 0.008 0.1190673 0.02888648 0.008 0.1186599 0.02945326 0.008 0.1182246 0.02999903 0.008 0.1177627 0.03052242 0.008 0.1172753 0.03102214 0.008 0.1167636 0.03149694 0.008 0.1162289 0.03194564 0.008 0.1156724 0.03236713 0.008 0.1150956 0.03276036 0.008 0.1145 0.03312436 0.008 0.1138869 0.03345821 0.008 0.113258 0.03376108 0.008 0.1126148 0.03403223 0.008 0.1119588 0.03427098 0.008 0.1112918 0.03447674 0.008 0.1106153 0.03464899 0.008 0.1099311 0.03478731 0.008 0.1092408 0.03489135 0.008 0.1085462 0.03496085 0.008 0.107849 0.03499565 0.008 0.107151 0.03499565 0.008 0.1064538 0.03496085 0.008 0.1057592 0.03489135 0.008 0.1050689 0.03478731 0.008 0.1043847 0.03464899 0.008 0.1037082 0.03447674 0.008 0.1030412 0.03427098 0.008 0.1023852 0.03403223 0.008 0.101742 0.03376108 0.008 0.1011131 0.03345821 0.008 0.1005 0.03312436 0.008 0.09990435 0.03276036 0.008 0.09932759 0.03236713 0.008 0.09877114 0.03194564 0.008 0.0982364 0.03149694 0.008 0.09772469 0.03102214 0.008 0.09723727 0.03052242 0.008 0.09677538 0.02999903 0.008 0.09634014 0.02945326 0.008 0.09593266 0.02888648 0.008 0.09555392 0.02830009 0.008 0.0952049 0.02769556 0.008 0.09488644 0.02707437 0.008 0.09459933 0.02643809 0.008 0.09434431 0.02578828 0.008 0.09412198 0.02512657 0.008 0.09393291 0.0244546 0.008 0.09377759 0.02377405 0.008 0.09365637 0.02308659 0.008 0.09356957 0.02239395 0.008 0.0935174 0.02169784 0.008 0.0935 0.021 0.008 0.0935174 0.02030216 0.008 0.09356957 0.01960605 0.008 0.09365637 0.01891341 0.008 0.09377759 0.01822595 0.008 0.09393291 0.0175454 0.008 0.09412198 0.01687343 0.008 0.09434431 0.01621172 0.008 0.09459933 0.01556191 0.008 0.09488644 0.01492563 0.008 0.0952049 0.01430444 0.008 0.09555392 0.01369991 0.008 0.09593266 0.01311352 0.008 0.09634014 0.01254674 0.008 0.09677538 0.01200097 0.008 0.09723727 0.01147758 0.008 0.09772469 0.01097786 0.008 0.0982364 0.01050306 0.008 0.09877114 0.01005436 0.008 0.09932759 0.009632868 0.008 0.09990435 0.009239637 0.008 0.1005 0.008875645 0.008 0.1011131 0.008541795 0.008 0.101742 0.008238918 0.008 0.1023852 0.007967768 0.008 0.1030412 0.007729017 0.008 0.1037082 0.007523261 0.008 0.1043847 0.007351009 0.008 0.1050689 0.007212691 0.008 0.1057592 0.007108651 0.008 0.1064538 0.007039147 0.008 0.107151 0.007004352 0.008 0.107849 0.007004352 0.008 0.1085462 0.007039147 0.008 0.1092408 0.007108651 0.008 0.1099311 0.007212691 0.008 0.1106153 0.007351009 0.008 0.1112918 0.007523261 0.008 0.1119588 0.007729017 0.008 0.1126148 0.007967768 0.008 0.113258 0.008238918 0.008 0.1138869 0.008541795 0.008 0.1145 0.008875645 0.008 0.1150956 0.009239637 0.008 0.1156724 0.009632868 0.008 0.1162289 0.01005436 0.008 0.1167636 0.01050306 0.008 0.1172753 0.01097786 0.008 0.1177627 0.01147758 0.008 0.1182246 0.01200097 0.008 0.1186599 0.01254674 0.008 0.1190673 0.01311352 0.008 0.1194461 0.01369991 0.008 0.1197951 0.01430444 0.008 0.1201136 0.01492563 0.008 0.1204007 0.01556191 0.008 0.1206557 0.01621172 0.008 0.120878 0.01687343 0.008 0.1210671 0.0175454 0.008 0.1212224 0.01822595 0.008 0.1213436 0.01891341 0.008 0.1214304 0.01960605 0.008 0.1214826 0.02030216</float_array>
          <technique_common>
            <accessor count="784" source="#cubeverts-array0-array" stride="3">
              <param type="float" name="X"/>
              <param type="float" name="Y"/>
              <param type="float" name="Z"/>
            </accessor>
          </technique_common>
        </source>
        <source id="cubenormals-array0">
          <float_array count="4716" id="cubenormals-array0-array">0 1 0 0 1 -0 -1 0 0 -1 0 0 -1 0 0 -1 0 0 -1 0 0 -1 0 0 -1 0 0 -1 0 0 -1 0 0 -1 0 0 -1 0 0 -1 0 0 -1 0 0 -1 0 0 -1 0 0 -1 0 0 -1 0 0 -1 0 0 -1 0 0 -1 0 0 -1 0 0 -1 0 0 -1 0 0 -1 0 0 -1 0 0 -1 0 0 -1 0 0 -1 0 0 -1 0 0 -1 0 0 -1 0 0 -1 0 0 -1 0 0 -1 0 0 -1 0 0 -1 0 0 -1 0 0 -1 0 0 -1 0 0 -1 0 0 -1 0 0 -1 0 0 -1 0 0 -1 0 0 -1 0 0 -1 0 0 -1 0 0 -1 0 0 -1 0 0 -1 0 0 -1 0 0 -1 0 0 -1 0 0 -1 0 0 -1 0 0 -1 0 0 -1 0 0 -1 0 0 -1 0 0 -1 0 0 -1 0 0 -1 0 0 -1 0 0 -1 0 0 -1 0 0 -1 0 0 -1 0 0 -1 0 0 -1 0 0 -1 0 0 -1 0 0 -1 0 0 -1 0 0 -1 0 0 -1 0 0 -1 0 0 -1 0 0 -1 0 0 -1 0 0 -1 0 0 -1 0 0 -1 0 0 -1 0 0 -1 0 0 -1 0 0 -1 0 0 -1 0 0 -1 0 0 -1 0 0 -1 0 0 -1 0 0 -1 0 0 -1 0 0 -1 0 0 -1 0 0 -1 0 0 -1 0 0 -1 0 0 -1 0 0 -1 0 0 -1 0 0 -1 0 0 -1 0 0 -1 0 0 -1 0 0 -1 0 0 -1 0 0 -1 0 0 -1 0 0 -1 0 0 -1 0 0 -1 0 0 -1 0 0 -1 0 0 -1 0 0 -1 0 0 -1 0 0 -1 0 0 -1 0 0 -1 0 0 -1 0 0 -1 0 0 -1 0 0 -1 0 0 -1 0 0 -1 0 0 -1 0 0 -1 0 0 -1 0 0 -1 0 0 -1 0 0 -1 0 0 -1 0 0 -1 0 0 -1 0 0 -1 0 0 -1 0 0 -1 0 0 -1 0 0 -1 0 0 -1 0 0 -1 0 0 -1 0 0 -1 0 0 -1 0 0 -1 0 0 -1 0 0 -1 0 0 -1 0 0 -1 0 0 -1 0 0 -1 0 0 -1 0 0 -1 0 0 -1 0 0 -1 0 0 -1 0 0 -1 0 0 -1 0 0 -1 0 0 -1 0 0 -1 0 0 -1 0 0 -1 0 0 -1 0 0 -1 0 0 -1 0 0 -1 0 0 -1 0 0 -1 0 0 -1 0 0 -1 0 0 -1 0 0 -1 0 0 -1 0 0 -1 0 0 -1 0 0 -1 0 0 -1 0 0 -1 0 0 -1 0 0 -1 0 0 -1 0 0 -1 0 0 -1 0 0 -1 0 0 -1 0 0 -1 0 0 -1 0 0 -1 0 0 -1 0 0 -1 0 0 -1 0 0 -1 0 0 -1 0 0 -1 0 0 -1 0 0 -1 0 0 -1 0 0 -1 0 0 -1 0 0 -1 0 0 -1 0 0 -1 0 0 -1 0 0 -1 0 0 -1 0 0 -1 0 0 -1 0 0 -1 0 0 -1 0 0 -1 0 0 -1 0 0 -1 0 0 -1 0 0 -1 0 0 -1 0 0 -1 0 0 -1 0 0 -1 0 0 -1 0 0 -1 0 0 -1 0 0 -1 0 0 -1 0 0 -1 0 0 -1 0 0 -1 0 0 -1 0 0 -1 0 0 -1 0 0 -1 0 0 -1 0 0 -1 0 0 -1 0 0 -1 0 0 -1 0 0 -1 0 0 -1 0 0 -1 0 0 -1 0 0 -1 0 0 -1 0 0 -1 0 0 -1 0 0 -1 0 0 -1 0 0 -1 0 0 -1 0 0 -1 0 0 -1 0 0 -1 0 0 -1 0 0 -1 0 0 -1 0 0 -1 0 0 -1 0 0 -1 0 0 -1 0 0 -1 0 0 -1 0 0 -1 0 0 -1 0 0 -1 0 0 1 0 -0 1 -0 0 1 0 -0 1 -0 0 1 0 -0 1 -0 0 1 0 -0 1 -0 0 1 0 -0 1 -0 0 1 0 -0 1 -0 0 1 0 -0 1 -0 0 1 0 -0 1 -0 0 1 0 -0 1 -0 0 1 0 -0 1 -0 0 1 0 -0 1 -0 0 1 0 -0 1 -0 0 1 0 -0 1 -0 0 1 0 -0 1 -0 0 1 0 -0 1 -0 0 1 0 -0 1 0 0 1 0 0 1 0 0 1 0 0 1 0 0 1 0 0 1 0 0 1 0 0 1 0 0 1 0 0 1 0 0 1 0 0 1 -0 0 1 0 -0 1 0 -0 1 0 -0 1 0 -0 1 0 -0 1 0 -0 1 0 -0 1 0 0 1 0 0 1 0 0 1 0 0 1 0 0 1 0 0 1 0 0 1 0 0 1 0 0 1 0 0 1 0 0 1 0 0 1 0 0 1 0 0 1 0 0 1 0 0 1 0 0 1 0 0 1 0 0 1 0 -0 1 -0 0 1 0 -0 1 -0 0 1 0 -0 1 -0 0 1 0 -0 1 -0 0 1 0 -0 1 -0 0 1 0 -0 1 -0 0 1 0 -0 1 -0 0 1 0 -0 1 -0 0 1 0 -0 1 -0 0 1 0 -0 1 -0 0 1 0 -0 1 -0 0 1 0 -0 1 -0 0 1 0 -0 1 0 0 1 0 0 1 0 0 1 0 0 1 0 0 1 0 0 1 0 0 1 0 0 1 0 0 1 0 0 1 0 0 1 0 0 1 0 0 1 0 0 1 0 0 1 0 0 1 0 0 1 0 0 1 0 0 1 0 0 1 0 0 1 0 0 1 0 0 1 0 0 1 0 0 1 0 0 1 0 0 1 0 0 1 0 0 1 0 0 1 0 0 1 0 -0 1 0 0 1 0 0 1 0 0 0 -0 -1 0 0 -1 0 0 -1 0 0 -1 0 0 -1 0 0 -1 0 0 1 0 0 1 0 0 1 0 0 1 0 0 1 0 0 1 0 -1 0 0 -1 0 0 -0.9996891 -0.02493366 0 -0.9996891 -0.02493366 0 -0.9972039 -0.07472835 -0 -0.9972039 -0.07472835 0 -0.9922388 -0.1243477 -0 -0.9922388 -0.1243477 0 -0.984808 -0.1736469 -0 -0.984808 -0.1736469 0 -0.9749273 -0.2225233 -0 -0.9749273 -0.2225233 0 -0.9626266 -0.270832 0 -0.9479283 -0.3184838 -0 -0.9626266 -0.270832 0 -0.9479283 -0.3184838 0 -0.930871 -0.3653478 -0 -0.930871 -0.3653478 0 -0.9115074 -0.4112835 -0 -0.9115074 -0.4112835 0 -0.889873 -0.4562084 0 -0.8660249 -0.5000009 -0 -0.889873 -0.4562084 0 -0.8660249 -0.5000009 -0 -0.8400233 -0.5425503 0 -0.8400233 -0.5425503 -0 -0.8119366 -0.5837457 0 -0.8119366 -0.5837457 -0 -0.7818318 -0.6234894 0 -0.7818318 -0.6234894 0 -0.7497828 -0.661684 -0 -0.7497828 -0.661684 0 -0.71587 -0.6982335 -0 -0.71587 -0.6982335 0 -0.6801704 -0.7330539 0 -0.6427901 -0.7660423 -0 -0.6801704 -0.7330539 0 -0.6427901 -0.7660423 -0 -0.603803 -0.7971335 0 -0.603803 -0.7971335 0 -0.5633221 -0.8262373 0 -0.5214329 -0.8532922 -0 -0.5633221 -0.8262373 0 -0.478256 -0.8782205 0 -0.5214329 -0.8532922 0 -0.478256 -0.8782205 0 -0.43388 -0.9009706 -0 -0.43388 -0.9009706 0 -0.3884355 -0.9214759 -0 -0.3884355 -0.9214759 0 -0.3420201 -0.9396927 -0 -0.3420201 -0.9396927 0 -0.2947573 -0.9555721 -0 -0.2947573 -0.9555721 0 -0.2467577 -0.9690772 -0 -0.2467577 -0.9690772 0 -0.1981419 -0.9801733 -0 -0.1981419 -0.9801733 0 -0.1490459 -0.9888304 -0 -0.1490459 -0.9888304 0 -0.0995672 -0.9950309 -0 -0.0995672 -0.9950309 0 -0.04984532 -0.998757 -0 -0.04984532 -0.998757 0 0 -1 0 0.04984532 -0.998757 -0 -0 -1 0 0.04984532 -0.998757 0 0.0995672 -0.9950309 0 0.0995672 -0.9950309 0 0.1490459 -0.9888304 0 0.1490459 -0.9888304 0 0.1981419 -0.9801733 0 0.1981419 -0.9801733 0 0.2467577 -0.9690772 0 0.2467577 -0.9690772 0 0.2947573 -0.9555721 0 0.2947573 -0.9555721 0 0.3420201 -0.9396927 0 0.3420201 -0.9396927 0 0.3884355 -0.9214759 0 0.3884355 -0.9214759 0 0.43388 -0.9009706 0 0.43388 -0.9009706 0 0.478256 -0.8782205 0 0.478256 -0.8782205 0 0.5214329 -0.8532922 0 0.5214329 -0.8532922 0 0.5633221 -0.8262373 0 0.5633221 -0.8262373 0 0.603803 -0.7971335 0 0.603803 -0.7971335 0 0.6427901 -0.7660423 0 0.6427901 -0.7660423 0 0.6801704 -0.7330539 0 0.6801704 -0.7330539 0 0.71587 -0.6982335 0 0.71587 -0.6982335 0 0.7497828 -0.661684 0 0.7497828 -0.661684 0 0.7818318 -0.6234894 0 0.7818318 -0.6234894 0 0.8119366 -0.5837457 0 0.8119366 -0.5837457 0 0.8400233 -0.5425503 0 0.8660249 -0.5000009 0 0.8400233 -0.5425503 0 0.8660249 -0.5000009 0 0.889873 -0.4562084 0 0.889873 -0.4562084 0 0.9115074 -0.4112835 0 0.9115074 -0.4112835 0 0.930871 -0.3653478 0 0.930871 -0.3653478 0 0.9479283 -0.3184838 0 0.9479283 -0.3184838 0 0.9626266 -0.270832 0 0.9626266 -0.270832 0 0.9749273 -0.2225233 0 0.9749273 -0.2225233 0 0.984808 -0.1736469 0 0.984808 -0.1736469 0 0.9922388 -0.1243477 0 0.9922388 -0.1243477 0 0.9972039 -0.07472835 0 0.9972039 -0.07472835 0 0.9996891 -0.02493366 0 0.9996891 -0.02493366 0 0.9996891 0.02493366 0 0.9996891 0.02493366 0 0.9972039 0.07472835 0 0.9972039 0.07472835 0 0.9922388 0.1243477 0 0.9922388 0.1243477 0 0.984808 0.1736469 0 0.984808 0.1736469 0 0.9749273 0.2225233 0 0.9749273 0.2225233 0 0.9626266 0.270832 0 0.9626266 0.270832 0 0.9479283 0.3184838 0 0.9479283 0.3184838 0 0.930871 0.3653478 0 0.930871 0.3653478 0 0.9115074 0.4112835 0 0.9115074 0.4112835 0 0.8898726 0.4562091 0 0.8898726 0.4562091 -0 0.8660259 0.4999994 0 0.8660259 0.4999994 0 0.8400233 0.5425503 0 0.8400233 0.5425503 0 0.811936 0.5837466 0 0.811936 0.5837466 0 0.7818318 0.6234894 0 0.7818318 0.6234894 0 0.7497828 0.661684 0 0.7497828 0.661684 0 0.71587 0.6982335 0 0.71587 0.6982335 0 0.6801695 0.7330549 0 0.6801695 0.7330549 0 0.6427913 0.7660414 0 0.6427913 0.7660414 0 0.603803 0.7971335 0 0.603803 0.7971335 0 0.5633221 0.8262373 0 0.5633221 0.8262373 0 0.5214316 0.853293 0 0.5214316 0.853293 0 0.478256 0.8782205 -0 0.43388 0.9009706 0 0.478256 0.8782205 0 0.43388 0.9009706 0 0.3884386 0.9214746 0 0.3884386 0.9214746 0 0.3420185 0.9396933 0 0.3420185 0.9396933 0 0.2947556 0.9555727 0 0.2947556 0.9555727 0 0.2467577 0.9690772 0 0.2467577 0.9690772 0 0.1981453 0.9801726 0 0.1981453 0.9801726 -0 0.1490423 0.9888308 0 0.1490423 0.9888308 0 0.09956901 0.9950306 0 0.09956901 0.9950306 0 0.04984532 0.998757 0 0.04984532 0.998757 0 -0 1 0 0 1 0 -0.04984532 0.998757 0 -0.04984532 0.998757 0 -0.09956901 0.9950306 0 -0.09956901 0.9950306 0 -0.1490423 0.9888308 0 -0.1490423 0.9888308 0 -0.1981453 0.9801726 0 -0.1981453 0.9801726 0 -0.2467577 0.9690772 0 -0.2467577 0.9690772 0 -0.2947556 0.9555727 0 -0.2947556 0.9555727 0 -0.3420185 0.9396933 0 -0.3420185 0.9396933 0 -0.3884386 0.9214746 0 -0.3884386 0.9214746 0 -0.43388 0.9009706 0 -0.43388 0.9009706 0 -0.478256 0.8782205 0 -0.478256 0.8782205 0 -0.5214316 0.853293 0 -0.5633221 0.8262373 0 -0.5214316 0.853293 0 -0.5633221 0.8262373 0 -0.603803 0.7971335 0 -0.603803 0.7971335 0 -0.6427913 0.7660414 0 -0.6427913 0.7660414 0 -0.6801695 0.7330549 0 -0.6801695 0.7330549 0 -0.71587 0.6982335 0 -0.71587 0.6982335 0 -0.7497828 0.661684 0 -0.7497828 0.661684 0 -0.7818318 0.6234894 0 -0.7818318 0.6234894 0 -0.811936 0.5837466 0 -0.811936 0.5837466 0 -0.8400233 0.5425503 0 -0.8400233 0.5425503 0 -0.8660259 0.4999994 0 -0.8660259 0.4999994 0 -0.8898726 0.4562091 0 -0.8898726 0.4562091 0 -0.9115074 0.4112835 0 -0.9115074 0.4112835 0 -0.930871 0.3653478 0 -0.930871 0.3653478 0 -0.9479283 0.3184838 0 -0.9479283 0.3184838 0 -0.9626266 0.270832 0 -0.9626266 0.270832 0 -0.9749273 0.2225233 0 -0.9749273 0.2225233 0 -0.984808 0.1736469 0 -0.984808 0.1736469 0 -0.9922388 0.1243477 0 -0.9972039 0.07472835 0 -0.9922388 0.1243477 0 -0.9972039 0.07472835 0 -0.9996891 0.02493366 0 -0.9996891 0.02493366 0 0.9996988 0.02454014 0 0.9996988 0.02454014 0 0.9972904 0.07356608 0 0.9972904 0.07356608 0 0.9924797 0.1224091 0 0.9924797 0.1224091 0 0.9852777 0.1709613 0 0.9852777 0.1709613 0 0.9757014 0.2191045 0 0.9757014 0.2191045 0 0.9637761 0.2667127 0 0.9637761 0.2667127 0 0.9495292 0.3136788 0 0.9495292 0.3136788 0 0.932993 0.3598946 0 0.932993 0.3598946 0 0.9142084 0.4052445 0 0.9142084 0.4052445 0 0.8932244 0.4496112 0 0.8932244 0.4496112 0 0.8700873 0.4928976 0 0.8700873 0.4928976 0 0.8448531 0.5349984 0 0.8448531 0.5349984 0 0.8175862 0.5758062 0 0.8175862 0.5758062 0 0.788346 0.6152322 0 0.788346 0.6152322 0 0.757209 0.6531727 0 0.757209 0.6531727 0 0.7242468 0.6895409 0 0.7242468 0.6895409 0 0.6895409 0.7242468 0 0.6895409 0.7242468 0 0.6531727 0.757209 0 0.6531727 0.757209 0 0.6152316 0.7883465 0 0.6152316 0.7883465 0 0.5758082 0.8175849 -0 0.5349977 0.8448535 0 0.5758082 0.8175849 0 0.5349977 0.8448535 0 0.4928984 0.8700868 0 0.4928984 0.8700868 0 0.4496112 0.8932244 -0 0.4052405 0.9142101 0 0.4496112 0.8932244 0 0.4052405 0.9142101 0 0.3598953 0.9329927 0 0.3598953 0.9329927 0 0.313682 0.9495281 -0 0.2667131 0.963776 0 0.313682 0.9495281 0 0.2667131 0.963776 0 0.2191008 0.9757023 0 0.2191008 0.9757023 0 0.170962 0.9852776 -0 0.1224103 0.9924796 0 0.170962 0.9852776 0 0.1224103 0.9924796 0 0.07356511 0.9972904 0 0.07356511 0.9972904 0 0.02454111 0.9996988 0 0.02454111 0.9996988 0 1 0 0 1 0 0 0 1 0 -0 1 0 0.02454402 -0.9996988 0 0.02454402 -0.9996988 0 0.07356221 -0.9972906 0 0.07356221 -0.9972906 0 0.1224094 -0.9924797 0 0.1224094 -0.9924797 0 0.170961 -0.9852778 0 0.170961 -0.9852778 0 0.2191008 -0.9757023 0 0.2191008 -0.9757023 0 0.2667122 -0.9637762 0 0.2667122 -0.9637762 0 0.3136863 -0.9495267 0 0.3136863 -0.9495267 0 0.3598919 -0.932994 0 0.3598919 -0.932994 0 0.4052405 -0.9142101 0 0.4052405 -0.9142101 0 0.4496104 -0.8932248 0 0.4496104 -0.8932248 0 0.4929014 -0.8700852 0 0.4929014 -0.8700852 0 0.5349956 -0.8448548 0 0.5758114 -0.8175826 0 0.5349956 -0.8448548 0 0.5758114 -0.8175826 0 0.6152274 -0.7883497 0 0.6152274 -0.7883497 0 0.6531749 -0.757207 0 0.6531749 -0.757207 0 0.6895409 -0.7242468 0 0.6895409 -0.7242468 0 0.724245 -0.6895428 0 0.724245 -0.6895428 0 0.7572107 -0.6531708 0 0.7572107 -0.6531708 0 0.788346 -0.6152322 0 0.788346 -0.6152322 0 0.8175862 -0.5758062 0 0.8175862 -0.5758062 0 0.8448531 -0.5349984 0 0.8700868 -0.4928984 0 0.8448531 -0.5349984 0 0.8700868 -0.4928984 0 0.8932248 -0.4496104 0 0.9142087 -0.4052437 0 0.8932248 -0.4496104 0 0.9142087 -0.4052437 0 0.9329927 -0.3598953 0 0.949529 -0.3136794 0 0.9329927 -0.3598953 0 0.949529 -0.3136794 0 0.9637762 -0.2667122 0 0.9637762 -0.2667122 0 0.9757014 -0.2191045 0 0.9757014 -0.2191045 0 0.9852778 -0.170961 0 0.9852778 -0.170961 0 0.9924797 -0.1224094 0 0.9924797 -0.1224094 0 0.9972904 -0.07356608 0 0.9972904 -0.07356608 0 0.9996988 -0.02454014 0 0.9996988 -0.02454014 0 -0.02454111 0.9996988 0 -0.02454111 0.9996988 0 -0.07356511 0.9972904 0 -0.07356511 0.9972904 0 -0.1224103 0.9924796 0 -0.1224103 0.9924796 0 -0.1709613 0.9852777 0 -0.1709613 0.9852777 0 -0.2191016 0.975702 0 -0.2191016 0.975702 0 -0.2667131 0.963776 0 -0.2667131 0.963776 0 -0.3136808 0.9495285 0 -0.3136808 0.9495285 0 -0.3598953 0.9329927 0 -0.3598953 0.9329927 0 -0.4052419 0.9142095 0 -0.4052419 0.9142095 0 -0.4496128 0.8932236 0 -0.4496128 0.8932236 0 -0.4928984 0.8700868 0 -0.4928984 0.8700868 0 -0.5349959 0.8448547 0 -0.5349959 0.8448547 0 -0.5758082 0.8175849 0 -0.5758082 0.8175849 0 -0.6152316 0.7883465 0 -0.6152316 0.7883465 0 -0.6531708 0.7572107 0 -0.6531708 0.7572107 0 -0.6895428 0.724245 0 -0.6895428 0.724245 0 -0.7242468 0.6895409 0 -0.7242468 0.6895409 0 -0.757207 0.6531749 0 -0.757207 0.6531749 0 -0.7883497 0.6152274 0 -0.7883497 0.6152274 0 -0.8175826 0.5758114 0 -0.8448548 0.5349956 0 -0.8175826 0.5758114 0 -0.8448548 0.5349956 0 -0.8700857 0.4929006 0 -0.8700857 0.4929006 0 -0.8932244 0.4496112 0 -0.9142098 0.4052412 0 -0.8932244 0.4496112 0 -0.9142098 0.4052412 0 -0.9329943 0.3598912 0 -0.9329943 0.3598912 0 -0.9495268 0.3136858 0 -0.9637761 0.2667127 0 -0.9495268 0.3136858 0 -0.9637761 0.2667127 0 -0.9757023 0.2191008 0 -0.9757023 0.2191008 0 -0.9852777 0.1709613 0 -0.9924797 0.1224091 0 -0.9852777 0.1709613 0 -0.9924797 0.1224091 0 -0.9972906 0.07356221 0 -0.9972906 0.07356221 0 -0.9996988 0.02454402 0 -0.9996988 0.02454402 -0 0 -1 0 -0 -1 0 -1 0 0 -1 0 -0 -0.9996988 -0.02454402 0 -0.9996988 -0.02454402 0 -0.9972906 -0.07356221 -0 -0.9972906 -0.07356221 0 -0.9924797 -0.1224094 -0 -0.9924797 -0.1224094 0 -0.9852778 -0.170961 -0 -0.9852778 -0.170961 0 -0.9757023 -0.2191008 -0 -0.9757023 -0.2191008 0 -0.9637762 -0.2667122 -0 -0.9637762 -0.2667122 0 -0.9495267 -0.3136863 -0 -0.9495267 -0.3136863 0 -0.932994 -0.3598919 -0 -0.932994 -0.3598919 -0 -0.9142101 -0.4052405 0 -0.9142101 -0.4052405 0 -0.8932248 -0.4496104 -0 -0.8932248 -0.4496104 0 -0.8700852 -0.4929014 -0 -0.8700852 -0.4929014 0 -0.8448548 -0.5349956 -0 -0.8448548 -0.5349956 0 -0.8175826 -0.5758114 -0 -0.8175826 -0.5758114 0 -0.7883497 -0.6152274 -0 -0.7883497 -0.6152274 0 -0.7572088 -0.653173 -0 -0.7572088 -0.653173 0 -0.724245 -0.6895428 -0 -0.724245 -0.6895428 0 -0.6895428 -0.724245 -0 -0.6895428 -0.724245 0 -0.653173 -0.7572088 -0 -0.653173 -0.7572088 0 -0.6152274 -0.7883497 -0 -0.6152274 -0.7883497 0 -0.5758114 -0.8175826 -0 -0.5758114 -0.8175826 0 -0.5349938 -0.844856 -0 -0.5349938 -0.844856 0 -0.4929014 -0.8700852 -0 -0.4929014 -0.8700852 0 -0.449612 -0.8932239 -0 -0.449612 -0.8932239 0 -0.4052419 -0.9142095 -0 -0.4052419 -0.9142095 0 -0.3598919 -0.932994 -0 -0.3598919 -0.932994 0 -0.3136852 -0.9495271 -0 -0.3136852 -0.9495271 0 -0.2667122 -0.9637762 0 -0.2191016 -0.975702 -0 -0.2667122 -0.9637762 0 -0.2191016 -0.975702 0 -0.1709604 -0.9852779 -0 -0.1709604 -0.9852779 0 -0.1224094 -0.9924797 0 -0.07356221 -0.9972906 -0 -0.1224094 -0.9924797 0 -0.07356221 -0.9972906 0 -0.02454402 -0.9996988 -0 -0.02454402 -0.9996988 0 -1 0 0 -1 0 -0 -0.9996892 -0.02493007 0 -0.9996892 -0.02493007 0 -0.9972034 -0.0747354 -0 -0.9972034 -0.0747354 0 -0.9922392 -0.1243441 -0 -0.9922392 -0.1243441 0 -0.984808 -0.1736469 -0 -0.984808 -0.1736469 0 -0.9749298 -0.2225129 -0 -0.9749298 -0.2225129 0 -0.9626237 -0.2708423 -0 -0.9626237 -0.2708423 0 -0.947925 -0.3184933 -0 -0.947925 -0.3184933 0 -0.9308746 -0.3653386 -0 -0.9308746 -0.3653386 0 -0.9115066 -0.4112855 -0 -0.9115066 -0.4112855 0 -0.8898739 -0.4562066 -0 -0.8898739 -0.4562066 -0 -0.8660251 -0.5000005 0 -0.8660251 -0.5000005 -0 -0.8400249 -0.5425478 0 -0.8400249 -0.5425478 -0 -0.8119397 -0.5837412 0 -0.8119397 -0.5837412 0 -0.7818307 -0.6234908 0 -0.7818307 -0.6234908 0 -0.7497792 -0.6616881 -0 -0.7497792 -0.6616881 0 -0.7158664 -0.6982373 -0 -0.7158664 -0.6982373 0 -0.6801739 -0.7330508 0 -0.6427876 -0.7660444 -0 -0.6801739 -0.7330508 0 -0.6427876 -0.7660444 -0 -0.6038001 -0.7971358 0 -0.6038001 -0.7971358 0 -0.5633263 -0.8262345 0 -0.5633263 -0.8262345 0 -0.5214319 -0.8532929 0 -0.4782543 -0.8782213 -0 -0.5214319 -0.8532929 0 -0.4782543 -0.8782213 0 -0.4338828 -0.9009693 -0 -0.4338828 -0.9009693 0 -0.3884388 -0.9214745 -0 -0.3884388 -0.9214745 0 -0.3420208 -0.9396924 -0 -0.3420208 -0.9396924 0 -0.2947482 -0.9555749 -0 -0.2947482 -0.9555749 0 -0.2467611 -0.9690763 -0 -0.2467611 -0.9690763 0 -0.198145 -0.9801728 -0 -0.198145 -0.9801728 0 -0.1490448 -0.9888304 -0 -0.1490448 -0.9888304 0 -0.09956648 -0.9950309 -0 -0.09956648 -0.9950309 0 -0.04984386 -0.998757 -0 -0.04984386 -0.998757 0 0 -1 0 0.04984386 -0.998757 -0 -0 -1 0 0.04984386 -0.998757 0 0.09956648 -0.9950309 0 0.09956648 -0.9950309 0 0.1490448 -0.9888304 0 0.1490448 -0.9888304 0 0.198145 -0.9801728 0 0.198145 -0.9801728 0 0.2467611 -0.9690763 0 0.2467611 -0.9690763 0 0.2947482 -0.9555749 0 0.2947482 -0.9555749 0 0.3420208 -0.9396924 0 0.3420208 -0.9396924 0 0.3884388 -0.9214745 0 0.3884388 -0.9214745 0 0.4338828 -0.9009693 0 0.4338828 -0.9009693 0 0.4782543 -0.8782213 0 0.4782543 -0.8782213 0 0.5214319 -0.8532929 0 0.5214319 -0.8532929 0 0.5633263 -0.8262345 0 0.5633263 -0.8262345 0 0.6038001 -0.7971358 0 0.6038001 -0.7971358 0 0.6427876 -0.7660444 0 0.6427876 -0.7660444 0 0.6801739 -0.7330508 0 0.6801739 -0.7330508 0 0.7158664 -0.6982373 0 0.7158664 -0.6982373 0 0.7497792 -0.6616881 0 0.7497792 -0.6616881 0 0.7818307 -0.6234908 0 0.7818307 -0.6234908 0 0.8119397 -0.5837412 0 0.8119397 -0.5837412 0 0.8400249 -0.5425478 0 0.8660251 -0.5000005 0 0.8400249 -0.5425478 0 0.8660251 -0.5000005 0 0.8898739 -0.4562066 0 0.8898739 -0.4562066 0 0.9115066 -0.4112855 0 0.9115066 -0.4112855 0 0.9308746 -0.3653386 0 0.9308746 -0.3653386 0 0.947925 -0.3184933 0 0.947925 -0.3184933 0 0.9626237 -0.2708423 0 0.9626237 -0.2708423 0 0.9749298 -0.2225129 0 0.9749298 -0.2225129 0 0.984808 -0.1736469 0 0.984808 -0.1736469 0 0.9922392 -0.1243441 0 0.9922392 -0.1243441 0 0.9972034 -0.0747354 0 0.9972034 -0.0747354 0 0.9996892 -0.02493007 0 0.9996892 -0.02493007 0 0.9996892 0.02493007 0 0.9996892 0.02493007 0 0.9972034 0.0747354 0 0.9972034 0.0747354 0 0.9922392 0.1243441 0 0.9922392 0.1243441 0 0.984808 0.1736469 0 0.984808 0.1736469 0 0.9749298 0.2225129 0 0.9749298 0.2225129 0 0.9626237 0.2708423 0 0.9626237 0.2708423 0 0.947925 0.3184933 0 0.947925 0.3184933 0 0.9308746 0.3653386 0 0.9308746 0.3653386 0 0.9115063 0.411286 0 0.9115063 0.411286 0 0.8898739 0.4562066 0 0.8898739 0.4562066 -0 0.8660255 0.5 0 0.8660255 0.5 0 0.8400254 0.5425472 0 0.8400254 0.5425472 0 0.8119388 0.5837426 0 0.8119388 0.5837426 0 0.7818307 0.6234908 0 0.7818307 0.6234908 0 0.7497792 0.6616881 0 0.7497792 0.6616881 0 0.7158664 0.6982373 0 0.7158664 0.6982373 0 0.6801747 0.73305 0 0.6801747 0.73305 0 0.6427876 0.7660444 0 0.6427876 0.7660444 0 0.6038019 0.7971345 0 0.6038019 0.7971345 0 0.5633225 0.826237 0 0.5633225 0.826237 0 0.5214339 0.8532917 -0 0.4782533 0.8782219 0 0.5214339 0.8532917 0 0.4782533 0.8782219 0 0.4338839 0.9009687 0 0.4338839 0.9009687 0 0.3884365 0.9214755 0 0.3884365 0.9214755 0 0.3420208 0.9396924 0 0.3420208 0.9396924 0 0.2947525 0.9555736 0 0.2947525 0.9555736 0 0.2467592 0.9690768 0 0.2467592 0.9690768 0 0.1981463 0.9801724 0 0.1981463 0.9801724 0 0.1490421 0.9888309 0 0.1490421 0.9888309 0 0.09956716 0.9950309 0 0.09956716 0.9950309 0 0.0498459 0.9987569 0 0.0498459 0.9987569 0 -0 1 0 0 1 0 -0.0498459 0.9987569 0 -0.0498459 0.9987569 0 -0.09956716 0.9950309 0 -0.09956716 0.9950309 0 -0.1490421 0.9888309 0 -0.1490421 0.9888309 0 -0.1981463 0.9801724 0 -0.1981463 0.9801724 0 -0.2467592 0.9690768 0 -0.2467592 0.9690768 0 -0.2947525 0.9555736 0 -0.2947525 0.9555736 0 -0.3420208 0.9396924 0 -0.3420208 0.9396924 0 -0.3884365 0.9214755 0 -0.3884365 0.9214755 0 -0.4338839 0.9009687 0 -0.4338839 0.9009687 0 -0.4782533 0.8782219 0 -0.4782533 0.8782219 0 -0.5214339 0.8532917 0 -0.5214339 0.8532917 0 -0.5633225 0.826237 0 -0.5633225 0.826237 0 -0.6038019 0.7971345 0 -0.6038019 0.7971345 0 -0.6427876 0.7660444 0 -0.6427876 0.7660444 0 -0.6801747 0.73305 0 -0.6801747 0.73305 0 -0.7158664 0.6982373 0 -0.7158664 0.6982373 0 -0.7497792 0.6616881 0 -0.7497792 0.6616881 0 -0.7818307 0.6234908 0 -0.7818307 0.6234908 0 -0.8119388 0.5837426 0 -0.8119388 0.5837426 0 -0.8400254 0.5425472 0 -0.8400254 0.5425472 0 -0.8660255 0.5 0 -0.8660255 0.5 0 -0.8898739 0.4562066 0 -0.8898739 0.4562066 0 -0.9115063 0.411286 0 -0.9115063 0.411286 0 -0.9308746 0.3653386 0 -0.9308746 0.3653386 0 -0.947925 0.3184933 0 -0.947925 0.3184933 0 -0.9626237 0.2708423 0 -0.9626237 0.2708423 0 -0.9749298 0.2225129 0 -0.9749298 0.2225129 0 -0.984808 0.1736469 0 -0.984808 0.1736469 0 -0.9922392 0.1243441 0 -0.9922392 0.1243441 0 -0.9972034 0.0747354 0 -0.9972034 0.0747354 0 -0.9996892 0.02493007 0 -0.9996892 0.02493007 1 0 -0 1 -0 0 1 0 -0 1 -0 0 1 -0 0 1 0 -0 1 -0 0 1 0 -0 1 0 -0 1 -0 0 1 0 -0 1 -0 0 1 0 -0 1 -0 0 1 0 -0 1 -0 0 1 0 -0 1 -0 0 1 -0 0 1 0 -0 1 0 -0 1 -0 0 1 0 -0 1 -0 0 1 0 -0 1 -0 0 1 0 -0 1 -0 0 1 -0 0 1 0 -0 1 -0 0 1 0 -0 1 -0 0 1 0 0 1 -0 0 1 -0 0 1 -0 0 1 -0 0 1 -0 0 1 -0 0 1 -0 0 1 -0 0 1 -0 0 1 -0 0 1 -0 0 1 -0 0 1 -0 0 1 -0 0 1 -0 0 1 -0 0 1 -0 0 1 -0 0 1 -0 0 1 -0 0 1 -0 0 1 -0 0 1 -0 0 1 -0 0 1 -0 0 1 -0 0 1 -0 0 1 0 0 1 0 0 1 0 0 1 0 0 1 0 0 1 0 0 1 0 0 1 0 0 1 0 0 1 0 0 1 0 0 1 0 0 1 0 0 1 0 0 1 0 0 1 0 0 1 0 0 1 0 0 1 0 0 1 0 0 1 0 0 1 0 0 1 0 -0 1 0 -0 1 0 -0 1 0 -0 1 0 -0 1 0 -0 1 0 -0 1 0 -0 1 0 -0 1 0 -0 1 0 -0 1 0 0 1 0 0 1 0 0 1 0 0 1 0 0 1 0 0 1 0 0 1 0 0 1 0 0 1 0 0 1 0 0 1 0 0 1 0 0 1 0 0 1 0 0 1 0 0 1 0 0 1 0 0 1 0 0 1 0 0 1 0 0 1 0 0 1 0 0 1 0 0 1 0 0 1 0 0 1 0 0 1 0 0 1 0 0 1 0 0 1 0 0 1 0 0 1 0 0 1 0 0 1 0 0 1 -0 0 1 -0 0 1 -0 0 1 -0 0 1 -0 0 1 -0 0 1 0 0 0 1 0 0 1 -0 1 0 0 1 -0 0 1 0 0 1 0 0 1 0 0 1 -0 0 1 0 0 1 0 0 1 -0 0 1 0 0 1 0 0 1 0 0 1 0 0 1 -0 0 1 0 0 1 0 0 1 0 0 1 0 0 1 -0 0 1 0 0 1 0 0 1 -0 0 1 0 0 1 0 0 1 0 0 1 0 0 1 -0 0 1 0 0 1 0 0 1 -0 0 1 0 0 1 0 0 1 0 0 1 -0 0 1 0 0 1 0 0 1 0 0 1 -0 0 1 0 0 1 0 0 1 0 0 1 -0 0 1 0 0 1 0 0 1 -0 0 1 0 0 1 0 0 1 0 0 1 -0 0 1 0 0 1 0 0 1 0 0 1 -0 0 1 0 0 1 0 0 1 0 0 1 -0 0 1 0 0 1 0 0 1 -0 0 1 0 0 1 -0 0 1 0 0 1 -0 0 1 0 0 1 -0 0 1 -0 0 1 0 0 1 0 0 1 0 0 1 -0 0 1 0 0 1 0 0 1 0 0 1 0 0 1 -0 0 1 0 0 1 0 0 1 0 0 1 -0 0 1 0 0 1 0 0 1 0 0 1 0 0 1 -0 0 1 0 0 1 0 0 1 -0 0 1 0 0 1 0 0 1 0 0 1 0 0 1 -0 0 1 0 0 1 0 0 1 -0 0 1 0 0 1 0 0 1 0 0 1 -0 0 1 0 0 1 0 0 1 0 0 1 0 0 1 -0 0 1 0 0 1 0 0 1 -0 0 1 0 0 1 0 0 1 0 0 1 0 0 1 -0 0 1 0 0 1 0 0 1 -0 0 1 0 0 1 0 0 1 0 0 1 -0 0 1 0 0 1 0 0 1 0 0 1 -0 0 1 0 0 1 0 0 1 -0 0 1 0 0 1 0 0 1 -0 0 1 -0 0 1 0 0 1 0 0 1 -0 0 1 0 0 1 0 0 1 0 0 1 -0 0 1 0 0 1 0 0 1 0 0 1 -0 0 1 0 0 1 0 0 1 -0 0 1 0 0 1 0 0 1 0 0 1 0 0 1 -0 0 1 0 0 1 0 0 1 0 0 1 -0 0 1 0 0 1 0 0 1 0 0 1 -0 0 1 0 0 1 0 0 1 0 0 1 0 0 1 -0 0 1 0 0 1 -0 0 1 0 0 1 0 0 1 0 0 1 0 0 1 0 0 1 -0 0 1 0 0 1 0 0 1 0 0 1 -0 0 1 0 0 1 0 0 1 -0 0 1 0 0 1 0 0 1 0 0 1 -0 0 1 0 0 1 0 0 1 0 0 1 -0 0 1 0 0 1 0 0 1 0 0 1 -0 0 1 -0 0 1 0 0 1 0 0 1 0 0 1 -0 0 1 0 0 1 0 0 1 0 0 1 0 0 1 -0 0 1 0 0 1 0 0 1 0 0 1 -0 0 1 0 0 1 0 0 1 0 0 1 -0 0 1 0 0 1 0 0 1 0 0 1 0 0 1 -0 0 1 0 0 1 0 0 1 -0 0 1 0 0 1 0 0 1 -0 0 1 0 0 1 0 0 1 0 0 1 0 0 1 -0 0 1 0 0 1 0 0 1 -0 0 1 0 0 1 0 0 1 0 0 1 0 0 1 -0 0 1 0 0 1 0 0 1 -0 0 1 0 0 1 0 0 1 0 0 1 0 0 1 0 0 1 -0 0 1 0 0 1 0 0 1 -0 0 1 0 0 1 0 0 1 -0 0 1 0 0 1 0 0 1 0 0 1 0 0 1 0 0 1 -0 0 1 0 0</float_array>
          <technique_common>
            <accessor count="1572" source="#cubenormals-array0-array" stride="3">
              <param type="float" name="X"/>
              <param type="float" name="Y"/>
              <param type="float" name="Z"/>
            </accessor>
          </technique_common>
        </source>
        <vertices id="cubeverts-array0-vertices">
          <input semantic="POSITION" source="#cubeverts-array0"/>
        </vertices>
        <triangles count="1572" material="ref_Body015">
          <input offset="0" semantic="VERTEX" source="#cubeverts-array0-vertices"/>
          <input offset="1" semantic="NORMAL" source="#cubenormals-array0"/>
          <p>0 0 1 0 2 0 0 1 2 1 3 1 4 2 5 2 2 2 6 3 2 3 5 3 7 4 4 4 2 4 8 5 2 5 6 5 9 6 7 6 2 6 10 7 2 7 8 7 11 8 9 8 2 8 12 9 2 9 10 9 13 10 11 10 2 10 14 11 2 11 12 11 15 12 13 12 2 12 16 13 2 13 14 13 17 14 15 14 2 14 18 15 2 15 16 15 19 16 17 16 2 16 20 17 2 17 18 17 21 18 19 18 2 18 22 19 2 19 20 19 23 20 21 20 2 20 24 21 2 21 22 21 25 22 23 22 2 22 26 23 2 23 24 23 27 24 25 24 2 24 28 25 2 25 26 25 29 26 27 26 2 26 30 27 2 27 28 27 31 28 29 28 2 28 32 29 2 29 30 29 33 30 31 30 2 30 34 31 2 31 32 31 35 32 33 32 2 32 36 33 2 33 34 33 37 34 2 34 36 34 38 35 2 35 37 35 39 36 2 36 38 36 40 37 2 37 39 37 41 38 2 38 40 38 42 39 2 39 41 39 1 40 43 40 44 40 1 41 44 41 45 41 1 42 45 42 46 42 1 43 46 43 47 43 1 44 47 44 48 44 1 45 48 45 49 45 1 46 49 46 50 46 1 47 50 47 51 47 1 48 51 48 52 48 1 49 52 49 53 49 1 50 53 50 54 50 1 51 54 51 55 51 1 52 55 52 56 52 1 53 56 53 57 53 1 54 57 54 58 54 1 55 58 55 59 55 1 56 35 56 2 56 1 57 59 57 60 57 1 58 60 58 61 58 1 59 61 59 62 59 1 60 62 60 35 60 63 61 43 61 1 61 64 62 63 62 1 62 65 63 64 63 1 63 66 64 65 64 1 64 67 65 66 65 1 65 68 66 67 66 1 66 69 67 68 67 1 67 70 68 69 68 1 68 71 69 70 69 1 69 72 70 71 70 1 70 73 71 72 71 1 71 74 72 73 72 1 72 75 73 74 73 1 73 76 74 75 74 1 74 77 75 76 75 1 75 78 76 77 76 1 76 79 77 78 77 1 77 80 78 79 78 1 78 81 79 82 79 83 79 84 80 81 80 83 80 84 81 83 81 85 81 86 82 82 82 81 82 86 83 87 83 82 83 88 84 84 84 85 84 88 85 85 85 89 85 90 86 87 86 86 86 90 87 91 87 87 87 92 88 88 88 89 88 92 89 89 89 93 89 94 90 95 90 91 90 94 91 91 91 90 91 96 92 93 92 97 92 96 93 92 93 93 93 98 94 99 94 95 94 98 95 95 95 94 95 100 96 96 96 97 96 100 97 97 97 101 97 102 98 103 98 99 98 102 99 99 99 98 99 104 100 101 100 105 100 104 101 100 101 101 101 106 102 103 102 102 102 106 103 42 103 103 103 106 104 2 104 42 104 107 105 104 105 105 105 107 106 105 106 108 106 109 107 2 107 106 107 110 108 107 108 108 108 110 109 108 109 111 109 112 110 2 110 109 110 113 111 110 111 111 111 114 112 2 112 112 112 115 113 2 113 114 113 116 114 111 114 117 114 116 115 113 115 111 115 118 116 116 116 117 116 118 117 117 117 119 117 120 118 2 118 115 118 121 119 119 119 122 119 121 120 118 120 119 120 123 121 122 121 124 121 123 122 121 122 122 122 125 123 124 123 126 123 125 124 123 124 124 124 127 125 126 125 128 125 127 126 125 126 126 126 129 127 128 127 130 127 129 128 130 128 131 128 129 129 131 129 132 129 129 130 132 130 133 130 129 131 127 131 128 131 134 132 129 132 133 132 134 133 133 133 135 133 134 134 135 134 136 134 134 135 136 135 137 135 134 136 137 136 138 136 139 137 138 137 140 137 139 138 134 138 138 138 141 139 140 139 142 139 141 140 139 140 140 140 143 141 142 141 144 141 143 142 141 142 142 142 145 143 144 143 146 143 145 144 143 144 144 144 147 145 145 145 146 145 147 146 146 146 148 146 149 147 147 147 148 147 149 148 148 148 150 148 151 149 149 149 150 149 152 150 151 150 150 150 152 151 150 151 153 151 154 152 153 152 155 152 154 153 152 153 153 153 156 154 154 154 155 154 156 155 155 155 157 155 158 156 156 156 157 156 158 157 157 157 159 157 160 158 158 158 159 158 160 159 159 159 161 159 162 160 160 160 161 160 162 161 161 161 163 161 164 162 163 162 165 162 164 163 162 163 163 163 166 164 164 164 165 164 166 165 165 165 167 165 168 166 167 166 169 166 168 167 166 167 167 167 170 168 168 168 169 168 170 169 169 169 171 169 172 170 171 170 173 170 172 171 170 171 171 171 174 172 172 172 173 172 174 173 173 173 175 173 176 174 174 174 175 174 176 175 175 175 177 175 178 176 176 176 177 176 178 177 177 177 179 177 180 178 178 178 179 178 180 179 80 179 1 179 180 180 179 180 80 180 181 181 180 181 1 181 182 182 181 182 1 182 183 183 182 183 1 183 184 184 183 184 1 184 185 185 184 185 1 185 186 186 187 186 188 186 186 187 188 187 189 187 186 188 189 188 190 188 186 189 190 189 191 189 186 190 191 190 192 190 186 191 192 191 193 191 186 192 193 192 194 192 186 193 194 193 195 193 186 194 195 194 196 194 186 195 196 195 197 195 186 196 197 196 198 196 186 197 198 197 199 197 186 198 199 198 200 198 186 199 200 199 201 199 186 200 201 200 202 200 186 201 202 201 203 201 186 202 203 202 204 202 186 203 204 203 205 203 186 204 205 204 206 204 186 205 206 205 207 205 186 206 207 206 208 206 186 207 208 207 209 207 186 208 209 208 210 208 186 209 210 209 211 209 186 210 211 210 212 210 186 211 212 211 213 211 186 212 213 212 214 212 186 213 214 213 215 213 186 214 215 214 216 214 186 215 216 215 217 215 186 216 217 216 218 216 186 217 218 217 219 217 186 218 219 218 220 218 221 219 222 219 223 219 221 220 223 220 224 220 221 221 224 221 225 221 221 222 225 222 226 222 221 223 226 223 227 223 221 224 227 224 228 224 221 225 228 225 229 225 221 226 229 226 230 226 221 227 230 227 231 227 221 228 231 228 232 228 221 229 186 229 220 229 221 230 232 230 233 230 221 231 233 231 234 231 221 232 234 232 235 232 221 233 235 233 236 233 221 234 236 234 237 234 221 235 237 235 238 235 221 236 238 236 239 236 221 237 239 237 240 237 221 238 240 238 241 238 221 239 241 239 242 239 221 240 242 240 243 240 221 241 243 241 244 241 221 242 244 242 245 242 221 243 245 243 246 243 221 244 246 244 247 244 221 245 247 245 248 245 221 246 248 246 249 246 221 247 249 247 250 247 221 248 250 248 251 248 221 249 251 249 252 249 221 250 220 250 222 250 221 251 252 251 253 251 221 252 253 252 254 252 221 253 254 253 255 253 186 254 2 254 187 254 187 255 2 255 256 255 256 256 2 256 257 256 257 257 2 257 258 257 258 258 2 258 259 258 259 259 2 259 120 259 1 260 221 260 255 260 1 261 255 261 260 261 1 262 260 262 261 262 1 263 261 263 262 263 1 264 262 264 263 264 1 265 263 265 185 265 264 266 3 266 265 266 266 267 265 267 3 267 267 268 3 268 264 268 268 269 266 269 3 269 269 270 3 270 267 270 270 271 268 271 3 271 271 272 3 272 269 272 272 273 270 273 3 273 273 274 3 274 271 274 274 275 272 275 3 275 275 276 3 276 273 276 276 277 274 277 3 277 277 278 3 278 275 278 278 279 276 279 3 279 279 280 3 280 277 280 280 281 278 281 3 281 281 282 3 282 279 282 282 283 280 283 3 283 283 284 3 284 281 284 284 285 282 285 3 285 285 286 3 286 283 286 286 287 284 287 3 287 287 288 3 288 285 288 288 289 286 289 3 289 289 290 3 290 287 290 290 291 288 291 3 291 291 292 3 292 289 292 292 293 290 293 3 293 293 294 3 294 291 294 294 295 292 295 3 295 295 296 3 296 293 296 296 297 294 297 3 297 297 298 298 298 296 298 297 299 299 299 298 299 297 300 300 300 299 300 297 301 301 301 300 301 297 302 302 302 301 302 297 303 303 303 302 303 297 304 304 304 303 304 297 305 305 305 304 305 297 306 306 306 305 306 297 307 307 307 306 307 297 308 308 308 307 308 297 309 296 309 3 309 309 310 308 310 297 310 310 311 309 311 297 311 311 312 310 312 297 312 312 313 311 313 297 313 313 314 312 314 297 314 314 315 313 315 297 315 315 316 314 316 297 316 0 317 316 317 317 317 0 318 318 318 316 318 0 319 319 319 318 319 0 320 320 320 319 320 0 321 321 321 320 321 0 322 322 322 321 322 0 323 323 323 322 323 0 324 324 324 323 324 0 325 325 325 324 325 0 326 326 326 325 326 0 327 327 327 326 327 0 328 328 328 327 328 0 329 329 329 328 329 0 330 330 330 329 330 0 331 331 331 330 331 0 332 332 332 331 332 0 333 333 333 332 333 0 334 334 334 333 334 0 335 295 335 334 335 335 336 315 336 297 336 336 337 0 337 317 337 337 338 335 338 297 338 338 339 0 339 336 339 339 340 337 340 297 340 340 341 0 341 338 341 341 342 339 342 297 342 342 343 0 343 340 343 343 344 341 344 297 344 344 345 0 345 342 345 345 346 343 346 297 346 346 347 0 347 344 347 347 348 345 348 297 348 348 349 0 349 346 349 349 350 347 350 297 350 350 351 0 351 348 351 351 352 349 352 297 352 352 353 0 353 350 353 353 354 351 354 297 354 354 355 0 355 352 355 355 356 353 356 297 356 356 357 0 357 354 357 357 358 355 358 297 358 358 359 0 359 356 359 359 360 357 360 297 360 360 361 361 361 359 361 360 362 362 362 361 362 360 363 363 363 362 363 360 364 364 364 363 364 360 365 365 365 364 365 360 366 366 366 365 366 360 367 367 367 366 367 360 368 368 368 367 368 360 369 369 369 368 369 360 370 370 370 369 370 360 371 371 371 370 371 360 372 372 372 371 372 360 373 373 373 372 373 360 374 374 374 373 374 360 375 375 375 374 375 360 376 376 376 375 376 360 377 377 377 376 377 360 378 378 378 377 378 360 379 379 379 378 379 360 380 380 380 379 380 360 381 381 381 380 381 360 382 382 382 381 382 360 383 383 383 382 383 360 384 384 384 383 384 360 385 385 385 384 385 360 386 386 386 385 386 360 387 387 387 386 387 360 388 388 388 387 388 360 389 389 389 388 389 360 390 390 390 389 390 360 391 391 391 390 391 0 392 3 392 295 392 297 393 360 393 359 393 360 394 0 394 358 394 360 395 358 395 391 395 392 396 393 396 221 396 392 397 394 397 393 397 221 398 395 398 392 398 395 399 0 399 360 399 1 400 0 400 395 400 221 401 1 401 395 401 396 402 397 402 186 402 398 403 397 403 396 403 399 404 186 404 397 404 3 405 399 405 297 405 3 406 2 406 399 406 2 407 186 407 399 407 393 408 396 408 186 408 393 409 186 409 221 409 35 410 400 410 33 410 400 411 401 411 33 411 33 412 402 412 31 412 401 413 402 413 33 413 31 414 403 414 29 414 402 415 403 415 31 415 29 416 404 416 27 416 403 417 404 417 29 417 27 418 405 418 25 418 404 419 405 419 27 419 25 420 406 420 23 420 23 421 406 421 21 421 405 422 406 422 25 422 406 423 407 423 21 423 21 424 408 424 19 424 407 425 408 425 21 425 19 426 409 426 17 426 408 427 409 427 19 427 17 428 410 428 15 428 15 429 410 429 13 429 409 430 410 430 17 430 410 431 411 431 13 431 411 432 412 432 13 432 13 433 412 433 11 433 412 434 413 434 11 434 11 435 413 435 9 435 413 436 414 436 9 436 9 437 414 437 7 437 7 438 415 438 4 438 414 439 415 439 7 439 4 440 416 440 5 440 415 441 416 441 4 441 5 442 417 442 6 442 6 443 417 443 8 443 416 444 417 444 5 444 417 445 418 445 8 445 418 446 419 446 8 446 8 447 419 447 10 447 10 448 420 448 12 448 12 449 420 449 14 449 419 450 420 450 10 450 14 451 421 451 16 451 420 452 421 452 14 452 421 453 422 453 16 453 16 454 423 454 18 454 422 455 423 455 16 455 18 456 424 456 20 456 423 457 424 457 18 457 20 458 425 458 22 458 424 459 425 459 20 459 22 460 426 460 24 460 425 461 426 461 22 461 24 462 427 462 26 462 426 463 427 463 24 463 26 464 428 464 28 464 427 465 428 465 26 465 28 466 429 466 30 466 428 467 429 467 28 467 30 468 430 468 32 468 429 469 430 469 30 469 32 470 431 470 34 470 430 471 431 471 32 471 34 472 432 472 36 472 36 473 432 473 37 473 431 474 432 474 34 474 432 475 433 475 37 475 37 476 434 476 38 476 433 477 434 477 37 477 38 478 435 478 39 478 434 479 435 479 38 479 39 480 436 480 40 480 435 481 436 481 39 481 40 482 437 482 41 482 436 483 437 483 40 483 437 484 438 484 41 484 41 485 438 485 42 485 438 486 439 486 42 486 42 487 439 487 103 487 439 488 440 488 103 488 103 489 440 489 99 489 440 490 441 490 99 490 99 491 441 491 95 491 441 492 442 492 95 492 95 493 442 493 91 493 442 494 443 494 91 494 91 495 443 495 87 495 443 496 444 496 87 496 87 497 444 497 82 497 444 498 445 498 82 498 82 499 445 499 83 499 445 500 446 500 83 500 83 501 446 501 85 501 446 502 447 502 85 502 85 503 447 503 89 503 89 504 448 504 93 504 447 505 448 505 89 505 93 506 448 506 97 506 448 507 449 507 97 507 449 508 450 508 97 508 97 509 450 509 101 509 101 510 451 510 105 510 450 511 451 511 101 511 105 512 452 512 108 512 108 513 452 513 111 513 451 514 452 514 105 514 452 515 453 515 111 515 111 516 454 516 117 516 453 517 454 517 111 517 117 518 455 518 119 518 454 519 455 519 117 519 119 520 456 520 122 520 455 521 456 521 119 521 122 522 457 522 124 522 456 523 457 523 122 523 124 524 458 524 126 524 457 525 458 525 124 525 126 526 459 526 128 526 458 527 459 527 126 527 128 528 460 528 130 528 459 529 460 529 128 529 130 530 461 530 131 530 460 531 461 531 130 531 461 532 462 532 131 532 131 533 462 533 132 533 462 534 463 534 132 534 132 535 463 535 133 535 463 536 464 536 133 536 133 537 464 537 135 537 464 538 465 538 135 538 135 539 465 539 136 539 465 540 466 540 136 540 136 541 466 541 137 541 466 542 467 542 137 542 137 543 467 543 138 543 467 544 468 544 138 544 138 545 468 545 140 545 468 546 469 546 140 546 140 547 469 547 142 547 469 548 470 548 142 548 142 549 470 549 144 549 470 550 471 550 144 550 144 551 471 551 146 551 471 552 472 552 146 552 146 553 472 553 148 553 472 554 473 554 148 554 148 555 473 555 150 555 150 556 473 556 153 556 473 557 474 557 153 557 474 558 475 558 153 558 153 559 475 559 155 559 475 560 476 560 155 560 155 561 476 561 157 561 476 562 477 562 157 562 157 563 477 563 159 563 477 564 478 564 159 564 159 565 478 565 161 565 478 566 479 566 161 566 161 567 479 567 163 567 479 568 480 568 163 568 163 569 480 569 165 569 480 570 481 570 165 570 165 571 481 571 167 571 481 572 482 572 167 572 167 573 482 573 169 573 169 574 483 574 171 574 482 575 483 575 169 575 171 576 484 576 173 576 483 577 484 577 171 577 173 578 485 578 175 578 175 579 485 579 177 579 484 580 485 580 173 580 485 581 486 581 177 581 177 582 487 582 179 582 486 583 487 583 177 583 487 584 488 584 179 584 179 585 488 585 80 585 488 586 489 586 80 586 80 587 489 587 79 587 489 588 490 588 79 588 79 589 490 589 78 589 490 590 491 590 78 590 78 591 491 591 77 591 77 592 491 592 76 592 491 593 492 593 76 593 492 594 493 594 76 594 76 595 493 595 75 595 493 596 494 596 75 596 75 597 494 597 74 597 494 598 495 598 74 598 74 599 495 599 73 599 495 600 496 600 73 600 73 601 496 601 72 601 496 602 497 602 72 602 72 603 497 603 71 603 497 604 498 604 71 604 71 605 498 605 70 605 498 606 499 606 70 606 70 607 499 607 69 607 69 608 500 608 68 608 499 609 500 609 69 609 68 610 501 610 67 610 500 611 501 611 68 611 67 612 502 612 66 612 501 613 502 613 67 613 66 614 503 614 65 614 502 615 503 615 66 615 65 616 504 616 64 616 503 617 504 617 65 617 64 618 505 618 63 618 504 619 505 619 64 619 63 620 506 620 43 620 43 621 506 621 44 621 505 622 506 622 63 622 506 623 507 623 44 623 44 624 508 624 45 624 507 625 508 625 44 625 45 626 509 626 46 626 508 627 509 627 45 627 46 628 510 628 47 628 509 629 510 629 46 629 47 630 511 630 48 630 510 631 511 631 47 631 511 632 512 632 48 632 48 633 512 633 49 633 512 634 513 634 49 634 49 635 513 635 50 635 513 636 514 636 50 636 50 637 514 637 51 637 514 638 515 638 51 638 51 639 515 639 52 639 515 640 516 640 52 640 52 641 516 641 53 641 53 642 517 642 54 642 516 643 517 643 53 643 54 644 518 644 55 644 517 645 518 645 54 645 55 646 519 646 56 646 518 647 519 647 55 647 56 648 520 648 57 648 519 649 520 649 56 649 57 650 521 650 58 650 520 651 521 651 57 651 58 652 522 652 59 652 521 653 522 653 58 653 59 654 523 654 60 654 522 655 523 655 59 655 60 656 524 656 61 656 61 657 524 657 62 657 523 658 524 658 60 658 524 659 525 659 62 659 62 660 400 660 35 660 525 661 400 661 62 661 526 662 527 662 222 662 222 663 527 663 223 663 223 664 528 664 224 664 527 665 528 665 223 665 224 666 529 666 225 666 528 667 529 667 224 667 225 668 530 668 226 668 529 669 530 669 225 669 226 670 531 670 227 670 530 671 531 671 226 671 227 672 532 672 228 672 531 673 532 673 227 673 228 674 533 674 229 674 532 675 533 675 228 675 229 676 534 676 230 676 533 677 534 677 229 677 534 678 535 678 230 678 230 679 535 679 231 679 231 680 536 680 232 680 535 681 536 681 231 681 232 682 537 682 233 682 536 683 537 683 232 683 233 684 538 684 234 684 537 685 538 685 233 685 234 686 539 686 235 686 538 687 539 687 234 687 235 688 540 688 236 688 539 689 540 689 235 689 236 690 541 690 237 690 540 691 541 691 236 691 237 692 542 692 238 692 541 693 542 693 237 693 238 694 543 694 239 694 542 695 543 695 238 695 239 696 544 696 240 696 543 697 544 697 239 697 240 698 545 698 241 698 544 699 545 699 240 699 241 700 546 700 242 700 242 701 546 701 243 701 545 702 546 702 241 702 546 703 547 703 243 703 243 704 548 704 244 704 547 705 548 705 243 705 244 706 549 706 245 706 245 707 549 707 246 707 548 708 549 708 244 708 549 709 550 709 246 709 246 710 551 710 247 710 550 711 551 711 246 711 247 712 552 712 248 712 248 713 552 713 249 713 551 714 552 714 247 714 552 715 553 715 249 715 249 716 554 716 250 716 553 717 554 717 249 717 250 718 555 718 251 718 251 719 555 719 252 719 554 720 555 720 250 720 555 721 556 721 252 721 252 722 557 722 253 722 556 723 557 723 252 723 253 724 558 724 254 724 557 725 558 725 253 725 559 726 526 726 220 726 220 727 526 727 222 727 558 728 255 728 254 728 558 729 560 729 255 729 188 730 561 730 189 730 561 731 562 731 189 731 189 732 563 732 190 732 562 733 563 733 189 733 190 734 564 734 191 734 563 735 564 735 190 735 191 736 565 736 192 736 564 737 565 737 191 737 192 738 566 738 193 738 565 739 566 739 192 739 193 740 567 740 194 740 566 741 567 741 193 741 194 742 568 742 195 742 567 743 568 743 194 743 195 744 569 744 196 744 568 745 569 745 195 745 569 746 570 746 196 746 196 747 570 747 197 747 197 748 571 748 198 748 570 749 571 749 197 749 198 750 572 750 199 750 571 751 572 751 198 751 199 752 573 752 200 752 200 753 573 753 201 753 572 754 573 754 199 754 573 755 574 755 201 755 201 756 575 756 202 756 574 757 575 757 201 757 202 758 576 758 203 758 575 759 576 759 202 759 203 760 577 760 204 760 576 761 577 761 203 761 204 762 578 762 205 762 577 763 578 763 204 763 205 764 579 764 206 764 578 765 579 765 205 765 206 766 580 766 207 766 579 767 580 767 206 767 207 768 581 768 208 768 580 769 581 769 207 769 208 770 582 770 209 770 209 771 582 771 210 771 581 772 582 772 208 772 582 773 583 773 210 773 210 774 584 774 211 774 211 775 584 775 212 775 583 776 584 776 210 776 584 777 585 777 212 777 212 778 586 778 213 778 213 779 586 779 214 779 585 780 586 780 212 780 586 781 587 781 214 781 214 782 588 782 215 782 587 783 588 783 214 783 215 784 589 784 216 784 588 785 589 785 215 785 216 786 590 786 217 786 589 787 590 787 216 787 217 788 591 788 218 788 590 789 591 789 217 789 218 790 592 790 219 790 591 791 592 791 218 791 219 792 559 792 220 792 592 793 559 793 219 793 560 794 593 794 255 794 255 795 593 795 260 795 260 796 594 796 261 796 593 797 594 797 260 797 261 798 595 798 262 798 594 799 595 799 261 799 262 800 596 800 263 800 595 801 596 801 262 801 263 802 597 802 185 802 596 803 597 803 263 803 185 804 598 804 184 804 597 805 598 805 185 805 184 806 599 806 183 806 598 807 599 807 184 807 183 808 600 808 182 808 599 809 600 809 183 809 600 810 601 810 182 810 182 811 601 811 181 811 181 812 602 812 180 812 601 813 602 813 181 813 180 814 603 814 178 814 602 815 603 815 180 815 178 816 604 816 176 816 603 817 604 817 178 817 176 818 605 818 174 818 604 819 605 819 176 819 174 820 606 820 172 820 605 821 606 821 174 821 172 822 607 822 170 822 606 823 607 823 172 823 170 824 608 824 168 824 607 825 608 825 170 825 168 826 609 826 166 826 608 827 609 827 168 827 166 828 610 828 164 828 609 829 610 829 166 829 164 830 611 830 162 830 610 831 611 831 164 831 162 832 612 832 160 832 160 833 612 833 158 833 611 834 612 834 162 834 612 835 613 835 158 835 158 836 614 836 156 836 613 837 614 837 158 837 156 838 615 838 154 838 154 839 615 839 152 839 614 840 615 840 156 840 615 841 616 841 152 841 152 842 617 842 151 842 616 843 617 843 152 843 151 844 618 844 149 844 149 845 618 845 147 845 617 846 618 846 151 846 618 847 619 847 147 847 147 848 620 848 145 848 619 849 620 849 147 849 145 850 621 850 143 850 143 851 621 851 141 851 620 852 621 852 145 852 621 853 622 853 141 853 141 854 623 854 139 854 622 855 623 855 141 855 139 856 624 856 134 856 623 857 624 857 139 857 625 858 188 858 187 858 625 859 561 859 188 859 624 860 626 860 134 860 134 861 626 861 129 861 626 862 627 862 129 862 129 863 627 863 127 863 127 864 628 864 125 864 627 865 628 865 127 865 125 866 629 866 123 866 628 867 629 867 125 867 123 868 630 868 121 868 629 869 630 869 123 869 121 870 631 870 118 870 630 871 631 871 121 871 118 872 632 872 116 872 631 873 632 873 118 873 116 874 633 874 113 874 632 875 633 875 116 875 113 876 634 876 110 876 633 877 634 877 113 877 634 878 635 878 110 878 110 879 635 879 107 879 107 880 636 880 104 880 635 881 636 881 107 881 104 882 637 882 100 882 636 883 637 883 104 883 100 884 638 884 96 884 637 885 638 885 100 885 96 886 639 886 92 886 638 887 639 887 96 887 92 888 640 888 88 888 639 889 640 889 92 889 88 890 641 890 84 890 640 891 641 891 88 891 84 892 642 892 81 892 641 893 642 893 84 893 81 894 643 894 86 894 642 895 643 895 81 895 86 896 644 896 90 896 643 897 644 897 86 897 90 898 645 898 94 898 644 899 645 899 90 899 94 900 646 900 98 900 645 901 646 901 94 901 98 902 647 902 102 902 646 903 647 903 98 903 102 904 648 904 106 904 647 905 648 905 102 905 106 906 649 906 109 906 648 907 649 907 106 907 109 908 650 908 112 908 649 909 650 909 109 909 112 910 651 910 114 910 650 911 651 911 112 911 114 912 652 912 115 912 651 913 652 913 114 913 115 914 653 914 120 914 120 915 653 915 259 915 652 916 653 916 115 916 653 917 654 917 259 917 259 918 655 918 258 918 654 919 655 919 259 919 258 920 656 920 257 920 257 921 656 921 256 921 655 922 656 922 258 922 656 923 657 923 256 923 256 924 625 924 187 924 657 925 625 925 256 925 395 926 360 926 297 926 395 927 297 927 399 927 295 928 293 928 658 928 658 929 293 929 659 929 659 930 291 930 660 930 293 931 291 931 659 931 660 932 289 932 661 932 291 933 289 933 660 933 661 934 287 934 662 934 289 935 287 935 661 935 662 936 285 936 663 936 287 937 285 937 662 937 663 938 283 938 664 938 285 939 283 939 663 939 664 940 281 940 665 940 283 941 281 941 664 941 665 942 279 942 666 942 281 943 279 943 665 943 666 944 277 944 667 944 279 945 277 945 666 945 667 946 275 946 668 946 277 947 275 947 667 947 275 948 273 948 668 948 668 949 273 949 669 949 273 950 271 950 669 950 669 951 271 951 670 951 271 952 269 952 670 952 670 953 269 953 671 953 671 954 269 954 672 954 269 955 267 955 672 955 672 956 264 956 673 956 267 957 264 957 672 957 673 958 265 958 674 958 264 959 265 959 673 959 674 960 266 960 675 960 675 961 266 961 676 961 265 962 266 962 674 962 266 963 268 963 676 963 268 964 270 964 676 964 676 965 270 965 677 965 677 966 270 966 678 966 270 967 272 967 678 967 678 968 274 968 679 968 679 969 274 969 680 969 272 970 274 970 678 970 274 971 276 971 680 971 680 972 278 972 681 972 276 973 278 973 680 973 681 974 280 974 682 974 278 975 280 975 681 975 682 976 282 976 683 976 280 977 282 977 682 977 683 978 284 978 684 978 282 979 284 979 683 979 684 980 286 980 685 980 284 981 286 981 684 981 685 982 288 982 686 982 286 983 288 983 685 983 686 984 290 984 687 984 288 985 290 985 686 985 687 986 292 986 688 986 290 987 292 987 687 987 688 988 294 988 689 988 292 989 294 989 688 989 689 990 296 990 690 990 690 991 296 991 691 991 294 992 296 992 689 992 296 993 298 993 691 993 691 994 299 994 692 994 298 995 299 995 691 995 692 996 300 996 693 996 299 997 300 997 692 997 693 998 301 998 694 998 300 999 301 999 693 999 694 1000 302 1000 695 1000 301 1001 302 1001 694 1001 302 1002 303 1002 695 1002 695 1003 303 1003 696 1003 696 1004 303 1004 697 1004 303 1005 304 1005 697 1005 304 1006 305 1006 697 1006 697 1007 305 1007 698 1007 305 1008 306 1008 698 1008 698 1009 306 1009 699 1009 306 1010 307 1010 699 1010 699 1011 307 1011 700 1011 307 1012 308 1012 700 1012 700 1013 308 1013 701 1013 308 1014 309 1014 701 1014 701 1015 309 1015 702 1015 309 1016 310 1016 702 1016 702 1017 310 1017 703 1017 310 1018 311 1018 703 1018 703 1019 311 1019 704 1019 311 1020 312 1020 704 1020 704 1021 312 1021 705 1021 705 1022 313 1022 706 1022 312 1023 313 1023 705 1023 706 1024 314 1024 707 1024 313 1025 314 1025 706 1025 707 1026 315 1026 708 1026 314 1027 315 1027 707 1027 708 1028 335 1028 709 1028 315 1029 335 1029 708 1029 709 1030 337 1030 710 1030 710 1031 337 1031 711 1031 335 1032 337 1032 709 1032 337 1033 339 1033 711 1033 711 1034 341 1034 712 1034 339 1035 341 1035 711 1035 712 1036 343 1036 713 1036 341 1037 343 1037 712 1037 713 1038 345 1038 714 1038 343 1039 345 1039 713 1039 714 1040 347 1040 715 1040 345 1041 347 1041 714 1041 715 1042 349 1042 716 1042 347 1043 349 1043 715 1043 716 1044 351 1044 717 1044 349 1045 351 1045 716 1045 717 1046 353 1046 718 1046 351 1047 353 1047 717 1047 718 1048 355 1048 719 1048 353 1049 355 1049 718 1049 355 1050 357 1050 719 1050 719 1051 357 1051 720 1051 357 1052 359 1052 720 1052 720 1053 359 1053 721 1053 359 1054 361 1054 721 1054 721 1055 361 1055 722 1055 361 1056 362 1056 722 1056 722 1057 362 1057 723 1057 362 1058 363 1058 723 1058 723 1059 363 1059 724 1059 363 1060 364 1060 724 1060 724 1061 364 1061 725 1061 364 1062 365 1062 725 1062 725 1063 365 1063 726 1063 365 1064 366 1064 726 1064 726 1065 366 1065 727 1065 366 1066 367 1066 727 1066 727 1067 367 1067 728 1067 367 1068 368 1068 728 1068 728 1069 368 1069 729 1069 368 1070 369 1070 729 1070 729 1071 369 1071 730 1071 369 1072 370 1072 730 1072 730 1073 370 1073 731 1073 731 1074 370 1074 732 1074 370 1075 371 1075 732 1075 371 1076 372 1076 732 1076 732 1077 372 1077 733 1077 372 1078 373 1078 733 1078 733 1079 373 1079 734 1079 373 1080 374 1080 734 1080 734 1081 374 1081 735 1081 374 1082 375 1082 735 1082 735 1083 375 1083 736 1083 375 1084 376 1084 736 1084 736 1085 376 1085 737 1085 376 1086 377 1086 737 1086 737 1087 377 1087 738 1087 377 1088 378 1088 738 1088 738 1089 378 1089 739 1089 378 1090 379 1090 739 1090 739 1091 379 1091 740 1091 740 1092 380 1092 741 1092 379 1093 380 1093 740 1093 741 1094 381 1094 742 1094 742 1095 381 1095 743 1095 380 1096 381 1096 741 1096 381 1097 382 1097 743 1097 743 1098 383 1098 744 1098 382 1099 383 1099 743 1099 744 1100 384 1100 745 1100 383 1101 384 1101 744 1101 384 1102 385 1102 745 1102 745 1103 385 1103 746 1103 385 1104 386 1104 746 1104 746 1105 386 1105 747 1105 386 1106 387 1106 747 1106 747 1107 387 1107 748 1107 387 1108 388 1108 748 1108 748 1109 388 1109 749 1109 388 1110 389 1110 749 1110 749 1111 389 1111 750 1111 389 1112 390 1112 750 1112 750 1113 390 1113 751 1113 390 1114 391 1114 751 1114 751 1115 391 1115 752 1115 391 1116 358 1116 752 1116 752 1117 358 1117 753 1117 358 1118 356 1118 753 1118 753 1119 356 1119 754 1119 356 1120 354 1120 754 1120 754 1121 354 1121 755 1121 354 1122 352 1122 755 1122 755 1123 352 1123 756 1123 352 1124 350 1124 756 1124 756 1125 350 1125 757 1125 757 1126 348 1126 758 1126 350 1127 348 1127 757 1127 758 1128 346 1128 759 1128 348 1129 346 1129 758 1129 759 1130 344 1130 760 1130 346 1131 344 1131 759 1131 760 1132 342 1132 761 1132 344 1133 342 1133 760 1133 761 1134 340 1134 762 1134 342 1135 340 1135 761 1135 762 1136 338 1136 763 1136 340 1137 338 1137 762 1137 763 1138 336 1138 764 1138 338 1139 336 1139 763 1139 764 1140 317 1140 765 1140 336 1141 317 1141 764 1141 765 1142 316 1142 766 1142 317 1143 316 1143 765 1143 766 1144 318 1144 767 1144 316 1145 318 1145 766 1145 767 1146 319 1146 768 1146 318 1147 319 1147 767 1147 768 1148 320 1148 769 1148 319 1149 320 1149 768 1149 769 1150 321 1150 770 1150 320 1151 321 1151 769 1151 321 1152 322 1152 770 1152 770 1153 322 1153 771 1153 322 1154 323 1154 771 1154 771 1155 323 1155 772 1155 323 1156 324 1156 772 1156 772 1157 324 1157 773 1157 324 1158 325 1158 773 1158 773 1159 325 1159 774 1159 774 1160 326 1160 775 1160 325 1161 326 1161 774 1161 775 1162 327 1162 776 1162 326 1163 327 1163 775 1163 776 1164 328 1164 777 1164 327 1165 328 1165 776 1165 777 1166 329 1166 778 1166 328 1167 329 1167 777 1167 778 1168 330 1168 779 1168 329 1169 330 1169 778 1169 779 1170 331 1170 780 1170 330 1171 331 1171 779 1171 780 1172 332 1172 781 1172 331 1173 332 1173 780 1173 781 1174 333 1174 782 1174 332 1175 333 1175 781 1175 782 1176 334 1176 783 1176 333 1177 334 1177 782 1177 783 1178 295 1178 658 1178 334 1179 295 1179 783 1179 641 1180 399 1180 642 1180 643 1181 642 1181 399 1181 640 1182 399 1182 641 1182 644 1183 643 1183 399 1183 645 1184 644 1184 399 1184 639 1185 399 1185 640 1185 646 1186 645 1186 399 1186 638 1187 399 1187 639 1187 637 1188 399 1188 638 1188 647 1189 646 1189 399 1189 636 1190 399 1190 637 1190 648 1191 647 1191 399 1191 635 1192 399 1192 636 1192 649 1193 648 1193 399 1193 634 1194 399 1194 635 1194 650 1195 649 1195 399 1195 633 1196 399 1196 634 1196 651 1197 650 1197 399 1197 652 1198 651 1198 399 1198 632 1199 399 1199 633 1199 631 1200 399 1200 632 1200 653 1201 652 1201 399 1201 630 1202 399 1202 631 1202 654 1203 653 1203 399 1203 629 1204 399 1204 630 1204 655 1205 654 1205 399 1205 628 1206 399 1206 629 1206 656 1207 655 1207 399 1207 657 1208 656 1208 399 1208 627 1209 399 1209 628 1209 625 1210 657 1210 399 1210 626 1211 399 1211 627 1211 624 1212 395 1212 399 1212 624 1213 399 1213 626 1213 623 1214 395 1214 624 1214 622 1215 395 1215 623 1215 621 1216 395 1216 622 1216 620 1217 395 1217 621 1217 619 1218 395 1218 620 1218 618 1219 395 1219 619 1219 617 1220 395 1220 618 1220 616 1221 395 1221 617 1221 615 1222 395 1222 616 1222 614 1223 395 1223 615 1223 613 1224 395 1224 614 1224 612 1225 395 1225 613 1225 611 1226 395 1226 612 1226 610 1227 395 1227 611 1227 609 1228 395 1228 610 1228 608 1229 395 1229 609 1229 607 1230 395 1230 608 1230 606 1231 395 1231 607 1231 605 1232 395 1232 606 1232 604 1233 395 1233 605 1233 603 1234 395 1234 604 1234 602 1235 395 1235 603 1235 601 1236 395 1236 602 1236 600 1237 395 1237 601 1237 599 1238 395 1238 600 1238 598 1239 395 1239 599 1239 397 1240 625 1240 399 1240 397 1241 562 1241 561 1241 397 1242 563 1242 562 1242 397 1243 564 1243 563 1243 397 1244 565 1244 564 1244 397 1245 566 1245 565 1245 397 1246 567 1246 566 1246 397 1247 568 1247 567 1247 397 1248 569 1248 568 1248 397 1249 570 1249 569 1249 397 1250 571 1250 570 1250 397 1251 572 1251 571 1251 397 1252 573 1252 572 1252 397 1253 574 1253 573 1253 397 1254 575 1254 574 1254 397 1255 576 1255 575 1255 397 1256 577 1256 576 1256 397 1257 578 1257 577 1257 397 1258 579 1258 578 1258 397 1259 580 1259 579 1259 397 1260 581 1260 580 1260 397 1261 582 1261 581 1261 397 1262 561 1262 625 1262 583 1263 582 1263 397 1263 584 1264 583 1264 397 1264 585 1265 584 1265 397 1265 586 1266 585 1266 397 1266 587 1267 586 1267 397 1267 588 1268 587 1268 397 1268 589 1269 588 1269 397 1269 590 1270 589 1270 397 1270 591 1271 590 1271 397 1271 592 1272 591 1272 397 1272 559 1273 592 1273 397 1273 392 1274 527 1274 526 1274 392 1275 528 1275 527 1275 392 1276 529 1276 528 1276 392 1277 530 1277 529 1277 392 1278 531 1278 530 1278 392 1279 532 1279 531 1279 392 1280 533 1280 532 1280 392 1281 534 1281 533 1281 392 1282 535 1282 534 1282 392 1283 536 1283 535 1283 392 1284 537 1284 536 1284 392 1285 538 1285 537 1285 392 1286 539 1286 538 1286 392 1287 540 1287 539 1287 392 1288 541 1288 540 1288 392 1289 542 1289 541 1289 392 1290 543 1290 542 1290 392 1291 544 1291 543 1291 392 1292 545 1292 544 1292 392 1293 546 1293 545 1293 392 1294 547 1294 546 1294 392 1295 548 1295 547 1295 392 1296 549 1296 548 1296 392 1297 550 1297 549 1297 392 1298 551 1298 550 1298 392 1299 552 1299 551 1299 392 1300 553 1300 552 1300 392 1301 554 1301 553 1301 392 1302 555 1302 554 1302 392 1303 556 1303 555 1303 392 1304 557 1304 556 1304 392 1305 558 1305 557 1305 392 1306 526 1306 559 1306 392 1307 559 1307 397 1307 392 1308 395 1308 560 1308 560 1309 395 1309 593 1309 593 1310 395 1310 594 1310 594 1311 395 1311 595 1311 595 1312 395 1312 596 1312 596 1313 395 1313 597 1313 597 1314 395 1314 598 1314 392 1315 560 1315 558 1315 394 1316 392 1316 397 1316 394 1317 397 1317 398 1317 393 1318 394 1318 396 1318 396 1319 394 1319 398 1319 510 1320 768 1320 769 1320 511 1321 510 1321 769 1321 509 1322 767 1322 768 1322 509 1323 768 1323 510 1323 512 1324 769 1324 770 1324 512 1325 511 1325 769 1325 508 1326 767 1326 509 1326 508 1327 766 1327 767 1327 513 1328 770 1328 771 1328 513 1329 512 1329 770 1329 507 1330 765 1330 766 1330 507 1331 766 1331 508 1331 514 1332 771 1332 772 1332 514 1333 772 1333 773 1333 514 1334 513 1334 771 1334 506 1335 764 1335 765 1335 506 1336 765 1336 507 1336 515 1337 514 1337 773 1337 505 1338 763 1338 764 1338 505 1339 764 1339 506 1339 516 1340 773 1340 774 1340 516 1341 515 1341 773 1341 504 1342 761 1342 762 1342 504 1343 762 1343 763 1343 504 1344 763 1344 505 1344 517 1345 516 1345 774 1345 517 1346 774 1346 775 1346 503 1347 761 1347 504 1347 518 1348 775 1348 776 1348 518 1349 517 1349 775 1349 502 1350 760 1350 761 1350 502 1351 761 1351 503 1351 519 1352 776 1352 777 1352 519 1353 518 1353 776 1353 501 1354 759 1354 760 1354 501 1355 760 1355 502 1355 520 1356 777 1356 778 1356 520 1357 519 1357 777 1357 500 1358 758 1358 759 1358 500 1359 759 1359 501 1359 521 1360 778 1360 779 1360 521 1361 520 1361 778 1361 499 1362 758 1362 500 1362 499 1363 757 1363 758 1363 522 1364 521 1364 779 1364 522 1365 779 1365 780 1365 498 1366 757 1366 499 1366 498 1367 756 1367 757 1367 523 1368 780 1368 781 1368 523 1369 522 1369 780 1369 497 1370 756 1370 498 1370 497 1371 755 1371 756 1371 524 1372 781 1372 782 1372 524 1373 523 1373 781 1373 496 1374 755 1374 497 1374 496 1375 754 1375 755 1375 525 1376 782 1376 783 1376 525 1377 783 1377 658 1377 525 1378 524 1378 782 1378 495 1379 754 1379 496 1379 495 1380 753 1380 754 1380 400 1381 525 1381 658 1381 494 1382 752 1382 753 1382 494 1383 753 1383 495 1383 401 1384 658 1384 659 1384 401 1385 400 1385 658 1385 493 1386 752 1386 494 1386 493 1387 751 1387 752 1387 402 1388 659 1388 660 1388 402 1389 401 1389 659 1389 492 1390 751 1390 493 1390 492 1391 750 1391 751 1391 403 1392 402 1392 660 1392 403 1393 660 1393 661 1393 403 1394 661 1394 662 1394 491 1395 750 1395 492 1395 491 1396 749 1396 750 1396 404 1397 403 1397 662 1397 490 1398 749 1398 491 1398 490 1399 748 1399 749 1399 405 1400 662 1400 663 1400 405 1401 663 1401 664 1401 405 1402 404 1402 662 1402 489 1403 748 1403 490 1403 489 1404 747 1404 748 1404 406 1405 405 1405 664 1405 488 1406 747 1406 489 1406 488 1407 746 1407 747 1407 407 1408 664 1408 665 1408 407 1409 665 1409 666 1409 407 1410 406 1410 664 1410 487 1411 746 1411 488 1411 487 1412 745 1412 746 1412 408 1413 407 1413 666 1413 486 1414 745 1414 487 1414 486 1415 744 1415 745 1415 409 1416 666 1416 667 1416 409 1417 408 1417 666 1417 485 1418 744 1418 486 1418 485 1419 742 1419 743 1419 485 1420 743 1420 744 1420 410 1421 667 1421 668 1421 410 1422 409 1422 667 1422 484 1423 742 1423 485 1423 411 1424 668 1424 669 1424 411 1425 410 1425 668 1425 483 1426 740 1426 741 1426 483 1427 741 1427 742 1427 483 1428 742 1428 484 1428 412 1429 669 1429 670 1429 412 1430 411 1430 669 1430 482 1431 740 1431 483 1431 413 1432 670 1432 671 1432 413 1433 412 1433 670 1433 672 1434 413 1434 671 1434 481 1435 740 1435 482 1435 481 1436 739 1436 740 1436 414 1437 413 1437 672 1437 480 1438 738 1438 739 1438 480 1439 739 1439 481 1439 415 1440 672 1440 673 1440 415 1441 414 1441 672 1441 479 1442 737 1442 738 1442 479 1443 738 1443 480 1443 416 1444 415 1444 673 1444 674 1445 416 1445 673 1445 736 1446 479 1446 478 1446 736 1447 737 1447 479 1447 417 1448 416 1448 674 1448 675 1449 417 1449 674 1449 735 1450 478 1450 477 1450 735 1451 736 1451 478 1451 676 1452 417 1452 675 1452 676 1453 418 1453 417 1453 734 1454 477 1454 476 1454 734 1455 735 1455 477 1455 677 1456 418 1456 676 1456 677 1457 419 1457 418 1457 733 1458 476 1458 475 1458 733 1459 734 1459 476 1459 678 1460 419 1460 677 1460 678 1461 420 1461 419 1461 732 1462 733 1462 475 1462 732 1463 474 1463 473 1463 732 1464 475 1464 474 1464 679 1465 420 1465 678 1465 679 1466 421 1466 420 1466 731 1467 732 1467 473 1467 680 1468 422 1468 421 1468 680 1469 423 1469 422 1469 680 1470 421 1470 679 1470 730 1471 731 1471 473 1471 730 1472 472 1472 471 1472 730 1473 473 1473 472 1473 681 1474 423 1474 680 1474 729 1475 730 1475 471 1475 729 1476 471 1476 470 1476 682 1477 424 1477 423 1477 682 1478 425 1478 424 1478 682 1479 423 1479 681 1479 728 1480 729 1480 470 1480 683 1481 425 1481 682 1481 727 1482 728 1482 470 1482 727 1483 470 1483 469 1483 684 1484 426 1484 425 1484 684 1485 425 1485 683 1485 726 1486 468 1486 467 1486 726 1487 469 1487 468 1487 726 1488 727 1488 469 1488 685 1489 427 1489 426 1489 685 1490 426 1490 684 1490 725 1491 467 1491 466 1491 725 1492 726 1492 467 1492 686 1493 427 1493 685 1493 686 1494 428 1494 427 1494 724 1495 725 1495 466 1495 687 1496 428 1496 686 1496 687 1497 429 1497 428 1497 723 1498 724 1498 466 1498 723 1499 466 1499 465 1499 688 1500 429 1500 687 1500 688 1501 430 1501 429 1501 722 1502 723 1502 465 1502 722 1503 465 1503 464 1503 689 1504 430 1504 688 1504 689 1505 431 1505 430 1505 721 1506 722 1506 464 1506 721 1507 464 1507 463 1507 690 1508 431 1508 689 1508 690 1509 432 1509 431 1509 720 1510 721 1510 463 1510 720 1511 463 1511 462 1511 691 1512 432 1512 690 1512 691 1513 433 1513 432 1513 719 1514 720 1514 462 1514 719 1515 462 1515 461 1515 692 1516 434 1516 433 1516 692 1517 433 1517 691 1517 718 1518 461 1518 460 1518 718 1519 719 1519 461 1519 693 1520 435 1520 434 1520 693 1521 434 1521 692 1521 717 1522 459 1522 458 1522 717 1523 460 1523 459 1523 717 1524 718 1524 460 1524 694 1525 435 1525 693 1525 694 1526 436 1526 435 1526 694 1527 437 1527 436 1527 716 1528 458 1528 457 1528 716 1529 717 1529 458 1529 695 1530 437 1530 694 1530 715 1531 716 1531 457 1531 715 1532 457 1532 456 1532 696 1533 437 1533 695 1533 696 1534 438 1534 437 1534 714 1535 715 1535 456 1535 697 1536 438 1536 696 1536 697 1537 439 1537 438 1537 713 1538 714 1538 456 1538 713 1539 456 1539 455 1539 698 1540 440 1540 439 1540 698 1541 439 1541 697 1541 712 1542 713 1542 455 1542 712 1543 455 1543 454 1543 699 1544 440 1544 698 1544 699 1545 441 1545 440 1545 699 1546 442 1546 441 1546 711 1547 712 1547 454 1547 711 1548 454 1548 453 1548 700 1549 442 1549 699 1549 710 1550 711 1550 453 1550 710 1551 453 1551 452 1551 701 1552 442 1552 700 1552 701 1553 443 1553 442 1553 709 1554 710 1554 452 1554 709 1555 452 1555 451 1555 702 1556 444 1556 443 1556 702 1557 445 1557 444 1557 702 1558 443 1558 701 1558 708 1559 709 1559 451 1559 708 1560 451 1560 450 1560 703 1561 445 1561 702 1561 707 1562 708 1562 450 1562 707 1563 450 1563 449 1563 704 1564 445 1564 703 1564 704 1565 446 1565 445 1565 706 1566 707 1566 449 1566 706 1567 448 1567 447 1567 706 1568 449 1568 448 1568 705 1569 706 1569 447 1569 705 1570 446 1570 704 1570 705 1571 447 1571 446 1571</p>
        </triangles>
      </mesh>
    </geometry>
  </library_geometries>
  <library_materials>
    <material id="mat_Body015" name="Body015">
      <instance_effect url="#effect_Body015"/>
    </material>
  </library_materials>
  <library_visual_scenes>
    <visual_scene id="scene">
      <node id="node0" name="node0">
        <instance_geometry url="#geometry0">
          <bind_material>
            <technique_common>
              <instance_material symbol="ref_Body015" target="#mat_Body015"/>
            </technique_common>
          </bind_material>
        </instance_geometry>
      </node>
    </visual_scene>
  </library_visual_scenes>
  <scene>
    <instance_visual_scene url="#scene"/>
  </scene>
</COLLADA>
