ISO-10303-21;
HEADER;
FILE_DESCRIPTION(('FreeCAD Model'),'2;1');
FILE_NAME('Open CASCADE Shape Model','2026-10-05T21:27:35',(''),(''),
  'Open CASCADE STEP processor 7.8','FreeCAD','Unknown');
FILE_SCHEMA(('AUTOMOTIVE_DESIGN { 1 0 10303 214 1 1 1 1 }'));
ENDSEC;
DATA;
#1 = APPLICATION_PROTOCOL_DEFINITION('international standard',
  'automotive_design',2000,#2);
#2 = APPLICATION_CONTEXT(
  'core data for automotive mechanical design processes');
#3 = SHAPE_DEFINITION_REPRESENTATION(#4,#10);
#4 = PRODUCT_DEFINITION_SHAPE('','',#5);
#5 = PRODUCT_DEFINITION('design','',#6,#9);
#6 = PRODUCT_DEFINITION_FORMATION('','',#7);
#7 = PRODUCT('J5_Arm','J5_Arm','',(#8));
#8 = PRODUCT_CONTEXT('',#2,'mechanical');
#9 = PRODUCT_DEFINITION_CONTEXT('part definition',#2,'design');
#10 = ADVANCED_BREP_SHAPE_REPRESENTATION('',(#11,#15),#657);
#11 = AXIS2_PLACEMENT_3D('',#12,#13,#14);
#12 = CARTESIAN_POINT('',(0.,0.,0.));
#13 = DIRECTION('',(0.,0.,1.));
#14 = DIRECTION('',(1.,0.,-0.));
#15 = MANIFOLD_SOLID_BREP('',#16);
#16 = CLOSED_SHELL('',(#17,#57,#169,#211,#260,#309,#326,#351,#383,#407,
    #431,#456,#481,#505,#529,#547,#564,#589,#616,#633,#645));
#17 = ADVANCED_FACE('',(#18),#52,.T.);
#18 = FACE_BOUND('',#19,.T.);
#19 = EDGE_LOOP('',(#20,#30,#38,#46));
#20 = ORIENTED_EDGE('',*,*,#21,.T.);
#21 = EDGE_CURVE('',#22,#24,#26,.T.);
#22 = VERTEX_POINT('',#23);
#23 = CARTESIAN_POINT('',(-8.,125.,0.));
#24 = VERTEX_POINT('',#25);
#25 = CARTESIAN_POINT('',(-8.,125.,42.));
#26 = LINE('',#27,#28);
#27 = CARTESIAN_POINT('',(-8.,125.,0.));
#28 = VECTOR('',#29,1.);
#29 = DIRECTION('',(0.,0.,1.));
#30 = ORIENTED_EDGE('',*,*,#31,.T.);
#31 = EDGE_CURVE('',#24,#32,#34,.T.);
#32 = VERTEX_POINT('',#33);
#33 = CARTESIAN_POINT('',(12.,125.,42.));
#34 = LINE('',#35,#36);
#35 = CARTESIAN_POINT('',(-8.,125.,42.));
#36 = VECTOR('',#37,1.);
#37 = DIRECTION('',(1.,0.,0.));
#38 = ORIENTED_EDGE('',*,*,#39,.F.);
#39 = EDGE_CURVE('',#40,#32,#42,.T.);
#40 = VERTEX_POINT('',#41);
#41 = CARTESIAN_POINT('',(12.,125.,0.));
#42 = LINE('',#43,#44);
#43 = CARTESIAN_POINT('',(12.,125.,0.));
#44 = VECTOR('',#45,1.);
#45 = DIRECTION('',(0.,0.,1.));
#46 = ORIENTED_EDGE('',*,*,#47,.F.);
#47 = EDGE_CURVE('',#22,#40,#48,.T.);
#48 = LINE('',#49,#50);
#49 = CARTESIAN_POINT('',(-8.,125.,0.));
#50 = VECTOR('',#51,1.);
#51 = DIRECTION('',(1.,0.,0.));
#52 = PLANE('',#53);
#53 = AXIS2_PLACEMENT_3D('',#54,#55,#56);
#54 = CARTESIAN_POINT('',(-8.,125.,0.));
#55 = DIRECTION('',(0.,1.,0.));
#56 = DIRECTION('',(1.,0.,0.));
#57 = ADVANCED_FACE('',(#58,#83,#94),#164,.T.);
#58 = FACE_BOUND('',#59,.T.);
#59 = EDGE_LOOP('',(#60,#70,#76,#77));
#60 = ORIENTED_EDGE('',*,*,#61,.T.);
#61 = EDGE_CURVE('',#62,#64,#66,.T.);
#62 = VERTEX_POINT('',#63);
#63 = CARTESIAN_POINT('',(-8.,0.,0.));
#64 = VERTEX_POINT('',#65);
#65 = CARTESIAN_POINT('',(-8.,0.,42.));
#66 = LINE('',#67,#68);
#67 = CARTESIAN_POINT('',(-8.,0.,0.));
#68 = VECTOR('',#69,1.);
#69 = DIRECTION('',(0.,0.,1.));
#70 = ORIENTED_EDGE('',*,*,#71,.T.);
#71 = EDGE_CURVE('',#64,#24,#72,.T.);
#72 = LINE('',#73,#74);
#73 = CARTESIAN_POINT('',(-8.,120.,42.));
#74 = VECTOR('',#75,1.);
#75 = DIRECTION('',(0.,1.,0.));
#76 = ORIENTED_EDGE('',*,*,#21,.F.);
#77 = ORIENTED_EDGE('',*,*,#78,.F.);
#78 = EDGE_CURVE('',#62,#22,#79,.T.);
#79 = LINE('',#80,#81);
#80 = CARTESIAN_POINT('',(-8.,0.,0.));
#81 = VECTOR('',#82,1.);
#82 = DIRECTION('',(0.,1.,0.));
#83 = FACE_BOUND('',#84,.T.);
#84 = EDGE_LOOP('',(#85));
#85 = ORIENTED_EDGE('',*,*,#86,.T.);
#86 = EDGE_CURVE('',#87,#87,#89,.T.);
#87 = VERTEX_POINT('',#88);
#88 = CARTESIAN_POINT('',(-8.,118.,21.));
#89 = CIRCLE('',#90,10.5);
#90 = AXIS2_PLACEMENT_3D('',#91,#92,#93);
#91 = CARTESIAN_POINT('',(-8.,107.5,21.));
#92 = DIRECTION('',(1.,0.,0.));
#93 = DIRECTION('',(0.,1.,0.));
#94 = FACE_BOUND('',#95,.T.);
#95 = EDGE_LOOP('',(#96,#107,#115,#124,#132,#141,#149,#158));
#96 = ORIENTED_EDGE('',*,*,#97,.T.);
#97 = EDGE_CURVE('',#98,#100,#102,.T.);
#98 = VERTEX_POINT('',#99);
#99 = CARTESIAN_POINT('',(-8.,18.,16.));
#100 = VERTEX_POINT('',#101);
#101 = CARTESIAN_POINT('',(-8.,28.,6.));
#102 = CIRCLE('',#103,10.);
#103 = AXIS2_PLACEMENT_3D('',#104,#105,#106);
#104 = CARTESIAN_POINT('',(-8.,28.,16.));
#105 = DIRECTION('',(1.,0.,0.));
#106 = DIRECTION('',(0.,1.,0.));
#107 = ORIENTED_EDGE('',*,*,#108,.T.);
#108 = EDGE_CURVE('',#100,#109,#111,.T.);
#109 = VERTEX_POINT('',#110);
#110 = CARTESIAN_POINT('',(-8.,46.,6.));
#111 = LINE('',#112,#113);
#112 = CARTESIAN_POINT('',(-8.,28.,6.));
#113 = VECTOR('',#114,1.);
#114 = DIRECTION('',(0.,1.,0.));
#115 = ORIENTED_EDGE('',*,*,#116,.T.);
#116 = EDGE_CURVE('',#109,#117,#119,.T.);
#117 = VERTEX_POINT('',#118);
#118 = CARTESIAN_POINT('',(-8.,56.,16.));
#119 = CIRCLE('',#120,10.);
#120 = AXIS2_PLACEMENT_3D('',#121,#122,#123);
#121 = CARTESIAN_POINT('',(-8.,46.,16.));
#122 = DIRECTION('',(1.,0.,0.));
#123 = DIRECTION('',(0.,1.,0.));
#124 = ORIENTED_EDGE('',*,*,#125,.T.);
#125 = EDGE_CURVE('',#117,#126,#128,.T.);
#126 = VERTEX_POINT('',#127);
#127 = CARTESIAN_POINT('',(-8.,56.,26.));
#128 = LINE('',#129,#130);
#129 = CARTESIAN_POINT('',(-8.,56.,16.));
#130 = VECTOR('',#131,1.);
#131 = DIRECTION('',(0.,0.,1.));
#132 = ORIENTED_EDGE('',*,*,#133,.T.);
#133 = EDGE_CURVE('',#126,#134,#136,.T.);
#134 = VERTEX_POINT('',#135);
#135 = CARTESIAN_POINT('',(-8.,46.,36.));
#136 = CIRCLE('',#137,10.);
#137 = AXIS2_PLACEMENT_3D('',#138,#139,#140);
#138 = CARTESIAN_POINT('',(-8.,46.,26.));
#139 = DIRECTION('',(1.,0.,0.));
#140 = DIRECTION('',(0.,1.,0.));
#141 = ORIENTED_EDGE('',*,*,#142,.T.);
#142 = EDGE_CURVE('',#134,#143,#145,.T.);
#143 = VERTEX_POINT('',#144);
#144 = CARTESIAN_POINT('',(-8.,28.,36.));
#145 = LINE('',#146,#147);
#146 = CARTESIAN_POINT('',(-8.,46.,36.));
#147 = VECTOR('',#148,1.);
#148 = DIRECTION('',(0.,-1.,0.));
#149 = ORIENTED_EDGE('',*,*,#150,.T.);
#150 = EDGE_CURVE('',#143,#151,#153,.T.);
#151 = VERTEX_POINT('',#152);
#152 = CARTESIAN_POINT('',(-8.,18.,26.));
#153 = CIRCLE('',#154,10.);
#154 = AXIS2_PLACEMENT_3D('',#155,#156,#157);
#155 = CARTESIAN_POINT('',(-8.,28.,26.));
#156 = DIRECTION('',(1.,0.,0.));
#157 = DIRECTION('',(0.,1.,0.));
#158 = ORIENTED_EDGE('',*,*,#159,.T.);
#159 = EDGE_CURVE('',#151,#98,#160,.T.);
#160 = LINE('',#161,#162);
#161 = CARTESIAN_POINT('',(-8.,18.,26.));
#162 = VECTOR('',#163,1.);
#163 = DIRECTION('',(0.,0.,-1.));
#164 = PLANE('',#165);
#165 = AXIS2_PLACEMENT_3D('',#166,#167,#168);
#166 = CARTESIAN_POINT('',(-8.,62.5,21.));
#167 = DIRECTION('',(-1.,-0.,-0.));
#168 = DIRECTION('',(0.,0.,-1.));
#169 = ADVANCED_FACE('',(#170,#195),#206,.T.);
#170 = FACE_BOUND('',#171,.T.);
#171 = EDGE_LOOP('',(#172,#173,#181,#189));
#172 = ORIENTED_EDGE('',*,*,#39,.T.);
#173 = ORIENTED_EDGE('',*,*,#174,.T.);
#174 = EDGE_CURVE('',#32,#175,#177,.T.);
#175 = VERTEX_POINT('',#176);
#176 = CARTESIAN_POINT('',(12.,90.,42.));
#177 = LINE('',#178,#179);
#178 = CARTESIAN_POINT('',(12.,125.,42.));
#179 = VECTOR('',#180,1.);
#180 = DIRECTION('',(0.,-1.,0.));
#181 = ORIENTED_EDGE('',*,*,#182,.F.);
#182 = EDGE_CURVE('',#183,#175,#185,.T.);
#183 = VERTEX_POINT('',#184);
#184 = CARTESIAN_POINT('',(12.,90.,0.));
#185 = LINE('',#186,#187);
#186 = CARTESIAN_POINT('',(12.,90.,0.));
#187 = VECTOR('',#188,1.);
#188 = DIRECTION('',(0.,0.,1.));
#189 = ORIENTED_EDGE('',*,*,#190,.F.);
#190 = EDGE_CURVE('',#40,#183,#191,.T.);
#191 = LINE('',#192,#193);
#192 = CARTESIAN_POINT('',(12.,125.,0.));
#193 = VECTOR('',#194,1.);
#194 = DIRECTION('',(0.,-1.,0.));
#195 = FACE_BOUND('',#196,.T.);
#196 = EDGE_LOOP('',(#197));
#197 = ORIENTED_EDGE('',*,*,#198,.F.);
#198 = EDGE_CURVE('',#199,#199,#201,.T.);
#199 = VERTEX_POINT('',#200);
#200 = CARTESIAN_POINT('',(12.,121.5,21.));
#201 = CIRCLE('',#202,14.);
#202 = AXIS2_PLACEMENT_3D('',#203,#204,#205);
#203 = CARTESIAN_POINT('',(12.,107.5,21.));
#204 = DIRECTION('',(1.,0.,0.));
#205 = DIRECTION('',(0.,1.,0.));
#206 = PLANE('',#207);
#207 = AXIS2_PLACEMENT_3D('',#208,#209,#210);
#208 = CARTESIAN_POINT('',(12.,125.,0.));
#209 = DIRECTION('',(1.,0.,0.));
#210 = DIRECTION('',(0.,-1.,0.));
#211 = ADVANCED_FACE('',(#212),#255,.F.);
#212 = FACE_BOUND('',#213,.T.);
#213 = EDGE_LOOP('',(#214,#222,#223,#224,#225,#233,#241,#249));
#214 = ORIENTED_EDGE('',*,*,#215,.T.);
#215 = EDGE_CURVE('',#216,#62,#218,.T.);
#216 = VERTEX_POINT('',#217);
#217 = CARTESIAN_POINT('',(42.,0.,0.));
#218 = LINE('',#219,#220);
#219 = CARTESIAN_POINT('',(42.,0.,0.));
#220 = VECTOR('',#221,1.);
#221 = DIRECTION('',(-1.,0.,0.));
#222 = ORIENTED_EDGE('',*,*,#78,.T.);
#223 = ORIENTED_EDGE('',*,*,#47,.T.);
#224 = ORIENTED_EDGE('',*,*,#190,.T.);
#225 = ORIENTED_EDGE('',*,*,#226,.T.);
#226 = EDGE_CURVE('',#183,#227,#229,.T.);
#227 = VERTEX_POINT('',#228);
#228 = CARTESIAN_POINT('',(0.,90.,0.));
#229 = LINE('',#230,#231);
#230 = CARTESIAN_POINT('',(12.,90.,0.));
#231 = VECTOR('',#232,1.);
#232 = DIRECTION('',(-1.,0.,0.));
#233 = ORIENTED_EDGE('',*,*,#234,.T.);
#234 = EDGE_CURVE('',#227,#235,#237,.T.);
#235 = VERTEX_POINT('',#236);
#236 = CARTESIAN_POINT('',(0.,8.,0.));
#237 = LINE('',#238,#239);
#238 = CARTESIAN_POINT('',(0.,90.,0.));
#239 = VECTOR('',#240,1.);
#240 = DIRECTION('',(0.,-1.,0.));
#241 = ORIENTED_EDGE('',*,*,#242,.T.);
#242 = EDGE_CURVE('',#235,#243,#245,.T.);
#243 = VERTEX_POINT('',#244);
#244 = CARTESIAN_POINT('',(42.,8.,0.));
#245 = LINE('',#246,#247);
#246 = CARTESIAN_POINT('',(0.,8.,0.));
#247 = VECTOR('',#248,1.);
#248 = DIRECTION('',(1.,0.,0.));
#249 = ORIENTED_EDGE('',*,*,#250,.F.);
#250 = EDGE_CURVE('',#216,#243,#251,.T.);
#251 = LINE('',#252,#253);
#252 = CARTESIAN_POINT('',(42.,0.,0.));
#253 = VECTOR('',#254,1.);
#254 = DIRECTION('',(0.,1.,0.));
#255 = PLANE('',#256);
#256 = AXIS2_PLACEMENT_3D('',#257,#258,#259);
#257 = CARTESIAN_POINT('',(4.27807486631,52.248663101604,0.));
#258 = DIRECTION('',(0.,0.,1.));
#259 = DIRECTION('',(1.,0.,0.));
#260 = ADVANCED_FACE('',(#261),#304,.T.);
#261 = FACE_BOUND('',#262,.F.);
#262 = EDGE_LOOP('',(#263,#271,#272,#273,#274,#282,#290,#298));
#263 = ORIENTED_EDGE('',*,*,#264,.T.);
#264 = EDGE_CURVE('',#265,#64,#267,.T.);
#265 = VERTEX_POINT('',#266);
#266 = CARTESIAN_POINT('',(42.,0.,42.));
#267 = LINE('',#268,#269);
#268 = CARTESIAN_POINT('',(0.,0.,42.));
#269 = VECTOR('',#270,1.);
#270 = DIRECTION('',(-1.,0.,0.));
#271 = ORIENTED_EDGE('',*,*,#71,.T.);
#272 = ORIENTED_EDGE('',*,*,#31,.T.);
#273 = ORIENTED_EDGE('',*,*,#174,.T.);
#274 = ORIENTED_EDGE('',*,*,#275,.T.);
#275 = EDGE_CURVE('',#175,#276,#278,.T.);
#276 = VERTEX_POINT('',#277);
#277 = CARTESIAN_POINT('',(0.,90.,42.));
#278 = LINE('',#279,#280);
#279 = CARTESIAN_POINT('',(12.,90.,42.));
#280 = VECTOR('',#281,1.);
#281 = DIRECTION('',(-1.,0.,0.));
#282 = ORIENTED_EDGE('',*,*,#283,.T.);
#283 = EDGE_CURVE('',#276,#284,#286,.T.);
#284 = VERTEX_POINT('',#285);
#285 = CARTESIAN_POINT('',(0.,8.,42.));
#286 = LINE('',#287,#288);
#287 = CARTESIAN_POINT('',(0.,90.,42.));
#288 = VECTOR('',#289,1.);
#289 = DIRECTION('',(0.,-1.,0.));
#290 = ORIENTED_EDGE('',*,*,#291,.T.);
#291 = EDGE_CURVE('',#284,#292,#294,.T.);
#292 = VERTEX_POINT('',#293);
#293 = CARTESIAN_POINT('',(42.,8.,42.));
#294 = LINE('',#295,#296);
#295 = CARTESIAN_POINT('',(0.,8.,42.));
#296 = VECTOR('',#297,1.);
#297 = DIRECTION('',(1.,0.,0.));
#298 = ORIENTED_EDGE('',*,*,#299,.F.);
#299 = EDGE_CURVE('',#265,#292,#300,.T.);
#300 = LINE('',#301,#302);
#301 = CARTESIAN_POINT('',(42.,0.,42.));
#302 = VECTOR('',#303,1.);
#303 = DIRECTION('',(0.,1.,0.));
#304 = PLANE('',#305);
#305 = AXIS2_PLACEMENT_3D('',#306,#307,#308);
#306 = CARTESIAN_POINT('',(4.27807486631,52.248663101604,42.));
#307 = DIRECTION('',(0.,0.,1.));
#308 = DIRECTION('',(1.,0.,0.));
#309 = ADVANCED_FACE('',(#310),#321,.T.);
#310 = FACE_BOUND('',#311,.T.);
#311 = EDGE_LOOP('',(#312,#318,#319,#320));
#312 = ORIENTED_EDGE('',*,*,#313,.T.);
#313 = EDGE_CURVE('',#216,#265,#314,.T.);
#314 = LINE('',#315,#316);
#315 = CARTESIAN_POINT('',(42.,0.,0.));
#316 = VECTOR('',#317,1.);
#317 = DIRECTION('',(0.,0.,1.));
#318 = ORIENTED_EDGE('',*,*,#264,.T.);
#319 = ORIENTED_EDGE('',*,*,#61,.F.);
#320 = ORIENTED_EDGE('',*,*,#215,.F.);
#321 = PLANE('',#322);
#322 = AXIS2_PLACEMENT_3D('',#323,#324,#325);
#323 = CARTESIAN_POINT('',(17.,0.,21.));
#324 = DIRECTION('',(-0.,-1.,-0.));
#325 = DIRECTION('',(0.,0.,-1.));
#326 = ADVANCED_FACE('',(#327),#346,.F.);
#327 = FACE_BOUND('',#328,.F.);
#328 = EDGE_LOOP('',(#329,#337,#338,#339));
#329 = ORIENTED_EDGE('',*,*,#330,.T.);
#330 = EDGE_CURVE('',#331,#87,#333,.T.);
#331 = VERTEX_POINT('',#332);
#332 = CARTESIAN_POINT('',(8.,118.,21.));
#333 = LINE('',#334,#335);
#334 = CARTESIAN_POINT('',(8.,118.,21.));
#335 = VECTOR('',#336,1.);
#336 = DIRECTION('',(-1.,-0.,-0.));
#337 = ORIENTED_EDGE('',*,*,#86,.T.);
#338 = ORIENTED_EDGE('',*,*,#330,.F.);
#339 = ORIENTED_EDGE('',*,*,#340,.F.);
#340 = EDGE_CURVE('',#331,#331,#341,.T.);
#341 = CIRCLE('',#342,10.5);
#342 = AXIS2_PLACEMENT_3D('',#343,#344,#345);
#343 = CARTESIAN_POINT('',(8.,107.5,21.));
#344 = DIRECTION('',(1.,0.,0.));
#345 = DIRECTION('',(0.,1.,0.));
#346 = CYLINDRICAL_SURFACE('',#347,10.5);
#347 = AXIS2_PLACEMENT_3D('',#348,#349,#350);
#348 = CARTESIAN_POINT('',(8.,107.5,21.));
#349 = DIRECTION('',(1.,0.,0.));
#350 = DIRECTION('',(-0.,1.,0.));
#351 = ADVANCED_FACE('',(#352),#378,.F.);
#352 = FACE_BOUND('',#353,.F.);
#353 = EDGE_LOOP('',(#354,#362,#363,#371));
#354 = ORIENTED_EDGE('',*,*,#355,.T.);
#355 = EDGE_CURVE('',#356,#98,#358,.T.);
#356 = VERTEX_POINT('',#357);
#357 = CARTESIAN_POINT('',(0.,18.,16.));
#358 = LINE('',#359,#360);
#359 = CARTESIAN_POINT('',(0.,18.,16.));
#360 = VECTOR('',#361,1.);
#361 = DIRECTION('',(-1.,-0.,-0.));
#362 = ORIENTED_EDGE('',*,*,#97,.T.);
#363 = ORIENTED_EDGE('',*,*,#364,.F.);
#364 = EDGE_CURVE('',#365,#100,#367,.T.);
#365 = VERTEX_POINT('',#366);
#366 = CARTESIAN_POINT('',(0.,28.,6.));
#367 = LINE('',#368,#369);
#368 = CARTESIAN_POINT('',(0.,28.,6.));
#369 = VECTOR('',#370,1.);
#370 = DIRECTION('',(-1.,-0.,-0.));
#371 = ORIENTED_EDGE('',*,*,#372,.F.);
#372 = EDGE_CURVE('',#356,#365,#373,.T.);
#373 = CIRCLE('',#374,10.);
#374 = AXIS2_PLACEMENT_3D('',#375,#376,#377);
#375 = CARTESIAN_POINT('',(0.,28.,16.));
#376 = DIRECTION('',(1.,0.,0.));
#377 = DIRECTION('',(0.,1.,0.));
#378 = CYLINDRICAL_SURFACE('',#379,10.);
#379 = AXIS2_PLACEMENT_3D('',#380,#381,#382);
#380 = CARTESIAN_POINT('',(0.,28.,16.));
#381 = DIRECTION('',(1.,0.,0.));
#382 = DIRECTION('',(0.,1.,0.));
#383 = ADVANCED_FACE('',(#384),#402,.F.);
#384 = FACE_BOUND('',#385,.F.);
#385 = EDGE_LOOP('',(#386,#394,#395,#396));
#386 = ORIENTED_EDGE('',*,*,#387,.T.);
#387 = EDGE_CURVE('',#388,#151,#390,.T.);
#388 = VERTEX_POINT('',#389);
#389 = CARTESIAN_POINT('',(0.,18.,26.));
#390 = LINE('',#391,#392);
#391 = CARTESIAN_POINT('',(0.,18.,26.));
#392 = VECTOR('',#393,1.);
#393 = DIRECTION('',(-1.,-0.,-0.));
#394 = ORIENTED_EDGE('',*,*,#159,.T.);
#395 = ORIENTED_EDGE('',*,*,#355,.F.);
#396 = ORIENTED_EDGE('',*,*,#397,.F.);
#397 = EDGE_CURVE('',#388,#356,#398,.T.);
#398 = LINE('',#399,#400);
#399 = CARTESIAN_POINT('',(0.,18.,26.));
#400 = VECTOR('',#401,1.);
#401 = DIRECTION('',(0.,0.,-1.));
#402 = PLANE('',#403);
#403 = AXIS2_PLACEMENT_3D('',#404,#405,#406);
#404 = CARTESIAN_POINT('',(0.,18.,26.));
#405 = DIRECTION('',(0.,-1.,0.));
#406 = DIRECTION('',(0.,0.,-1.));
#407 = ADVANCED_FACE('',(#408),#426,.F.);
#408 = FACE_BOUND('',#409,.F.);
#409 = EDGE_LOOP('',(#410,#411,#412,#420));
#410 = ORIENTED_EDGE('',*,*,#364,.T.);
#411 = ORIENTED_EDGE('',*,*,#108,.T.);
#412 = ORIENTED_EDGE('',*,*,#413,.F.);
#413 = EDGE_CURVE('',#414,#109,#416,.T.);
#414 = VERTEX_POINT('',#415);
#415 = CARTESIAN_POINT('',(0.,46.,6.));
#416 = LINE('',#417,#418);
#417 = CARTESIAN_POINT('',(0.,46.,6.));
#418 = VECTOR('',#419,1.);
#419 = DIRECTION('',(-1.,-0.,-0.));
#420 = ORIENTED_EDGE('',*,*,#421,.F.);
#421 = EDGE_CURVE('',#365,#414,#422,.T.);
#422 = LINE('',#423,#424);
#423 = CARTESIAN_POINT('',(0.,28.,6.));
#424 = VECTOR('',#425,1.);
#425 = DIRECTION('',(0.,1.,0.));
#426 = PLANE('',#427);
#427 = AXIS2_PLACEMENT_3D('',#428,#429,#430);
#428 = CARTESIAN_POINT('',(0.,28.,6.));
#429 = DIRECTION('',(0.,0.,-1.));
#430 = DIRECTION('',(0.,1.,0.));
#431 = ADVANCED_FACE('',(#432),#451,.F.);
#432 = FACE_BOUND('',#433,.F.);
#433 = EDGE_LOOP('',(#434,#442,#443,#444));
#434 = ORIENTED_EDGE('',*,*,#435,.T.);
#435 = EDGE_CURVE('',#436,#143,#438,.T.);
#436 = VERTEX_POINT('',#437);
#437 = CARTESIAN_POINT('',(0.,28.,36.));
#438 = LINE('',#439,#440);
#439 = CARTESIAN_POINT('',(0.,28.,36.));
#440 = VECTOR('',#441,1.);
#441 = DIRECTION('',(-1.,-0.,-0.));
#442 = ORIENTED_EDGE('',*,*,#150,.T.);
#443 = ORIENTED_EDGE('',*,*,#387,.F.);
#444 = ORIENTED_EDGE('',*,*,#445,.F.);
#445 = EDGE_CURVE('',#436,#388,#446,.T.);
#446 = CIRCLE('',#447,10.);
#447 = AXIS2_PLACEMENT_3D('',#448,#449,#450);
#448 = CARTESIAN_POINT('',(0.,28.,26.));
#449 = DIRECTION('',(1.,0.,0.));
#450 = DIRECTION('',(0.,1.,0.));
#451 = CYLINDRICAL_SURFACE('',#452,10.);
#452 = AXIS2_PLACEMENT_3D('',#453,#454,#455);
#453 = CARTESIAN_POINT('',(0.,28.,26.));
#454 = DIRECTION('',(1.,0.,0.));
#455 = DIRECTION('',(0.,1.,0.));
#456 = ADVANCED_FACE('',(#457),#476,.F.);
#457 = FACE_BOUND('',#458,.F.);
#458 = EDGE_LOOP('',(#459,#460,#461,#469));
#459 = ORIENTED_EDGE('',*,*,#413,.T.);
#460 = ORIENTED_EDGE('',*,*,#116,.T.);
#461 = ORIENTED_EDGE('',*,*,#462,.F.);
#462 = EDGE_CURVE('',#463,#117,#465,.T.);
#463 = VERTEX_POINT('',#464);
#464 = CARTESIAN_POINT('',(0.,56.,16.));
#465 = LINE('',#466,#467);
#466 = CARTESIAN_POINT('',(0.,56.,16.));
#467 = VECTOR('',#468,1.);
#468 = DIRECTION('',(-1.,-0.,-0.));
#469 = ORIENTED_EDGE('',*,*,#470,.F.);
#470 = EDGE_CURVE('',#414,#463,#471,.T.);
#471 = CIRCLE('',#472,10.);
#472 = AXIS2_PLACEMENT_3D('',#473,#474,#475);
#473 = CARTESIAN_POINT('',(0.,46.,16.));
#474 = DIRECTION('',(1.,0.,0.));
#475 = DIRECTION('',(0.,1.,0.));
#476 = CYLINDRICAL_SURFACE('',#477,10.);
#477 = AXIS2_PLACEMENT_3D('',#478,#479,#480);
#478 = CARTESIAN_POINT('',(0.,46.,16.));
#479 = DIRECTION('',(1.,0.,0.));
#480 = DIRECTION('',(0.,1.,0.));
#481 = ADVANCED_FACE('',(#482),#500,.F.);
#482 = FACE_BOUND('',#483,.F.);
#483 = EDGE_LOOP('',(#484,#492,#493,#494));
#484 = ORIENTED_EDGE('',*,*,#485,.T.);
#485 = EDGE_CURVE('',#486,#134,#488,.T.);
#486 = VERTEX_POINT('',#487);
#487 = CARTESIAN_POINT('',(0.,46.,36.));
#488 = LINE('',#489,#490);
#489 = CARTESIAN_POINT('',(0.,46.,36.));
#490 = VECTOR('',#491,1.);
#491 = DIRECTION('',(-1.,-0.,-0.));
#492 = ORIENTED_EDGE('',*,*,#142,.T.);
#493 = ORIENTED_EDGE('',*,*,#435,.F.);
#494 = ORIENTED_EDGE('',*,*,#495,.F.);
#495 = EDGE_CURVE('',#486,#436,#496,.T.);
#496 = LINE('',#497,#498);
#497 = CARTESIAN_POINT('',(0.,46.,36.));
#498 = VECTOR('',#499,1.);
#499 = DIRECTION('',(0.,-1.,0.));
#500 = PLANE('',#501);
#501 = AXIS2_PLACEMENT_3D('',#502,#503,#504);
#502 = CARTESIAN_POINT('',(0.,46.,36.));
#503 = DIRECTION('',(0.,0.,1.));
#504 = DIRECTION('',(0.,-1.,0.));
#505 = ADVANCED_FACE('',(#506),#524,.F.);
#506 = FACE_BOUND('',#507,.F.);
#507 = EDGE_LOOP('',(#508,#509,#510,#518));
#508 = ORIENTED_EDGE('',*,*,#462,.T.);
#509 = ORIENTED_EDGE('',*,*,#125,.T.);
#510 = ORIENTED_EDGE('',*,*,#511,.F.);
#511 = EDGE_CURVE('',#512,#126,#514,.T.);
#512 = VERTEX_POINT('',#513);
#513 = CARTESIAN_POINT('',(0.,56.,26.));
#514 = LINE('',#515,#516);
#515 = CARTESIAN_POINT('',(0.,56.,26.));
#516 = VECTOR('',#517,1.);
#517 = DIRECTION('',(-1.,-0.,-0.));
#518 = ORIENTED_EDGE('',*,*,#519,.F.);
#519 = EDGE_CURVE('',#463,#512,#520,.T.);
#520 = LINE('',#521,#522);
#521 = CARTESIAN_POINT('',(0.,56.,16.));
#522 = VECTOR('',#523,1.);
#523 = DIRECTION('',(0.,0.,1.));
#524 = PLANE('',#525);
#525 = AXIS2_PLACEMENT_3D('',#526,#527,#528);
#526 = CARTESIAN_POINT('',(0.,56.,16.));
#527 = DIRECTION('',(0.,1.,0.));
#528 = DIRECTION('',(0.,0.,1.));
#529 = ADVANCED_FACE('',(#530),#542,.F.);
#530 = FACE_BOUND('',#531,.F.);
#531 = EDGE_LOOP('',(#532,#533,#534,#535));
#532 = ORIENTED_EDGE('',*,*,#511,.T.);
#533 = ORIENTED_EDGE('',*,*,#133,.T.);
#534 = ORIENTED_EDGE('',*,*,#485,.F.);
#535 = ORIENTED_EDGE('',*,*,#536,.F.);
#536 = EDGE_CURVE('',#512,#486,#537,.T.);
#537 = CIRCLE('',#538,10.);
#538 = AXIS2_PLACEMENT_3D('',#539,#540,#541);
#539 = CARTESIAN_POINT('',(0.,46.,26.));
#540 = DIRECTION('',(1.,0.,0.));
#541 = DIRECTION('',(0.,1.,0.));
#542 = CYLINDRICAL_SURFACE('',#543,10.);
#543 = AXIS2_PLACEMENT_3D('',#544,#545,#546);
#544 = CARTESIAN_POINT('',(0.,46.,26.));
#545 = DIRECTION('',(1.,0.,0.));
#546 = DIRECTION('',(0.,1.,0.));
#547 = ADVANCED_FACE('',(#548),#559,.T.);
#548 = FACE_BOUND('',#549,.T.);
#549 = EDGE_LOOP('',(#550,#551,#552,#558));
#550 = ORIENTED_EDGE('',*,*,#182,.T.);
#551 = ORIENTED_EDGE('',*,*,#275,.T.);
#552 = ORIENTED_EDGE('',*,*,#553,.F.);
#553 = EDGE_CURVE('',#227,#276,#554,.T.);
#554 = LINE('',#555,#556);
#555 = CARTESIAN_POINT('',(0.,90.,0.));
#556 = VECTOR('',#557,1.);
#557 = DIRECTION('',(0.,0.,1.));
#558 = ORIENTED_EDGE('',*,*,#226,.F.);
#559 = PLANE('',#560);
#560 = AXIS2_PLACEMENT_3D('',#561,#562,#563);
#561 = CARTESIAN_POINT('',(12.,90.,0.));
#562 = DIRECTION('',(0.,-1.,0.));
#563 = DIRECTION('',(-1.,0.,0.));
#564 = ADVANCED_FACE('',(#565),#584,.F.);
#565 = FACE_BOUND('',#566,.F.);
#566 = EDGE_LOOP('',(#567,#575,#582,#583));
#567 = ORIENTED_EDGE('',*,*,#568,.T.);
#568 = EDGE_CURVE('',#199,#569,#571,.T.);
#569 = VERTEX_POINT('',#570);
#570 = CARTESIAN_POINT('',(8.,121.5,21.));
#571 = LINE('',#572,#573);
#572 = CARTESIAN_POINT('',(12.,121.5,21.));
#573 = VECTOR('',#574,1.);
#574 = DIRECTION('',(-1.,-0.,-0.));
#575 = ORIENTED_EDGE('',*,*,#576,.T.);
#576 = EDGE_CURVE('',#569,#569,#577,.T.);
#577 = CIRCLE('',#578,14.);
#578 = AXIS2_PLACEMENT_3D('',#579,#580,#581);
#579 = CARTESIAN_POINT('',(8.,107.5,21.));
#580 = DIRECTION('',(1.,0.,0.));
#581 = DIRECTION('',(0.,1.,0.));
#582 = ORIENTED_EDGE('',*,*,#568,.F.);
#583 = ORIENTED_EDGE('',*,*,#198,.F.);
#584 = CYLINDRICAL_SURFACE('',#585,14.);
#585 = AXIS2_PLACEMENT_3D('',#586,#587,#588);
#586 = CARTESIAN_POINT('',(12.,107.5,21.));
#587 = DIRECTION('',(1.,0.,0.));
#588 = DIRECTION('',(0.,1.,0.));
#589 = ADVANCED_FACE('',(#590,#601),#611,.T.);
#590 = FACE_BOUND('',#591,.T.);
#591 = EDGE_LOOP('',(#592,#593,#594,#600));
#592 = ORIENTED_EDGE('',*,*,#553,.T.);
#593 = ORIENTED_EDGE('',*,*,#283,.T.);
#594 = ORIENTED_EDGE('',*,*,#595,.F.);
#595 = EDGE_CURVE('',#235,#284,#596,.T.);
#596 = LINE('',#597,#598);
#597 = CARTESIAN_POINT('',(0.,8.,0.));
#598 = VECTOR('',#599,1.);
#599 = DIRECTION('',(0.,0.,1.));
#600 = ORIENTED_EDGE('',*,*,#234,.F.);
#601 = FACE_BOUND('',#602,.T.);
#602 = EDGE_LOOP('',(#603,#604,#605,#606,#607,#608,#609,#610));
#603 = ORIENTED_EDGE('',*,*,#421,.F.);
#604 = ORIENTED_EDGE('',*,*,#372,.F.);
#605 = ORIENTED_EDGE('',*,*,#397,.F.);
#606 = ORIENTED_EDGE('',*,*,#445,.F.);
#607 = ORIENTED_EDGE('',*,*,#495,.F.);
#608 = ORIENTED_EDGE('',*,*,#536,.F.);
#609 = ORIENTED_EDGE('',*,*,#519,.F.);
#610 = ORIENTED_EDGE('',*,*,#470,.F.);
#611 = PLANE('',#612);
#612 = AXIS2_PLACEMENT_3D('',#613,#614,#615);
#613 = CARTESIAN_POINT('',(0.,90.,0.));
#614 = DIRECTION('',(1.,0.,0.));
#615 = DIRECTION('',(0.,-1.,0.));
#616 = ADVANCED_FACE('',(#617),#628,.T.);
#617 = FACE_BOUND('',#618,.T.);
#618 = EDGE_LOOP('',(#619,#620,#621,#627));
#619 = ORIENTED_EDGE('',*,*,#595,.T.);
#620 = ORIENTED_EDGE('',*,*,#291,.T.);
#621 = ORIENTED_EDGE('',*,*,#622,.F.);
#622 = EDGE_CURVE('',#243,#292,#623,.T.);
#623 = LINE('',#624,#625);
#624 = CARTESIAN_POINT('',(42.,8.,0.));
#625 = VECTOR('',#626,1.);
#626 = DIRECTION('',(0.,0.,1.));
#627 = ORIENTED_EDGE('',*,*,#242,.F.);
#628 = PLANE('',#629);
#629 = AXIS2_PLACEMENT_3D('',#630,#631,#632);
#630 = CARTESIAN_POINT('',(0.,8.,0.));
#631 = DIRECTION('',(0.,1.,0.));
#632 = DIRECTION('',(1.,0.,0.));
#633 = ADVANCED_FACE('',(#634),#640,.F.);
#634 = FACE_BOUND('',#635,.F.);
#635 = EDGE_LOOP('',(#636,#637,#638,#639));
#636 = ORIENTED_EDGE('',*,*,#313,.T.);
#637 = ORIENTED_EDGE('',*,*,#299,.T.);
#638 = ORIENTED_EDGE('',*,*,#622,.F.);
#639 = ORIENTED_EDGE('',*,*,#250,.F.);
#640 = PLANE('',#641);
#641 = AXIS2_PLACEMENT_3D('',#642,#643,#644);
#642 = CARTESIAN_POINT('',(42.,0.,0.));
#643 = DIRECTION('',(-1.,0.,0.));
#644 = DIRECTION('',(0.,1.,0.));
#645 = ADVANCED_FACE('',(#646,#649),#652,.T.);
#646 = FACE_BOUND('',#647,.T.);
#647 = EDGE_LOOP('',(#648));
#648 = ORIENTED_EDGE('',*,*,#576,.T.);
#649 = FACE_BOUND('',#650,.T.);
#650 = EDGE_LOOP('',(#651));
#651 = ORIENTED_EDGE('',*,*,#340,.F.);
#652 = PLANE('',#653);
#653 = AXIS2_PLACEMENT_3D('',#654,#655,#656);
#654 = CARTESIAN_POINT('',(8.,107.5,21.));
#655 = DIRECTION('',(1.,0.,0.));
#656 = DIRECTION('',(0.,0.,1.));
#657 = ( GEOMETRIC_REPRESENTATION_CONTEXT(3) 
GLOBAL_UNCERTAINTY_ASSIGNED_CONTEXT((#661)) GLOBAL_UNIT_ASSIGNED_CONTEXT
((#658,#659,#660)) REPRESENTATION_CONTEXT('Context #1',
  '3D Context with UNIT and UNCERTAINTY') );
#658 = ( LENGTH_UNIT() NAMED_UNIT(*) SI_UNIT($,.METRE.) );
#659 = ( NAMED_UNIT(*) PLANE_ANGLE_UNIT() SI_UNIT($,.RADIAN.) );
#660 = ( NAMED_UNIT(*) SI_UNIT($,.STERADIAN.) SOLID_ANGLE_UNIT() );
#661 = UNCERTAINTY_MEASURE_WITH_UNIT(LENGTH_MEASURE(1.E-07),#658,
  'distance_accuracy_value','confusion accuracy');
#662 = PRODUCT_RELATED_PRODUCT_CATEGORY('part',$,(#7));
#663 = MECHANICAL_DESIGN_GEOMETRIC_PRESENTATION_REPRESENTATION('',(#664)
  ,#657);
#664 = STYLED_ITEM('color',(#665),#15);
#665 = PRESENTATION_STYLE_ASSIGNMENT((#666,#674));
#666 = SURFACE_STYLE_USAGE(.BOTH.,#667);
#667 = SURFACE_SIDE_STYLE('',(#668,#672));
#668 = SURFACE_STYLE_FILL_AREA(#669);
#669 = FILL_AREA_STYLE('',(#670));
#670 = FILL_AREA_STYLE_COLOUR('',#671);
#671 = COLOUR_RGB('',0.447058818107,0.474509808674,0.501960817233);
#672 = SURFACE_STYLE_RENDERING_WITH_PROPERTIES(.NORMAL_SHADING.,#671,(
    #673));
#673 = SURFACE_STYLE_TRANSPARENT(0.699999988079);
#674 = CURVE_STYLE('',#675,POSITIVE_LENGTH_MEASURE(0.1),#676);
#675 = DRAUGHTING_PRE_DEFINED_CURVE_FONT('continuous');
#676 = COLOUR_RGB('',9.803921802644E-02,9.803921802644E-02,
  9.803921802644E-02);
ENDSEC;
END-ISO-10303-21;
