ISO-10303-21;
HEADER;
FILE_DESCRIPTION(('FreeCAD Model'),'2;1');
FILE_NAME('Open CASCADE Shape Model','2026-10-05T21:26:41',(''),(''),
  'Open CASCADE STEP processor 7.8','FreeCAD','Unknown');
FILE_SCHEMA(('AUTOMOTIVE_DESIGN { 1 0 10303 214 1 1 1 1 }'));
ENDSEC;
DATA;
#1 = APPLICATION_PROTOCOL_DEFINITION('international standard',
  'automotive_design',2000,#2);
#2 = APPLICATION_CONTEXT(
  'core data for automotive mechanical design processes');
#3 = SHAPE_DEFINITION_REPRESENTATION(#4,#10);
#4 = PRODUCT_DEFINITION_SHAPE('','',#5);
#5 = PRODUCT_DEFINITION('design','',#6,#9);
#6 = PRODUCT_DEFINITION_FORMATION('','',#7);
#7 = PRODUCT('J2_Tension_Ring','J2_Tension_Ring','',(#8));
#8 = PRODUCT_CONTEXT('',#2,'mechanical');
#9 = PRODUCT_DEFINITION_CONTEXT('part definition',#2,'design');
#10 = ADVANCED_BREP_SHAPE_REPRESENTATION('',(#11,#15),#208);
#11 = AXIS2_PLACEMENT_3D('',#12,#13,#14);
#12 = CARTESIAN_POINT('',(0.,0.,0.));
#13 = DIRECTION('',(0.,0.,1.));
#14 = DIRECTION('',(1.,0.,-0.));
#15 = MANIFOLD_SOLID_BREP('',#16);
#16 = CLOSED_SHELL('',(#17,#57,#101,#126,#151,#179,#191));
#17 = ADVANCED_FACE('',(#18),#52,.T.);
#18 = FACE_BOUND('',#19,.T.);
#19 = EDGE_LOOP('',(#20,#30,#38,#46));
#20 = ORIENTED_EDGE('',*,*,#21,.F.);
#21 = EDGE_CURVE('',#22,#24,#26,.T.);
#22 = VERTEX_POINT('',#23);
#23 = CARTESIAN_POINT('',(-51.56263505467,0.986927702476,0.));
#24 = VERTEX_POINT('',#25);
#25 = CARTESIAN_POINT('',(-16.98113207547,24.73137993391,0.));
#26 = LINE('',#27,#28);
#27 = CARTESIAN_POINT('',(-53.,0.,0.));
#28 = VECTOR('',#29,1.);
#29 = DIRECTION('',(0.82437933113,0.566037735849,0.));
#30 = ORIENTED_EDGE('',*,*,#31,.T.);
#31 = EDGE_CURVE('',#22,#32,#34,.T.);
#32 = VERTEX_POINT('',#33);
#33 = CARTESIAN_POINT('',(-51.56263505467,0.986927702476,4.));
#34 = LINE('',#35,#36);
#35 = CARTESIAN_POINT('',(-51.56263505467,0.986927702476,0.));
#36 = VECTOR('',#37,1.);
#37 = DIRECTION('',(0.,0.,1.));
#38 = ORIENTED_EDGE('',*,*,#39,.T.);
#39 = EDGE_CURVE('',#32,#40,#42,.T.);
#40 = VERTEX_POINT('',#41);
#41 = CARTESIAN_POINT('',(-16.98113207547,24.73137993391,4.));
#42 = LINE('',#43,#44);
#43 = CARTESIAN_POINT('',(-53.,0.,4.));
#44 = VECTOR('',#45,1.);
#45 = DIRECTION('',(0.82437933113,0.566037735849,0.));
#46 = ORIENTED_EDGE('',*,*,#47,.F.);
#47 = EDGE_CURVE('',#24,#40,#48,.T.);
#48 = LINE('',#49,#50);
#49 = CARTESIAN_POINT('',(-16.98113207547,24.73137993391,0.));
#50 = VECTOR('',#51,1.);
#51 = DIRECTION('',(0.,0.,1.));
#52 = PLANE('',#53);
#53 = AXIS2_PLACEMENT_3D('',#54,#55,#56);
#54 = CARTESIAN_POINT('',(-53.,0.,0.));
#55 = DIRECTION('',(-0.566037735849,0.82437933113,0.));
#56 = DIRECTION('',(0.82437933113,0.566037735849,0.));
#57 = ADVANCED_FACE('',(#58,#85),#96,.F.);
#58 = FACE_BOUND('',#59,.F.);
#59 = EDGE_LOOP('',(#60,#61,#70,#78));
#60 = ORIENTED_EDGE('',*,*,#21,.F.);
#61 = ORIENTED_EDGE('',*,*,#62,.T.);
#62 = EDGE_CURVE('',#22,#63,#65,.T.);
#63 = VERTEX_POINT('',#64);
#64 = CARTESIAN_POINT('',(-51.42233221927,-0.742299568662,0.));
#65 = CIRCLE('',#66,1.);
#66 = AXIS2_PLACEMENT_3D('',#67,#68,#69);
#67 = CARTESIAN_POINT('',(-50.99659731882,0.162548371345,0.));
#68 = DIRECTION('',(-0.,0.,1.));
#69 = DIRECTION('',(0.,-1.,0.));
#70 = ORIENTED_EDGE('',*,*,#71,.T.);
#71 = EDGE_CURVE('',#63,#72,#74,.T.);
#72 = VERTEX_POINT('',#73);
#73 = CARTESIAN_POINT('',(-27.49545416979,-11.99999999998,0.));
#74 = LINE('',#75,#76);
#75 = CARTESIAN_POINT('',(-53.,0.,0.));
#76 = VECTOR('',#77,1.);
#77 = DIRECTION('',(0.904847940008,-0.425734900453,0.));
#78 = ORIENTED_EDGE('',*,*,#79,.T.);
#79 = EDGE_CURVE('',#72,#24,#80,.T.);
#80 = CIRCLE('',#81,30.);
#81 = AXIS2_PLACEMENT_3D('',#82,#83,#84);
#82 = CARTESIAN_POINT('',(0.,0.,0.));
#83 = DIRECTION('',(0.,0.,1.));
#84 = DIRECTION('',(1.,0.,0.));
#85 = FACE_BOUND('',#86,.F.);
#86 = EDGE_LOOP('',(#87));
#87 = ORIENTED_EDGE('',*,*,#88,.T.);
#88 = EDGE_CURVE('',#89,#89,#91,.T.);
#89 = VERTEX_POINT('',#90);
#90 = CARTESIAN_POINT('',(12.5,0.,0.));
#91 = CIRCLE('',#92,12.5);
#92 = AXIS2_PLACEMENT_3D('',#93,#94,#95);
#93 = CARTESIAN_POINT('',(0.,0.,0.));
#94 = DIRECTION('',(0.,0.,-1.));
#95 = DIRECTION('',(1.,0.,0.));
#96 = PLANE('',#97);
#97 = AXIS2_PLACEMENT_3D('',#98,#99,#100);
#98 = CARTESIAN_POINT('',(-9.398778376499,0.764552281939,0.));
#99 = DIRECTION('',(0.,0.,1.));
#100 = DIRECTION('',(1.,0.,0.));
#101 = ADVANCED_FACE('',(#102),#121,.T.);
#102 = FACE_BOUND('',#103,.T.);
#103 = EDGE_LOOP('',(#104,#105,#113,#120));
#104 = ORIENTED_EDGE('',*,*,#62,.T.);
#105 = ORIENTED_EDGE('',*,*,#106,.T.);
#106 = EDGE_CURVE('',#63,#107,#109,.T.);
#107 = VERTEX_POINT('',#108);
#108 = CARTESIAN_POINT('',(-51.42233221927,-0.742299568662,4.));
#109 = LINE('',#110,#111);
#110 = CARTESIAN_POINT('',(-51.42233221927,-0.742299568662,0.));
#111 = VECTOR('',#112,1.);
#112 = DIRECTION('',(0.,0.,1.));
#113 = ORIENTED_EDGE('',*,*,#114,.F.);
#114 = EDGE_CURVE('',#32,#107,#115,.T.);
#115 = CIRCLE('',#116,1.);
#116 = AXIS2_PLACEMENT_3D('',#117,#118,#119);
#117 = CARTESIAN_POINT('',(-50.99659731882,0.162548371345,4.));
#118 = DIRECTION('',(-0.,0.,1.));
#119 = DIRECTION('',(0.,-1.,0.));
#120 = ORIENTED_EDGE('',*,*,#31,.F.);
#121 = CYLINDRICAL_SURFACE('',#122,1.);
#122 = AXIS2_PLACEMENT_3D('',#123,#124,#125);
#123 = CARTESIAN_POINT('',(-50.99659731882,0.162548371345,0.));
#124 = DIRECTION('',(0.,0.,1.));
#125 = DIRECTION('',(-0.566037735849,0.82437933113,0.));
#126 = ADVANCED_FACE('',(#127),#146,.T.);
#127 = FACE_BOUND('',#128,.F.);
#128 = EDGE_LOOP('',(#129,#137,#144,#145));
#129 = ORIENTED_EDGE('',*,*,#130,.T.);
#130 = EDGE_CURVE('',#72,#131,#133,.T.);
#131 = VERTEX_POINT('',#132);
#132 = CARTESIAN_POINT('',(-27.49545416979,-11.99999999998,4.));
#133 = LINE('',#134,#135);
#134 = CARTESIAN_POINT('',(-27.49545416979,-11.99999999998,0.));
#135 = VECTOR('',#136,1.);
#136 = DIRECTION('',(0.,0.,1.));
#137 = ORIENTED_EDGE('',*,*,#138,.T.);
#138 = EDGE_CURVE('',#131,#40,#139,.T.);
#139 = CIRCLE('',#140,30.);
#140 = AXIS2_PLACEMENT_3D('',#141,#142,#143);
#141 = CARTESIAN_POINT('',(0.,0.,4.));
#142 = DIRECTION('',(0.,0.,1.));
#143 = DIRECTION('',(1.,0.,0.));
#144 = ORIENTED_EDGE('',*,*,#47,.F.);
#145 = ORIENTED_EDGE('',*,*,#79,.F.);
#146 = CYLINDRICAL_SURFACE('',#147,30.);
#147 = AXIS2_PLACEMENT_3D('',#148,#149,#150);
#148 = CARTESIAN_POINT('',(0.,0.,0.));
#149 = DIRECTION('',(-0.,-0.,-1.));
#150 = DIRECTION('',(1.,0.,0.));
#151 = ADVANCED_FACE('',(#152,#163),#174,.T.);
#152 = FACE_BOUND('',#153,.T.);
#153 = EDGE_LOOP('',(#154,#155,#156,#162));
#154 = ORIENTED_EDGE('',*,*,#39,.F.);
#155 = ORIENTED_EDGE('',*,*,#114,.T.);
#156 = ORIENTED_EDGE('',*,*,#157,.T.);
#157 = EDGE_CURVE('',#107,#131,#158,.T.);
#158 = LINE('',#159,#160);
#159 = CARTESIAN_POINT('',(-53.,0.,4.));
#160 = VECTOR('',#161,1.);
#161 = DIRECTION('',(0.904847940008,-0.425734900453,0.));
#162 = ORIENTED_EDGE('',*,*,#138,.T.);
#163 = FACE_BOUND('',#164,.T.);
#164 = EDGE_LOOP('',(#165));
#165 = ORIENTED_EDGE('',*,*,#166,.T.);
#166 = EDGE_CURVE('',#167,#167,#169,.T.);
#167 = VERTEX_POINT('',#168);
#168 = CARTESIAN_POINT('',(12.5,0.,4.));
#169 = CIRCLE('',#170,12.5);
#170 = AXIS2_PLACEMENT_3D('',#171,#172,#173);
#171 = CARTESIAN_POINT('',(0.,0.,4.));
#172 = DIRECTION('',(0.,0.,-1.));
#173 = DIRECTION('',(1.,0.,0.));
#174 = PLANE('',#175);
#175 = AXIS2_PLACEMENT_3D('',#176,#177,#178);
#176 = CARTESIAN_POINT('',(-9.398778376499,0.764552281939,4.));
#177 = DIRECTION('',(0.,0.,1.));
#178 = DIRECTION('',(1.,0.,0.));
#179 = ADVANCED_FACE('',(#180),#186,.F.);
#180 = FACE_BOUND('',#181,.F.);
#181 = EDGE_LOOP('',(#182,#183,#184,#185));
#182 = ORIENTED_EDGE('',*,*,#71,.F.);
#183 = ORIENTED_EDGE('',*,*,#106,.T.);
#184 = ORIENTED_EDGE('',*,*,#157,.T.);
#185 = ORIENTED_EDGE('',*,*,#130,.F.);
#186 = PLANE('',#187);
#187 = AXIS2_PLACEMENT_3D('',#188,#189,#190);
#188 = CARTESIAN_POINT('',(-53.,0.,0.));
#189 = DIRECTION('',(0.425734900453,0.904847940008,0.));
#190 = DIRECTION('',(0.904847940008,-0.425734900453,0.));
#191 = ADVANCED_FACE('',(#192),#203,.F.);
#192 = FACE_BOUND('',#193,.F.);
#193 = EDGE_LOOP('',(#194,#200,#201,#202));
#194 = ORIENTED_EDGE('',*,*,#195,.T.);
#195 = EDGE_CURVE('',#89,#167,#196,.T.);
#196 = LINE('',#197,#198);
#197 = CARTESIAN_POINT('',(12.5,0.,0.));
#198 = VECTOR('',#199,1.);
#199 = DIRECTION('',(0.,0.,1.));
#200 = ORIENTED_EDGE('',*,*,#166,.T.);
#201 = ORIENTED_EDGE('',*,*,#195,.F.);
#202 = ORIENTED_EDGE('',*,*,#88,.F.);
#203 = CYLINDRICAL_SURFACE('',#204,12.5);
#204 = AXIS2_PLACEMENT_3D('',#205,#206,#207);
#205 = CARTESIAN_POINT('',(0.,0.,0.));
#206 = DIRECTION('',(0.,0.,-1.));
#207 = DIRECTION('',(1.,0.,0.));
#208 = ( GEOMETRIC_REPRESENTATION_CONTEXT(3) 
GLOBAL_UNCERTAINTY_ASSIGNED_CONTEXT((#212)) GLOBAL_UNIT_ASSIGNED_CONTEXT
((#209,#210,#211)) REPRESENTATION_CONTEXT('Context #1',
  '3D Context with UNIT and UNCERTAINTY') );
#209 = ( LENGTH_UNIT() NAMED_UNIT(*) SI_UNIT($,.METRE.) );
#210 = ( NAMED_UNIT(*) PLANE_ANGLE_UNIT() SI_UNIT($,.RADIAN.) );
#211 = ( NAMED_UNIT(*) SI_UNIT($,.STERADIAN.) SOLID_ANGLE_UNIT() );
#212 = UNCERTAINTY_MEASURE_WITH_UNIT(LENGTH_MEASURE(1.E-07),#209,
  'distance_accuracy_value','confusion accuracy');
#213 = PRODUCT_RELATED_PRODUCT_CATEGORY('part',$,(#7));
#214 = MECHANICAL_DESIGN_GEOMETRIC_PRESENTATION_REPRESENTATION('',(#215)
  ,#208);
#215 = STYLED_ITEM('color',(#216),#15);
#216 = PRESENTATION_STYLE_ASSIGNMENT((#217,#225));
#217 = SURFACE_STYLE_USAGE(.BOTH.,#218);
#218 = SURFACE_SIDE_STYLE('',(#219,#223));
#219 = SURFACE_STYLE_FILL_AREA(#220);
#220 = FILL_AREA_STYLE('',(#221));
#221 = FILL_AREA_STYLE_COLOUR('',#222);
#222 = COLOUR_RGB('',0.447058818107,0.474509808674,0.501960817233);
#223 = SURFACE_STYLE_RENDERING_WITH_PROPERTIES(.NORMAL_SHADING.,#222,(
    #224));
#224 = SURFACE_STYLE_TRANSPARENT(0.699999988079);
#225 = CURVE_STYLE('',#226,POSITIVE_LENGTH_MEASURE(0.1),#227);
#226 = DRAUGHTING_PRE_DEFINED_CURVE_FONT('continuous');
#227 = COLOUR_RGB('',9.803921802644E-02,9.803921802644E-02,
  9.803921802644E-02);
ENDSEC;
END-ISO-10303-21;
