ISO-10303-21;
HEADER;
FILE_DESCRIPTION(('FreeCAD Model'),'2;1');
FILE_NAME('Open CASCADE Shape Model','2026-10-05T21:26:59',(''),(''),
  'Open CASCADE STEP processor 7.8','FreeCAD','Unknown');
FILE_SCHEMA(('AUTOMOTIVE_DESIGN { 1 0 10303 214 1 1 1 1 }'));
ENDSEC;
DATA;
#1 = APPLICATION_PROTOCOL_DEFINITION('international standard',
  'automotive_design',2000,#2);
#2 = APPLICATION_CONTEXT(
  'core data for automotive mechanical design processes');
#3 = SHAPE_DEFINITION_REPRESENTATION(#4,#10);
#4 = PRODUCT_DEFINITION_SHAPE('','',#5);
#5 = PRODUCT_DEFINITION('design','',#6,#9);
#6 = PRODUCT_DEFINITION_FORMATION('','',#7);
#7 = PRODUCT('J2_Arm','J2_Arm','',(#8));
#8 = PRODUCT_CONTEXT('',#2,'mechanical');
#9 = PRODUCT_DEFINITION_CONTEXT('part definition',#2,'design');
#10 = ADVANCED_BREP_SHAPE_REPRESENTATION('',(#11,#15),#1064);
#11 = AXIS2_PLACEMENT_3D('',#12,#13,#14);
#12 = CARTESIAN_POINT('',(0.,0.,0.));
#13 = DIRECTION('',(0.,0.,1.));
#14 = DIRECTION('',(1.,0.,-0.));
#15 = MANIFOLD_SOLID_BREP('',#16);
#16 = CLOSED_SHELL('',(#17,#57,#98,#199,#280,#361,#389,#406,#438,#462,
    #487,#511,#536,#560,#585,#602,#710,#823,#840,#867,#884,#897,#914,
    #936,#953,#970,#987,#1004,#1021,#1038,#1050));
#17 = ADVANCED_FACE('',(#18),#52,.T.);
#18 = FACE_BOUND('',#19,.T.);
#19 = EDGE_LOOP('',(#20,#30,#38,#46));
#20 = ORIENTED_EDGE('',*,*,#21,.T.);
#21 = EDGE_CURVE('',#22,#24,#26,.T.);
#22 = VERTEX_POINT('',#23);
#23 = CARTESIAN_POINT('',(0.,78.,0.));
#24 = VERTEX_POINT('',#25);
#25 = CARTESIAN_POINT('',(0.,78.,60.));
#26 = LINE('',#27,#28);
#27 = CARTESIAN_POINT('',(0.,78.,0.));
#28 = VECTOR('',#29,1.);
#29 = DIRECTION('',(0.,0.,1.));
#30 = ORIENTED_EDGE('',*,*,#31,.T.);
#31 = EDGE_CURVE('',#24,#32,#34,.T.);
#32 = VERTEX_POINT('',#33);
#33 = CARTESIAN_POINT('',(64.,78.,60.));
#34 = LINE('',#35,#36);
#35 = CARTESIAN_POINT('',(0.,78.,60.));
#36 = VECTOR('',#37,1.);
#37 = DIRECTION('',(1.,0.,0.));
#38 = ORIENTED_EDGE('',*,*,#39,.F.);
#39 = EDGE_CURVE('',#40,#32,#42,.T.);
#40 = VERTEX_POINT('',#41);
#41 = CARTESIAN_POINT('',(64.,78.,0.));
#42 = LINE('',#43,#44);
#43 = CARTESIAN_POINT('',(64.,78.,0.));
#44 = VECTOR('',#45,1.);
#45 = DIRECTION('',(0.,0.,1.));
#46 = ORIENTED_EDGE('',*,*,#47,.F.);
#47 = EDGE_CURVE('',#22,#40,#48,.T.);
#48 = LINE('',#49,#50);
#49 = CARTESIAN_POINT('',(0.,78.,0.));
#50 = VECTOR('',#51,1.);
#51 = DIRECTION('',(1.,0.,0.));
#52 = PLANE('',#53);
#53 = AXIS2_PLACEMENT_3D('',#54,#55,#56);
#54 = CARTESIAN_POINT('',(0.,78.,0.));
#55 = DIRECTION('',(0.,1.,0.));
#56 = DIRECTION('',(1.,0.,0.));
#57 = ADVANCED_FACE('',(#58),#93,.T.);
#58 = FACE_BOUND('',#59,.T.);
#59 = EDGE_LOOP('',(#60,#71,#80,#86,#87));
#60 = ORIENTED_EDGE('',*,*,#61,.T.);
#61 = EDGE_CURVE('',#62,#64,#66,.T.);
#62 = VERTEX_POINT('',#63);
#63 = CARTESIAN_POINT('',(0.,30.,0.));
#64 = VERTEX_POINT('',#65);
#65 = CARTESIAN_POINT('',(0.,0.,30.));
#66 = CIRCLE('',#67,30.);
#67 = AXIS2_PLACEMENT_3D('',#68,#69,#70);
#68 = CARTESIAN_POINT('',(0.,30.,30.));
#69 = DIRECTION('',(-1.,0.,0.));
#70 = DIRECTION('',(0.,-1.,0.));
#71 = ORIENTED_EDGE('',*,*,#72,.T.);
#72 = EDGE_CURVE('',#64,#73,#75,.T.);
#73 = VERTEX_POINT('',#74);
#74 = CARTESIAN_POINT('',(0.,30.,60.));
#75 = CIRCLE('',#76,30.);
#76 = AXIS2_PLACEMENT_3D('',#77,#78,#79);
#77 = CARTESIAN_POINT('',(0.,30.,30.));
#78 = DIRECTION('',(-1.,0.,0.));
#79 = DIRECTION('',(0.,-1.,0.));
#80 = ORIENTED_EDGE('',*,*,#81,.T.);
#81 = EDGE_CURVE('',#73,#24,#82,.T.);
#82 = LINE('',#83,#84);
#83 = CARTESIAN_POINT('',(0.,68.,60.));
#84 = VECTOR('',#85,1.);
#85 = DIRECTION('',(0.,1.,0.));
#86 = ORIENTED_EDGE('',*,*,#21,.F.);
#87 = ORIENTED_EDGE('',*,*,#88,.F.);
#88 = EDGE_CURVE('',#62,#22,#89,.T.);
#89 = LINE('',#90,#91);
#90 = CARTESIAN_POINT('',(0.,0.,0.));
#91 = VECTOR('',#92,1.);
#92 = DIRECTION('',(0.,1.,0.));
#93 = PLANE('',#94);
#94 = AXIS2_PLACEMENT_3D('',#95,#96,#97);
#95 = CARTESIAN_POINT('',(0.,39.,30.));
#96 = DIRECTION('',(-1.,-0.,-0.));
#97 = DIRECTION('',(0.,0.,-1.));
#98 = ADVANCED_FACE('',(#99,#124),#194,.T.);
#99 = FACE_BOUND('',#100,.T.);
#100 = EDGE_LOOP('',(#101,#102,#110,#118));
#101 = ORIENTED_EDGE('',*,*,#39,.T.);
#102 = ORIENTED_EDGE('',*,*,#103,.T.);
#103 = EDGE_CURVE('',#32,#104,#106,.T.);
#104 = VERTEX_POINT('',#105);
#105 = CARTESIAN_POINT('',(64.,143.,60.));
#106 = LINE('',#107,#108);
#107 = CARTESIAN_POINT('',(64.,78.,60.));
#108 = VECTOR('',#109,1.);
#109 = DIRECTION('',(0.,1.,0.));
#110 = ORIENTED_EDGE('',*,*,#111,.F.);
#111 = EDGE_CURVE('',#112,#104,#114,.T.);
#112 = VERTEX_POINT('',#113);
#113 = CARTESIAN_POINT('',(64.,143.,0.));
#114 = LINE('',#115,#116);
#115 = CARTESIAN_POINT('',(64.,143.,0.));
#116 = VECTOR('',#117,1.);
#117 = DIRECTION('',(0.,0.,1.));
#118 = ORIENTED_EDGE('',*,*,#119,.F.);
#119 = EDGE_CURVE('',#40,#112,#120,.T.);
#120 = LINE('',#121,#122);
#121 = CARTESIAN_POINT('',(64.,78.,0.));
#122 = VECTOR('',#123,1.);
#123 = DIRECTION('',(0.,1.,0.));
#124 = FACE_BOUND('',#125,.T.);
#125 = EDGE_LOOP('',(#126,#137,#145,#154,#162,#171,#179,#188));
#126 = ORIENTED_EDGE('',*,*,#127,.T.);
#127 = EDGE_CURVE('',#128,#130,#132,.T.);
#128 = VERTEX_POINT('',#129);
#129 = CARTESIAN_POINT('',(64.,87.,26.5));
#130 = VERTEX_POINT('',#131);
#131 = CARTESIAN_POINT('',(64.,102.,11.5));
#132 = CIRCLE('',#133,15.);
#133 = AXIS2_PLACEMENT_3D('',#134,#135,#136);
#134 = CARTESIAN_POINT('',(64.,102.,26.5));
#135 = DIRECTION('',(1.,0.,0.));
#136 = DIRECTION('',(0.,1.,0.));
#137 = ORIENTED_EDGE('',*,*,#138,.T.);
#138 = EDGE_CURVE('',#130,#139,#141,.T.);
#139 = VERTEX_POINT('',#140);
#140 = CARTESIAN_POINT('',(64.,119.,11.5));
#141 = LINE('',#142,#143);
#142 = CARTESIAN_POINT('',(64.,102.,11.5));
#143 = VECTOR('',#144,1.);
#144 = DIRECTION('',(0.,1.,0.));
#145 = ORIENTED_EDGE('',*,*,#146,.T.);
#146 = EDGE_CURVE('',#139,#147,#149,.T.);
#147 = VERTEX_POINT('',#148);
#148 = CARTESIAN_POINT('',(64.,134.,26.5));
#149 = CIRCLE('',#150,15.);
#150 = AXIS2_PLACEMENT_3D('',#151,#152,#153);
#151 = CARTESIAN_POINT('',(64.,119.,26.5));
#152 = DIRECTION('',(1.,0.,0.));
#153 = DIRECTION('',(0.,1.,0.));
#154 = ORIENTED_EDGE('',*,*,#155,.T.);
#155 = EDGE_CURVE('',#147,#156,#158,.T.);
#156 = VERTEX_POINT('',#157);
#157 = CARTESIAN_POINT('',(64.,134.,33.5));
#158 = LINE('',#159,#160);
#159 = CARTESIAN_POINT('',(64.,134.,26.5));
#160 = VECTOR('',#161,1.);
#161 = DIRECTION('',(0.,0.,1.));
#162 = ORIENTED_EDGE('',*,*,#163,.T.);
#163 = EDGE_CURVE('',#156,#164,#166,.T.);
#164 = VERTEX_POINT('',#165);
#165 = CARTESIAN_POINT('',(64.,119.,48.5));
#166 = CIRCLE('',#167,15.);
#167 = AXIS2_PLACEMENT_3D('',#168,#169,#170);
#168 = CARTESIAN_POINT('',(64.,119.,33.5));
#169 = DIRECTION('',(1.,0.,0.));
#170 = DIRECTION('',(0.,1.,0.));
#171 = ORIENTED_EDGE('',*,*,#172,.T.);
#172 = EDGE_CURVE('',#164,#173,#175,.T.);
#173 = VERTEX_POINT('',#174);
#174 = CARTESIAN_POINT('',(64.,102.,48.5));
#175 = LINE('',#176,#177);
#176 = CARTESIAN_POINT('',(64.,119.,48.5));
#177 = VECTOR('',#178,1.);
#178 = DIRECTION('',(0.,-1.,0.));
#179 = ORIENTED_EDGE('',*,*,#180,.T.);
#180 = EDGE_CURVE('',#173,#181,#183,.T.);
#181 = VERTEX_POINT('',#182);
#182 = CARTESIAN_POINT('',(64.,87.,33.5));
#183 = CIRCLE('',#184,15.);
#184 = AXIS2_PLACEMENT_3D('',#185,#186,#187);
#185 = CARTESIAN_POINT('',(64.,102.,33.5));
#186 = DIRECTION('',(1.,0.,0.));
#187 = DIRECTION('',(0.,1.,0.));
#188 = ORIENTED_EDGE('',*,*,#189,.T.);
#189 = EDGE_CURVE('',#181,#128,#190,.T.);
#190 = LINE('',#191,#192);
#191 = CARTESIAN_POINT('',(64.,87.,33.5));
#192 = VECTOR('',#193,1.);
#193 = DIRECTION('',(0.,0.,-1.));
#194 = PLANE('',#195);
#195 = AXIS2_PLACEMENT_3D('',#196,#197,#198);
#196 = CARTESIAN_POINT('',(64.,78.,0.));
#197 = DIRECTION('',(-1.,0.,0.));
#198 = DIRECTION('',(0.,1.,0.));
#199 = ADVANCED_FACE('',(#200),#275,.F.);
#200 = FACE_BOUND('',#201,.F.);
#201 = EDGE_LOOP('',(#202,#203,#211,#219,#227,#235,#243,#251,#259,#267,
    #273,#274));
#202 = ORIENTED_EDGE('',*,*,#88,.F.);
#203 = ORIENTED_EDGE('',*,*,#204,.T.);
#204 = EDGE_CURVE('',#62,#205,#207,.T.);
#205 = VERTEX_POINT('',#206);
#206 = CARTESIAN_POINT('',(12.,30.,0.));
#207 = LINE('',#208,#209);
#208 = CARTESIAN_POINT('',(0.,30.,0.));
#209 = VECTOR('',#210,1.);
#210 = DIRECTION('',(1.,0.,0.));
#211 = ORIENTED_EDGE('',*,*,#212,.T.);
#212 = EDGE_CURVE('',#205,#213,#215,.T.);
#213 = VERTEX_POINT('',#214);
#214 = CARTESIAN_POINT('',(12.,68.,0.));
#215 = LINE('',#216,#217);
#216 = CARTESIAN_POINT('',(12.,0.,0.));
#217 = VECTOR('',#218,1.);
#218 = DIRECTION('',(0.,1.,0.));
#219 = ORIENTED_EDGE('',*,*,#220,.T.);
#220 = EDGE_CURVE('',#213,#221,#223,.T.);
#221 = VERTEX_POINT('',#222);
#222 = CARTESIAN_POINT('',(76.,68.,0.));
#223 = LINE('',#224,#225);
#224 = CARTESIAN_POINT('',(12.,68.,0.));
#225 = VECTOR('',#226,1.);
#226 = DIRECTION('',(1.,0.,0.));
#227 = ORIENTED_EDGE('',*,*,#228,.T.);
#228 = EDGE_CURVE('',#221,#229,#231,.T.);
#229 = VERTEX_POINT('',#230);
#230 = CARTESIAN_POINT('',(76.,153.,0.));
#231 = LINE('',#232,#233);
#232 = CARTESIAN_POINT('',(76.,143.,0.));
#233 = VECTOR('',#234,1.);
#234 = DIRECTION('',(0.,1.,0.));
#235 = ORIENTED_EDGE('',*,*,#236,.T.);
#236 = EDGE_CURVE('',#229,#237,#239,.T.);
#237 = VERTEX_POINT('',#238);
#238 = CARTESIAN_POINT('',(12.,153.,0.));
#239 = LINE('',#240,#241);
#240 = CARTESIAN_POINT('',(76.,153.,0.));
#241 = VECTOR('',#242,1.);
#242 = DIRECTION('',(-1.,0.,0.));
#243 = ORIENTED_EDGE('',*,*,#244,.T.);
#244 = EDGE_CURVE('',#237,#245,#247,.T.);
#245 = VERTEX_POINT('',#246);
#246 = CARTESIAN_POINT('',(12.,263.00000069924,7.E-15));
#247 = LINE('',#248,#249);
#248 = CARTESIAN_POINT('',(12.,223.,0.));
#249 = VECTOR('',#250,1.);
#250 = DIRECTION('',(0.,1.,0.));
#251 = ORIENTED_EDGE('',*,*,#252,.T.);
#252 = EDGE_CURVE('',#245,#253,#255,.T.);
#253 = VERTEX_POINT('',#254);
#254 = CARTESIAN_POINT('',(2.E-15,263.00000069924,7.E-15));
#255 = LINE('',#256,#257);
#256 = CARTESIAN_POINT('',(12.,263.00000069924,7.11E-15));
#257 = VECTOR('',#258,1.);
#258 = DIRECTION('',(-1.,-0.,-0.));
#259 = ORIENTED_EDGE('',*,*,#260,.F.);
#260 = EDGE_CURVE('',#261,#253,#263,.T.);
#261 = VERTEX_POINT('',#262);
#262 = CARTESIAN_POINT('',(0.,143.,0.));
#263 = LINE('',#264,#265);
#264 = CARTESIAN_POINT('',(0.,143.,0.));
#265 = VECTOR('',#266,1.);
#266 = DIRECTION('',(0.,1.,0.));
#267 = ORIENTED_EDGE('',*,*,#268,.F.);
#268 = EDGE_CURVE('',#112,#261,#269,.T.);
#269 = LINE('',#270,#271);
#270 = CARTESIAN_POINT('',(64.,143.,0.));
#271 = VECTOR('',#272,1.);
#272 = DIRECTION('',(-1.,0.,0.));
#273 = ORIENTED_EDGE('',*,*,#119,.F.);
#274 = ORIENTED_EDGE('',*,*,#47,.F.);
#275 = PLANE('',#276);
#276 = AXIS2_PLACEMENT_3D('',#277,#278,#279);
#277 = CARTESIAN_POINT('',(26.545034642032,135.85796766743,0.));
#278 = DIRECTION('',(0.,0.,1.));
#279 = DIRECTION('',(1.,0.,0.));
#280 = ADVANCED_FACE('',(#281),#356,.T.);
#281 = FACE_BOUND('',#282,.T.);
#282 = EDGE_LOOP('',(#283,#284,#292,#300,#308,#316,#324,#332,#340,#348,
    #354,#355));
#283 = ORIENTED_EDGE('',*,*,#81,.F.);
#284 = ORIENTED_EDGE('',*,*,#285,.T.);
#285 = EDGE_CURVE('',#73,#286,#288,.T.);
#286 = VERTEX_POINT('',#287);
#287 = CARTESIAN_POINT('',(12.,30.,60.));
#288 = LINE('',#289,#290);
#289 = CARTESIAN_POINT('',(0.,30.,60.));
#290 = VECTOR('',#291,1.);
#291 = DIRECTION('',(1.,0.,0.));
#292 = ORIENTED_EDGE('',*,*,#293,.T.);
#293 = EDGE_CURVE('',#286,#294,#296,.T.);
#294 = VERTEX_POINT('',#295);
#295 = CARTESIAN_POINT('',(12.,68.,60.));
#296 = LINE('',#297,#298);
#297 = CARTESIAN_POINT('',(12.,0.,60.));
#298 = VECTOR('',#299,1.);
#299 = DIRECTION('',(0.,1.,0.));
#300 = ORIENTED_EDGE('',*,*,#301,.T.);
#301 = EDGE_CURVE('',#294,#302,#304,.T.);
#302 = VERTEX_POINT('',#303);
#303 = CARTESIAN_POINT('',(76.,68.,60.));
#304 = LINE('',#305,#306);
#305 = CARTESIAN_POINT('',(12.,68.,60.));
#306 = VECTOR('',#307,1.);
#307 = DIRECTION('',(1.,0.,0.));
#308 = ORIENTED_EDGE('',*,*,#309,.T.);
#309 = EDGE_CURVE('',#302,#310,#312,.T.);
#310 = VERTEX_POINT('',#311);
#311 = CARTESIAN_POINT('',(76.,153.,60.));
#312 = LINE('',#313,#314);
#313 = CARTESIAN_POINT('',(76.,68.,60.));
#314 = VECTOR('',#315,1.);
#315 = DIRECTION('',(0.,1.,0.));
#316 = ORIENTED_EDGE('',*,*,#317,.T.);
#317 = EDGE_CURVE('',#310,#318,#320,.T.);
#318 = VERTEX_POINT('',#319);
#319 = CARTESIAN_POINT('',(12.,153.,60.));
#320 = LINE('',#321,#322);
#321 = CARTESIAN_POINT('',(76.,153.,60.));
#322 = VECTOR('',#323,1.);
#323 = DIRECTION('',(-1.,0.,0.));
#324 = ORIENTED_EDGE('',*,*,#325,.T.);
#325 = EDGE_CURVE('',#318,#326,#328,.T.);
#326 = VERTEX_POINT('',#327);
#327 = CARTESIAN_POINT('',(12.,263.00000004667,60.));
#328 = LINE('',#329,#330);
#329 = CARTESIAN_POINT('',(12.,153.,60.));
#330 = VECTOR('',#331,1.);
#331 = DIRECTION('',(0.,1.,0.));
#332 = ORIENTED_EDGE('',*,*,#333,.T.);
#333 = EDGE_CURVE('',#326,#334,#336,.T.);
#334 = VERTEX_POINT('',#335);
#335 = CARTESIAN_POINT('',(2.E-15,263.00000004667,60.));
#336 = LINE('',#337,#338);
#337 = CARTESIAN_POINT('',(12.,263.00000004667,60.));
#338 = VECTOR('',#339,1.);
#339 = DIRECTION('',(-1.,-0.,-0.));
#340 = ORIENTED_EDGE('',*,*,#341,.F.);
#341 = EDGE_CURVE('',#342,#334,#344,.T.);
#342 = VERTEX_POINT('',#343);
#343 = CARTESIAN_POINT('',(0.,143.,60.));
#344 = LINE('',#345,#346);
#345 = CARTESIAN_POINT('',(0.,223.,60.));
#346 = VECTOR('',#347,1.);
#347 = DIRECTION('',(0.,1.,0.));
#348 = ORIENTED_EDGE('',*,*,#349,.F.);
#349 = EDGE_CURVE('',#104,#342,#350,.T.);
#350 = LINE('',#351,#352);
#351 = CARTESIAN_POINT('',(64.,143.,60.));
#352 = VECTOR('',#353,1.);
#353 = DIRECTION('',(-1.,0.,0.));
#354 = ORIENTED_EDGE('',*,*,#103,.F.);
#355 = ORIENTED_EDGE('',*,*,#31,.F.);
#356 = PLANE('',#357);
#357 = AXIS2_PLACEMENT_3D('',#358,#359,#360);
#358 = CARTESIAN_POINT('',(26.545034642032,135.85796766743,60.));
#359 = DIRECTION('',(0.,0.,1.));
#360 = DIRECTION('',(1.,0.,0.));
#361 = ADVANCED_FACE('',(#362),#384,.T.);
#362 = FACE_BOUND('',#363,.T.);
#363 = EDGE_LOOP('',(#364,#373,#374,#375,#376,#377));
#364 = ORIENTED_EDGE('',*,*,#365,.T.);
#365 = EDGE_CURVE('',#366,#286,#368,.T.);
#366 = VERTEX_POINT('',#367);
#367 = CARTESIAN_POINT('',(12.,0.,30.));
#368 = CIRCLE('',#369,30.);
#369 = AXIS2_PLACEMENT_3D('',#370,#371,#372);
#370 = CARTESIAN_POINT('',(12.,30.,30.));
#371 = DIRECTION('',(-1.,0.,0.));
#372 = DIRECTION('',(0.,-1.,0.));
#373 = ORIENTED_EDGE('',*,*,#285,.F.);
#374 = ORIENTED_EDGE('',*,*,#72,.F.);
#375 = ORIENTED_EDGE('',*,*,#61,.F.);
#376 = ORIENTED_EDGE('',*,*,#204,.T.);
#377 = ORIENTED_EDGE('',*,*,#378,.T.);
#378 = EDGE_CURVE('',#205,#366,#379,.T.);
#379 = CIRCLE('',#380,30.);
#380 = AXIS2_PLACEMENT_3D('',#381,#382,#383);
#381 = CARTESIAN_POINT('',(12.,30.,30.));
#382 = DIRECTION('',(-1.,0.,0.));
#383 = DIRECTION('',(0.,-1.,0.));
#384 = CYLINDRICAL_SURFACE('',#385,30.);
#385 = AXIS2_PLACEMENT_3D('',#386,#387,#388);
#386 = CARTESIAN_POINT('',(0.,30.,30.));
#387 = DIRECTION('',(-1.,0.,0.));
#388 = DIRECTION('',(0.,-1.,0.));
#389 = ADVANCED_FACE('',(#390),#401,.T.);
#390 = FACE_BOUND('',#391,.T.);
#391 = EDGE_LOOP('',(#392,#393,#394,#400));
#392 = ORIENTED_EDGE('',*,*,#111,.T.);
#393 = ORIENTED_EDGE('',*,*,#349,.T.);
#394 = ORIENTED_EDGE('',*,*,#395,.F.);
#395 = EDGE_CURVE('',#261,#342,#396,.T.);
#396 = LINE('',#397,#398);
#397 = CARTESIAN_POINT('',(0.,143.,0.));
#398 = VECTOR('',#399,1.);
#399 = DIRECTION('',(0.,0.,1.));
#400 = ORIENTED_EDGE('',*,*,#268,.F.);
#401 = PLANE('',#402);
#402 = AXIS2_PLACEMENT_3D('',#403,#404,#405);
#403 = CARTESIAN_POINT('',(64.,143.,0.));
#404 = DIRECTION('',(0.,-1.,0.));
#405 = DIRECTION('',(-1.,0.,0.));
#406 = ADVANCED_FACE('',(#407),#433,.F.);
#407 = FACE_BOUND('',#408,.F.);
#408 = EDGE_LOOP('',(#409,#417,#418,#426));
#409 = ORIENTED_EDGE('',*,*,#410,.T.);
#410 = EDGE_CURVE('',#411,#128,#413,.T.);
#411 = VERTEX_POINT('',#412);
#412 = CARTESIAN_POINT('',(76.,87.,26.5));
#413 = LINE('',#414,#415);
#414 = CARTESIAN_POINT('',(76.,87.,26.5));
#415 = VECTOR('',#416,1.);
#416 = DIRECTION('',(-1.,-0.,-0.));
#417 = ORIENTED_EDGE('',*,*,#127,.T.);
#418 = ORIENTED_EDGE('',*,*,#419,.F.);
#419 = EDGE_CURVE('',#420,#130,#422,.T.);
#420 = VERTEX_POINT('',#421);
#421 = CARTESIAN_POINT('',(76.,102.,11.5));
#422 = LINE('',#423,#424);
#423 = CARTESIAN_POINT('',(76.,102.,11.5));
#424 = VECTOR('',#425,1.);
#425 = DIRECTION('',(-1.,-0.,-0.));
#426 = ORIENTED_EDGE('',*,*,#427,.F.);
#427 = EDGE_CURVE('',#411,#420,#428,.T.);
#428 = CIRCLE('',#429,15.);
#429 = AXIS2_PLACEMENT_3D('',#430,#431,#432);
#430 = CARTESIAN_POINT('',(76.,102.,26.5));
#431 = DIRECTION('',(1.,0.,0.));
#432 = DIRECTION('',(0.,1.,0.));
#433 = CYLINDRICAL_SURFACE('',#434,15.);
#434 = AXIS2_PLACEMENT_3D('',#435,#436,#437);
#435 = CARTESIAN_POINT('',(76.,102.,26.5));
#436 = DIRECTION('',(1.,0.,0.));
#437 = DIRECTION('',(0.,1.,0.));
#438 = ADVANCED_FACE('',(#439),#457,.F.);
#439 = FACE_BOUND('',#440,.F.);
#440 = EDGE_LOOP('',(#441,#449,#450,#451));
#441 = ORIENTED_EDGE('',*,*,#442,.T.);
#442 = EDGE_CURVE('',#443,#181,#445,.T.);
#443 = VERTEX_POINT('',#444);
#444 = CARTESIAN_POINT('',(76.,87.,33.5));
#445 = LINE('',#446,#447);
#446 = CARTESIAN_POINT('',(76.,87.,33.5));
#447 = VECTOR('',#448,1.);
#448 = DIRECTION('',(-1.,-0.,-0.));
#449 = ORIENTED_EDGE('',*,*,#189,.T.);
#450 = ORIENTED_EDGE('',*,*,#410,.F.);
#451 = ORIENTED_EDGE('',*,*,#452,.F.);
#452 = EDGE_CURVE('',#443,#411,#453,.T.);
#453 = LINE('',#454,#455);
#454 = CARTESIAN_POINT('',(76.,87.,33.5));
#455 = VECTOR('',#456,1.);
#456 = DIRECTION('',(0.,0.,-1.));
#457 = PLANE('',#458);
#458 = AXIS2_PLACEMENT_3D('',#459,#460,#461);
#459 = CARTESIAN_POINT('',(76.,87.,33.5));
#460 = DIRECTION('',(0.,-1.,0.));
#461 = DIRECTION('',(0.,0.,-1.));
#462 = ADVANCED_FACE('',(#463),#482,.F.);
#463 = FACE_BOUND('',#464,.F.);
#464 = EDGE_LOOP('',(#465,#473,#474,#475));
#465 = ORIENTED_EDGE('',*,*,#466,.T.);
#466 = EDGE_CURVE('',#467,#173,#469,.T.);
#467 = VERTEX_POINT('',#468);
#468 = CARTESIAN_POINT('',(76.,102.,48.5));
#469 = LINE('',#470,#471);
#470 = CARTESIAN_POINT('',(76.,102.,48.5));
#471 = VECTOR('',#472,1.);
#472 = DIRECTION('',(-1.,-0.,-0.));
#473 = ORIENTED_EDGE('',*,*,#180,.T.);
#474 = ORIENTED_EDGE('',*,*,#442,.F.);
#475 = ORIENTED_EDGE('',*,*,#476,.F.);
#476 = EDGE_CURVE('',#467,#443,#477,.T.);
#477 = CIRCLE('',#478,15.);
#478 = AXIS2_PLACEMENT_3D('',#479,#480,#481);
#479 = CARTESIAN_POINT('',(76.,102.,33.5));
#480 = DIRECTION('',(1.,0.,0.));
#481 = DIRECTION('',(0.,1.,0.));
#482 = CYLINDRICAL_SURFACE('',#483,15.);
#483 = AXIS2_PLACEMENT_3D('',#484,#485,#486);
#484 = CARTESIAN_POINT('',(76.,102.,33.5));
#485 = DIRECTION('',(1.,0.,0.));
#486 = DIRECTION('',(0.,1.,0.));
#487 = ADVANCED_FACE('',(#488),#506,.F.);
#488 = FACE_BOUND('',#489,.F.);
#489 = EDGE_LOOP('',(#490,#498,#499,#500));
#490 = ORIENTED_EDGE('',*,*,#491,.T.);
#491 = EDGE_CURVE('',#492,#164,#494,.T.);
#492 = VERTEX_POINT('',#493);
#493 = CARTESIAN_POINT('',(76.,119.,48.5));
#494 = LINE('',#495,#496);
#495 = CARTESIAN_POINT('',(76.,119.,48.5));
#496 = VECTOR('',#497,1.);
#497 = DIRECTION('',(-1.,-0.,-0.));
#498 = ORIENTED_EDGE('',*,*,#172,.T.);
#499 = ORIENTED_EDGE('',*,*,#466,.F.);
#500 = ORIENTED_EDGE('',*,*,#501,.F.);
#501 = EDGE_CURVE('',#492,#467,#502,.T.);
#502 = LINE('',#503,#504);
#503 = CARTESIAN_POINT('',(76.,119.,48.5));
#504 = VECTOR('',#505,1.);
#505 = DIRECTION('',(0.,-1.,0.));
#506 = PLANE('',#507);
#507 = AXIS2_PLACEMENT_3D('',#508,#509,#510);
#508 = CARTESIAN_POINT('',(76.,119.,48.5));
#509 = DIRECTION('',(0.,0.,1.));
#510 = DIRECTION('',(0.,-1.,0.));
#511 = ADVANCED_FACE('',(#512),#531,.F.);
#512 = FACE_BOUND('',#513,.F.);
#513 = EDGE_LOOP('',(#514,#522,#523,#524));
#514 = ORIENTED_EDGE('',*,*,#515,.T.);
#515 = EDGE_CURVE('',#516,#156,#518,.T.);
#516 = VERTEX_POINT('',#517);
#517 = CARTESIAN_POINT('',(76.,134.,33.5));
#518 = LINE('',#519,#520);
#519 = CARTESIAN_POINT('',(76.,134.,33.5));
#520 = VECTOR('',#521,1.);
#521 = DIRECTION('',(-1.,-0.,-0.));
#522 = ORIENTED_EDGE('',*,*,#163,.T.);
#523 = ORIENTED_EDGE('',*,*,#491,.F.);
#524 = ORIENTED_EDGE('',*,*,#525,.F.);
#525 = EDGE_CURVE('',#516,#492,#526,.T.);
#526 = CIRCLE('',#527,15.);
#527 = AXIS2_PLACEMENT_3D('',#528,#529,#530);
#528 = CARTESIAN_POINT('',(76.,119.,33.5));
#529 = DIRECTION('',(1.,0.,0.));
#530 = DIRECTION('',(0.,1.,0.));
#531 = CYLINDRICAL_SURFACE('',#532,15.);
#532 = AXIS2_PLACEMENT_3D('',#533,#534,#535);
#533 = CARTESIAN_POINT('',(76.,119.,33.5));
#534 = DIRECTION('',(1.,0.,0.));
#535 = DIRECTION('',(0.,1.,0.));
#536 = ADVANCED_FACE('',(#537),#555,.F.);
#537 = FACE_BOUND('',#538,.F.);
#538 = EDGE_LOOP('',(#539,#547,#548,#549));
#539 = ORIENTED_EDGE('',*,*,#540,.T.);
#540 = EDGE_CURVE('',#541,#147,#543,.T.);
#541 = VERTEX_POINT('',#542);
#542 = CARTESIAN_POINT('',(76.,134.,26.5));
#543 = LINE('',#544,#545);
#544 = CARTESIAN_POINT('',(76.,134.,26.5));
#545 = VECTOR('',#546,1.);
#546 = DIRECTION('',(-1.,-0.,-0.));
#547 = ORIENTED_EDGE('',*,*,#155,.T.);
#548 = ORIENTED_EDGE('',*,*,#515,.F.);
#549 = ORIENTED_EDGE('',*,*,#550,.F.);
#550 = EDGE_CURVE('',#541,#516,#551,.T.);
#551 = LINE('',#552,#553);
#552 = CARTESIAN_POINT('',(76.,134.,26.5));
#553 = VECTOR('',#554,1.);
#554 = DIRECTION('',(0.,0.,1.));
#555 = PLANE('',#556);
#556 = AXIS2_PLACEMENT_3D('',#557,#558,#559);
#557 = CARTESIAN_POINT('',(76.,134.,26.5));
#558 = DIRECTION('',(0.,1.,0.));
#559 = DIRECTION('',(0.,0.,1.));
#560 = ADVANCED_FACE('',(#561),#580,.F.);
#561 = FACE_BOUND('',#562,.F.);
#562 = EDGE_LOOP('',(#563,#571,#572,#573));
#563 = ORIENTED_EDGE('',*,*,#564,.T.);
#564 = EDGE_CURVE('',#565,#139,#567,.T.);
#565 = VERTEX_POINT('',#566);
#566 = CARTESIAN_POINT('',(76.,119.,11.5));
#567 = LINE('',#568,#569);
#568 = CARTESIAN_POINT('',(76.,119.,11.5));
#569 = VECTOR('',#570,1.);
#570 = DIRECTION('',(-1.,-0.,-0.));
#571 = ORIENTED_EDGE('',*,*,#146,.T.);
#572 = ORIENTED_EDGE('',*,*,#540,.F.);
#573 = ORIENTED_EDGE('',*,*,#574,.F.);
#574 = EDGE_CURVE('',#565,#541,#575,.T.);
#575 = CIRCLE('',#576,15.);
#576 = AXIS2_PLACEMENT_3D('',#577,#578,#579);
#577 = CARTESIAN_POINT('',(76.,119.,26.5));
#578 = DIRECTION('',(1.,0.,0.));
#579 = DIRECTION('',(0.,1.,0.));
#580 = CYLINDRICAL_SURFACE('',#581,15.);
#581 = AXIS2_PLACEMENT_3D('',#582,#583,#584);
#582 = CARTESIAN_POINT('',(76.,119.,26.5));
#583 = DIRECTION('',(1.,0.,0.));
#584 = DIRECTION('',(0.,1.,0.));
#585 = ADVANCED_FACE('',(#586),#597,.F.);
#586 = FACE_BOUND('',#587,.F.);
#587 = EDGE_LOOP('',(#588,#589,#590,#591));
#588 = ORIENTED_EDGE('',*,*,#419,.T.);
#589 = ORIENTED_EDGE('',*,*,#138,.T.);
#590 = ORIENTED_EDGE('',*,*,#564,.F.);
#591 = ORIENTED_EDGE('',*,*,#592,.F.);
#592 = EDGE_CURVE('',#420,#565,#593,.T.);
#593 = LINE('',#594,#595);
#594 = CARTESIAN_POINT('',(76.,102.,11.5));
#595 = VECTOR('',#596,1.);
#596 = DIRECTION('',(0.,1.,0.));
#597 = PLANE('',#598);
#598 = AXIS2_PLACEMENT_3D('',#599,#600,#601);
#599 = CARTESIAN_POINT('',(76.,102.,11.5));
#600 = DIRECTION('',(0.,0.,-1.));
#601 = DIRECTION('',(0.,1.,0.));
#602 = ADVANCED_FACE('',(#603,#624,#635),#705,.T.);
#603 = FACE_BOUND('',#604,.T.);
#604 = EDGE_LOOP('',(#605,#606,#607,#608,#617));
#605 = ORIENTED_EDGE('',*,*,#260,.F.);
#606 = ORIENTED_EDGE('',*,*,#395,.T.);
#607 = ORIENTED_EDGE('',*,*,#341,.T.);
#608 = ORIENTED_EDGE('',*,*,#609,.F.);
#609 = EDGE_CURVE('',#610,#334,#612,.T.);
#610 = VERTEX_POINT('',#611);
#611 = CARTESIAN_POINT('',(2.E-15,293.,29.999999957352));
#612 = CIRCLE('',#613,30.);
#613 = AXIS2_PLACEMENT_3D('',#614,#615,#616);
#614 = CARTESIAN_POINT('',(1.7763568394E-15,263.,30.));
#615 = DIRECTION('',(1.,0.,0.));
#616 = DIRECTION('',(0.,1.,0.));
#617 = ORIENTED_EDGE('',*,*,#618,.F.);
#618 = EDGE_CURVE('',#253,#610,#619,.T.);
#619 = CIRCLE('',#620,30.);
#620 = AXIS2_PLACEMENT_3D('',#621,#622,#623);
#621 = CARTESIAN_POINT('',(1.7763568394E-15,263.,30.));
#622 = DIRECTION('',(1.,0.,0.));
#623 = DIRECTION('',(0.,1.,0.));
#624 = FACE_BOUND('',#625,.T.);
#625 = EDGE_LOOP('',(#626));
#626 = ORIENTED_EDGE('',*,*,#627,.T.);
#627 = EDGE_CURVE('',#628,#628,#630,.T.);
#628 = VERTEX_POINT('',#629);
#629 = CARTESIAN_POINT('',(2.E-15,286.5,30.));
#630 = CIRCLE('',#631,23.5);
#631 = AXIS2_PLACEMENT_3D('',#632,#633,#634);
#632 = CARTESIAN_POINT('',(1.7763568394E-15,263.,30.));
#633 = DIRECTION('',(1.,0.,0.));
#634 = DIRECTION('',(0.,1.,0.));
#635 = FACE_BOUND('',#636,.T.);
#636 = EDGE_LOOP('',(#637,#648,#656,#665,#673,#682,#690,#699));
#637 = ORIENTED_EDGE('',*,*,#638,.T.);
#638 = EDGE_CURVE('',#639,#641,#643,.T.);
#639 = VERTEX_POINT('',#640);
#640 = CARTESIAN_POINT('',(2.E-15,164.5,26.5));
#641 = VERTEX_POINT('',#642);
#642 = CARTESIAN_POINT('',(2.E-15,179.5,11.5));
#643 = CIRCLE('',#644,15.);
#644 = AXIS2_PLACEMENT_3D('',#645,#646,#647);
#645 = CARTESIAN_POINT('',(1.7763568394E-15,179.5,26.5));
#646 = DIRECTION('',(1.,0.,0.));
#647 = DIRECTION('',(0.,1.,0.));
#648 = ORIENTED_EDGE('',*,*,#649,.T.);
#649 = EDGE_CURVE('',#641,#650,#652,.T.);
#650 = VERTEX_POINT('',#651);
#651 = CARTESIAN_POINT('',(2.E-15,196.5,11.5));
#652 = LINE('',#653,#654);
#653 = CARTESIAN_POINT('',(1.7763568394E-15,179.5,11.5));
#654 = VECTOR('',#655,1.);
#655 = DIRECTION('',(0.,1.,0.));
#656 = ORIENTED_EDGE('',*,*,#657,.T.);
#657 = EDGE_CURVE('',#650,#658,#660,.T.);
#658 = VERTEX_POINT('',#659);
#659 = CARTESIAN_POINT('',(2.E-15,211.5,26.5));
#660 = CIRCLE('',#661,15.);
#661 = AXIS2_PLACEMENT_3D('',#662,#663,#664);
#662 = CARTESIAN_POINT('',(1.7763568394E-15,196.5,26.5));
#663 = DIRECTION('',(1.,0.,0.));
#664 = DIRECTION('',(0.,1.,0.));
#665 = ORIENTED_EDGE('',*,*,#666,.T.);
#666 = EDGE_CURVE('',#658,#667,#669,.T.);
#667 = VERTEX_POINT('',#668);
#668 = CARTESIAN_POINT('',(2.E-15,211.5,33.5));
#669 = LINE('',#670,#671);
#670 = CARTESIAN_POINT('',(1.7763568394E-15,211.5,26.5));
#671 = VECTOR('',#672,1.);
#672 = DIRECTION('',(0.,0.,1.));
#673 = ORIENTED_EDGE('',*,*,#674,.T.);
#674 = EDGE_CURVE('',#667,#675,#677,.T.);
#675 = VERTEX_POINT('',#676);
#676 = CARTESIAN_POINT('',(2.E-15,196.5,48.5));
#677 = CIRCLE('',#678,15.);
#678 = AXIS2_PLACEMENT_3D('',#679,#680,#681);
#679 = CARTESIAN_POINT('',(1.7763568394E-15,196.5,33.5));
#680 = DIRECTION('',(1.,0.,0.));
#681 = DIRECTION('',(0.,1.,0.));
#682 = ORIENTED_EDGE('',*,*,#683,.T.);
#683 = EDGE_CURVE('',#675,#684,#686,.T.);
#684 = VERTEX_POINT('',#685);
#685 = CARTESIAN_POINT('',(2.E-15,179.5,48.5));
#686 = LINE('',#687,#688);
#687 = CARTESIAN_POINT('',(1.7763568394E-15,196.5,48.5));
#688 = VECTOR('',#689,1.);
#689 = DIRECTION('',(0.,-1.,0.));
#690 = ORIENTED_EDGE('',*,*,#691,.T.);
#691 = EDGE_CURVE('',#684,#692,#694,.T.);
#692 = VERTEX_POINT('',#693);
#693 = CARTESIAN_POINT('',(2.E-15,164.5,33.5));
#694 = CIRCLE('',#695,15.);
#695 = AXIS2_PLACEMENT_3D('',#696,#697,#698);
#696 = CARTESIAN_POINT('',(1.7763568394E-15,179.5,33.5));
#697 = DIRECTION('',(1.,0.,0.));
#698 = DIRECTION('',(0.,1.,0.));
#699 = ORIENTED_EDGE('',*,*,#700,.T.);
#700 = EDGE_CURVE('',#692,#639,#701,.T.);
#701 = LINE('',#702,#703);
#702 = CARTESIAN_POINT('',(1.7763568394E-15,164.5,33.5));
#703 = VECTOR('',#704,1.);
#704 = DIRECTION('',(0.,0.,-1.));
#705 = PLANE('',#706);
#706 = AXIS2_PLACEMENT_3D('',#707,#708,#709);
#707 = CARTESIAN_POINT('',(0.,218.,30.));
#708 = DIRECTION('',(-1.,-0.,-0.));
#709 = DIRECTION('',(0.,0.,-1.));
#710 = ADVANCED_FACE('',(#711,#737,#748),#818,.T.);
#711 = FACE_BOUND('',#712,.T.);
#712 = EDGE_LOOP('',(#713,#722,#729,#730,#736));
#713 = ORIENTED_EDGE('',*,*,#714,.T.);
#714 = EDGE_CURVE('',#245,#715,#717,.T.);
#715 = VERTEX_POINT('',#716);
#716 = CARTESIAN_POINT('',(12.,293.,29.999999957352));
#717 = CIRCLE('',#718,30.);
#718 = AXIS2_PLACEMENT_3D('',#719,#720,#721);
#719 = CARTESIAN_POINT('',(12.,263.,30.));
#720 = DIRECTION('',(1.,0.,0.));
#721 = DIRECTION('',(0.,1.,0.));
#722 = ORIENTED_EDGE('',*,*,#723,.T.);
#723 = EDGE_CURVE('',#715,#326,#724,.T.);
#724 = CIRCLE('',#725,30.);
#725 = AXIS2_PLACEMENT_3D('',#726,#727,#728);
#726 = CARTESIAN_POINT('',(12.,263.,30.));
#727 = DIRECTION('',(1.,0.,0.));
#728 = DIRECTION('',(0.,1.,0.));
#729 = ORIENTED_EDGE('',*,*,#325,.F.);
#730 = ORIENTED_EDGE('',*,*,#731,.F.);
#731 = EDGE_CURVE('',#237,#318,#732,.T.);
#732 = LINE('',#733,#734);
#733 = CARTESIAN_POINT('',(12.,153.,0.));
#734 = VECTOR('',#735,1.);
#735 = DIRECTION('',(0.,0.,1.));
#736 = ORIENTED_EDGE('',*,*,#244,.T.);
#737 = FACE_BOUND('',#738,.T.);
#738 = EDGE_LOOP('',(#739));
#739 = ORIENTED_EDGE('',*,*,#740,.F.);
#740 = EDGE_CURVE('',#741,#741,#743,.T.);
#741 = VERTEX_POINT('',#742);
#742 = CARTESIAN_POINT('',(12.,286.5,30.));
#743 = CIRCLE('',#744,23.5);
#744 = AXIS2_PLACEMENT_3D('',#745,#746,#747);
#745 = CARTESIAN_POINT('',(12.,263.,30.));
#746 = DIRECTION('',(1.,0.,0.));
#747 = DIRECTION('',(0.,1.,0.));
#748 = FACE_BOUND('',#749,.T.);
#749 = EDGE_LOOP('',(#750,#760,#769,#777,#786,#794,#803,#811));
#750 = ORIENTED_EDGE('',*,*,#751,.F.);
#751 = EDGE_CURVE('',#752,#754,#756,.T.);
#752 = VERTEX_POINT('',#753);
#753 = CARTESIAN_POINT('',(12.,179.5,11.5));
#754 = VERTEX_POINT('',#755);
#755 = CARTESIAN_POINT('',(12.,196.5,11.5));
#756 = LINE('',#757,#758);
#757 = CARTESIAN_POINT('',(12.,179.5,11.5));
#758 = VECTOR('',#759,1.);
#759 = DIRECTION('',(0.,1.,0.));
#760 = ORIENTED_EDGE('',*,*,#761,.F.);
#761 = EDGE_CURVE('',#762,#752,#764,.T.);
#762 = VERTEX_POINT('',#763);
#763 = CARTESIAN_POINT('',(12.,164.5,26.5));
#764 = CIRCLE('',#765,15.);
#765 = AXIS2_PLACEMENT_3D('',#766,#767,#768);
#766 = CARTESIAN_POINT('',(12.,179.5,26.5));
#767 = DIRECTION('',(1.,0.,0.));
#768 = DIRECTION('',(0.,1.,0.));
#769 = ORIENTED_EDGE('',*,*,#770,.F.);
#770 = EDGE_CURVE('',#771,#762,#773,.T.);
#771 = VERTEX_POINT('',#772);
#772 = CARTESIAN_POINT('',(12.,164.5,33.5));
#773 = LINE('',#774,#775);
#774 = CARTESIAN_POINT('',(12.,164.5,33.5));
#775 = VECTOR('',#776,1.);
#776 = DIRECTION('',(0.,0.,-1.));
#777 = ORIENTED_EDGE('',*,*,#778,.F.);
#778 = EDGE_CURVE('',#779,#771,#781,.T.);
#779 = VERTEX_POINT('',#780);
#780 = CARTESIAN_POINT('',(12.,179.5,48.5));
#781 = CIRCLE('',#782,15.);
#782 = AXIS2_PLACEMENT_3D('',#783,#784,#785);
#783 = CARTESIAN_POINT('',(12.,179.5,33.5));
#784 = DIRECTION('',(1.,0.,0.));
#785 = DIRECTION('',(0.,1.,0.));
#786 = ORIENTED_EDGE('',*,*,#787,.F.);
#787 = EDGE_CURVE('',#788,#779,#790,.T.);
#788 = VERTEX_POINT('',#789);
#789 = CARTESIAN_POINT('',(12.,196.5,48.5));
#790 = LINE('',#791,#792);
#791 = CARTESIAN_POINT('',(12.,196.5,48.5));
#792 = VECTOR('',#793,1.);
#793 = DIRECTION('',(0.,-1.,0.));
#794 = ORIENTED_EDGE('',*,*,#795,.F.);
#795 = EDGE_CURVE('',#796,#788,#798,.T.);
#796 = VERTEX_POINT('',#797);
#797 = CARTESIAN_POINT('',(12.,211.5,33.5));
#798 = CIRCLE('',#799,15.);
#799 = AXIS2_PLACEMENT_3D('',#800,#801,#802);
#800 = CARTESIAN_POINT('',(12.,196.5,33.5));
#801 = DIRECTION('',(1.,0.,0.));
#802 = DIRECTION('',(0.,1.,0.));
#803 = ORIENTED_EDGE('',*,*,#804,.F.);
#804 = EDGE_CURVE('',#805,#796,#807,.T.);
#805 = VERTEX_POINT('',#806);
#806 = CARTESIAN_POINT('',(12.,211.5,26.5));
#807 = LINE('',#808,#809);
#808 = CARTESIAN_POINT('',(12.,211.5,26.5));
#809 = VECTOR('',#810,1.);
#810 = DIRECTION('',(0.,0.,1.));
#811 = ORIENTED_EDGE('',*,*,#812,.F.);
#812 = EDGE_CURVE('',#754,#805,#813,.T.);
#813 = CIRCLE('',#814,15.);
#814 = AXIS2_PLACEMENT_3D('',#815,#816,#817);
#815 = CARTESIAN_POINT('',(12.,196.5,26.5));
#816 = DIRECTION('',(1.,0.,0.));
#817 = DIRECTION('',(0.,1.,0.));
#818 = PLANE('',#819);
#819 = AXIS2_PLACEMENT_3D('',#820,#821,#822);
#820 = CARTESIAN_POINT('',(12.,223.,30.));
#821 = DIRECTION('',(1.,0.,0.));
#822 = DIRECTION('',(0.,0.,1.));
#823 = ADVANCED_FACE('',(#824),#835,.F.);
#824 = FACE_BOUND('',#825,.F.);
#825 = EDGE_LOOP('',(#826,#832,#833,#834));
#826 = ORIENTED_EDGE('',*,*,#827,.T.);
#827 = EDGE_CURVE('',#229,#310,#828,.T.);
#828 = LINE('',#829,#830);
#829 = CARTESIAN_POINT('',(76.,153.,0.));
#830 = VECTOR('',#831,1.);
#831 = DIRECTION('',(0.,0.,1.));
#832 = ORIENTED_EDGE('',*,*,#317,.T.);
#833 = ORIENTED_EDGE('',*,*,#731,.F.);
#834 = ORIENTED_EDGE('',*,*,#236,.F.);
#835 = PLANE('',#836);
#836 = AXIS2_PLACEMENT_3D('',#837,#838,#839);
#837 = CARTESIAN_POINT('',(76.,153.,0.));
#838 = DIRECTION('',(0.,-1.,0.));
#839 = DIRECTION('',(-1.,0.,0.));
#840 = ADVANCED_FACE('',(#841,#852),#862,.T.);
#841 = FACE_BOUND('',#842,.T.);
#842 = EDGE_LOOP('',(#843,#844,#845,#851));
#843 = ORIENTED_EDGE('',*,*,#827,.T.);
#844 = ORIENTED_EDGE('',*,*,#309,.F.);
#845 = ORIENTED_EDGE('',*,*,#846,.F.);
#846 = EDGE_CURVE('',#221,#302,#847,.T.);
#847 = LINE('',#848,#849);
#848 = CARTESIAN_POINT('',(76.,68.,0.));
#849 = VECTOR('',#850,1.);
#850 = DIRECTION('',(0.,0.,1.));
#851 = ORIENTED_EDGE('',*,*,#228,.T.);
#852 = FACE_BOUND('',#853,.T.);
#853 = EDGE_LOOP('',(#854,#855,#856,#857,#858,#859,#860,#861));
#854 = ORIENTED_EDGE('',*,*,#592,.F.);
#855 = ORIENTED_EDGE('',*,*,#427,.F.);
#856 = ORIENTED_EDGE('',*,*,#452,.F.);
#857 = ORIENTED_EDGE('',*,*,#476,.F.);
#858 = ORIENTED_EDGE('',*,*,#501,.F.);
#859 = ORIENTED_EDGE('',*,*,#525,.F.);
#860 = ORIENTED_EDGE('',*,*,#550,.F.);
#861 = ORIENTED_EDGE('',*,*,#574,.F.);
#862 = PLANE('',#863);
#863 = AXIS2_PLACEMENT_3D('',#864,#865,#866);
#864 = CARTESIAN_POINT('',(76.,110.5,30.));
#865 = DIRECTION('',(1.,0.,0.));
#866 = DIRECTION('',(0.,0.,1.));
#867 = ADVANCED_FACE('',(#868),#879,.F.);
#868 = FACE_BOUND('',#869,.F.);
#869 = EDGE_LOOP('',(#870,#876,#877,#878));
#870 = ORIENTED_EDGE('',*,*,#871,.T.);
#871 = EDGE_CURVE('',#213,#294,#872,.T.);
#872 = LINE('',#873,#874);
#873 = CARTESIAN_POINT('',(12.,68.,0.));
#874 = VECTOR('',#875,1.);
#875 = DIRECTION('',(0.,0.,1.));
#876 = ORIENTED_EDGE('',*,*,#301,.T.);
#877 = ORIENTED_EDGE('',*,*,#846,.F.);
#878 = ORIENTED_EDGE('',*,*,#220,.F.);
#879 = PLANE('',#880);
#880 = AXIS2_PLACEMENT_3D('',#881,#882,#883);
#881 = CARTESIAN_POINT('',(12.,68.,0.));
#882 = DIRECTION('',(0.,1.,0.));
#883 = DIRECTION('',(1.,0.,0.));
#884 = ADVANCED_FACE('',(#885),#892,.F.);
#885 = FACE_BOUND('',#886,.F.);
#886 = EDGE_LOOP('',(#887,#888,#889,#890,#891));
#887 = ORIENTED_EDGE('',*,*,#378,.T.);
#888 = ORIENTED_EDGE('',*,*,#365,.T.);
#889 = ORIENTED_EDGE('',*,*,#293,.T.);
#890 = ORIENTED_EDGE('',*,*,#871,.F.);
#891 = ORIENTED_EDGE('',*,*,#212,.F.);
#892 = PLANE('',#893);
#893 = AXIS2_PLACEMENT_3D('',#894,#895,#896);
#894 = CARTESIAN_POINT('',(12.,0.,0.));
#895 = DIRECTION('',(-1.,0.,0.));
#896 = DIRECTION('',(0.,1.,0.));
#897 = ADVANCED_FACE('',(#898),#909,.F.);
#898 = FACE_BOUND('',#899,.F.);
#899 = EDGE_LOOP('',(#900,#906,#907,#908));
#900 = ORIENTED_EDGE('',*,*,#901,.T.);
#901 = EDGE_CURVE('',#741,#628,#902,.T.);
#902 = LINE('',#903,#904);
#903 = CARTESIAN_POINT('',(12.,286.5,30.));
#904 = VECTOR('',#905,1.);
#905 = DIRECTION('',(-1.,-0.,-0.));
#906 = ORIENTED_EDGE('',*,*,#627,.T.);
#907 = ORIENTED_EDGE('',*,*,#901,.F.);
#908 = ORIENTED_EDGE('',*,*,#740,.F.);
#909 = CYLINDRICAL_SURFACE('',#910,23.5);
#910 = AXIS2_PLACEMENT_3D('',#911,#912,#913);
#911 = CARTESIAN_POINT('',(12.,263.,30.));
#912 = DIRECTION('',(1.,0.,0.));
#913 = DIRECTION('',(-0.,1.,0.));
#914 = ADVANCED_FACE('',(#915),#931,.F.);
#915 = FACE_BOUND('',#916,.F.);
#916 = EDGE_LOOP('',(#917,#923,#924,#930));
#917 = ORIENTED_EDGE('',*,*,#918,.T.);
#918 = EDGE_CURVE('',#762,#639,#919,.T.);
#919 = LINE('',#920,#921);
#920 = CARTESIAN_POINT('',(12.,164.5,26.5));
#921 = VECTOR('',#922,1.);
#922 = DIRECTION('',(-1.,-0.,-0.));
#923 = ORIENTED_EDGE('',*,*,#638,.T.);
#924 = ORIENTED_EDGE('',*,*,#925,.F.);
#925 = EDGE_CURVE('',#752,#641,#926,.T.);
#926 = LINE('',#927,#928);
#927 = CARTESIAN_POINT('',(12.,179.5,11.5));
#928 = VECTOR('',#929,1.);
#929 = DIRECTION('',(-1.,-0.,-0.));
#930 = ORIENTED_EDGE('',*,*,#761,.F.);
#931 = CYLINDRICAL_SURFACE('',#932,15.);
#932 = AXIS2_PLACEMENT_3D('',#933,#934,#935);
#933 = CARTESIAN_POINT('',(12.,179.5,26.5));
#934 = DIRECTION('',(1.,0.,0.));
#935 = DIRECTION('',(-0.,1.,0.));
#936 = ADVANCED_FACE('',(#937),#948,.F.);
#937 = FACE_BOUND('',#938,.F.);
#938 = EDGE_LOOP('',(#939,#945,#946,#947));
#939 = ORIENTED_EDGE('',*,*,#940,.T.);
#940 = EDGE_CURVE('',#771,#692,#941,.T.);
#941 = LINE('',#942,#943);
#942 = CARTESIAN_POINT('',(12.,164.5,33.5));
#943 = VECTOR('',#944,1.);
#944 = DIRECTION('',(-1.,-0.,-0.));
#945 = ORIENTED_EDGE('',*,*,#700,.T.);
#946 = ORIENTED_EDGE('',*,*,#918,.F.);
#947 = ORIENTED_EDGE('',*,*,#770,.F.);
#948 = PLANE('',#949);
#949 = AXIS2_PLACEMENT_3D('',#950,#951,#952);
#950 = CARTESIAN_POINT('',(12.,164.5,33.5));
#951 = DIRECTION('',(0.,-1.,0.));
#952 = DIRECTION('',(0.,0.,-1.));
#953 = ADVANCED_FACE('',(#954),#965,.F.);
#954 = FACE_BOUND('',#955,.F.);
#955 = EDGE_LOOP('',(#956,#962,#963,#964));
#956 = ORIENTED_EDGE('',*,*,#957,.T.);
#957 = EDGE_CURVE('',#779,#684,#958,.T.);
#958 = LINE('',#959,#960);
#959 = CARTESIAN_POINT('',(12.,179.5,48.5));
#960 = VECTOR('',#961,1.);
#961 = DIRECTION('',(-1.,-0.,-0.));
#962 = ORIENTED_EDGE('',*,*,#691,.T.);
#963 = ORIENTED_EDGE('',*,*,#940,.F.);
#964 = ORIENTED_EDGE('',*,*,#778,.F.);
#965 = CYLINDRICAL_SURFACE('',#966,15.);
#966 = AXIS2_PLACEMENT_3D('',#967,#968,#969);
#967 = CARTESIAN_POINT('',(12.,179.5,33.5));
#968 = DIRECTION('',(1.,0.,0.));
#969 = DIRECTION('',(-0.,1.,0.));
#970 = ADVANCED_FACE('',(#971),#982,.F.);
#971 = FACE_BOUND('',#972,.F.);
#972 = EDGE_LOOP('',(#973,#979,#980,#981));
#973 = ORIENTED_EDGE('',*,*,#974,.T.);
#974 = EDGE_CURVE('',#788,#675,#975,.T.);
#975 = LINE('',#976,#977);
#976 = CARTESIAN_POINT('',(12.,196.5,48.5));
#977 = VECTOR('',#978,1.);
#978 = DIRECTION('',(-1.,-0.,-0.));
#979 = ORIENTED_EDGE('',*,*,#683,.T.);
#980 = ORIENTED_EDGE('',*,*,#957,.F.);
#981 = ORIENTED_EDGE('',*,*,#787,.F.);
#982 = PLANE('',#983);
#983 = AXIS2_PLACEMENT_3D('',#984,#985,#986);
#984 = CARTESIAN_POINT('',(12.,196.5,48.5));
#985 = DIRECTION('',(0.,0.,1.));
#986 = DIRECTION('',(0.,-1.,0.));
#987 = ADVANCED_FACE('',(#988),#999,.F.);
#988 = FACE_BOUND('',#989,.F.);
#989 = EDGE_LOOP('',(#990,#996,#997,#998));
#990 = ORIENTED_EDGE('',*,*,#991,.T.);
#991 = EDGE_CURVE('',#796,#667,#992,.T.);
#992 = LINE('',#993,#994);
#993 = CARTESIAN_POINT('',(12.,211.5,33.5));
#994 = VECTOR('',#995,1.);
#995 = DIRECTION('',(-1.,-0.,-0.));
#996 = ORIENTED_EDGE('',*,*,#674,.T.);
#997 = ORIENTED_EDGE('',*,*,#974,.F.);
#998 = ORIENTED_EDGE('',*,*,#795,.F.);
#999 = CYLINDRICAL_SURFACE('',#1000,15.);
#1000 = AXIS2_PLACEMENT_3D('',#1001,#1002,#1003);
#1001 = CARTESIAN_POINT('',(12.,196.5,33.5));
#1002 = DIRECTION('',(1.,0.,0.));
#1003 = DIRECTION('',(-0.,1.,0.));
#1004 = ADVANCED_FACE('',(#1005),#1016,.F.);
#1005 = FACE_BOUND('',#1006,.F.);
#1006 = EDGE_LOOP('',(#1007,#1013,#1014,#1015));
#1007 = ORIENTED_EDGE('',*,*,#1008,.T.);
#1008 = EDGE_CURVE('',#805,#658,#1009,.T.);
#1009 = LINE('',#1010,#1011);
#1010 = CARTESIAN_POINT('',(12.,211.5,26.5));
#1011 = VECTOR('',#1012,1.);
#1012 = DIRECTION('',(-1.,-0.,-0.));
#1013 = ORIENTED_EDGE('',*,*,#666,.T.);
#1014 = ORIENTED_EDGE('',*,*,#991,.F.);
#1015 = ORIENTED_EDGE('',*,*,#804,.F.);
#1016 = PLANE('',#1017);
#1017 = AXIS2_PLACEMENT_3D('',#1018,#1019,#1020);
#1018 = CARTESIAN_POINT('',(12.,211.5,26.5));
#1019 = DIRECTION('',(0.,1.,0.));
#1020 = DIRECTION('',(0.,-0.,1.));
#1021 = ADVANCED_FACE('',(#1022),#1033,.F.);
#1022 = FACE_BOUND('',#1023,.F.);
#1023 = EDGE_LOOP('',(#1024,#1030,#1031,#1032));
#1024 = ORIENTED_EDGE('',*,*,#1025,.T.);
#1025 = EDGE_CURVE('',#754,#650,#1026,.T.);
#1026 = LINE('',#1027,#1028);
#1027 = CARTESIAN_POINT('',(12.,196.5,11.5));
#1028 = VECTOR('',#1029,1.);
#1029 = DIRECTION('',(-1.,-0.,-0.));
#1030 = ORIENTED_EDGE('',*,*,#657,.T.);
#1031 = ORIENTED_EDGE('',*,*,#1008,.F.);
#1032 = ORIENTED_EDGE('',*,*,#812,.F.);
#1033 = CYLINDRICAL_SURFACE('',#1034,15.);
#1034 = AXIS2_PLACEMENT_3D('',#1035,#1036,#1037);
#1035 = CARTESIAN_POINT('',(12.,196.5,26.5));
#1036 = DIRECTION('',(1.,0.,0.));
#1037 = DIRECTION('',(-0.,1.,0.));
#1038 = ADVANCED_FACE('',(#1039),#1045,.F.);
#1039 = FACE_BOUND('',#1040,.F.);
#1040 = EDGE_LOOP('',(#1041,#1042,#1043,#1044));
#1041 = ORIENTED_EDGE('',*,*,#925,.T.);
#1042 = ORIENTED_EDGE('',*,*,#649,.T.);
#1043 = ORIENTED_EDGE('',*,*,#1025,.F.);
#1044 = ORIENTED_EDGE('',*,*,#751,.F.);
#1045 = PLANE('',#1046);
#1046 = AXIS2_PLACEMENT_3D('',#1047,#1048,#1049);
#1047 = CARTESIAN_POINT('',(12.,179.5,11.5));
#1048 = DIRECTION('',(0.,0.,-1.));
#1049 = DIRECTION('',(0.,1.,0.));
#1050 = ADVANCED_FACE('',(#1051),#1059,.T.);
#1051 = FACE_BOUND('',#1052,.T.);
#1052 = EDGE_LOOP('',(#1053,#1054,#1055,#1056,#1057,#1058));
#1053 = ORIENTED_EDGE('',*,*,#609,.T.);
#1054 = ORIENTED_EDGE('',*,*,#333,.F.);
#1055 = ORIENTED_EDGE('',*,*,#723,.F.);
#1056 = ORIENTED_EDGE('',*,*,#714,.F.);
#1057 = ORIENTED_EDGE('',*,*,#252,.T.);
#1058 = ORIENTED_EDGE('',*,*,#618,.T.);
#1059 = CYLINDRICAL_SURFACE('',#1060,30.);
#1060 = AXIS2_PLACEMENT_3D('',#1061,#1062,#1063);
#1061 = CARTESIAN_POINT('',(12.,263.,30.));
#1062 = DIRECTION('',(1.,0.,0.));
#1063 = DIRECTION('',(-0.,1.,0.));
#1064 = ( GEOMETRIC_REPRESENTATION_CONTEXT(3) 
GLOBAL_UNCERTAINTY_ASSIGNED_CONTEXT((#1068)) 
GLOBAL_UNIT_ASSIGNED_CONTEXT((#1065,#1066,#1067)) REPRESENTATION_CONTEXT
('Context #1','3D Context with UNIT and UNCERTAINTY') );
#1065 = ( LENGTH_UNIT() NAMED_UNIT(*) SI_UNIT($,.METRE.) );
#1066 = ( NAMED_UNIT(*) PLANE_ANGLE_UNIT() SI_UNIT($,.RADIAN.) );
#1067 = ( NAMED_UNIT(*) SI_UNIT($,.STERADIAN.) SOLID_ANGLE_UNIT() );
#1068 = UNCERTAINTY_MEASURE_WITH_UNIT(LENGTH_MEASURE(1.E-07),#1065,
  'distance_accuracy_value','confusion accuracy');
#1069 = PRODUCT_RELATED_PRODUCT_CATEGORY('part',$,(#7));
#1070 = MECHANICAL_DESIGN_GEOMETRIC_PRESENTATION_REPRESENTATION('',(
    #1071),#1064);
#1071 = STYLED_ITEM('color',(#1072),#15);
#1072 = PRESENTATION_STYLE_ASSIGNMENT((#1073,#1081));
#1073 = SURFACE_STYLE_USAGE(.BOTH.,#1074);
#1074 = SURFACE_SIDE_STYLE('',(#1075,#1079));
#1075 = SURFACE_STYLE_FILL_AREA(#1076);
#1076 = FILL_AREA_STYLE('',(#1077));
#1077 = FILL_AREA_STYLE_COLOUR('',#1078);
#1078 = COLOUR_RGB('',0.447058818107,0.474509808674,0.501960817233);
#1079 = SURFACE_STYLE_RENDERING_WITH_PROPERTIES(.NORMAL_SHADING.,#1078,(
    #1080));
#1080 = SURFACE_STYLE_TRANSPARENT(0.699999988079);
#1081 = CURVE_STYLE('',#1082,POSITIVE_LENGTH_MEASURE(0.1),#1083);
#1082 = DRAUGHTING_PRE_DEFINED_CURVE_FONT('continuous');
#1083 = COLOUR_RGB('',9.803921802644E-02,9.803921802644E-02,
  9.803921802644E-02);
ENDSEC;
END-ISO-10303-21;
